<svg width="3830" height="2863" viewBox="0 0 3830 2863" fill="none" xmlns="http://www.w3.org/2000/svg">
<path fill-rule="evenodd" clip-rule="evenodd" d="M1307.42 1561.73C1384.95 1417.67 1537.93 1392.11 1676.11 1337.98L1924.43 1456.55L2128.45 1324.13C2217.44 1365.67 2353.57 1421.47 2431.02 1473.11C2477.45 1510.3 2535.68 1619.91 2566.42 1768.9C2614.15 2000.18 2336.69 1945.94 2333.06 1957.33C2272.73 2147.03 2265.38 2490.37 2265.38 2855.56C2147.91 2848.22 1791.81 2822.52 1633.95 2833.53C1624.07 2758.65 1569.17 2031.63 1545.84 1989.17C1545.81 1989.12 1534.82 1974.48 1523.81 2018.53C1512.8 2055.25 1227.05 2008.05 1240.34 1880.47C1248.32 1803.9 1268.83 1633.4 1307.42 1561.73Z" fill="#1E3E9D"/>
<path d="M2076.01 1222.29L2075.97 1222.11C2082.69 1221.47 2088.69 1220.84 2093.31 1220.1C2093.33 1220.11 2093.35 1220.12 2093.36 1220.12C2089.16 1220.81 2083.34 1221.56 2076.01 1222.29Z" fill="#4B4C47"/>
<path d="M2160.92 1768.59L2281.54 1771.39L2281.78 1703.84L2163.85 1699.99L2160.92 1768.59ZM2293.38 1795.42H2293.11L2148.27 1792.06C2145.08 1791.99 2142.05 1790.64 2139.87 1788.31C2137.69 1785.98 2136.54 1782.87 2136.67 1779.68L2140.61 1687.23C2140.89 1680.73 2146.3 1675.68 2152.87 1675.86L2294.08 1680.48C2300.51 1680.68 2305.59 1685.96 2305.57 1692.38L2305.25 1783.58C2305.24 1786.77 2303.95 1789.83 2301.66 1792.05C2299.44 1794.21 2296.47 1795.42 2293.38 1795.42Z" fill="#989A9A"/>
<path d="M1586.05 1721.56L1596.63 1789.2L1725.76 1775.49L1712.86 1707.58L1586.05 1721.56ZM1586.63 1814.08C1580.85 1814.08 1575.82 1809.87 1574.91 1804.04L1560.66 1712.96C1560.16 1709.75 1560.99 1706.48 1562.96 1703.91C1564.93 1701.33 1567.86 1699.67 1571.09 1699.32L1721.18 1682.76C1727.25 1682.06 1732.99 1686.26 1734.15 1692.35L1751.5 1783.73C1752.11 1786.98 1751.34 1790.35 1749.36 1793.02C1747.38 1795.68 1744.38 1797.4 1741.08 1797.75L1587.9 1814.01L1586.63 1814.08Z" fill="#989A9A"/>
<path fill-rule="evenodd" clip-rule="evenodd" d="M2156.3 1933.03L1762.74 1943.76L1777.33 2209.65L1976.48 2317.04L2153.74 2203.27L2156.3 1933.03Z" fill="#F28713"/>
<path fill-rule="evenodd" clip-rule="evenodd" d="M1538.41 1751.78C1589.81 1910.69 1543.27 2214.97 1519.33 2373.46C1414.51 2345.43 1376.36 2334.16 1229.46 2382.72C1227.71 2180.64 1221.81 1973.33 1257.24 1746.01C1333.29 1700.04 1456.25 1706.25 1538.41 1751.78Z" fill="#1E3E9D"/>
<path fill-rule="evenodd" clip-rule="evenodd" d="M1551.89 2124.89C1491.7 2112.82 1429.22 2096.04 1367.64 2076.33C1321 2061.4 1274.99 2044.83 1230.93 2027.37C1229.83 2055.21 1229.1 2082.82 1228.65 2110.23C1266.13 2124.55 1304.69 2138.15 1343.61 2150.61C1410.08 2171.89 1477.8 2189.92 1543.31 2202.72C1546.4 2177.43 1549.32 2151.34 1551.89 2124.89ZM1561.63 1948.03C1561.57 1974.06 1560.74 2000.72 1559.31 2027.6C1508.05 2015.95 1455.93 2001.45 1404.56 1985C1347.12 1966.61 1290.45 1945.74 1236.87 1923.7C1238.93 1896.83 1241.43 1869.7 1244.45 1842.3C1302.42 1866.9 1364.92 1890.34 1428.6 1910.73C1472.88 1924.9 1517.61 1937.55 1561.63 1948.03Z" fill="#FAFAFA"/>
<path fill-rule="evenodd" clip-rule="evenodd" d="M2528.84 1633.77C2606.78 1831.31 2656.77 2153.78 2647.96 2326.37C2646.69 2351.39 2637.26 2399.5 2632.88 2421.4C2579.66 2437.82 2477.32 2446.04 2364.48 2462.18C2345.04 2354.12 2330.87 2291.1 2320.99 2140.32C2313.78 2030.26 2311.32 1925.44 2312.34 1826.55C2312.46 1814.73 2312.63 1802.99 2312.85 1791.35C2383.63 1737.6 2458.06 1687.52 2528.84 1633.77Z" fill="#1E3E9D"/>
<path fill-rule="evenodd" clip-rule="evenodd" d="M2623.85 2007.31C2565.5 2032.11 2502.5 2055.77 2438.32 2076.32C2398.69 2089 2358.67 2100.47 2319.15 2110.26C2319.72 2120.21 2320.35 2130.21 2321 2140.26C2322.15 2157.7 2323.34 2173.95 2324.6 2189.24C2370.36 2178.33 2416.66 2165.23 2462.35 2150.6C2521.63 2131.62 2580.08 2110.01 2635.17 2087.19C2631.93 2061 2628.14 2034.25 2623.85 2007.31ZM2588.86 1830.46C2594.97 1855.96 2600.69 1881.96 2605.98 1908.13C2541.84 1935.89 2472.21 1962.33 2401.39 1985C2372.59 1994.21 2343.54 2002.83 2314.55 2010.67C2313.62 1983.48 2312.97 1956.67 2312.58 1930.23C2334.19 1924.13 2355.83 1917.6 2377.37 1910.71C2451.18 1887.08 2523.45 1859.34 2588.86 1830.46Z" fill="#FAFAFA"/>
<path d="M1975.46 2104.88C1974 2104.88 1972.55 2104.63 1971.17 2104.14L1818.1 2050.05C1811.39 2047.68 1807.88 2040.32 1810.25 2033.62C1812.62 2026.91 1819.96 2023.39 1826.68 2025.77L1975.16 2078.24L2112.56 2022.88C2119.15 2020.22 2126.65 2023.42 2129.31 2030.01C2131.97 2036.61 2128.78 2044.11 2122.18 2046.77L1980.27 2103.95C1978.72 2104.57 1977.09 2104.88 1975.46 2104.88Z" fill="#6E7D85"/>
<path d="M1944.98 1796.46C1941.95 1796.46 1939.41 1794.1 1939.23 1791.04L1927.79 1595.83C1927.61 1592.65 1930.03 1589.93 1933.21 1589.74C1936.37 1589.44 1939.11 1591.97 1939.3 1595.16L1950.74 1790.36C1950.93 1793.54 1948.5 1796.27 1945.32 1796.45L1944.98 1796.46Z" fill="#898F7F"/>
<path fill-rule="evenodd" clip-rule="evenodd" d="M2337.17 1417.8C2287.45 1377.15 2196.48 1335.33 2130.05 1315.89C2077.03 1482.03 1947.72 1534.63 1924.46 1542.81C1945.08 1947.44 1983.19 2508.93 1987.2 2793.22C2073.06 2794.77 2205.6 2773.06 2328.18 2740.45C2333.42 2418.77 2386.64 1726.68 2337.17 1417.8ZM1660.79 1319.76C1685.12 1406.04 1802.67 1512.08 1911.75 1542.4C1943.77 1960.52 1949.4 2445.62 1953.99 2789.43C1852.71 2805.47 1563.11 2780.74 1507.41 2742.66C1503.83 2177.91 1464.52 1947.71 1452.29 1423.91C1512.38 1375.24 1569.48 1345.73 1660.79 1319.76Z" fill="#F46F18"/>
<path fill-rule="evenodd" clip-rule="evenodd" d="M2321.71 2815.72C2234.86 2836.44 2115.07 2851.63 1987.93 2856.35C1987.41 2830.46 1986.86 2803.89 1986.31 2778.3C2119.6 2773.31 2243.48 2756.47 2325.74 2733.93C2324.41 2760.8 2323.03 2788.72 2321.71 2815.72ZM1954.11 2779.27L1955.32 2857.33C1928.25 2857.94 1900.94 2858.07 1873.64 2857.66C1743.98 2855.74 1613.8 2841.82 1508.25 2810.97C1507.76 2783.78 1507.24 2755.74 1506.73 2728.63C1607.99 2762.57 1741.07 2777.61 1874.56 2779.59C1901.18 2779.99 1927.77 2779.87 1954.11 2779.27Z" fill="#FAFAFA"/>
<path fill-rule="evenodd" clip-rule="evenodd" d="M2234.21 1363.19C2208.91 1349.9 2178.25 1338.86 2149.2 1328.35L2149.56 1336.77C2160.25 1585.16 2177.07 1987.82 2157.96 2565.02C2118.37 2571.25 2009.28 2575.36 1984.85 2575.68L1987.11 2660.1C2089.47 2662.8 2231.16 2647.99 2331.99 2619.85L2335.21 2532.23C2311.69 2540.45 2275.93 2546.7 2242.69 2552.86C2260.18 2009.67 2244.81 1612.23 2234.21 1363.19Z" fill="#FAFAFA"/>
<path fill-rule="evenodd" clip-rule="evenodd" d="M1924.18 2576.92C1871.15 2579.24 1776.39 2575.82 1726.45 2566.48C1716.5 2256.85 1702.6 2004.1 1688.31 1797.73C1674.96 1605.1 1660.88 1452.27 1649.45 1328.29C1618.87 1338.57 1592.7 1345.51 1567.93 1358.61C1578.57 1474.86 1591.31 1619.91 1604.03 1803.41C1618.22 2008.33 1631.97 2256.43 1641.75 2555.22C1598.11 2547.7 1547.88 2535.82 1502.63 2521.88L1504.14 2610.76C1553.01 2624.78 1601.93 2634.81 1648.47 2641.96C1704.55 2650.58 1811.03 2662.38 1925.5 2661.28C1924.33 2633.71 1925.5 2605.57 1924.18 2576.92Z" fill="#FAFAFA"/>
<path fill-rule="evenodd" clip-rule="evenodd" d="M1656.65 1321.94C1657.29 1298.58 1658.89 1268.5 1663.37 1243.22C1705.61 1320.66 1808.33 1404.82 1897.62 1414.1L1914.89 1544.67C1801.69 1517.89 1718.67 1466.49 1656.65 1321.94Z" fill="#3B3B3C"/>
<path fill-rule="evenodd" clip-rule="evenodd" d="M2141.49 1320.26L2116.53 1235.53C2097.32 1311.54 2003.25 1402.42 1927.4 1411.7L1923.55 1546.58C2048.3 1506.35 2127.47 1437.93 2141.49 1320.26Z" fill="#3B3B3C"/>
<path fill-rule="evenodd" clip-rule="evenodd" d="M1929.36 2659.22C1959.31 2660.52 1982 2660.89 2015.91 2659.59L1937.93 1411.21L1887.52 1413.44C1896.4 1746.64 1920.49 2326.02 1929.36 2659.22Z" fill="#3B3B3C"/>
<path fill-rule="evenodd" clip-rule="evenodd" d="M2571.7 2848.58C2595.59 2710.88 2618.19 2521.62 2640.27 2380.19C2551.61 2323.79 2443.75 2320.51 2355.09 2369.85L2398.3 2855.14C2445.19 2855.12 2519.7 2851.8 2571.7 2848.58Z" fill="#1E3E9D"/>
<path fill-rule="evenodd" clip-rule="evenodd" d="M1148.56 1967.58L1045.34 2095.84C1108.32 2213.31 1145.52 2289 1231.2 2415.27C1291.19 2494.91 1322.66 2508.78 1383.23 2522.1C1422.66 2512.47 1464.25 2481.59 1502.53 2430.71L1499.75 2360.31C1402.35 2221.66 1262.14 2098.24 1148.56 1967.58Z" fill="#1E3E9D"/>
<path d="M837.028 1380.58L548.49 1174.14L490.317 1524.2L432.151 1174.14L143.612 1380.58L350.062 1092.05L0 1033.87L350.062 975.704L143.612 687.169L432.151 893.616L490.326 543.557L548.49 893.616L837.028 687.169L630.582 975.707L980.64 1033.88L630.582 1092.05L837.028 1380.58Z" fill="#FA7315"/>
<path d="M642.281 0L642.283 2863H3162.98L3162.98 0H642.281ZM2999.95 2412.83H786.746V459.932H2999.95V2412.83Z" fill="#274DBD"/>
<path d="M1011.73 241.916C1011.73 267.475 1004.44 291.242 992.022 311.428C968.613 349.05 927.049 374.131 879.515 374.131C829.947 374.131 786.833 346.9 764.138 306.769C753.389 287.542 747.18 265.444 747.18 241.916C747.18 168.819 806.421 109.697 879.518 109.697C952.486 109.697 1011.73 168.819 1011.73 241.916Z" fill="#1E3E9D"/>
<path d="M992.033 311.431C968.624 349.053 927.06 374.134 879.526 374.134C829.958 374.134 786.843 346.902 764.148 306.772C793.175 279.062 832.466 262.102 875.703 262.102C921.329 262.102 962.534 280.974 992.033 311.431Z" fill="#F46F18"/>
<path d="M1930.75 335.697H1106.75C1093.56 335.697 1082.87 325.002 1082.87 311.81C1082.87 298.619 1093.56 287.924 1106.75 287.924H1930.75C1943.94 287.924 1954.64 298.619 1954.64 311.81C1954.64 325.002 1943.94 335.697 1930.75 335.697Z" fill="white"/>
<path d="M2796.72 2756.66V2533.92H2993.64V2756.66L2900.67 2651.75L2796.72 2756.66Z" fill="#DFDFDF"/>
<path d="M1474.09 2741.96C1471.57 2741.96 1469.26 2740.49 1468.21 2738.18L1425.84 2645.05L1326.48 2606.04C1323.88 2605.02 1322.23 2602.45 1322.39 2599.66C1322.54 2596.87 1324.47 2594.5 1327.17 2593.78L1536.46 2537.7C1538.76 2537.08 1541.21 2537.78 1542.84 2539.51C1544.47 2541.24 1545.02 2543.74 1544.26 2545.99L1480.22 2737.55C1479.38 2740.07 1477.08 2741.81 1474.43 2741.95C1474.31 2741.96 1474.2 2741.96 1474.09 2741.96ZM1349.48 2601.18L1433 2633.97C1434.57 2634.58 1435.83 2635.78 1436.53 2637.31L1473.17 2717.87L1528.2 2553.3L1349.48 2601.18Z" fill="#DFDFDF"/>
<path d="M1430.64 2646.45C1428.87 2646.45 1427.1 2645.72 1425.82 2644.3C1423.44 2641.63 1423.68 2637.55 1426.34 2635.17L1533.83 2539.12C1536.49 2536.74 1540.57 2536.97 1542.95 2539.63C1545.33 2542.29 1545.1 2546.38 1542.44 2548.76L1434.95 2644.81C1433.72 2645.91 1432.18 2646.45 1430.64 2646.45Z" fill="#DFDFDF"/>
<path d="M884.824 2730.58C883.525 2730.58 882.229 2730.19 881.118 2729.42C877.002 2726.53 780.276 2658.27 780.279 2606.56C779.344 2580.18 796.245 2557.88 823.346 2549.98C843.29 2544.15 868.867 2547.56 885.015 2566.86C896.278 2554.15 912.369 2546.78 929.59 2546.78C962.552 2546.78 989.369 2573.6 989.369 2606.56C989.369 2668.53 892.27 2727.2 888.136 2729.67C887.115 2730.28 885.968 2730.58 884.824 2730.58ZM841.799 2560.27C836.558 2560.27 831.484 2561.07 826.968 2562.38C810.844 2567.09 792.324 2581.42 793.205 2606.33C793.208 2642.37 856.487 2695.67 885.063 2716.35C902.316 2705.32 976.449 2655.1 976.449 2606.56C976.449 2580.72 955.433 2559.71 929.596 2559.71C913.668 2559.71 898.966 2567.77 890.263 2581.28C889.071 2583.12 887.025 2584.24 884.83 2584.24C884.788 2584.24 884.743 2584.24 884.702 2584.24C882.459 2584.19 880.401 2582.99 879.263 2581.05C870.166 2565.63 855.415 2560.27 841.799 2560.27Z" fill="#DFDFDF"/>
<path d="M841.799 2560.27C836.558 2560.27 831.484 2561.07 826.968 2562.38C810.844 2567.09 792.324 2581.42 793.205 2606.33C793.208 2642.37 856.487 2695.67 885.063 2716.35C902.316 2705.32 976.449 2655.1 976.449 2606.56C976.449 2580.72 955.433 2559.71 929.596 2559.71C913.668 2559.71 898.966 2567.77 890.263 2581.28C889.071 2583.12 887.025 2584.24 884.83 2584.24C884.788 2584.24 884.743 2584.24 884.702 2584.24C882.459 2584.19 880.401 2582.99 879.263 2581.05C870.166 2565.63 855.415 2560.27 841.799 2560.27Z" fill="#F60000"/>
<path d="M1159.43 2733.39C1143.24 2733.39 1127.67 2728.68 1113.45 2719.26C1082.83 2698.96 1064.99 2659.37 1070.08 2622.98C1074.95 2588.18 1098.62 2562.35 1136.72 2550.25C1169.38 2540.2 1204.85 2550.57 1229.33 2577.32C1253.32 2603.53 1260.86 2638.71 1249.32 2669.74L1267.61 2717.25C1268.43 2719.39 1268.06 2721.81 1266.63 2723.6C1265.2 2725.39 1262.94 2726.31 1260.66 2725.97L1210.03 2718.73C1193.05 2728.5 1175.92 2733.39 1159.43 2733.39ZM1161.72 2559.41C1154.64 2559.41 1147.53 2560.45 1140.58 2562.59C1107.54 2573.08 1087.02 2595.17 1082.88 2624.77C1078.46 2656.41 1093.97 2690.83 1120.6 2708.49C1145.5 2724.99 1175.62 2724.29 1205.4 2706.47C1206.67 2705.71 1208.16 2705.4 1209.63 2705.62L1251.59 2711.62L1236.36 2672.05C1235.77 2670.51 1235.78 2668.81 1236.4 2667.29C1247.38 2640.35 1241.01 2609.22 1219.8 2586.05C1203.99 2568.78 1182.97 2559.41 1161.72 2559.41Z" fill="#DFDFDF"/>
<path d="M879.483 378.744H879.471C813.781 378.738 742.354 335.946 740.766 242.007C742.369 147.846 813.796 105.061 879.483 105.061C879.489 105.061 879.489 105.061 879.495 105.061C945.184 105.067 1016.61 147.855 1018.2 241.792C1018.2 241.866 1018.2 241.938 1018.2 242.01C1016.6 335.955 945.172 378.744 879.483 378.744ZM879.495 117.989C819.925 117.986 755.146 156.791 753.692 242.007C755.134 326.995 819.904 365.812 879.474 365.815C939.02 365.815 1003.77 327.046 1005.28 241.902C1003.78 156.773 939.038 117.992 879.495 117.989Z" fill="black"/>
<path d="M986.974 316.178C979.439 307.953 938.669 267.04 875.703 268.638C820.514 270.065 775.56 302.834 773.04 310.808C773.201 310.303 773.165 308.768 772.021 307.493L762.402 316.127C761.237 314.828 758.791 311.205 761.21 305.587C767.452 291.094 817.056 257.223 875.366 255.715C942.256 253.965 984.985 294.872 996.501 307.442L986.974 316.178Z" fill="black"/>
<path d="M1178.1 847.644L1043.53 870.318L1020.86 1004.89L998.181 870.318L863.609 847.644L998.181 824.966L1020.86 690.395L1043.53 824.966L1178.1 847.644Z" fill="#FEBD02"/>
<path d="M1125.27 193.801C1125.27 192.354 1125.04 191.056 1124.6 189.906C1124.19 188.719 1123.41 187.643 1122.26 186.679C1121.11 185.677 1119.5 184.694 1117.42 183.73C1115.34 182.765 1112.65 181.764 1109.35 180.725C1105.68 179.538 1102.19 178.203 1098.89 176.719C1095.63 175.235 1092.73 173.51 1090.21 171.544C1087.73 169.541 1085.76 167.223 1084.31 164.589C1082.9 161.955 1082.2 158.895 1082.2 155.408C1082.2 152.033 1082.94 148.972 1084.43 146.227C1085.91 143.445 1087.99 141.071 1090.66 139.105C1093.33 137.102 1096.48 135.563 1100.12 134.487C1103.79 133.411 1107.81 132.873 1112.19 132.873C1118.16 132.873 1123.37 133.949 1127.83 136.101C1132.28 138.252 1135.73 141.201 1138.17 144.948C1140.66 148.694 1141.9 152.978 1141.9 157.801H1125.32C1125.32 155.427 1124.82 153.349 1123.82 151.569C1122.85 149.751 1121.37 148.323 1119.37 147.284C1117.4 146.246 1114.92 145.727 1111.91 145.727C1109.02 145.727 1106.61 146.172 1104.68 147.062C1102.75 147.915 1101.3 149.084 1100.34 150.567C1099.37 152.014 1098.89 153.646 1098.89 155.464C1098.89 156.836 1099.23 158.079 1099.89 159.192C1100.6 160.305 1101.64 161.343 1103.01 162.308C1104.38 163.272 1106.07 164.181 1108.07 165.034C1110.08 165.887 1112.39 166.722 1115.03 167.538C1119.44 168.873 1123.32 170.376 1126.66 172.045C1130.03 173.714 1132.85 175.587 1135.11 177.665C1137.38 179.742 1139.08 182.097 1140.23 184.731C1141.38 187.365 1141.96 190.351 1141.96 193.689C1141.96 197.213 1141.27 200.366 1139.9 203.148C1138.53 205.93 1136.54 208.286 1133.95 210.215C1131.35 212.144 1128.25 213.609 1124.65 214.611C1121.06 215.612 1117.03 216.113 1112.58 216.113C1108.57 216.113 1104.62 215.594 1100.73 214.555C1096.83 213.479 1093.29 211.866 1090.1 209.714C1086.95 207.563 1084.43 204.818 1082.53 201.479C1080.64 198.141 1079.7 194.19 1079.7 189.628H1096.44C1096.44 192.15 1096.83 194.283 1097.61 196.026C1098.39 197.77 1099.49 199.179 1100.9 200.255C1102.34 201.331 1104.05 202.11 1106.01 202.592C1108.02 203.074 1110.21 203.315 1112.58 203.315C1115.47 203.315 1117.85 202.907 1119.7 202.091C1121.59 201.275 1122.98 200.144 1123.88 198.697C1124.8 197.25 1125.27 195.618 1125.27 193.801ZM1180.02 216.113C1175.34 216.113 1171.15 215.371 1167.44 213.887C1163.73 212.366 1160.58 210.27 1157.98 207.6C1155.42 204.929 1153.46 201.832 1152.09 198.308C1150.71 194.747 1150.03 190.963 1150.03 186.957V184.731C1150.03 180.169 1150.68 175.995 1151.97 172.212C1153.27 168.428 1155.13 165.145 1157.54 162.363C1159.99 159.581 1162.95 157.448 1166.44 155.965C1169.93 154.444 1173.86 153.683 1178.24 153.683C1182.5 153.683 1186.29 154.388 1189.59 155.798C1192.89 157.207 1195.65 159.21 1197.88 161.807C1200.14 164.403 1201.85 167.519 1203 171.155C1204.15 174.753 1204.72 178.759 1204.72 183.173V189.85H1156.87V179.167H1188.98V177.943C1188.98 175.717 1188.57 173.733 1187.75 171.989C1186.97 170.209 1185.79 168.799 1184.19 167.76C1182.6 166.722 1180.56 166.203 1178.07 166.203C1175.96 166.203 1174.14 166.666 1172.62 167.594C1171.1 168.521 1169.85 169.819 1168.89 171.488C1167.96 173.158 1167.26 175.124 1166.77 177.386C1166.33 179.612 1166.11 182.06 1166.11 184.731V186.957C1166.11 189.368 1166.44 191.594 1167.11 193.634C1167.81 195.674 1168.8 197.436 1170.06 198.92C1171.36 200.403 1172.91 201.553 1174.73 202.369C1176.59 203.185 1178.68 203.594 1181.02 203.594C1183.91 203.594 1186.6 203.037 1189.09 201.924C1191.61 200.774 1193.78 199.049 1195.6 196.75L1203.39 205.207C1202.13 207.025 1200.4 208.768 1198.21 210.437C1196.06 212.107 1193.46 213.479 1190.42 214.555C1187.38 215.594 1183.91 216.113 1180.02 216.113ZM1229.87 167.927V215H1213.85V154.796H1228.93L1229.87 167.927ZM1248.01 154.407L1247.73 169.263C1246.95 169.152 1246.01 169.059 1244.89 168.985C1243.82 168.873 1242.84 168.818 1241.95 168.818C1239.68 168.818 1237.72 169.114 1236.05 169.708C1234.42 170.264 1233.04 171.099 1231.93 172.212C1230.85 173.325 1230.04 174.679 1229.48 176.274C1228.96 177.869 1228.67 179.686 1228.59 181.726L1225.36 180.725C1225.36 176.83 1225.75 173.25 1226.53 169.986C1227.31 166.685 1228.44 163.81 1229.93 161.362C1231.45 158.914 1233.3 157.022 1235.49 155.686C1237.68 154.351 1240.18 153.683 1243 153.683C1243.89 153.683 1244.8 153.757 1245.73 153.906C1246.66 154.017 1247.42 154.184 1248.01 154.407ZM1277.06 203.315L1290.41 154.796H1307.16L1286.85 215H1276.72L1277.06 203.315ZM1267.87 154.796L1281.28 203.371L1281.56 215H1271.38L1251.07 154.796H1267.87ZM1331.25 154.796V215H1315.17V154.796H1331.25ZM1314.17 139.105C1314.17 136.768 1314.98 134.839 1316.62 133.318C1318.25 131.798 1320.44 131.037 1323.18 131.037C1325.89 131.037 1328.06 131.798 1329.69 133.318C1331.36 134.839 1332.2 136.768 1332.2 139.105C1332.2 141.442 1331.36 143.371 1329.69 144.892C1328.06 146.413 1325.89 147.173 1323.18 147.173C1320.44 147.173 1318.25 146.413 1316.62 144.892C1314.98 143.371 1314.17 141.442 1314.17 139.105ZM1369.36 203.594C1371.33 203.594 1373.07 203.223 1374.59 202.481C1376.12 201.702 1377.3 200.626 1378.16 199.253C1379.05 197.844 1379.51 196.193 1379.55 194.301H1394.63C1394.59 198.53 1393.46 202.295 1391.23 205.597C1389.01 208.861 1386.02 211.439 1382.27 213.331C1378.53 215.185 1374.34 216.113 1369.7 216.113C1365.02 216.113 1360.94 215.334 1357.46 213.776C1354.01 212.218 1351.13 210.066 1348.83 207.321C1346.53 204.539 1344.81 201.312 1343.66 197.64C1342.51 193.93 1341.93 189.961 1341.93 185.733V184.119C1341.93 179.853 1342.51 175.884 1343.66 172.212C1344.81 168.502 1346.53 165.275 1348.83 162.53C1351.13 159.748 1354.01 157.578 1357.46 156.02C1360.91 154.462 1364.95 153.683 1369.59 153.683C1374.52 153.683 1378.84 154.629 1382.55 156.521C1386.3 158.413 1389.23 161.121 1391.34 164.645C1393.49 168.131 1394.59 172.267 1394.63 177.053H1379.55C1379.51 175.05 1379.08 173.232 1378.27 171.6C1377.49 169.968 1376.34 168.669 1374.82 167.705C1373.33 166.703 1371.5 166.203 1369.31 166.203C1366.97 166.203 1365.06 166.703 1363.58 167.705C1362.09 168.669 1360.94 170.005 1360.13 171.711C1359.31 173.38 1358.74 175.291 1358.4 177.442C1358.11 179.556 1357.96 181.782 1357.96 184.119V185.733C1357.96 188.07 1358.11 190.314 1358.4 192.465C1358.7 194.617 1359.26 196.527 1360.07 198.196C1360.93 199.866 1362.09 201.182 1363.58 202.147C1365.06 203.111 1366.99 203.594 1369.36 203.594ZM1431.63 216.113C1426.95 216.113 1422.76 215.371 1419.05 213.887C1415.34 212.366 1412.19 210.27 1409.59 207.6C1407.03 204.929 1405.07 201.832 1403.7 198.308C1402.32 194.747 1401.64 190.963 1401.64 186.957V184.731C1401.64 180.169 1402.29 175.995 1403.58 172.212C1404.88 168.428 1406.74 165.145 1409.15 162.363C1411.6 159.581 1414.56 157.448 1418.05 155.965C1421.54 154.444 1425.47 153.683 1429.85 153.683C1434.11 153.683 1437.9 154.388 1441.2 155.798C1444.5 157.207 1447.26 159.21 1449.49 161.807C1451.75 164.403 1453.46 167.519 1454.61 171.155C1455.76 174.753 1456.33 178.759 1456.33 183.173V189.85H1408.48V179.167H1440.59V177.943C1440.59 175.717 1440.18 173.733 1439.36 171.989C1438.58 170.209 1437.4 168.799 1435.8 167.76C1434.21 166.722 1432.17 166.203 1429.68 166.203C1427.57 166.203 1425.75 166.666 1424.23 167.594C1422.71 168.521 1421.46 169.819 1420.5 171.488C1419.57 173.158 1418.87 175.124 1418.38 177.386C1417.94 179.612 1417.72 182.06 1417.72 184.731V186.957C1417.72 189.368 1418.05 191.594 1418.72 193.634C1419.42 195.674 1420.41 197.436 1421.67 198.92C1422.97 200.403 1424.52 201.553 1426.34 202.369C1428.2 203.185 1430.29 203.594 1432.63 203.594C1435.52 203.594 1438.21 203.037 1440.7 201.924C1443.22 200.774 1445.39 199.049 1447.21 196.75L1455 205.207C1453.74 207.025 1452.01 208.768 1449.82 210.437C1447.67 212.107 1445.07 213.479 1442.03 214.555C1438.99 215.594 1435.52 216.113 1431.63 216.113ZM1560.77 133.986V215H1544.08L1511.53 160.694V215H1494.84V133.986H1511.53L1544.13 188.348V133.986H1560.77ZM1602 216.113C1597.33 216.113 1593.14 215.371 1589.43 213.887C1585.72 212.366 1582.56 210.27 1579.97 207.6C1577.41 204.929 1575.44 201.832 1574.07 198.308C1572.7 194.747 1572.01 190.963 1572.01 186.957V184.731C1572.01 180.169 1572.66 175.995 1573.96 172.212C1575.26 168.428 1577.11 165.145 1579.52 162.363C1581.97 159.581 1584.94 157.448 1588.42 155.965C1591.91 154.444 1595.84 153.683 1600.22 153.683C1604.49 153.683 1608.27 154.388 1611.57 155.798C1614.87 157.207 1617.64 159.21 1619.86 161.807C1622.12 164.403 1623.83 167.519 1624.98 171.155C1626.13 174.753 1626.71 178.759 1626.71 183.173V189.85H1578.85V179.167H1610.96V177.943C1610.96 175.717 1610.55 173.733 1609.74 171.989C1608.96 170.209 1607.77 168.799 1606.17 167.76C1604.58 166.722 1602.54 166.203 1600.05 166.203C1597.94 166.203 1596.12 166.666 1594.6 167.594C1593.08 168.521 1591.84 169.819 1590.87 171.488C1589.95 173.158 1589.24 175.124 1588.76 177.386C1588.31 179.612 1588.09 182.06 1588.09 184.731V186.957C1588.09 189.368 1588.42 191.594 1589.09 193.634C1589.8 195.674 1590.78 197.436 1592.04 198.92C1593.34 200.403 1594.9 201.553 1596.72 202.369C1598.57 203.185 1600.67 203.594 1603 203.594C1605.9 203.594 1608.59 203.037 1611.07 201.924C1613.59 200.774 1615.76 199.049 1617.58 196.75L1625.37 205.207C1624.11 207.025 1622.38 208.768 1620.2 210.437C1618.04 212.107 1615.45 213.479 1612.41 214.555C1609.36 215.594 1605.9 216.113 1602 216.113ZM1651.86 167.927V215H1635.83V154.796H1650.91L1651.86 167.927ZM1669.99 154.407L1669.72 169.263C1668.94 169.152 1667.99 169.059 1666.88 168.985C1665.8 168.873 1664.82 168.818 1663.93 168.818C1661.67 168.818 1659.7 169.114 1658.03 169.708C1656.4 170.264 1655.03 171.099 1653.91 172.212C1652.84 173.325 1652.02 174.679 1651.47 176.274C1650.95 177.869 1650.65 179.686 1650.58 181.726L1647.35 180.725C1647.35 176.83 1647.74 173.25 1648.52 169.986C1649.3 166.685 1650.43 163.81 1651.91 161.362C1653.43 158.914 1655.29 157.022 1657.48 155.686C1659.66 154.351 1662.17 153.683 1664.99 153.683C1665.88 153.683 1666.79 153.757 1667.71 153.906C1668.64 154.017 1669.4 154.184 1669.99 154.407ZM1712 201.869V129.535H1728.14V215H1713.62L1712 201.869ZM1673.95 185.621V184.453C1673.95 179.853 1674.46 175.68 1675.5 171.934C1676.54 168.15 1678.06 164.904 1680.07 162.196C1682.07 159.488 1684.54 157.393 1687.47 155.909C1690.4 154.425 1693.74 153.683 1697.48 153.683C1701.01 153.683 1704.08 154.425 1706.72 155.909C1709.39 157.393 1711.65 159.507 1713.51 162.252C1715.4 164.96 1716.92 168.169 1718.07 171.878C1719.22 175.55 1720.05 179.575 1720.57 183.952V186.512C1720.05 190.703 1719.22 194.598 1718.07 198.196C1716.92 201.794 1715.4 204.947 1713.51 207.655C1711.65 210.326 1709.39 212.403 1706.72 213.887C1704.05 215.371 1700.93 216.113 1697.37 216.113C1693.62 216.113 1690.29 215.352 1687.36 213.832C1684.46 212.311 1682.01 210.178 1680.01 207.433C1678.04 204.688 1676.54 201.461 1675.5 197.751C1674.46 194.042 1673.95 189.998 1673.95 185.621ZM1689.97 184.453V185.621C1689.97 188.107 1690.16 190.425 1690.53 192.577C1690.93 194.728 1691.58 196.638 1692.47 198.308C1693.4 199.94 1694.59 201.219 1696.04 202.147C1697.52 203.037 1699.32 203.482 1701.43 203.482C1704.18 203.482 1706.44 202.87 1708.22 201.646C1710 200.385 1711.36 198.66 1712.28 196.471C1713.25 194.283 1713.8 191.76 1713.95 188.904V181.615C1713.84 179.278 1713.51 177.182 1712.95 175.328C1712.43 173.436 1711.65 171.822 1710.61 170.487C1709.61 169.152 1708.35 168.113 1706.83 167.371C1705.35 166.629 1703.58 166.258 1701.54 166.258C1699.47 166.258 1697.69 166.74 1696.2 167.705C1694.72 168.632 1693.51 169.912 1692.59 171.544C1691.7 173.176 1691.03 175.105 1690.58 177.331C1690.17 179.519 1689.97 181.893 1689.97 184.453Z" fill="white"/>
<path d="M1801.59 186.122H1780.94V173.102H1801.59C1804.78 173.102 1807.37 172.583 1809.38 171.544C1811.38 170.468 1812.84 168.985 1813.77 167.093C1814.7 165.201 1815.16 163.068 1815.16 160.694C1815.16 158.283 1814.7 156.039 1813.77 153.961C1812.84 151.884 1811.38 150.215 1809.38 148.954C1807.37 147.693 1804.78 147.062 1801.59 147.062H1786.73V215H1770.04V133.986H1801.59C1807.93 133.986 1813.36 135.136 1817.89 137.436C1822.45 139.699 1825.94 142.833 1828.35 146.839C1830.76 150.846 1831.97 155.427 1831.97 160.583C1831.97 165.813 1830.76 170.339 1828.35 174.159C1825.94 177.98 1822.45 180.929 1817.89 183.006C1813.36 185.083 1807.93 186.122 1801.59 186.122ZM1858.51 167.927V215H1842.48V154.796H1857.56L1858.51 167.927ZM1876.65 154.407L1876.37 169.263C1875.59 169.152 1874.64 169.059 1873.53 168.985C1872.46 168.873 1871.47 168.818 1870.58 168.818C1868.32 168.818 1866.35 169.114 1864.68 169.708C1863.05 170.264 1861.68 171.099 1860.57 172.212C1859.49 173.325 1858.67 174.679 1858.12 176.274C1857.6 177.869 1857.3 179.686 1857.23 181.726L1854 180.725C1854 176.83 1854.39 173.25 1855.17 169.986C1855.95 166.685 1857.08 163.81 1858.56 161.362C1860.08 158.914 1861.94 157.022 1864.13 155.686C1866.32 154.351 1868.82 153.683 1871.64 153.683C1872.53 153.683 1873.44 153.757 1874.37 153.906C1875.29 154.017 1876.05 154.184 1876.65 154.407ZM1879.99 185.51V184.342C1879.99 179.927 1880.62 175.866 1881.88 172.156C1883.14 168.41 1884.97 165.164 1887.39 162.419C1889.8 159.674 1892.76 157.541 1896.29 156.02C1899.81 154.462 1903.86 153.683 1908.42 153.683C1912.98 153.683 1917.04 154.462 1920.6 156.02C1924.16 157.541 1927.15 159.674 1929.56 162.419C1932.01 165.164 1933.86 168.41 1935.13 172.156C1936.39 175.866 1937.02 179.927 1937.02 184.342V185.51C1937.02 189.887 1936.39 193.949 1935.13 197.696C1933.86 201.405 1932.01 204.651 1929.56 207.433C1927.15 210.178 1924.18 212.311 1920.66 213.832C1917.14 215.352 1913.09 216.113 1908.53 216.113C1903.97 216.113 1899.91 215.352 1896.34 213.832C1892.82 212.311 1889.83 210.178 1887.39 207.433C1884.97 204.651 1883.14 201.405 1881.88 197.696C1880.62 193.949 1879.99 189.887 1879.99 185.51ZM1896.01 184.342V185.51C1896.01 188.032 1896.23 190.388 1896.68 192.577C1897.12 194.765 1897.83 196.694 1898.79 198.363C1899.79 199.995 1901.09 201.275 1902.69 202.202C1904.28 203.13 1906.23 203.594 1908.53 203.594C1910.76 203.594 1912.67 203.13 1914.26 202.202C1915.86 201.275 1917.14 199.995 1918.1 198.363C1919.06 196.694 1919.77 194.765 1920.21 192.577C1920.7 190.388 1920.94 188.032 1920.94 185.51V184.342C1920.94 181.893 1920.7 179.594 1920.21 177.442C1919.77 175.254 1919.05 173.325 1918.04 171.655C1917.08 169.949 1915.8 168.614 1914.2 167.649C1912.61 166.685 1910.68 166.203 1908.42 166.203C1906.16 166.203 1904.23 166.685 1902.63 167.649C1901.07 168.614 1899.79 169.949 1898.79 171.655C1897.83 173.325 1897.12 175.254 1896.68 177.442C1896.23 179.594 1896.01 181.893 1896.01 184.342Z" fill="#F46F18"/>
<path d="M1983.23 119.414V133.832H1925.91V119.414H1983.23ZM1962.44 96.7241V157.613H1946.76V96.7241H1962.44Z" fill="#F46F18"/>
<circle cx="878.052" cy="188.153" r="59.7314" fill="#F46F18" stroke="black" stroke-width="4"/>
<path d="M1039.43 1881.75L947.77 1876.25C927.08 1870.69 902.788 1905.61 902.031 1927.37L895.296 2027.3C895.025 2035.07 897.4 2042.7 902.031 2048.94C906.662 2055.19 913.276 2059.69 920.793 2061.7L1048.21 2095.89C1050.75 2096.57 1053.37 2096.85 1055.99 2096.73L1113.27 2094.33L1151.78 1950.82L1141.1 1944.85C1139.31 1943.69 1138 1941.92 1137.45 1939.87L1116.78 1863.93C1116.38 1862.42 1116.41 1860.83 1116.85 1859.33C1119.08 1851.04 1138.37 1794.35 1137.44 1783.88C1136.39 1771.52 1109.14 1743.97 1074.39 1783.88C1039.64 1823.79 1039.98 1880.03 1039.98 1880.03L1039.43 1881.75Z" fill="#F5A85E"/>
<path d="M1946.47 949.308C1946.47 949.308 1937.2 952.878 1932.77 954.713C1922.32 959.039 1926.55 989.436 1924.76 1000.84C1921.12 1024.04 1917.09 1053.41 1912 1076.32C1908.65 1091.38 1884.87 1102.57 1872.41 1106.95C1926.07 1099.41 1921.21 1059.03 1927.75 1015.97C1931.25 992.913 1929.69 967.199 1946.47 949.308Z" fill="#1A9CEB"/>
<path d="M1853.41 931.106C1831.84 924.6 1712.44 896.437 1708.18 923.546C1703.91 950.655 1715.41 1006.29 1728.29 1025.45C1757.98 1069.62 1804.45 1069.1 1849 1076.32C1901.46 1084.83 1905.59 1063.88 1907.13 1025.45C1908.67 987.015 1907.84 971.249 1903.92 960.587C1900.31 950.795 1879.66 939.026 1853.41 931.106Z" fill="#7CCDFF"/>
<path d="M1657.95 927.606C1638.75 922.448 1636.04 992.198 1622.53 1010.56C1618.04 1016.66 1612.16 1020.8 1605.25 1023.4C1617.9 1021.86 1628.47 1017.14 1635.57 1007.49C1640.99 1000.12 1644.68 984.454 1648.39 968.684C1652.07 953.021 1655.78 937.253 1661.25 929.391C1660.23 928.529 1659.13 927.924 1657.95 927.606Z" fill="#1A9CEB"/>
<path d="M1517.42 844.815C1500.73 839.36 1483.27 832.485 1482.29 850.22C1480.61 880.534 1483.04 926.203 1494 954.648C1499.63 969.269 1512.16 977.728 1530.11 988.043C1561.14 1005.87 1598.62 1015.64 1613.88 993.448C1629.15 971.256 1635.16 936.933 1630.02 905.17C1626.62 884.156 1604.43 879.565 1585.88 870.939C1563.88 860.71 1540.49 852.359 1517.42 844.815Z" fill="#7CCDFF"/>
<path d="M1548.97 829.215C1550.86 830.229 1552.43 831.108 1553.81 831.878C1556.3 833.273 1558.17 834.313 1560.11 835.158C1588.81 847.625 1616.78 861.482 1640.55 882.196C1650.21 890.613 1660.41 894.056 1672.91 892.2C1716.98 885.656 1761.17 887.122 1804.71 894.796C1831.72 899.556 1858.45 905.856 1885.19 912.158C1899.36 915.499 1913.53 918.839 1927.75 921.951C1932.36 922.961 1938.08 923.339 1942.19 921.532C1943.63 920.901 1945.06 920.283 1946.48 919.674C1944.52 919.563 1942.57 919.269 1940.79 918.879C1926.57 915.768 1912.4 912.427 1898.23 909.086C1871.49 902.784 1844.76 896.483 1817.75 891.723C1774.21 884.048 1730.02 882.582 1685.95 889.126C1673.45 890.982 1663.25 887.541 1653.59 879.124C1629.83 858.41 1601.85 844.553 1573.15 832.086C1569.24 830.389 1564.98 828.741 1560.49 827.156C1556.85 827.81 1553.03 828.495 1548.97 829.215Z" fill="#1A9CEB"/>
<path d="M2009.44 916.687C2025.4 910.033 2041.68 903.247 2059.34 895.962C2085.46 885.189 2137.04 861.847 2137.04 861.847C2137.04 861.847 2187.42 835.16 2218.04 845.163C2229.84 849.018 2258.28 890.247 2265.45 899.815C2272.41 909.098 2278.34 917.016 2285.5 915.703C2300.04 913.036 2283.24 886.301 2274.76 869.967C2233.45 790.405 2157.63 825.274 2121.74 839.921C2091.2 852.389 2076.62 858.228 2046.42 871.489C2025.06 880.863 2006.03 887.679 1986.9 894.527C1968.88 900.98 1948.46 908.009 1928.27 916.687L1930.54 949.259C1958.98 937.725 1983.81 927.376 2009.44 916.687Z" fill="#1A9CEB"/>
<path fill-rule="evenodd" clip-rule="evenodd" d="M1806.52 1101.35C1757.98 1091.08 1724.59 1080.73 1694.64 1041.18C1673.63 1013.44 1677.17 932.755 1657.97 927.597C1638.78 922.439 1636.07 992.189 1622.55 1010.56C1609.04 1028.92 1582.95 1029.46 1553.84 1024.07C1511.8 1016.29 1480.67 989.838 1467 963.714C1453.33 937.59 1448.98 844.807 1450.32 831.87C1451.66 818.934 1450.32 806.973 1459.05 804.432C1467.79 801.892 1479.15 798.946 1489.19 796.175C1511.45 790.032 1533.71 783.888 1556.12 778.356C1576.11 773.421 1596.27 769.143 1616.42 764.864C1625.89 762.853 1635.37 760.842 1644.83 758.763C1674.62 752.211 1704.83 749.574 1735.07 753.181C1748.52 754.785 1762.38 758.734 1774.43 764.831C1791.4 773.415 1807.26 784.412 1822.83 795.457C1835.75 804.624 1847.79 815.103 1859.72 825.562C1862.67 828.144 1865.63 833.112 1865.26 836.635C1863.96 849.072 1847.69 859.1 1836.63 853.217C1826.31 847.728 1816.82 839.786 1808.69 831.271C1803.75 826.085 1799.36 820.29 1794.98 814.509C1788.82 806.371 1782.68 798.262 1775.03 791.919C1747.1 768.764 1734.3 771.029 1709.99 783.863C1704.79 786.608 1699.68 789.538 1694.64 792.579C1677.13 803.165 1658.7 811.205 1638.25 814.235C1623.02 816.491 1607.84 819.034 1592.65 821.577C1589.85 822.046 1587.06 822.514 1584.26 822.981C1576.93 824.203 1569.62 825.516 1561.46 826.98C1557.53 827.684 1553.41 828.424 1549 829.206C1550.89 830.22 1552.46 831.099 1553.84 831.87C1556.33 833.265 1558.19 834.305 1560.14 835.15C1588.84 847.616 1616.81 861.474 1640.58 882.187C1650.24 890.605 1660.44 894.046 1672.94 892.19C1717 885.647 1761.2 887.112 1804.74 894.787C1831.75 899.547 1859.21 905.165 1885.94 911.467C1900.11 914.807 1913.56 918.831 1927.77 921.943C1932.39 922.953 1938.1 923.329 1942.22 921.523L1942.22 954.639C1931.77 958.965 1926.58 989.428 1924.79 1000.83C1921.15 1024.03 1917.12 1053.41 1912.02 1076.32C1902.13 1120.78 1837.63 1107.94 1806.52 1101.35ZM1832.75 1085.32C1885.21 1093.83 1892.05 1062.5 1893.6 1024.07C1895.14 985.638 1894.31 969.873 1890.38 959.21C1886.78 949.418 1866.13 937.65 1839.88 929.73C1818.31 923.224 1698.91 895.06 1694.64 922.169C1690.38 949.278 1701.85 1009.42 1714.72 1028.57C1744.41 1072.75 1788.21 1078.1 1832.75 1085.32ZM1483.22 954.639C1488.85 969.261 1499.5 980.424 1517.45 990.738C1548.48 1008.57 1584.15 1019.24 1599.42 997.044C1614.69 974.852 1624.38 936.925 1619.24 905.161C1615.84 884.147 1593.65 879.557 1575.1 870.93C1553.1 860.702 1529.71 852.351 1506.64 844.807C1489.95 839.351 1472.48 832.477 1471.51 850.212C1469.83 880.526 1472.26 926.195 1483.22 954.639Z" fill="#1A9CEB"/>
<path d="M2019.28 922.169C2034.87 915.535 2050.77 908.77 2068.01 901.508C2093.52 890.767 2143.9 867.492 2143.9 867.492C2143.9 867.492 2193.09 840.87 2223.03 850.91C2234.56 854.78 2262.4 896.042 2269.42 905.617C2276.23 914.909 2282.04 922.834 2289.03 921.53C2303.23 918.882 2286.79 892.127 2278.48 875.784C2238.02 796.175 2163.97 830.948 2128.92 845.548C2099.09 857.977 2084.85 863.798 2055.35 877.02C2034.5 886.367 2015.91 893.158 1997.23 899.981C1979.62 906.412 1961.94 912.871 1942.22 921.523L1942.22 954.639C1970 943.142 1994.24 932.824 2019.28 922.169Z" fill="#1A9CEB"/>
<path d="M1826.52 1042.01C1826.52 1042.01 1816.6 1010.58 1811.13 990.18C1805.67 969.782 1798.54 937.6 1798.54 937.6C1798.54 937.6 1800.01 970.949 1805.57 991.672C1811.12 1012.39 1826.52 1042.01 1826.52 1042.01Z" fill="white"/>
<path d="M1837.31 1000.95C1837.31 1000.95 1831.64 982.96 1828.51 971.288C1825.38 959.615 1821.3 941.198 1821.3 941.198C1821.3 941.198 1822.15 960.283 1825.32 972.141C1828.5 984 1837.31 1000.95 1837.31 1000.95Z" fill="white"/>
<path d="M1792.29 1031.58C1792.29 1031.58 1786.61 1013.6 1783.49 1001.92C1780.36 990.25 1776.28 971.833 1776.28 971.833C1776.28 971.833 1777.12 990.918 1780.3 1002.78C1783.48 1014.63 1792.29 1031.58 1792.29 1031.58Z" fill="white"/>
<path d="M1577.88 977.148C1577.88 977.148 1567.96 945.712 1562.49 925.314C1557.03 904.917 1549.9 872.734 1549.9 872.734C1549.9 872.734 1551.37 906.084 1556.93 926.807C1562.48 947.529 1577.88 977.148 1577.88 977.148Z" fill="white"/>
<path d="M1588.69 936.093C1588.69 936.093 1583.02 918.103 1579.89 906.43C1576.76 894.757 1572.68 876.341 1572.68 876.341C1572.68 876.341 1573.53 895.425 1576.71 907.284C1579.88 919.143 1588.69 936.093 1588.69 936.093Z" fill="white"/>
<path d="M1543.67 966.718C1543.67 966.718 1538 948.728 1534.87 937.055C1531.74 925.382 1527.66 906.966 1527.66 906.966C1527.66 906.966 1528.5 926.05 1531.68 937.909C1534.86 949.768 1543.67 966.718 1543.67 966.718Z" fill="white"/>
<path d="M1815.36 913.497C1866.25 903.225 1924.06 882.109 1951.24 874.262C1985.14 862.362 2064.61 837.066 2120.73 814.762C2176.84 792.458 2200.5 780.455 2231.82 762.742C2263.14 745.029 2267.42 744.684 2277.32 726.196C2287.22 707.709 2284.64 687.516 2281.3 670.303C2277.97 653.089 2265.47 657.336 2260.65 640.13C2255.83 622.925 2251 597.814 2251 597.814C2251 597.814 2237.44 516.353 2223.08 477.895C2200.15 416.542 2160.36 372.467 2096.96 331.618C2017.69 280.548 1902.38 268.042 1815.83 291.138C1742.94 310.586 1637.6 378.042 1591.82 467.052C1571.39 506.765 1547.12 586.163 1547.12 586.163C1538.24 610.867 1535.38 657.243 1527.64 660.871C1498.82 674.383 1434.55 720.995 1409.4 747.416C1384.25 773.837 1392.62 774.52 1392.67 788.585C1392.73 802.65 1386.79 801.799 1409.67 817.74C1432.55 833.681 1465.94 850.301 1507.07 868.291C1548.19 886.281 1577.36 896.225 1615.3 907.69C1653.24 919.156 1656.77 924.457 1696.78 925.619C1736.79 926.78 1764.47 923.768 1815.36 913.497Z" fill="#C47A02"/>
<path d="M2216.09 516.049C2206.55 497.937 2197.55 479.625 2185.35 463.145C2147.06 411.415 2097 381.761 2031.38 383.028C1994.57 383.739 1961.64 397.484 1931.61 417.978C1882.76 451.329 1844.22 493.827 1820.6 548.584C1804.54 585.818 1797.01 624.185 1809.99 664.263C1810.43 665.619 1810.41 667.123 1810.87 670.502C1800.12 661.399 1798.4 649.029 1792.06 637.988C1789.26 643.174 1789.21 647.545 1789.66 651.864C1792.08 675.03 1779.85 689.895 1761.56 701.073C1743.93 711.848 1724.22 710.245 1705.44 707.206C1668.89 701.293 1634.07 688.622 1599.44 675.758C1589.26 671.973 1582.8 654.082 1586.41 639.961C1595.78 603.294 1606.76 567.119 1621.07 532.037C1635.98 495.527 1653.19 460.121 1676.79 428.408C1716.05 375.62 1762.09 330.928 1825.83 308.157C1855.91 297.412 1886.71 292.356 1918.58 293.728C1932.35 294.321 1946.2 293.707 1959.86 296.3C1963.3 296.953 1966.97 296.79 1968.89 298.467C1861.52 334.881 1796.34 408.733 1772.97 520.649C1773.97 520.86 1772.7 525.33 1775.26 521.822C1800.26 450.525 1838.88 389.533 1900.95 345.487C1924.67 328.657 1950.78 316.713 1979.7 311.475C1999.34 307.916 2017.46 312.402 2035.33 321.428C1940.34 324.125 1871.91 370.653 1822.34 448.618C1792.37 495.754 1775.99 552.405 1780.6 594.123C1783.52 549.118 1799.11 508.359 1822.84 470.643C1853.7 421.583 1893.27 381.449 1947.56 358.842C2019.96 328.69 2085.74 341.16 2143.36 394.101C2178.36 426.251 2201.41 466.384 2217.55 511.45C2218.38 513.593 2217.65 514.72 2216.09 516.049Z" fill="#FEBD02"/>
<path d="M1674.52 882.217C1639.15 879.114 1603.88 864.895 1586.21 860.565C1586.01 861.348 1571.25 859.667 1585.18 864.481C1599.11 869.295 1626.59 880.006 1654.64 886.075C1670.07 889.412 1679.92 890.248 1695.63 891.771C1713.09 893.463 1740.54 892.074 1740.54 892.074C1740.54 892.074 1771.89 893.201 1860.55 861.635C1949.2 830.069 2106.05 766.848 2183.81 734.244C2261.57 701.64 2233.99 708.634 2249.35 698.616C2264.71 688.598 2258.63 688.167 2260.62 684.156C2262.61 680.145 2262.82 676.998 2259.31 678.561C2255.79 680.125 2270.28 678.381 2243.05 691.974C2215.83 705.567 2155.66 736.481 2123.17 746.526C2090.68 756.571 2100.49 740.271 2080.62 742.2C2060.74 744.13 2040.08 750.298 2023.79 756.173C2007.5 762.049 2027.8 765.318 1999.15 771.579C1970.49 777.841 1908.95 788.277 1880.52 787.482C1852.08 786.688 1901.51 778.374 1856.98 767.608C1812.45 756.843 1715.36 747.087 1657.86 733.657C1600.36 720.226 1590.51 705.992 1569.46 700.455C1548.42 694.917 1561.42 707.929 1552.62 705.967C1543.83 704.005 1533.44 693.982 1525.47 690.642C1517.49 687.302 1525.33 681.933 1512.75 689.267C1500.17 696.601 1476.96 714.716 1462.56 727.311C1448.17 739.906 1443.51 740.867 1440.75 752.242C1437.99 763.617 1441.13 774.578 1448.76 784.188C1456.39 793.797 1444.97 786.915 1478.91 800.291C1512.85 813.667 1570.39 837.745 1618.46 851.067C1666.52 864.389 1681.09 867.259 1719.23 866.9C1757.36 866.541 1751.6 864.736 1809.15 849.27C1866.69 833.804 2011.5 785.27 2006.95 789.569C2002.4 793.867 1786.4 870.764 1786.4 870.764C1786.4 870.764 1752.61 879.634 1730.44 881.861C1708.71 884.043 1696.28 884.124 1674.52 882.217Z" fill="#FEBD02"/>
<path d="M2158.56 456.858C2138.63 443.4 2118.05 434.384 2094.16 435.046C2083 435.355 2071.98 436.771 2061.3 439.955C2050.67 443.126 2048.8 446.124 2050.76 457.13C2055.52 483.891 2056.27 510.674 2053.99 537.797C2049.57 590.229 2023.16 628.81 1980.89 658.004C1978.25 659.827 1974.85 660.751 1971.77 666.59C2037.7 650.841 2099.94 629.328 2164.3 615.318C2148.84 621.627 2133.32 627.821 2117.91 634.269C2081.62 649.461 2044.9 663.298 2006.75 673.349C1974.58 681.824 1941.7 684.096 1908.83 686.996C1904.35 687.392 1899.83 687.385 1895.36 687.858C1856.72 691.948 1830.81 668.322 1828.05 629.339C1823.78 569.142 1845.55 518.676 1883.78 474.415C1919.47 433.096 1963.91 405.301 2018.79 398.319C2067.38 392.137 2111.9 402.828 2148.72 437.564C2153.79 442.35 2157.37 448.238 2162.49 453.72C2162.48 456.026 2161.14 456.779 2158.56 456.858Z" fill="#FFBE02"/>
<path d="M1708.6 364.52C1706.15 368.473 1704.12 371.828 1701.57 374.722C1664.24 417.095 1636.55 465.298 1615.93 517.619C1603.71 548.61 1592.71 580.069 1582.93 611.938C1582.17 614.419 1582.26 618.135 1579.37 618.743C1575.83 619.485 1574.91 615.436 1573.02 613.313C1568.5 608.209 1568 603.271 1570.33 596.212C1577.48 574.571 1582.94 552.383 1589.47 530.534C1607.52 470.21 1640.86 419.886 1689.02 379.349C1694.75 374.523 1700.41 369.613 1706.65 364.476C1707.72 364.042 1708.25 363.875 1708.6 364.52Z" fill="#FCBC04"/>
<path d="M1995.26 693.553C1985.7 690.529 1962.18 694.895 1953.91 695.231C1939.71 696.644 1899.5 701.38 1882.93 702.295C1866.37 703.21 1879.02 764.745 1881.26 778.406C1883.51 792.066 1891 779.391 1894.14 770.598C1897.28 761.804 1894.55 743.669 1896.96 734.439C1899.38 725.209 1906.23 724.446 1906.23 724.446L1997.03 715.295L2001.74 710.351C2001.74 710.351 2004.83 696.577 1995.26 693.553Z" fill="#FEBD01"/>
<path d="M2122.68 660.781C2154.27 647.529 2185.26 634.623 2216.18 621.535C2221.68 619.204 2226.82 616.022 2232.22 613.428C2234.55 612.309 2237.31 610.397 2239.64 612.936C2241.78 615.26 2240.26 618.115 2239.34 620.574C2236.4 628.415 2230.02 632.881 2222.95 636.441C2204.62 645.669 2184.9 650.941 2165.26 656.416C2148.51 661.084 2131.84 665.997 2115.05 670.515C2108.73 672.217 2105.71 675.365 2105.29 682.32C2104.44 696.667 2102.71 710.967 2101.12 725.262C2100.77 728.429 2101.04 731.909 2098.75 734.689C2095.93 734.42 2096.5 732.14 2096.52 730.629C2096.66 716.241 2096.93 701.855 2097.18 687.469C2097.39 675.979 2102.54 668.141 2113.81 664.638C2116.66 663.754 2119.31 662.271 2122.68 660.781Z" fill="#FCBB06"/>
<path d="M1581.63 686.958C1628.61 704.744 1675.79 719.418 1724.08 730.61C1771.89 741.689 1820.69 745.292 1869.39 749.793C1840.8 767.308 1598.21 714.76 1568.31 685.337C1573.16 682.603 1576.98 685.888 1581.63 686.958Z" fill="#F9B709"/>
<path d="M2129.61 731.689C2128.37 732.511 2127.59 732.978 2126.75 733.283C2111.36 738.87 2108.62 736.706 2110.17 720.392C2111.13 710.249 2112.08 700.099 2112.71 689.932C2113.11 683.418 2116.17 679.303 2122.26 677.258C2144.16 669.908 2166.13 662.806 2188.55 657.185C2195.27 655.5 2201.76 656.029 2206.56 663.094C2206.58 664.549 2206.07 665.34 2204.83 666.438C2183.35 670.521 2163.46 677.735 2143.46 684.564C2139.49 685.917 2135.54 687.365 2132.56 691.497C2129.26 696.478 2130.07 701.499 2130.01 707.003C2130.12 712.137 2129.82 716.664 2130.42 721.762C2130.59 722.738 2130.67 723.124 2130.96 724.065C2131.44 725.362 2131.62 726.128 2131.69 727.514C2131.43 729.317 2130.85 730.353 2129.61 731.689Z" fill="#FCBB06"/>
<path d="M1549.79 624.976C1551.45 620.194 1549.69 613.691 1554.67 612.516C1559.91 611.282 1562.12 617.55 1565.35 620.866C1568.03 623.613 1568.95 626.925 1568.13 630.809C1564.42 648.43 1560.84 666.08 1557.12 683.699C1556.64 685.962 1556.47 689.02 1553.69 689.539C1551.02 690.04 1549.73 687.257 1548.11 685.565C1542.97 680.183 1541.31 674.051 1542.76 666.556C1545.4 653.009 1547.38 639.337 1549.79 624.976Z" fill="#FCBB04"/>
<path d="M1586.22 860.059C1586.3 861.293 1585.76 862.24 1584.93 863.663C1565.05 859.346 1527.84 844.148 1527.84 844.148C1527.84 844.148 1453.76 818.23 1433.17 800.291C1425.61 793.708 1417.49 791.517 1415.02 782.146C1466.3 820.572 1526.34 839.331 1586.22 860.059Z" fill="#F8B50A"/>
<path d="M1980.41 717.092C1982.86 713.448 1987.23 713.878 1991.21 714.236C1997.56 714.806 2000.44 712.023 2001.18 705.504C2003.08 712.581 2005 720.126 2006.23 727.781C2007.29 734.37 2010.44 735.878 2016.82 734.804C2036.03 731.577 2054.92 727.013 2073.86 722.63C2078.15 721.638 2082.4 720.014 2087.74 720.908C2086.07 725.292 2082.1 725.22 2079.15 726.111C2061.09 731.568 2042.73 735.848 2024.19 739.321C2008.88 742.187 2008.89 742.252 2006.36 757.919C2002.27 749.072 2001.89 740.534 2000.55 732.305C1998 716.6 2000.88 714.779 1980.41 717.092Z" fill="#F8B50A"/>
<path d="M2243.19 666.31C2245.85 664.61 2248 663.258 2250.16 661.906C2250.6 662.543 2251.03 663.179 2251.47 663.815C2242.14 674.21 2230.09 680.983 2216.1 689.529C2218.75 681.026 2224.04 678.934 2228.49 676.012C2233.23 672.899 2237.96 669.777 2243.19 666.31Z" fill="#F8B50A"/>
</svg>
