<svg width="682" height="547" viewBox="0 0 682 547" fill="none" xmlns="http://www.w3.org/2000/svg">
<path d="M666.667 479.889H14.8141C6.63282 479.889 0 487.4 0 496.667V530.223C0 539.488 6.63282 547 14.8141 547H666.666C674.847 547 681.48 539.488 681.48 530.223V496.667C681.481 487.399 674.848 479.889 666.667 479.889Z" fill="#DB5E0B"/>
<path fill-rule="evenodd" clip-rule="evenodd" d="M89 480C96.7388 456.333 110.765 420.035 127.957 377.768H552.924C572.408 425.135 587.437 462.986 593 480H89ZM525.895 312.711H154.892C171.399 273.413 189.083 232.163 206.059 192.984H475.298C492.101 232.461 509.611 273.825 525.895 312.711ZM446.356 125.194C415.674 53.5291 392.5 0 392.5 0H291C291 0 267.163 53.1933 235.606 125.194H446.356Z" fill="#F46F18"/>
<path d="M154.892 312.711H525.895C535.457 335.545 544.597 357.525 552.924 377.768H127.957C136.308 357.236 145.406 335.296 154.892 312.711Z" fill="#F3F3F3"/>
<path fill-rule="evenodd" clip-rule="evenodd" d="M446.356 125.194C455.477 146.498 465.262 169.404 475.298 192.984H206.059C216.304 169.338 226.291 146.447 235.606 125.194H446.356Z" fill="#E9E9E9"/>
</svg>
