<svg width="32" height="32" viewBox="0 0 32 32" fill="none" xmlns="http://www.w3.org/2000/svg">
  <path d="M7 5C5.89543 5 5 5.89543 5 7V11C5 12.1046 5.89543 13 7 13H11C12.1046 13 13 12.1046 13 11V7C13 5.89543 12.1046 5 11 5H7Z" stroke="#1e3a8a" stroke-width="2" stroke-linecap="round" stroke-linejoin="round"/>
  <path d="M21 5C19.8954 5 19 5.89543 19 7V11C19 12.1046 19.8954 13 21 13H25C26.1046 13 27 12.1046 27 11V7C27 5.89543 26.1046 5 25 5H21Z" stroke="#1e3a8a" stroke-width="2" stroke-linecap="round" stroke-linejoin="round"/>
  <path d="M7 19C5.89543 19 5 19.8954 5 21V25C5 26.1046 5.89543 27 7 27H11C12.1046 27 13 26.1046 13 25V21C13 19.8954 12.1046 19 11 19H7Z" stroke="#1e3a8a" stroke-width="2" stroke-linecap="round" stroke-linejoin="round"/>
  <path d="M19 20L27 20M23 16L23 24" stroke="#f97316" stroke-width="2" stroke-linecap="round"/>
</svg>
