<svg width="4926" height="3207" viewBox="0 0 4926 3207" fill="none" xmlns="http://www.w3.org/2000/svg">
<path d="M4281.75 416.961C4371.41 416.961 4444.1 490.837 4444.1 581.968V2952.96C4444.1 3044.09 4371.41 3117.96 4281.75 3117.96H786.45C696.785 3117.96 624.098 3044.09 624.098 2952.96V581.968C624.098 490.837 696.785 416.961 786.45 416.961H4281.75ZM814.887 490.772C749.748 490.773 696.932 544.095 696.932 609.843V2844.68C697.008 2874.43 707.861 2902.98 727.178 2924.24C738.574 2936.86 752.222 2946.87 767.301 2953.66C782.38 2960.46 798.578 2963.89 814.922 2963.77H4244.98C4310.12 2963.77 4362.93 2910.45 4362.93 2844.68V609.843C4362.93 566.081 4339.52 527.8 4304.66 507.143C4286.66 496.5 4266.48 490.876 4245.96 490.772H814.887Z" fill="#274DBD"/>
<path d="M4925 3021.96V3029.75C4924.98 3041.04 4922.86 3052.24 4918.77 3062.77C4908.86 3088.8 4887.43 3112.81 4857.16 3133.46C4792.02 3177.96 4686.1 3206.96 4566.48 3206.96H358.533C238.828 3206.96 132.943 3178.01 67.8444 3133.46C25.1732 3104.32 0 3068.5 0 3029.75V3021.96H4925Z" fill="#1E3E9D"/>
<path d="M4926 3022.01V3029.73C4925.98 3040.91 4923.86 3052 4919.77 3062.44C4854.63 3095.37 4763.22 3115.96 4662.02 3115.96H453.571C333.852 3115.96 227.954 3087.27 162.866 3043.16C153.364 3036.79 144.381 3029.7 136 3021.96L4926 3022.01Z" fill="#274DBD"/>
<path d="M657 3117.46C657 3127.65 653.979 3137.61 648.319 3146.07C642.66 3154.54 634.616 3161.15 625.204 3165.04C615.793 3168.94 605.437 3169.96 595.446 3167.97C585.456 3165.98 576.28 3161.07 569.078 3153.87C561.876 3146.67 556.973 3137.49 554.987 3127.5C553.002 3117.51 554.025 3107.15 557.925 3097.74C561.826 3088.33 568.429 3080.29 576.901 3074.63C585.372 3068.98 595.331 3065.96 605.517 3065.96C612.28 3065.96 618.977 3067.29 625.226 3069.88C631.474 3072.46 637.151 3076.26 641.932 3081.04C646.714 3085.82 650.505 3091.5 653.091 3097.75C655.676 3104 657.005 3110.7 657 3117.46Z" fill="#88B2FF"/>
<path d="M841 3117.46C841 3127.65 837.921 3137.6 832.152 3146.07C826.383 3154.54 818.184 3161.14 808.591 3165.04C798.998 3168.94 788.442 3169.96 778.258 3167.97C768.074 3165.98 758.719 3161.08 751.377 3153.88C744.035 3146.67 739.035 3137.5 737.009 3127.51C734.983 3117.52 736.023 3107.16 739.996 3097.75C743.97 3088.34 750.699 3080.3 759.333 3074.64C767.966 3068.98 778.117 3065.96 788.5 3065.96C795.395 3065.96 802.223 3067.29 808.594 3069.88C814.964 3072.46 820.753 3076.26 825.628 3081.04C830.504 3085.82 834.371 3091.5 837.008 3097.75C839.646 3104 841.002 3110.7 841 3117.46Z" fill="#88B2FF"/>
<path d="M2171 3020.96V3024.42C2171 3052.34 2190.01 3074.96 2213.46 3074.96H2823.54C2846.99 3074.96 2866 3052.34 2866 3024.42V3020.96H2171Z" fill="#88B2FF"/>
<path d="M4363.98 609.164V738.961H697V609.164C697.042 578.092 709.486 548.306 731.604 526.335C753.721 504.364 783.707 492.003 814.986 491.961H4246.01C4277.3 491.993 4307.29 504.352 4329.41 526.325C4351.53 548.297 4363.97 578.089 4364 609.164H4363.98Z" fill="#F46F18"/>
<path d="M4029 620.978C4029 627.109 4027.15 633.101 4023.68 638.196C4020.22 643.292 4015.3 647.263 4009.54 649.606C4003.79 651.95 3997.45 652.561 3991.34 651.363C3985.23 650.165 3979.62 647.211 3975.22 642.875C3970.82 638.539 3967.82 633.015 3966.6 627.002C3965.39 620.989 3966.01 614.757 3968.4 609.094C3970.78 603.43 3974.82 598.59 3980 595.184C3985.18 591.779 3991.27 589.961 3997.5 589.961C4001.64 589.961 4005.74 590.763 4009.56 592.322C4013.38 593.881 4016.85 596.166 4019.78 599.047C4022.71 601.927 4025.03 605.347 4026.61 609.11C4028.19 612.873 4029 616.906 4029 620.978Z" fill="white"/>
<path d="M4129 620.978C4129 627.109 4127.18 633.101 4123.77 638.196C4120.36 643.292 4115.52 647.263 4109.85 649.606C4104.19 651.95 4097.95 652.561 4091.94 651.363C4085.93 650.165 4080.41 647.211 4076.07 642.875C4071.74 638.539 4068.79 633.015 4067.59 627.002C4066.4 620.989 4067.01 614.757 4069.36 609.094C4071.71 603.43 4075.68 598.59 4080.78 595.184C4085.88 591.779 4091.87 589.961 4098 589.961C4102.07 589.961 4106.1 590.763 4109.87 592.322C4113.63 593.881 4117.05 596.166 4119.93 599.047C4122.81 601.927 4125.09 605.347 4126.65 609.11C4128.2 612.873 4129 616.906 4129 620.978Z" fill="white"/>
<path d="M4226 620.978C4226 627.109 4224.15 633.101 4220.68 638.196C4217.22 643.292 4212.3 647.263 4206.54 649.606C4200.79 651.95 4194.45 652.561 4188.34 651.363C4182.23 650.165 4176.62 647.211 4172.22 642.875C4167.82 638.539 4164.82 633.015 4163.6 627.002C4162.39 620.989 4163.01 614.757 4165.4 609.094C4167.78 603.43 4171.82 598.59 4177 595.184C4182.18 591.779 4188.27 589.961 4194.5 589.961C4198.64 589.961 4202.74 590.763 4206.56 592.322C4210.38 593.881 4213.85 596.166 4216.78 599.047C4219.71 601.927 4222.03 605.347 4223.61 609.11C4225.19 612.873 4226 616.906 4226 620.978Z" fill="white"/>
<path d="M1127.11 2457.09C1206.22 2444.05 1279.43 2407.07 1336.87 2351.13C1394.31 2295.19 1433.23 2222.98 1448.37 2144.24C1463.5 2065.5 1454.14 1984.02 1421.53 1910.77C1388.93 1837.51 1334.65 1776.02 1266.02 1734.57L924.713 1528.29L829.245 1686.21L1170.65 1892.47C1194 1906.57 1214.36 1925.14 1230.54 1947.11C1246.72 1969.09 1258.42 1994.03 1264.96 2020.53C1271.5 2047.02 1272.75 2074.54 1268.66 2101.52C1264.56 2128.5 1255.19 2154.41 1241.07 2177.76C1181.89 2275.84 1053.86 2307.4 955.767 2248.16L614.358 2041.87L518.882 2199.76L860.286 2406.03C940.251 2454.43 1034.92 2472.55 1127.11 2457.09Z" fill="#FF625F"/>
<path d="M1127.11 2457.09C1206.22 2444.05 1279.43 2407.07 1336.87 2351.13C1394.31 2295.19 1433.23 2222.98 1448.37 2144.24C1463.5 2065.5 1454.14 1984.02 1421.53 1910.77C1388.93 1837.51 1334.65 1776.02 1266.02 1734.57L924.713 1528.29L829.245 1686.21L1170.65 1892.47C1194 1906.57 1214.36 1925.14 1230.54 1947.11C1246.72 1969.09 1258.42 1994.03 1264.96 2020.53C1271.5 2047.02 1272.75 2074.54 1268.66 2101.52C1264.56 2128.5 1255.19 2154.41 1241.07 2177.76C1181.89 2275.84 1053.86 2307.4 955.767 2248.16L614.358 2041.87L518.882 2199.76L860.286 2406.03C940.251 2454.43 1034.92 2472.55 1127.11 2457.09Z" fill="#CC394A"/>
<path d="M922.232 1527.15L827.949 1688.56L972.805 1773.17L1067.09 1611.76L922.232 1527.15Z" fill="#C3C0C0"/>
<path d="M759.787 2129.74L664.881 2288.97L518.956 2199.74L614.367 2041.87L759.787 2129.74Z" fill="#C3C0C0"/>
<path d="M556.663 2135.19L898.064 2341.44C942.161 2368.46 991.165 2386.49 1042.26 2394.5C1093.35 2402.5 1145.52 2400.32 1195.77 2388.09C1246.01 2375.86 1293.35 2353.81 1335.04 2323.21C1376.73 2292.62 1411.96 2254.08 1438.71 2209.81C1465.45 2165.55 1483.17 2116.43 1490.86 2065.29C1498.55 2014.15 1496.05 1962 1483.5 1911.83C1470.95 1861.66 1448.61 1814.46 1417.75 1772.96C1386.9 1731.46 1348.14 1696.47 1303.71 1670L962.409 1463.72L932.022 1514.02L866.997 1621.59L1208.4 1827.85C1255.57 1856.34 1289.49 1902.41 1302.69 1955.92C1315.9 2009.42 1307.31 2065.98 1278.81 2113.15C1250.31 2160.32 1204.25 2194.24 1150.74 2207.44C1097.24 2220.65 1040.68 2212.06 993.508 2183.56L652.201 1977.26L619.819 2030.66L556.663 2135.19Z" fill="#F9394A"/>
<path d="M619.816 2030.66L966.211 2239.87C966.211 2239.87 1177.39 2323.4 1258.52 2141.17C1226.44 2178.38 1182.24 2203.05 1133.73 2210.81C1085.22 2218.57 1035.52 2208.93 993.441 2183.58L652.133 1977.28L619.816 2030.66Z" fill="#F9747F"/>
<path d="M931.953 1514.04C1004.01 1554.48 1286.69 1715.18 1347.29 1779.47C1412.83 1848.99 1490.69 1927.37 1479.15 2110.22C1501.82 2027.74 1496.94 1940.12 1465.26 1860.67C1433.59 1781.22 1376.84 1714.28 1303.64 1670.02L962.34 1463.74L931.953 1514.04Z" fill="#F9747F"/>
<path d="M1103.58 1549.06L1010.54 1708.38L865.677 1623.76L959.946 1462.34L1103.58 1549.06Z" fill="#E1E1E1"/>
<path d="M797.49 2065.16L702.588 2224.41L556.663 2135.19L652.074 1977.31L797.49 2065.16Z" fill="#E1E1E1"/>
<path d="M842.728 1963.22L691.572 1804.74C691.252 1804.4 690.852 1804.15 690.41 1804.01C689.968 1803.87 689.498 1803.84 689.041 1803.92C688.584 1804.01 688.155 1804.2 687.793 1804.49C687.432 1804.79 687.148 1805.16 686.969 1805.59L667.545 1851.96C667.267 1852.62 666.743 1853.15 666.082 1853.44C665.422 1853.73 664.676 1853.75 664 1853.5L534.385 1805.87C533.77 1805.65 533.095 1805.64 532.478 1805.86C531.86 1806.08 531.34 1806.51 531.008 1807.08C530.675 1807.64 530.551 1808.31 530.658 1808.95C530.765 1809.6 531.095 1810.19 531.592 1810.62L692.877 1948.64C693.2 1948.92 693.582 1949.12 693.993 1949.22C694.404 1949.33 694.834 1949.34 695.25 1949.26C695.666 1949.17 696.057 1948.99 696.394 1948.74C696.731 1948.48 697.005 1948.15 697.194 1947.77L715.639 1910.77C715.969 1910.11 716.546 1909.61 717.244 1909.37C717.941 1909.14 718.704 1909.19 719.365 1909.51L839.591 1967.65C840.173 1967.88 840.815 1967.91 841.415 1967.73C842.014 1967.55 842.536 1967.18 842.897 1966.67C843.259 1966.16 843.438 1965.54 843.408 1964.92C843.377 1964.29 843.138 1963.69 842.728 1963.22Z" fill="#FEBD02"/>
<path d="M829.973 1754.66L614.339 1528.56C613.879 1528.07 613.303 1527.7 612.664 1527.48C612.024 1527.27 611.342 1527.23 610.679 1527.35C610.016 1527.47 609.395 1527.76 608.873 1528.18C608.351 1528.61 607.944 1529.16 607.69 1529.78L580.062 1595.91C579.663 1596.85 578.914 1597.61 577.971 1598.02C577.028 1598.43 575.963 1598.46 574.999 1598.1L390.047 1530.18C389.167 1529.85 388.201 1529.85 387.318 1530.16C386.435 1530.48 385.692 1531.1 385.218 1531.91C384.744 1532.72 384.57 1533.67 384.727 1534.59C384.884 1535.51 385.361 1536.35 386.075 1536.96L616.154 1733.86C616.613 1734.25 617.158 1734.54 617.746 1734.7C618.335 1734.85 618.95 1734.87 619.546 1734.75C620.142 1734.63 620.702 1734.37 621.184 1734C621.665 1733.63 622.055 1733.15 622.324 1732.6L648.627 1679.83C649.1 1678.89 649.922 1678.17 650.918 1677.83C651.914 1677.49 653.003 1677.56 653.95 1678.02L825.36 1761.01C826.201 1761.41 827.154 1761.5 828.055 1761.27C828.956 1761.04 829.748 1760.5 830.295 1759.75C830.842 1759 831.109 1758.08 831.05 1757.15C830.991 1756.22 830.61 1755.34 829.973 1754.66Z" fill="#FEBD02"/>
<path d="M3328.47 1180.35C3325.27 1187.02 3320.16 1192.6 3313.79 1196.37C3307.42 1200.14 3300.08 1201.94 3292.69 1201.54C3285.29 1201.14 3278.19 1198.55 3272.26 1194.11C3266.34 1189.67 3261.87 1183.57 3259.41 1176.58C3256.96 1169.6 3256.63 1162.04 3258.46 1154.87C3260.3 1147.7 3264.23 1141.23 3269.74 1136.29C3275.25 1131.35 3282.11 1128.16 3289.44 1127.11C3296.76 1126.06 3304.24 1127.21 3310.91 1130.42C3319.86 1134.71 3326.74 1142.38 3330.03 1151.75C3333.33 1161.11 3332.76 1171.4 3328.47 1180.35Z" fill="white"/>
<path fill-rule="evenodd" clip-rule="evenodd" d="M1783.79 2721.42L1756.18 2768.93C1742.05 2807.87 1747.36 2842.31 1760.53 2874.84L1821.72 2901.69L1834.66 2926.96C1860.03 2935.84 1916.51 2939.7 1939.27 2924.86C1948.4 2895.04 1981.94 2804.82 1984.15 2751.31L1932.07 2698.34C1946.48 2544.93 1960.14 2402.79 1974.54 2249.38C1877.28 2197.67 1793.67 2217.42 1705.04 2276.22L1783.79 2721.42Z" fill="#F5A85E"/>
<path fill-rule="evenodd" clip-rule="evenodd" d="M3132.68 1271.21C3048.09 1114.04 2881.19 1086.15 2730.43 1027.1L2459.5 1156.46L2236.92 1011.99C2139.83 1057.31 1991.31 1118.19 1906.8 1174.52C1856.15 1215.1 1792.62 1334.69 1759.08 1497.23C1707.01 1749.57 2009.73 1690.39 2013.68 1702.82C2079.51 1909.79 2087.52 2284.38 2087.52 2682.82C2215.68 2674.8 2604.2 2646.76 2776.43 2658.78C2787.21 2577.08 2847.1 1783.88 2872.56 1737.55C2872.59 1737.51 2884.58 1721.54 2896.59 1769.6C2908.61 1809.65 3220.36 1758.16 3205.87 1618.97C3197.16 1535.43 3174.79 1349.41 3132.68 1271.21Z" fill="#3B3B3C"/>
<path d="M2294.12 900.934L2294.16 900.738C2286.84 900.042 2280.28 899.352 2275.24 898.545C2275.22 898.558 2275.2 898.565 2275.18 898.571C2279.77 899.326 2286.12 900.14 2294.12 900.934Z" fill="#4B4C47"/>
<path fill-rule="evenodd" clip-rule="evenodd" d="M2201.68 1523.74L2667.89 1533.99C2720.96 1268.64 2790.84 1108.35 2828.96 1042.42C2858.53 1053.28 2906.63 1078.79 2931.31 1095.66C2913.93 1143.23 2824.51 1369.03 2807.81 1605.51C2795.89 1774.41 2778.45 1996.45 2778.67 2097.84C2793.14 2114.73 2806.13 2122.25 2825.76 2138.31V2963.19H2057.63C2084.63 2710.12 2081.76 2403.74 2075.95 2128.43C2072.37 1958.63 2074.7 1775.07 2073.48 1616.1C2071.39 1341.93 2063.52 1127.1 2059.5 1085.57C2087.4 1066.53 2134.08 1041.61 2164.6 1033.83C2187.51 1195.51 2194.73 1336.83 2201.68 1523.74Z" fill="#F46F18"/>
<path d="M2201.48 1496.97L2069.88 1500.01L2069.62 1426.32L2198.29 1422.12L2201.48 1496.97ZM2056.97 1526.23H2057.27L2215.29 1522.57C2218.77 1522.49 2222.07 1521.02 2224.45 1518.48C2226.83 1515.93 2228.08 1512.54 2227.94 1509.07L2223.64 1408.2C2223.34 1401.1 2217.43 1395.59 2210.27 1395.8L2056.2 1400.83C2049.19 1401.06 2043.64 1406.82 2043.66 1413.82L2044.02 1513.32C2044.03 1516.8 2045.44 1520.13 2047.93 1522.56C2050.36 1524.92 2053.6 1526.23 2056.97 1526.23Z" fill="#989A9A"/>
<path d="M2828.68 1445.66L2817.13 1519.46L2676.25 1504.5L2690.32 1430.4L2828.68 1445.66ZM2828.04 1546.6C2834.35 1546.6 2839.83 1542.01 2840.83 1535.65L2856.38 1436.27C2856.93 1432.78 2856.02 1429.21 2853.87 1426.4C2851.72 1423.59 2848.52 1421.78 2845 1421.39L2681.24 1403.33C2674.63 1402.56 2668.36 1407.14 2667.1 1413.79L2648.17 1513.48C2647.5 1517.04 2648.34 1520.71 2650.5 1523.62C2652.66 1526.53 2655.93 1528.4 2659.53 1528.79L2826.66 1546.53L2828.04 1546.6Z" fill="#989A9A"/>
<path fill-rule="evenodd" clip-rule="evenodd" d="M2206.52 1676.38L2635.9 1688.08L2619.98 1978.18L2402.71 2095.35L2209.31 1971.21L2206.52 1676.38Z" fill="#F28713"/>
<path fill-rule="evenodd" clip-rule="evenodd" d="M2880.64 1478.63C2824.57 1652 2875.35 1983.98 2901.47 2156.9C3015.83 2126.31 3057.45 2114.02 3217.72 2167C3219.62 1946.52 3226.06 1720.35 3187.41 1472.33C3104.43 1422.18 2970.28 1428.95 2880.64 1478.63Z" fill="#3B3B3C"/>
<path fill-rule="evenodd" clip-rule="evenodd" d="M2865.95 1885.7C2931.62 1872.53 2999.78 1854.23 3066.97 1832.72C3117.85 1816.43 3168.05 1798.36 3216.12 1779.3C3217.32 1809.68 3218.11 1839.8 3218.61 1869.71C3177.72 1885.33 3135.65 1900.17 3093.19 1913.76C3020.66 1936.98 2946.77 1956.65 2875.31 1970.62C2871.93 1943.02 2868.75 1914.56 2865.95 1885.7ZM2855.32 1692.75C2855.38 1721.14 2856.29 1750.23 2857.85 1779.55C2913.78 1766.84 2970.64 1751.03 3026.68 1733.08C3089.35 1713.02 3151.18 1690.25 3209.64 1666.2C3207.39 1636.88 3204.67 1607.28 3201.37 1577.39C3138.12 1604.22 3069.93 1629.8 3000.46 1652.04C2952.15 1667.51 2903.34 1681.31 2855.32 1692.75Z" fill="#FAFAFA"/>
<path fill-rule="evenodd" clip-rule="evenodd" d="M1800.06 1349.81C1715.02 1565.33 1660.49 1917.15 1670.1 2105.45C1671.49 2132.75 1681.77 2185.24 1686.55 2209.13C1744.62 2227.05 1856.28 2236.01 1979.39 2253.63C2000.59 2135.73 2016.06 2066.97 2026.83 1902.47C2034.7 1782.39 2037.38 1668.03 2036.27 1560.14C2036.14 1547.24 2035.95 1534.44 2035.71 1521.73C1958.49 1463.09 1877.28 1408.45 1800.06 1349.81Z" fill="#3B3B3C"/>
<path fill-rule="evenodd" clip-rule="evenodd" d="M1696.4 1757.42C1760.06 1784.48 1828.8 1810.3 1898.82 1832.71C1942.07 1846.55 1985.72 1859.06 2028.85 1869.74C2028.21 1880.6 2027.54 1891.51 2026.82 1902.47C2025.57 1921.5 2024.27 1939.23 2022.89 1955.91C1972.97 1944 1922.46 1929.72 1872.6 1913.75C1807.93 1893.05 1744.16 1869.47 1684.05 1844.57C1687.6 1816 1691.72 1786.82 1696.4 1757.42ZM1734.58 1564.47C1727.92 1592.3 1721.68 1620.66 1715.9 1649.22C1785.88 1679.5 1861.85 1708.34 1939.12 1733.08C1970.54 1743.13 2002.23 1752.53 2033.86 1761.08C2034.88 1731.42 2035.58 1702.17 2036.01 1673.33C2012.43 1666.67 1988.82 1659.55 1965.33 1652.03C1884.79 1626.25 1805.95 1595.98 1734.58 1564.47Z" fill="#FAFAFA"/>
<path d="M2403.81 1863.87C2405.4 1863.87 2406.98 1863.6 2408.49 1863.07L2575.49 1804.05C2582.82 1801.47 2586.65 1793.44 2584.07 1786.12C2581.47 1778.81 2573.46 1774.96 2566.14 1777.56L2404.14 1834.81L2254.24 1774.41C2247.04 1771.51 2238.86 1775 2235.95 1782.19C2233.06 1789.39 2236.54 1797.57 2243.74 1800.47L2398.57 1862.85C2400.25 1863.53 2402.03 1863.87 2403.81 1863.87Z" fill="#6E7D85"/>
<path d="M2437.06 1527.38C2440.36 1527.38 2443.13 1524.79 2443.33 1521.46L2455.81 1308.49C2456.01 1305.02 2453.36 1302.04 2449.89 1301.84C2446.45 1301.51 2443.46 1304.27 2443.25 1307.75L2430.77 1520.72C2430.57 1524.19 2433.22 1527.16 2436.68 1527.37L2437.06 1527.38Z" fill="#898F7F"/>
<path fill-rule="evenodd" clip-rule="evenodd" d="M3215.82 2202.44C3316.86 2053.54 3370.63 1922.97 3448.04 1783.23L3540.1 1728.51L3574.92 1600.41L3546.69 1542.21C3543.82 1530.46 3544.92 1516.61 3548.4 1493.41C3539.25 1472.43 3517.42 1458.52 3494.8 1453.07C3479.76 1458.13 3444.89 1469.53 3411.45 1486.14L3366.15 1522.1C3344.19 1548.26 3328.51 1590.49 3319.49 1607.18L3325.83 1690.95C3197.58 1841.69 3044.65 1985.98 2934.87 2180.71C2920.92 2184.94 2909.09 2185.46 2899.81 2190.62C2946.8 2263.29 2999.98 2306.79 3049.96 2319C3116.04 2304.47 3150.38 2289.33 3215.82 2202.44Z" fill="#F5A85E"/>
<path fill-rule="evenodd" clip-rule="evenodd" d="M3320.24 1605.76L3333.08 1716.33L3349.88 1758.76L3363.12 1745.32L3373.05 1631.64L3464.06 1557.82C3475.1 1536.95 3461.68 1524.42 3443.83 1523.68L3368.96 1524.56L3320.24 1605.76Z" fill="#F5A85E"/>
<path fill-rule="evenodd" clip-rule="evenodd" d="M3499.99 1548.75L3385.22 1605.93C3385.7 1678.42 3396.87 1713.15 3433.14 1731.57C3455.04 1727.47 3498.14 1726.46 3512.25 1713.24L3499.99 1548.75Z" fill="#F5A85E"/>
<path fill-rule="evenodd" clip-rule="evenodd" d="M2009.16 1114.19C2063.41 1069.84 2162.66 1024.21 2235.13 1003C2292.98 1184.26 2434.06 1241.65 2459.44 1250.58C2436.95 1692.04 2395.36 2304.64 2390.99 2614.81C2297.31 2616.5 2152.71 2592.81 2018.97 2557.24C2013.25 2206.28 1955.19 1451.19 2009.16 1114.19ZM2747.11 1007.22C2720.57 1101.36 2592.32 1217.06 2473.3 1250.13C2438.37 1706.31 2432.23 2235.57 2427.22 2610.67C2537.72 2628.17 2853.68 2601.19 2914.45 2559.64C2918.35 1943.48 2961.24 1692.33 2974.59 1120.86C2909.03 1067.76 2846.73 1035.56 2747.11 1007.22Z" fill="#F46F18"/>
<path fill-rule="evenodd" clip-rule="evenodd" d="M2013.82 2387.02C2130.7 2419.29 2262.97 2434.45 2396.08 2435.66C2393.53 2502.36 2387.55 2814.2 2386.82 2866.15C2282.67 2858.42 2167.39 2848.35 2033.66 2812.78C2032.86 2763.41 2016.31 2450.33 2013.82 2387.02ZM2429.62 2435.68C2428.74 2496.84 2423.8 2810.47 2423.06 2865.68C2535.65 2875.85 2850.04 2852.8 2910.81 2811.25C2911.26 2738.85 2917.4 2432.2 2918.63 2367.84C2778.18 2409.22 2604.24 2434.21 2429.62 2435.68Z" fill="#3B3B3C"/>
<path fill-rule="evenodd" clip-rule="evenodd" d="M2026.05 2639.35C2120.81 2661.96 2251.5 2678.53 2390.22 2683.68C2390.78 2655.44 2391.38 2626.45 2391.98 2598.52C2246.56 2593.08 2111.4 2574.71 2021.65 2550.11C2023.11 2579.43 2024.62 2609.89 2026.05 2639.35ZM2427.11 2599.58L2425.79 2684.74C2455.33 2685.41 2485.13 2685.55 2514.9 2685.11C2656.37 2683.01 2798.4 2667.82 2913.55 2634.17C2914.09 2604.5 2914.66 2573.91 2915.22 2544.33C2804.73 2581.37 2659.54 2597.78 2513.9 2599.94C2484.86 2600.37 2455.85 2600.24 2427.11 2599.58Z" fill="#FAFAFA"/>
<path fill-rule="evenodd" clip-rule="evenodd" d="M2121.5 1054.61C2149.1 1040.1 2182.56 1028.06 2214.25 1016.59L2213.85 1025.78C2202.19 1296.78 2183.84 1736.09 2204.69 2365.83C2247.88 2372.62 2366.9 2377.11 2393.55 2377.46L2391.09 2469.57C2279.41 2472.51 2124.83 2456.35 2014.82 2425.65L2011.31 2330.05C2036.96 2339.01 2075.98 2345.84 2112.25 2352.56C2093.17 1759.93 2109.94 1326.31 2121.5 1054.61Z" fill="#FAFAFA"/>
<path fill-rule="evenodd" clip-rule="evenodd" d="M2459.76 2378.81C2517.62 2381.34 2621 2377.61 2675.49 2367.41C2686.34 2029.6 2701.52 1753.84 2717.1 1528.69C2731.66 1318.52 2747.02 1151.78 2759.49 1016.52C2792.86 1027.73 2821.41 1035.31 2848.44 1049.6C2836.83 1176.43 2822.93 1334.68 2809.06 1534.88C2793.57 1758.46 2778.57 2029.15 2767.9 2355.13C2815.51 2346.92 2870.32 2333.97 2919.68 2318.75L2918.04 2415.72C2864.72 2431.03 2811.35 2441.96 2760.57 2449.76C2699.39 2459.17 2583.21 2472.04 2458.32 2470.84C2459.6 2440.77 2458.32 2410.07 2459.76 2378.81Z" fill="#FAFAFA"/>
<path fill-rule="evenodd" clip-rule="evenodd" d="M2751.65 1009.66C2750.95 984.177 2749.21 951.354 2744.32 923.776C2698.24 1008.27 2586.16 1100.08 2488.75 1110.21L2469.9 1252.66C2593.41 1223.44 2683.99 1167.37 2751.65 1009.66Z" fill="#3B3B3C"/>
<path fill-rule="evenodd" clip-rule="evenodd" d="M2222.68 1007.83L2249.91 915.385C2270.87 998.313 2373.5 1097.47 2456.25 1107.59L2460.45 1254.75C2324.35 1210.86 2237.97 1136.21 2222.68 1007.83Z" fill="#3B3B3C"/>
<path fill-rule="evenodd" clip-rule="evenodd" d="M2454.16 2864.59C2421.18 2866.42 2396.19 2866.95 2358.84 2865.11L2444.73 1107.03L2500.25 1110.17C2490.47 1579.41 2463.94 2395.35 2454.16 2864.59Z" fill="#3B3B3C"/>
<path fill-rule="evenodd" clip-rule="evenodd" d="M1753.3 2675.2C1727.25 2524.97 1702.58 2318.48 1678.49 2164.18C1775.22 2102.64 1892.9 2099.07 1989.64 2152.9L1942.49 2682.36C1891.34 2682.34 1810.04 2678.72 1753.3 2675.2Z" fill="#3B3B3C"/>
<path fill-rule="evenodd" clip-rule="evenodd" d="M3305.99 1714L3431.04 1814.44C3362.32 1942.6 3309.3 2064.68 3215.82 2202.45C3150.37 2289.34 3116.04 2304.47 3049.96 2319C3006.94 2308.5 2961.56 2274.81 2919.79 2219.3L2922.83 2142.48C3029.09 1991.21 3182.07 1856.55 3305.99 1714Z" fill="#3B3B3C"/>
<path d="M3254.87 1448.26L3275.54 1457.86C3280.25 1460.03 3284.2 1463.55 3286.9 1467.97C3289.61 1472.39 3290.94 1477.51 3290.74 1482.68L3290.01 1502.21C3289.91 1504.86 3290.69 1507.47 3292.22 1509.63L3313.27 1539.29C3314.27 1540.7 3315.57 1541.88 3317.06 1542.75C3318.56 1543.62 3320.23 1544.15 3321.95 1544.32C3323.67 1544.48 3325.41 1544.27 3327.04 1543.7C3328.68 1543.13 3330.17 1542.21 3331.41 1541.01L3425.78 1450.56C3428.86 1447.59 3431.26 1443.99 3432.79 1440.01C3434.33 1436.02 3434.98 1431.75 3434.68 1427.49C3434.16 1419.94 3430.71 1412.9 3425.08 1407.85L3394.94 1380.75L3254.87 1448.26Z" fill="#232163"/>
<path d="M3425.81 1450.61L3331.44 1541.07L3357.37 1568.33L3425.81 1450.61Z" fill="#171448"/>
<path d="M3780.46 1228.98C3714.04 1234.78 3613.38 1178.42 3529.14 1082.07C3445.15 986.036 3402.69 879.036 3416.87 813.945C3417.82 809.483 3419.11 805.1 3420.72 800.834C3424.69 789.818 3431.36 779.972 3440.11 772.198L3389.77 816.243C3332.82 866.043 3372.68 1004.78 3478.76 1126.07C3584.85 1247.36 3717.03 1305.36 3774 1255.55L3824.35 1211.52C3815.48 1219.16 3804.84 1224.46 3793.41 1226.95C3789.14 1227.93 3784.82 1228.61 3780.46 1228.98Z" fill="#232163"/>
<path d="M3844.05 1095.09C3856.35 1146.04 3850.79 1188.4 3824.32 1211.55C3785.39 1245.59 3711.34 1229.29 3634.48 1176.83C3598.87 1152.5 3562.69 1120.47 3529.12 1082.08C3493.45 1041.3 3465.24 998.515 3445.74 957.842C3444.64 955.563 3443.57 953.278 3442.53 950.984C3406.93 873.441 3403.39 804.362 3440.12 772.243C3466.59 749.091 3509.31 749.257 3558.15 768.233C3560.35 769.081 3562.57 769.985 3564.81 770.919C3619.34 793.775 3680.79 839.363 3735.33 901.736C3792.1 966.626 3829.85 1036.45 3844.05 1095.09Z" fill="#2256B6"/>
<path d="M3713.57 1008.69L3586.9 1139.9C3545.8 1103.91 3509.67 1062.59 3479.49 1017.05L3626.39 909.019C3613.47 920.31 3622.52 951.781 3646.6 979.318C3651.18 984.578 3656.16 989.475 3661.5 993.963C3681.96 1011.11 3703.23 1017.74 3713.57 1008.69Z" fill="#F46F18"/>
<path d="M3693.38 938.399C3717.45 965.921 3726.5 997.392 3713.59 1008.7C3700.68 1020 3670.67 1006.85 3646.59 979.315C3622.51 951.779 3613.49 920.313 3626.4 909.007C3639.31 897.701 3669.32 910.877 3693.38 938.399Z" fill="#1E3E9D"/>
<path d="M3234.94 1539.87C3237.75 1539.64 3240.54 1539.17 3243.27 1538.47L3146.55 1567.27C3121.41 1577.46 3075.47 1554.78 3037.85 1511.76C3019.03 1490.25 3005.51 1467.32 2998.37 1446.87C2991.24 1426.41 2990.57 1408.38 2997.31 1396.62L3038.68 1304.59C3038.19 1305.77 3037.77 1306.94 3037.37 1308.17C3037.19 1308.82 3036.98 1309.5 3036.81 1310.18C3035.85 1313.73 3035.22 1317.36 3034.92 1321.03C3034.82 1321.77 3034.8 1322.55 3034.76 1323.31C3034.57 1326.82 3034.6 1330.34 3034.85 1333.85C3034.98 1335.55 3035.15 1337.32 3035.36 1339.1C3035.68 1341.75 3036.1 1344.44 3036.64 1347.22C3036.83 1348.13 3037.06 1349.13 3037.22 1350C3037.39 1350.87 3037.64 1351.91 3037.83 1352.79C3038.02 1353.66 3038.32 1354.77 3038.56 1355.75C3038.8 1356.73 3039.04 1357.62 3039.3 1358.53C3040.09 1361.43 3041 1364.37 3042.01 1367.36C3042.49 1368.84 3043.01 1370.34 3043.58 1371.85C3044.14 1373.35 3044.83 1375.16 3045.43 1376.83C3045.81 1377.72 3046.15 1378.54 3046.52 1379.45C3047.77 1382.53 3049.14 1385.64 3050.56 1388.8C3075.52 1440.15 3113.76 1483.89 3161.32 1515.49C3162.84 1516.46 3164.37 1517.39 3165.88 1518.3C3167.39 1519.22 3168.66 1519.95 3170.03 1520.76L3170.57 1521.08L3172.91 1522.36C3174.32 1523.17 3175.79 1523.94 3177.21 1524.69C3178.63 1525.45 3180.03 1526.14 3181.42 1526.82C3183.31 1527.75 3185.21 1528.67 3187.14 1529.57C3189.07 1530.47 3190.77 1531.19 3192.6 1531.9C3197.81 1534.02 3203.15 1535.8 3208.6 1537.23C3209.45 1537.47 3210.32 1537.68 3211.2 1537.86L3213.72 1538.36C3219.98 1539.71 3226.39 1540.27 3232.79 1540.04C3233.5 1540 3234.29 1540 3234.94 1539.87Z" fill="#1E3E9D"/>
<path d="M3262.38 1506.88C3226.47 1504.21 3177.18 1474.37 3135.3 1426.49C3096.05 1381.61 3073.35 1332.34 3072.45 1296.77C3072.25 1291.3 3072.69 1285.81 3073.76 1280.44C3075.33 1271.44 3079.83 1263.21 3086.57 1257.04L3048.81 1290.06C3017.7 1317.33 3039.48 1393.18 3097.51 1459.54C3155.54 1525.9 3227.82 1557.58 3258.97 1530.36L3296.73 1497.33C3289.71 1503.2 3280.95 1506.58 3271.81 1506.93C3268.67 1507.15 3265.51 1507.13 3262.38 1506.88Z" fill="#232163"/>
<path d="M3694.24 1270.87L3612.11 1306.1L3575.68 1321.62C3562.43 1327.3 3549.31 1333.26 3536.34 1339.49C3524.65 1345.08 3513.1 1350.87 3501.71 1356.87C3479.83 1368.3 3458.43 1380.48 3437.5 1393.42C3387.82 1424.07 3340.75 1458.78 3296.79 1497.2C3289.78 1503.07 3281.01 1506.45 3271.87 1506.8C3268.72 1507.02 3265.56 1507.01 3262.41 1506.77C3226.5 1504.1 3177.22 1474.26 3135.34 1426.38C3128.96 1419.1 3123.04 1411.68 3117.57 1404.25C3089.31 1365.87 3073.27 1326.47 3072.5 1296.68C3072.29 1291.2 3072.73 1285.72 3073.81 1280.34C3075.37 1271.34 3079.88 1263.11 3086.62 1256.94C3128.18 1220.58 3166.83 1181.04 3202.23 1138.66L3208.27 1131.33C3223.87 1112.29 3238.8 1092.72 3253.05 1072.6C3260.56 1062.02 3267.85 1051.34 3274.9 1040.57C3282.8 1028.53 3290.46 1016.3 3297.88 1003.87L3318.16 969.95L3363.99 893.272C3367.37 957.979 3408.56 1045.82 3478.73 1126.05C3488.91 1137.69 3499.29 1148.73 3509.88 1159.16C3572.16 1220.66 3639.69 1260.55 3694.13 1270.75L3694.24 1270.87Z" fill="#274DBD"/>
<path d="M3694.24 1270.87L3612.1 1306.1L3575.68 1321.62C3562.43 1327.3 3549.31 1333.26 3536.34 1339.49C3524.65 1345.08 3513.1 1350.87 3501.71 1356.87C3479.83 1368.3 3458.43 1380.48 3437.5 1393.42C3387.82 1424.07 3340.75 1458.78 3296.79 1497.2C3289.78 1503.07 3281.01 1506.45 3271.87 1506.8C3268.72 1507.02 3265.56 1507.01 3262.41 1506.77C3226.5 1504.1 3177.22 1474.26 3135.34 1426.38C3128.96 1419.1 3123.04 1411.68 3117.57 1404.25C3173.35 1417.34 3231.87 1412.03 3284.38 1389.1C3352.49 1359.78 3449.56 1240.31 3509.98 1159.09C3572.27 1220.59 3639.79 1260.48 3694.24 1270.68L3694.24 1270.87Z" fill="#1E3E9D"/>
<path d="M3150.32 1293.51C3150.32 1293.51 3178.34 1317.22 3227.54 1281.41C3288.28 1237.1 3386.47 1075.57 3358.87 1025.81C3331.27 976.049 3299.68 1104.81 3222.28 1180.28C3157.41 1243.48 3122.68 1268.92 3150.32 1293.51Z" fill="#2D57D2"/>
<path d="M3558.17 768.222C3513.7 790.687 3477.17 829.099 3458.08 875.219C3448.21 899.277 3442.94 924.972 3442.54 950.972C3406.94 873.43 3403.4 804.351 3440.13 772.231C3466.6 749.08 3509.32 749.246 3558.17 768.222Z" fill="#134490"/>
<path d="M3721.11 870.786L3822.72 671.158L3923.55 645.212L3953.23 439.793L4077.16 539.42L3962.88 702.383L3856.28 719.986L3721.11 870.786Z" fill="#FEBD02"/>
<path d="M3883.78 1062.15L4194.72 994.249L4191.4 1071.72L4345.7 1041.29L4289.82 1143.88L4127.6 1127.37L4133.4 1052.15L3883.78 1062.15Z" fill="#FEBD02"/>
<path d="M3914.6 908.527L4060.39 764.091L4144.45 782.749L4193.09 702.468L4258.54 762.362L4148.46 839.088L4080.03 812.907L3914.6 908.527Z" fill="#FEBD02"/>
<path d="M2438.65 624.59C2438.65 624.59 2447.3 627.921 2451.43 629.633C2461.19 633.671 2457.24 662.037 2458.91 672.681C2462.3 694.331 2466.06 721.74 2470.82 743.119C2473.95 757.167 2496.14 767.609 2507.76 771.699C2457.69 764.667 2462.23 726.985 2456.12 686.796C2452.86 665.282 2454.31 641.285 2438.65 624.59Z" fill="#1A9CEB"/>
<path d="M2525.49 607.604C2545.62 601.533 2657.04 575.251 2661.02 600.549C2665 625.847 2654.27 677.763 2642.26 695.64C2614.55 736.865 2571.18 736.38 2529.61 743.119C2480.66 751.056 2476.8 731.502 2475.36 695.64C2473.92 659.777 2474.7 645.065 2478.36 635.115C2481.72 625.977 2500.99 614.994 2525.49 607.604Z" fill="#7CCDFF"/>
<path d="M2707.9 604.338C2725.81 599.524 2728.34 664.614 2740.95 681.754C2745.14 687.446 2750.62 691.301 2757.07 693.729C2745.27 692.298 2735.4 687.889 2728.78 678.887C2723.72 672.004 2720.28 657.388 2716.82 642.671C2713.38 628.055 2709.92 613.34 2704.82 606.004C2705.77 605.199 2706.79 604.634 2707.9 604.338Z" fill="#1A9CEB"/>
<path d="M2839.03 527.079C2854.61 521.988 2870.91 515.572 2871.82 532.123C2873.38 560.411 2871.12 603.029 2860.89 629.573C2855.64 643.217 2843.94 651.111 2827.19 660.737C2798.24 677.377 2763.26 686.49 2749.02 665.78C2734.77 645.071 2729.16 613.042 2733.96 583.401C2737.13 563.791 2757.84 559.507 2775.15 551.457C2795.68 541.912 2817.5 534.119 2839.03 527.079Z" fill="#7CCDFF"/>
<path d="M2809.59 512.521C2807.83 513.467 2806.36 514.287 2805.07 515.006C2802.75 516.308 2801.01 517.278 2799.2 518.067C2772.41 529.7 2746.31 542.632 2724.13 561.961C2715.12 569.817 2705.6 573.029 2693.93 571.297C2652.81 565.191 2611.57 566.558 2570.94 573.72C2545.74 578.162 2520.79 584.041 2495.84 589.922C2482.62 593.039 2469.39 596.157 2456.12 599.061C2451.82 600.003 2446.48 600.356 2442.64 598.67C2441.3 598.081 2439.97 597.504 2438.64 596.936C2440.47 596.832 2442.29 596.558 2443.95 596.194C2457.22 593.29 2470.44 590.173 2483.67 587.055C2508.62 581.175 2533.57 575.294 2558.77 570.852C2599.4 563.69 2640.64 562.322 2681.76 568.429C2693.43 570.161 2702.95 566.95 2711.96 559.095C2734.14 539.765 2760.24 526.834 2787.03 515.2C2790.67 513.617 2794.65 512.079 2798.84 510.6C2802.24 511.21 2805.8 511.849 2809.59 512.521Z" fill="#1A9CEB"/>
<path d="M2379.89 594.15C2364.99 587.94 2349.8 581.608 2333.32 574.81C2308.95 564.756 2260.81 542.974 2260.81 542.974C2260.81 542.974 2213.8 518.07 2185.23 527.404C2174.21 531.002 2147.68 569.476 2140.99 578.404C2134.5 587.067 2128.96 594.457 2122.28 593.231C2108.71 590.743 2124.38 565.794 2132.3 550.551C2170.85 476.305 2241.61 508.845 2275.09 522.513C2303.6 534.147 2317.2 539.597 2345.39 551.971C2365.31 560.719 2383.08 567.08 2400.92 573.47C2417.74 579.492 2436.8 586.052 2455.64 594.15L2453.52 624.545C2426.98 613.781 2403.81 604.124 2379.89 594.15Z" fill="#1A9CEB"/>
<path fill-rule="evenodd" clip-rule="evenodd" d="M2569.27 766.476C2614.56 756.893 2645.72 747.231 2673.66 710.328C2693.27 684.441 2689.97 609.143 2707.88 604.33C2725.8 599.517 2728.33 664.607 2740.94 681.746C2753.55 698.886 2777.89 699.385 2805.06 694.356C2844.29 687.094 2873.34 662.412 2886.1 638.034C2898.86 613.656 2902.91 527.071 2901.66 514.999C2900.42 502.927 2901.66 491.765 2893.51 489.395C2885.36 487.024 2874.76 484.275 2865.39 481.689C2844.62 475.956 2823.85 470.223 2802.93 465.061C2784.28 460.455 2765.47 456.463 2746.66 452.471C2737.82 450.594 2728.98 448.717 2720.15 446.777C2692.35 440.663 2664.16 438.202 2635.94 441.568C2623.39 443.065 2610.45 446.75 2599.21 452.44C2583.37 460.45 2568.57 470.712 2554.04 481.019C2541.98 489.573 2530.75 499.352 2519.62 509.112C2516.87 511.523 2514.1 516.159 2514.44 519.446C2515.66 531.052 2530.85 540.41 2541.17 534.92C2550.8 529.798 2559.65 522.386 2567.23 514.44C2571.85 509.601 2575.94 504.193 2580.03 498.798C2585.78 491.204 2591.51 483.636 2598.65 477.718C2624.72 456.109 2636.66 458.223 2659.35 470.2C2664.2 472.762 2668.97 475.495 2673.66 478.334C2690.01 488.212 2707.2 495.715 2726.29 498.542C2740.5 500.648 2754.67 503.021 2768.84 505.394C2771.45 505.831 2774.06 506.268 2776.67 506.704C2783.51 507.845 2790.34 509.069 2797.95 510.436C2801.61 511.093 2805.46 511.783 2809.58 512.513C2807.82 513.46 2806.35 514.28 2805.06 514.999C2802.73 516.301 2801 517.271 2799.18 518.06C2772.4 529.693 2746.3 542.625 2724.12 561.955C2715.1 569.81 2705.58 573.021 2693.92 571.289C2652.8 565.183 2611.56 566.55 2570.92 573.712C2545.72 578.154 2520.1 583.397 2495.15 589.278C2481.92 592.395 2469.38 596.15 2456.11 599.054C2451.81 599.996 2446.47 600.348 2442.63 598.662L2442.63 629.566C2452.38 633.602 2457.23 662.03 2458.9 672.674C2462.29 694.324 2466.05 721.733 2470.81 743.112C2480.04 784.604 2540.23 772.62 2569.27 766.476ZM2544.78 751.518C2495.83 759.455 2489.45 730.219 2488 694.356C2486.56 658.493 2487.34 643.781 2491 633.831C2494.37 624.693 2513.64 613.711 2538.14 606.321C2558.26 600.25 2669.68 573.967 2673.66 599.265C2677.65 624.562 2666.94 680.682 2654.93 698.559C2627.22 739.784 2586.35 744.779 2544.78 751.518ZM2870.97 629.566C2865.71 643.21 2855.77 653.627 2839.02 663.253C2810.07 679.893 2776.77 689.846 2762.53 669.137C2748.28 648.428 2739.24 613.034 2744.03 583.393C2747.2 563.783 2767.91 559.499 2785.22 551.45C2805.75 541.904 2827.58 534.111 2849.11 527.071C2864.68 521.981 2880.98 515.565 2881.89 532.115C2883.45 560.404 2881.19 603.022 2870.97 629.566Z" fill="#1A9CEB"/>
<path d="M2370.72 599.265C2356.17 593.074 2341.34 586.761 2325.24 579.984C2301.44 569.961 2254.43 548.241 2254.43 548.241C2254.43 548.241 2208.52 523.398 2180.59 532.767C2169.82 536.378 2143.84 574.883 2137.29 583.819C2130.94 592.49 2125.52 599.886 2118.99 598.669C2105.74 596.197 2121.08 571.23 2128.84 555.979C2166.6 481.689 2235.7 514.138 2268.41 527.764C2296.24 539.362 2309.53 544.794 2337.06 557.132C2356.52 565.855 2373.87 572.192 2391.3 578.56C2407.72 584.561 2424.22 590.588 2442.63 598.662L2442.63 629.566C2416.71 618.836 2394.09 609.208 2370.72 599.265Z" fill="#1A9CEB"/>
<path d="M2550.64 711.099C2550.64 711.099 2559.89 681.763 2564.99 662.729C2570.09 643.694 2576.75 613.662 2576.75 613.662C2576.75 613.662 2575.37 644.783 2570.19 664.121C2565.01 683.459 2550.64 711.099 2550.64 711.099Z" fill="white"/>
<path d="M2540.55 672.779C2540.55 672.779 2545.85 655.991 2548.77 645.099C2551.68 634.206 2555.49 617.019 2555.49 617.019C2555.49 617.019 2554.71 634.829 2551.74 645.895C2548.77 656.962 2540.55 672.779 2540.55 672.779Z" fill="white"/>
<path d="M2582.59 701.367C2582.59 701.367 2587.88 684.579 2590.8 673.686C2593.72 662.794 2597.53 645.607 2597.53 645.607C2597.53 645.607 2596.74 663.417 2593.78 674.483C2590.81 685.55 2582.59 701.367 2582.59 701.367Z" fill="white"/>
<path d="M2782.65 650.58C2782.65 650.58 2791.91 621.244 2797.01 602.209C2802.11 583.174 2808.76 553.142 2808.76 553.142C2808.76 553.142 2807.38 584.264 2802.2 603.601C2797.02 622.939 2782.65 650.58 2782.65 650.58Z" fill="white"/>
<path d="M2772.56 612.262C2772.56 612.262 2777.86 595.474 2780.78 584.581C2783.7 573.688 2787.5 556.502 2787.5 556.502C2787.5 556.502 2786.72 574.312 2783.75 585.378C2780.79 596.444 2772.56 612.262 2772.56 612.262Z" fill="white"/>
<path d="M2814.6 640.844C2814.6 640.844 2819.89 624.056 2822.81 613.163C2825.73 602.27 2829.54 585.084 2829.54 585.084C2829.54 585.084 2828.75 602.894 2825.78 613.96C2822.82 625.026 2814.6 640.844 2814.6 640.844Z" fill="white"/>
<path d="M2561 591.169C2513.51 581.584 2459.56 561.879 2434.2 554.556C2402.57 543.451 2328.4 519.846 2276.04 499.032C2223.67 478.218 2201.59 467.017 2172.37 450.487C2143.14 433.958 2139.14 433.636 2129.91 416.384C2120.67 399.131 2123.08 380.288 2126.19 364.225C2129.3 348.161 2140.96 352.124 2145.46 336.068C2149.97 320.012 2154.47 296.579 2154.47 296.579C2154.47 296.579 2167.12 220.561 2180.53 184.673C2201.92 127.419 2239.05 86.2889 2298.22 48.1692C2372.19 0.511717 2479.79 -11.1586 2560.57 10.3934C2628.58 28.5424 2726.88 91.4917 2769.61 174.554C2788.67 211.614 2811.32 285.706 2811.32 285.706C2819.61 308.76 2822.27 352.038 2829.49 355.423C2856.39 368.032 2916.37 411.53 2939.84 436.186C2963.3 460.841 2955.49 461.479 2955.44 474.604C2955.39 487.729 2960.93 486.935 2939.58 501.811C2918.23 516.687 2887.07 532.196 2848.69 548.984C2810.32 565.773 2783.1 575.052 2747.69 585.751C2712.29 596.451 2708.99 601.398 2671.65 602.482C2634.32 603.565 2608.49 600.755 2561 591.169Z" fill="#C47A02"/>
<path d="M2187.05 220.276C2195.95 203.374 2204.35 186.285 2215.74 170.906C2251.47 122.633 2298.19 94.9599 2359.42 96.1427C2393.77 96.8063 2424.5 109.633 2452.52 128.757C2498.11 159.88 2534.07 199.538 2556.11 250.636C2571.1 285.383 2578.13 321.186 2566.01 358.587C2565.6 359.852 2565.62 361.255 2565.19 364.409C2575.22 355.914 2576.83 344.371 2582.75 334.068C2585.36 338.907 2585.4 342.985 2584.98 347.016C2582.73 368.634 2594.14 382.506 2611.21 392.937C2627.66 402.992 2646.06 401.496 2663.58 398.661C2697.69 393.142 2730.19 381.318 2762.49 369.314C2772 365.781 2778.03 349.086 2774.66 335.908C2765.91 301.691 2755.67 267.933 2742.31 235.195C2728.4 201.124 2712.33 168.084 2690.32 138.49C2653.68 89.2297 2610.72 47.5234 2551.24 26.274C2523.17 16.2464 2494.42 11.5291 2464.69 12.8093C2451.83 13.3627 2438.9 12.7897 2426.16 15.2091C2422.95 15.8182 2419.52 15.6663 2417.73 17.2315C2517.93 51.2124 2578.75 120.13 2600.56 224.568C2599.63 224.765 2600.81 228.937 2598.42 225.663C2575.1 159.129 2539.06 102.213 2481.13 61.1098C2459 45.4044 2434.63 34.2584 2407.65 29.3704C2389.32 26.0491 2372.41 30.2348 2355.74 38.6585C2444.38 41.1751 2508.23 84.594 2554.49 157.35C2582.46 201.337 2597.75 254.203 2593.44 293.133C2590.72 251.135 2576.17 213.099 2554.03 177.903C2525.22 132.121 2488.3 94.6687 2437.64 73.5727C2370.07 45.4347 2308.69 57.0721 2254.92 106.475C2222.26 136.477 2200.74 173.929 2185.69 215.984C2184.91 217.984 2185.6 219.036 2187.05 220.276Z" fill="#FEBD02"/>
<path d="M2692.41 561.979C2725.42 559.084 2758.34 545.815 2774.83 541.774C2775.02 542.504 2788.79 540.936 2775.79 545.428C2762.79 549.92 2737.14 559.915 2710.97 565.579C2696.57 568.693 2687.38 569.474 2672.72 570.895C2656.43 572.474 2630.81 571.178 2630.81 571.178C2630.81 571.178 2601.55 572.229 2518.82 542.772C2436.09 513.315 2289.72 454.318 2217.16 423.893C2144.59 393.468 2170.33 399.993 2156 390.645C2141.66 381.297 2147.34 380.895 2145.48 377.152C2143.62 373.409 2143.43 370.471 2146.7 371.93C2149.98 373.389 2136.46 371.762 2161.87 384.447C2187.28 397.132 2243.43 425.98 2273.75 435.354C2304.06 444.728 2294.91 429.517 2313.46 431.318C2332 433.118 2351.28 438.874 2366.48 444.357C2381.69 449.84 2362.74 452.89 2389.48 458.734C2416.22 464.577 2473.65 474.315 2500.19 473.574C2526.72 472.833 2480.59 465.074 2522.15 455.028C2563.7 444.982 2654.3 435.878 2707.97 423.345C2761.63 410.811 2770.82 397.529 2790.46 392.361C2810.1 387.193 2797.96 399.336 2806.17 397.505C2814.38 395.674 2824.07 386.321 2831.51 383.204C2838.96 380.087 2831.64 375.077 2843.38 381.921C2855.12 388.765 2876.78 405.67 2890.21 417.423C2903.65 429.177 2907.99 430.073 2910.57 440.688C2913.14 451.303 2910.22 461.532 2903.09 470.499C2895.97 479.467 2906.63 473.044 2874.96 485.527C2843.28 498.009 2789.59 520.478 2744.74 532.91C2699.88 545.342 2686.29 548.021 2650.7 547.685C2615.11 547.35 2620.49 545.666 2566.79 531.233C2513.09 516.8 2377.95 471.509 2382.2 475.521C2386.44 479.532 2588.01 551.291 2588.01 551.291C2588.01 551.291 2619.55 559.568 2640.23 561.646C2660.51 563.683 2672.11 563.759 2692.41 561.979Z" fill="#FEBD02"/>
<path d="M2240.73 165.043C2259.33 152.484 2278.53 144.07 2300.83 144.688C2311.24 144.977 2321.52 146.298 2331.49 149.27C2341.41 152.229 2343.16 155.026 2341.33 165.297C2336.89 190.27 2336.18 215.263 2338.32 240.574C2342.44 289.503 2367.08 325.506 2406.53 352.75C2408.99 354.451 2412.17 355.313 2415.04 360.762C2353.52 346.065 2295.44 325.99 2235.37 312.916C2249.81 318.803 2264.28 324.583 2278.66 330.6C2312.53 344.778 2346.8 357.69 2382.4 367.069C2412.42 374.978 2443.1 377.099 2473.77 379.805C2477.95 380.174 2482.17 380.167 2486.35 380.609C2522.4 384.425 2546.58 362.378 2549.16 325.999C2553.15 269.825 2532.83 222.731 2497.15 181.427C2463.85 142.869 2422.37 116.931 2371.16 110.415C2325.81 104.647 2284.27 114.623 2249.91 147.039C2245.18 151.504 2241.85 156.999 2237.06 162.114C2237.07 164.267 2238.33 164.97 2240.73 165.043Z" fill="#FFBE02"/>
<path d="M2660.62 78.8758C2662.9 82.5649 2664.8 85.6958 2667.17 88.3963C2702.02 127.938 2727.85 172.921 2747.1 221.746C2758.5 250.666 2768.77 280.023 2777.89 309.763C2778.6 312.078 2778.51 315.546 2781.21 316.113C2784.51 316.805 2785.38 313.027 2787.13 311.046C2791.35 306.283 2791.82 301.675 2789.64 295.087C2782.98 274.893 2777.88 254.187 2771.78 233.798C2754.94 177.505 2723.83 130.543 2678.89 92.7144C2673.54 88.2112 2668.26 83.6289 2662.44 78.8348C2661.43 78.4301 2660.94 78.2738 2660.62 78.8758Z" fill="#FCBC04"/>
<path d="M2393.13 385.924C2402.06 383.102 2424.01 387.176 2431.73 387.489C2444.97 388.808 2482.5 393.227 2497.96 394.081C2513.41 394.936 2501.61 452.359 2499.51 465.107C2497.42 477.854 2490.43 466.026 2487.5 457.82C2484.57 449.615 2487.12 432.691 2484.86 424.078C2482.61 415.464 2476.22 414.752 2476.22 414.752L2391.49 406.213L2387.09 401.599C2387.09 401.599 2384.21 388.746 2393.13 385.924Z" fill="#FEBD01"/>
<path d="M2274.21 355.34C2244.74 342.974 2215.81 330.93 2186.96 318.716C2181.83 316.541 2177.03 313.572 2171.99 311.151C2169.82 310.106 2167.25 308.323 2165.07 310.691C2163.07 312.861 2164.49 315.525 2165.35 317.82C2168.1 325.136 2174.05 329.304 2180.65 332.626C2197.75 341.238 2216.15 346.157 2234.48 351.267C2250.11 355.623 2265.67 360.208 2281.33 364.424C2287.24 366.012 2290.06 368.95 2290.44 375.44C2291.24 388.829 2292.85 402.173 2294.34 415.513C2294.67 418.468 2294.41 421.716 2296.55 424.31C2299.18 424.059 2298.64 421.932 2298.63 420.521C2298.5 407.095 2298.24 393.67 2298.01 380.245C2297.82 369.523 2293.01 362.209 2282.49 358.939C2279.84 358.114 2277.36 356.731 2274.21 355.34Z" fill="#FCBB06"/>
<path d="M2779.12 379.771C2735.28 396.369 2691.25 410.062 2646.19 420.506C2601.57 430.845 2556.03 434.207 2510.59 438.408C2537.27 454.752 2763.65 405.715 2791.55 378.258C2787.03 375.707 2783.46 378.773 2779.12 379.771Z" fill="#F9B709"/>
<path d="M2267.75 421.513C2268.9 422.28 2269.63 422.715 2270.42 423C2284.78 428.214 2287.33 426.195 2285.89 410.971C2284.99 401.505 2284.11 392.033 2283.52 382.546C2283.14 376.467 2280.29 372.627 2274.6 370.719C2254.17 363.86 2233.66 357.233 2212.75 351.987C2206.48 350.414 2200.41 350.908 2195.94 357.501C2195.92 358.859 2196.39 359.597 2197.55 360.621C2217.6 364.432 2236.16 371.163 2254.82 377.536C2258.52 378.799 2262.22 380.15 2264.99 384.006C2268.07 388.655 2267.32 393.34 2267.37 398.476C2267.27 403.267 2267.55 407.492 2266.99 412.249C2266.83 413.16 2266.75 413.52 2266.49 414.398C2266.04 415.609 2265.87 416.324 2265.81 417.617C2266.05 419.3 2266.58 420.266 2267.75 421.513Z" fill="#FCBB06"/>
<path d="M2808.83 321.93C2807.28 317.468 2808.92 311.399 2804.27 310.302C2799.39 309.151 2797.33 315 2794.31 318.094C2791.81 320.658 2790.95 323.748 2791.72 327.373C2795.18 343.817 2798.52 360.287 2801.99 376.729C2802.44 378.841 2802.6 381.694 2805.19 382.179C2807.69 382.647 2808.89 380.05 2810.39 378.47C2815.19 373.448 2816.75 367.726 2815.39 360.732C2812.93 348.09 2811.08 335.331 2808.83 321.93Z" fill="#FCBB04"/>
<path d="M2774.81 541.304C2774.74 542.456 2775.25 543.34 2776.02 544.668C2794.57 540.639 2829.3 526.457 2829.3 526.457C2829.3 526.457 2898.42 502.271 2917.64 485.53C2924.7 479.387 2932.28 477.342 2934.58 468.598C2886.72 504.456 2830.69 521.961 2774.81 541.304Z" fill="#F8B50A"/>
<path d="M2406.99 407.89C2404.7 404.489 2400.63 404.891 2396.91 405.225C2390.99 405.756 2388.3 403.16 2387.61 397.076C2385.84 403.681 2384.04 410.721 2382.89 417.865C2381.9 424.013 2378.97 425.421 2373.01 424.419C2355.09 421.407 2337.46 417.148 2319.78 413.058C2315.78 412.132 2311.81 410.616 2306.83 411.451C2308.39 415.542 2312.1 415.474 2314.85 416.307C2331.7 421.399 2348.83 425.393 2366.13 428.634C2380.42 431.308 2380.41 431.369 2382.77 445.989C2386.59 437.734 2386.94 429.766 2388.19 422.086C2390.58 407.431 2387.89 405.732 2406.99 407.89Z" fill="#F8B50A"/>
<path d="M2161.75 360.502C2159.27 358.916 2157.26 357.654 2155.25 356.393C2154.84 356.986 2154.43 357.58 2154.03 358.174C2162.73 367.874 2173.97 374.195 2187.03 382.17C2184.56 374.235 2179.62 372.283 2175.47 369.556C2171.05 366.651 2166.64 363.737 2161.75 360.502Z" fill="#F8B50A"/>
</svg>
