<svg width="507" height="472" viewBox="0 0 507 472" fill="none" xmlns="http://www.w3.org/2000/svg">
<path d="M198.393 371.5C198.393 371.5 203.538 373.482 205.998 374.5C211.798 376.902 209.451 393.773 210.443 400.104C212.462 412.982 214.699 429.285 217.529 442.001C219.389 450.356 232.588 456.567 239.5 459C209.719 454.818 212.417 432.404 208.787 408.5C206.844 395.703 207.708 381.43 198.393 371.5Z" fill="#1A9CEB"/>
<path d="M250.048 361.397C262.02 357.786 328.291 342.154 330.659 357.201C333.027 372.248 326.644 403.127 319.498 413.76C303.019 438.281 277.224 437.993 252.498 442.001C223.379 446.722 221.087 435.091 220.23 413.76C219.374 392.429 219.836 383.679 222.014 377.76C224.014 372.325 235.476 365.793 250.048 361.397Z" fill="#7CCDFF"/>
<path d="M358.541 359.454C369.196 356.591 370.701 395.306 378.201 405.501C380.692 408.887 383.953 411.18 387.79 412.624C380.767 411.773 374.902 409.15 370.963 403.796C367.951 399.702 365.906 391.008 363.847 382.255C361.802 373.561 359.742 364.809 356.708 360.445C357.275 359.967 357.884 359.631 358.541 359.454Z" fill="#1A9CEB"/>
<path d="M436.541 313.501C445.803 310.473 455.498 306.657 456.041 316.501C456.969 333.327 455.622 358.676 449.541 374.464C446.415 382.58 439.46 387.275 429.498 393C412.275 402.898 391.471 408.318 382.998 396C374.525 383.682 371.19 364.631 374.041 347.001C375.927 335.337 388.244 332.789 398.541 328.001C410.751 322.323 423.733 317.688 436.541 313.501Z" fill="#7CCDFF"/>
<path d="M419.028 304.842C417.981 305.405 417.107 305.892 416.342 306.32C414.957 307.094 413.924 307.672 412.845 308.141C396.914 315.06 381.388 322.752 368.196 334.249C362.835 338.921 357.173 340.832 350.234 339.802C325.776 336.17 301.247 336.983 277.078 341.243C262.088 343.885 247.25 347.382 232.41 350.88C224.544 352.734 216.677 354.588 208.787 356.315C206.226 356.876 203.053 357.086 200.768 356.083C199.969 355.733 199.177 355.389 198.391 355.052C199.477 354.99 200.559 354.827 201.549 354.61C209.439 352.883 217.305 351.029 225.171 349.175C240.011 345.677 254.85 342.179 269.84 339.537C294.009 335.277 318.537 334.464 342.996 338.096C349.935 339.126 355.596 337.216 360.957 332.544C374.149 321.047 389.675 313.355 405.606 306.436C407.775 305.494 410.141 304.579 412.632 303.699C414.654 304.062 416.773 304.442 419.028 304.842Z" fill="#1A9CEB"/>
<path d="M163.447 353.394C154.587 349.7 145.553 345.934 135.75 341.89C121.253 335.91 92.6212 322.955 92.6212 322.955C92.6212 322.955 64.6593 308.142 47.6636 313.694C41.1127 315.834 25.329 338.718 21.3495 344.029C17.4881 349.181 14.1945 353.577 10.2209 352.848C2.15224 351.367 11.4736 336.528 16.1808 327.462C39.1092 283.3 81.197 302.655 101.114 310.784C118.068 317.705 126.159 320.946 142.925 328.306C154.777 333.509 165.342 337.293 175.957 341.093C185.961 344.676 197.295 348.577 208.504 353.394L207.241 371.473C191.456 365.071 177.677 359.326 163.447 353.394Z" fill="#1A9CEB"/>
<path fill-rule="evenodd" clip-rule="evenodd" d="M276.09 455.897C303.028 450.197 321.561 444.45 338.185 422.5C349.846 407.102 347.884 362.316 358.539 359.453C369.194 356.59 370.699 395.305 378.199 405.5C385.699 415.695 400.181 415.991 416.34 413C439.673 408.681 456.951 394 464.539 379.5C472.128 365 474.539 313.5 473.798 306.32C473.057 299.139 473.798 292.5 468.951 291.09C464.103 289.68 457.797 288.045 452.224 286.507C439.868 283.097 427.513 279.687 415.074 276.616C403.977 273.877 392.79 271.502 381.603 269.128C376.345 268.011 371.086 266.895 365.836 265.741C349.297 262.105 332.533 260.641 315.748 262.643C308.283 263.533 300.587 265.725 293.898 269.109C284.48 273.874 275.675 279.978 267.033 286.108C259.861 291.196 253.182 297.013 246.559 302.818C244.923 304.252 243.276 307.009 243.481 308.964C244.205 315.867 253.238 321.434 259.377 318.168C265.105 315.122 270.372 310.713 274.881 305.987C277.627 303.108 280.062 299.892 282.491 296.683C285.91 292.166 289.318 287.665 293.565 284.145C309.071 271.292 316.175 272.549 329.669 279.673C332.555 281.197 335.392 282.823 338.185 284.511C347.906 290.386 358.134 294.849 369.486 296.531C377.939 297.783 386.368 299.195 394.796 300.606C396.349 300.866 397.902 301.126 399.454 301.385C403.522 302.064 407.58 302.792 412.11 303.605C414.289 303.996 416.576 304.407 419.026 304.841C417.978 305.404 417.105 305.892 416.34 306.32C414.955 307.094 413.922 307.671 412.843 308.14C396.911 315.059 381.386 322.751 368.194 334.248C362.832 338.921 357.171 340.831 350.232 339.8C325.773 336.168 301.245 336.982 277.076 341.242C262.086 343.884 246.844 347.002 232.004 350.5C224.138 352.354 216.675 354.588 208.785 356.315C206.224 356.875 203.052 357.084 200.766 356.082L200.766 374.463C206.566 376.864 209.449 393.773 210.441 400.104C212.46 412.981 214.697 429.284 217.527 442C223.02 466.679 258.817 459.551 276.09 455.897ZM261.527 447C232.408 451.721 228.612 434.331 227.756 413C226.899 391.669 227.361 382.918 229.539 377C231.539 371.565 243.001 365.033 257.573 360.637C269.544 357.026 335.817 341.393 338.185 356.44C340.553 371.487 334.185 404.867 327.039 415.5C310.56 440.021 286.253 442.992 261.527 447ZM455.539 374.463C452.413 382.579 446.501 388.775 436.539 394.5C419.316 404.398 399.513 410.318 391.039 398C382.566 385.682 377.188 364.63 380.039 347C381.925 335.336 394.242 332.788 404.539 328C416.749 322.323 429.731 317.687 442.539 313.5C451.801 310.472 461.496 306.656 462.039 316.5C462.967 333.326 461.621 358.675 455.539 374.463Z" fill="#1A9CEB"/>
<path d="M157.994 356.44C149.342 352.758 140.518 349.003 130.945 344.972C116.786 339.011 88.824 326.092 88.824 326.092C88.824 326.092 61.5191 311.315 44.9046 316.888C38.5006 319.036 23.0487 341.938 19.1534 347.253C15.3738 352.41 12.1498 356.81 8.26788 356.086C0.385315 354.616 9.51235 339.766 14.1235 330.694C36.5835 286.507 77.6861 305.807 97.1386 313.912C113.697 320.81 121.599 324.041 137.972 331.38C149.547 336.568 159.867 340.338 170.234 344.125C180.005 347.694 189.819 351.279 200.766 356.082L200.766 374.463C185.349 368.081 171.892 362.355 157.994 356.44Z" fill="#1A9CEB"/>
<path d="M265 422.955C265 422.955 270.503 405.506 273.537 394.184C276.571 382.863 280.529 364.999 280.529 364.999C280.529 364.999 279.71 383.51 276.628 395.012C273.546 406.515 265 422.955 265 422.955Z" fill="white"/>
<path d="M259 400.165C259 400.165 262.149 390.18 263.885 383.701C265.622 377.222 267.887 367 267.887 367C267.887 367 267.418 377.593 265.654 384.175C263.891 390.757 259 400.165 259 400.165Z" fill="white"/>
<path d="M284 417.165C284 417.165 287.149 407.18 288.885 400.701C290.622 394.222 292.887 384 292.887 384C292.887 384 292.418 394.593 290.654 401.175C288.891 407.757 284 417.165 284 417.165Z" fill="white"/>
<path d="M403 386.957C403 386.957 408.503 369.508 411.537 358.186C414.571 346.864 418.529 329.001 418.529 329.001C418.529 329.001 417.71 347.512 414.628 359.014C411.546 370.516 403 386.957 403 386.957Z" fill="white"/>
<path d="M397 364.167C397 364.167 400.149 354.182 401.885 347.703C403.622 341.224 405.887 331.002 405.887 331.002C405.887 331.002 405.418 341.595 403.654 348.177C401.891 354.759 397 364.167 397 364.167Z" fill="white"/>
<path d="M422 381.167C422 381.167 425.149 371.182 426.885 364.703C428.622 358.224 430.887 348.002 430.887 348.002C430.887 348.002 430.418 358.595 428.654 365.177C426.891 371.759 422 381.167 422 381.167Z" fill="white"/>
<path d="M271.17 351.625C242.923 345.924 210.833 334.203 195.748 329.848C176.933 323.242 132.821 309.202 101.674 296.822C70.5269 284.442 57.3954 277.78 40.0119 267.948C22.6284 258.116 20.2502 257.925 14.7567 247.663C9.26318 237.401 10.6938 226.193 12.5443 216.639C14.3949 207.085 21.3326 209.442 24.0095 199.892C26.6864 190.342 29.3672 176.404 29.3672 176.404C29.3672 176.404 36.8895 131.188 44.8644 109.842C57.5872 75.7881 79.6731 51.3242 114.867 28.6508C158.867 0.304367 222.867 -6.63706 270.91 6.18196C311.367 16.9769 369.833 54.4188 395.247 103.824C406.587 125.867 420.058 169.937 420.058 169.937C424.986 183.649 426.572 209.391 430.867 211.404C446.867 218.904 482.539 244.776 496.498 259.441C510.456 274.106 505.812 274.486 505.782 282.292C505.752 290.099 509.048 289.627 496.349 298.475C483.65 307.323 465.114 316.548 442.287 326.533C419.46 336.519 403.273 342.038 382.213 348.402C361.152 354.766 359.194 357.709 336.985 358.353C314.777 358.998 299.417 357.326 271.17 351.625Z" fill="#C47A02"/>
<path d="M48.7425 131.019C54.041 120.966 59.037 110.801 65.808 101.654C87.0618 72.9409 114.848 56.4813 151.269 57.1848C171.702 57.5795 189.979 65.2087 206.644 76.5839C233.762 95.0952 255.15 118.684 268.261 149.077C277.177 169.744 281.358 191.04 274.151 213.286C273.907 214.038 273.918 214.873 273.663 216.748C279.628 211.696 280.586 204.83 284.104 198.702C285.66 201.58 285.684 204.006 285.434 206.403C284.093 219.261 290.879 227.513 301.032 233.717C310.819 239.697 321.759 238.808 332.183 237.121C352.472 233.839 371.799 226.806 391.016 219.666C396.671 217.565 400.255 207.634 398.252 199.796C393.05 179.444 386.958 159.365 379.01 139.893C370.739 119.627 361.182 99.9754 348.088 82.373C326.292 53.073 300.741 28.2663 265.362 15.6272C248.667 9.66285 231.567 6.85705 213.881 7.6185C206.236 7.94766 198.546 7.60684 190.966 9.04586C189.058 9.40815 187.018 9.31782 185.953 10.2488C245.55 30.4605 281.728 71.4525 294.698 133.572C294.146 133.689 294.848 136.17 293.429 134.223C279.555 94.649 258.117 60.7952 223.664 36.3474C210.5 27.0059 196.004 20.3763 179.956 17.469C169.052 15.4935 158.997 17.9831 149.078 22.9935C201.802 24.4904 239.78 50.3157 267.297 93.5909C283.933 119.754 293.026 151.198 290.463 174.354C288.846 149.374 280.191 126.75 267.021 105.816C249.89 78.5845 227.925 56.3081 197.793 43.7603C157.605 27.0239 121.094 33.9458 89.1118 63.3306C69.6894 81.1757 56.8903 103.452 47.9354 128.466C47.4713 129.655 47.8794 130.281 48.7425 131.019Z" fill="#FEBD02"/>
<path d="M349.333 334.263C368.967 332.541 388.547 324.649 398.35 322.245C398.465 322.68 406.655 321.747 398.925 324.419C391.194 327.091 375.937 333.036 360.367 336.404C351.805 338.257 346.337 338.721 337.618 339.566C327.928 340.505 312.689 339.734 312.689 339.734C312.689 339.734 295.288 340.36 246.08 322.839C196.872 305.318 109.812 270.227 66.6511 252.13C23.4901 234.033 38.8018 237.915 30.2752 232.355C21.7486 226.794 25.1238 226.555 24.0181 224.329C22.9124 222.102 22.7965 220.355 24.7466 221.223C26.6968 222.091 18.6559 221.123 33.7687 228.668C48.8816 236.213 82.2787 253.371 100.311 258.947C118.343 264.523 112.898 255.475 123.93 256.546C134.962 257.617 146.427 261.041 155.471 264.302C164.515 267.563 153.246 269.378 169.151 272.853C185.056 276.329 219.215 282.121 234.996 281.68C250.778 281.239 223.341 276.624 248.058 270.649C272.775 264.674 326.665 259.259 358.583 251.804C390.501 244.349 395.966 236.449 407.648 233.375C419.33 230.301 412.11 237.524 416.994 236.435C421.878 235.346 427.64 229.783 432.067 227.929C436.494 226.075 432.145 223.095 439.128 227.165C446.111 231.236 458.99 241.291 466.982 248.282C474.974 255.273 477.556 255.806 479.088 262.12C480.621 268.434 478.88 274.518 474.644 279.851C470.408 285.185 476.746 281.365 457.908 288.79C439.07 296.214 407.131 309.579 380.453 316.973C353.776 324.367 345.689 325.961 324.521 325.761C303.352 325.562 306.552 324.56 274.611 315.976C242.67 307.391 162.293 280.452 164.818 282.838C167.342 285.224 287.234 327.906 287.234 327.906C287.234 327.906 305.991 332.829 318.295 334.065C330.356 335.277 337.258 335.322 349.333 334.263Z" fill="#FEBD02"/>
<path d="M80.6729 98.1642C91.7355 90.6938 103.159 85.6894 116.421 86.0571C122.613 86.2287 128.729 87.0143 134.657 88.782C140.559 90.542 141.6 92.2058 140.512 98.3148C137.867 113.169 137.448 128.035 138.717 143.09C141.171 172.192 155.828 193.607 179.292 209.811C180.757 210.823 182.643 211.336 184.354 214.577C147.761 205.835 113.213 193.894 77.4881 186.118C86.0722 189.62 94.6832 193.057 103.235 196.637C123.382 205.069 143.763 212.749 164.94 218.328C182.796 223.032 201.045 224.294 219.285 225.903C221.773 226.123 224.283 226.119 226.765 226.382C248.212 228.651 262.593 215.538 264.127 193.9C266.497 160.487 254.412 132.476 233.192 107.909C213.383 84.9748 188.714 69.5468 158.253 65.6717C131.282 62.2404 106.571 68.1742 86.1369 87.455C83.3219 90.111 81.3376 93.3795 78.4906 96.4219C78.4982 97.7021 79.244 98.1203 80.6729 98.1642Z" fill="#FFBE02"/>
<path d="M330.423 46.9094C331.784 49.1036 332.909 50.9658 334.324 52.5721C355.047 76.0913 370.416 102.847 381.862 131.888C388.642 149.09 394.749 166.551 400.175 184.24C400.598 185.617 400.547 187.68 402.154 188.017C404.117 188.429 404.63 186.182 405.674 185.003C408.186 182.17 408.461 179.429 407.168 175.511C403.203 163.499 400.174 151.183 396.545 139.056C386.528 105.573 368.023 77.6408 341.292 55.1405C338.11 52.462 334.968 49.7365 331.505 46.885C330.91 46.6442 330.616 46.5513 330.423 46.9094Z" fill="#FCBC04"/>
<path d="M171.324 229.544C176.633 227.866 189.688 230.289 194.278 230.475C202.157 231.259 224.479 233.888 233.673 234.396C242.867 234.904 235.844 269.059 234.599 276.642C233.355 284.224 229.194 277.189 227.451 272.308C225.708 267.427 227.227 257.361 225.885 252.238C224.543 247.114 220.741 246.691 220.741 246.691L170.344 241.612L167.731 238.868C167.731 238.868 166.014 231.223 171.324 229.544Z" fill="#FEBD01"/>
<path d="M100.594 211.353C83.0601 203.998 65.858 196.834 48.6986 189.57C45.6435 188.276 42.7916 186.51 39.7941 185.07C38.5008 184.449 36.9704 183.388 35.6753 184.797C34.489 186.087 35.3303 187.671 35.8429 189.037C37.477 193.389 41.0178 195.868 44.9418 197.843C55.1156 202.966 66.0589 205.892 76.9616 208.931C86.2557 211.522 95.5125 214.249 104.829 216.756C108.339 217.701 110.017 219.449 110.246 223.309C110.718 231.272 111.678 239.21 112.563 247.144C112.759 248.902 112.608 250.833 113.878 252.376C115.444 252.227 115.125 250.962 115.116 250.123C115.037 242.137 114.887 234.152 114.747 226.167C114.635 219.789 111.775 215.439 105.518 213.494C103.939 213.003 102.463 212.181 100.594 211.353Z" fill="#FCBB06"/>
<path d="M400.904 225.886C374.831 235.758 348.643 243.903 321.838 250.114C295.301 256.264 268.215 258.264 241.184 260.763C257.054 270.484 391.704 241.317 408.297 224.986C405.609 223.468 403.484 225.292 400.904 225.886Z" fill="#F9B709"/>
<path d="M96.7424 250.711C97.4272 251.167 97.8616 251.426 98.3285 251.596C106.872 254.697 108.389 253.496 107.532 244.441C107 238.811 106.473 233.177 106.122 227.534C105.897 223.918 104.201 221.634 100.82 220.499C88.6662 216.419 76.4678 212.477 64.0281 209.358C60.297 208.422 56.6908 208.716 54.0288 212.637C54.0189 213.445 54.2987 213.884 54.9897 214.493C66.9133 216.759 77.9538 220.763 89.0548 224.554C91.2548 225.305 93.4511 226.109 95.1023 228.402C96.935 231.167 96.487 233.954 96.5157 237.009C96.4562 239.859 96.6231 242.371 96.2914 245.201C96.1967 245.743 96.151 245.957 95.9926 246.479C95.7248 247.199 95.6249 247.625 95.5865 248.394C95.7309 249.395 96.0501 249.97 96.7424 250.711Z" fill="#FCBB06"/>
<path d="M418.579 191.483C417.655 188.828 418.633 185.219 415.866 184.567C412.96 183.881 411.735 187.361 409.94 189.201C408.453 190.726 407.944 192.564 408.398 194.72C410.457 204.501 412.444 214.297 414.51 224.077C414.776 225.333 414.871 227.03 416.412 227.319C417.896 227.597 418.61 226.052 419.507 225.112C422.361 222.125 423.286 218.722 422.477 214.562C421.016 207.042 419.915 199.453 418.579 191.483Z" fill="#FCBB04"/>
<path d="M398.346 321.966C398.304 322.652 398.603 323.177 399.061 323.967C410.096 321.571 430.753 313.135 430.753 313.135C430.753 313.135 471.867 298.749 483.3 288.792C487.495 285.138 492.004 283.922 493.375 278.721C464.908 300.049 431.583 310.461 398.346 321.966Z" fill="#F8B50A"/>
<path d="M179.562 242.61C178.2 240.587 175.776 240.826 173.567 241.024C170.044 241.341 168.444 239.796 168.033 236.178C166.979 240.106 165.911 244.294 165.228 248.543C164.639 252.2 162.894 253.037 159.349 252.441C148.69 250.65 138.203 248.116 127.688 245.684C125.309 245.133 122.949 244.231 119.984 244.728C120.912 247.161 123.119 247.121 124.757 247.616C134.78 250.645 144.967 253.021 155.261 254.948C163.758 256.539 163.751 256.575 165.156 265.271C167.425 260.361 167.635 255.621 168.379 251.054C169.799 242.337 168.198 241.326 179.562 242.61Z" fill="#F8B50A"/>
<path d="M33.7029 214.421C32.2282 213.477 31.0312 212.727 29.8342 211.977C29.5918 212.33 29.3494 212.683 29.1071 213.036C34.2854 218.806 40.9715 222.565 48.7383 227.309C47.2675 222.589 44.3297 221.428 41.8625 219.806C39.2336 218.078 36.6077 216.345 33.7029 214.421Z" fill="#F8B50A"/>
</svg>
