<svg width="640" height="526" viewBox="0 0 640 526" fill="none" xmlns="http://www.w3.org/2000/svg" xmlns:xlink="http://www.w3.org/1999/xlink">
<path fill-rule="evenodd" clip-rule="evenodd" d="M340.941 524H298.941V0.5H340.941V524ZM315.741 466.357C311.102 466.357 307.341 470.658 307.341 475.964V499.021C307.341 504.327 311.102 508.629 315.741 508.629H324.141C328.781 508.629 332.541 504.327 332.541 499.021V475.964C332.541 470.658 328.781 466.357 324.141 466.357H315.741ZM315.741 408.714C311.102 408.714 307.341 413.016 307.341 418.321V441.379C307.341 446.684 311.102 450.986 315.741 450.986H324.141C328.781 450.986 332.541 446.684 332.541 441.379V418.321C332.541 413.016 328.781 408.714 324.141 408.714H315.741ZM315.741 351.071C311.102 351.071 307.341 355.373 307.341 360.679V383.736C307.341 389.042 311.102 393.343 315.741 393.343H324.141C328.781 393.343 332.541 389.042 332.541 383.736V360.679C332.541 355.373 328.781 351.071 324.141 351.071H315.741ZM315.741 293.429C311.102 293.429 307.341 297.73 307.341 303.036V326.093C307.341 331.399 311.102 335.7 315.741 335.7H324.141C328.781 335.7 332.541 331.399 332.541 326.093V303.036C332.541 297.73 328.781 293.429 324.141 293.429H315.741ZM315.741 235.786C311.102 235.786 307.341 240.087 307.341 245.393V268.45C307.341 273.756 311.102 278.057 315.741 278.057H324.141C328.781 278.057 332.541 273.756 332.541 268.45V245.393C332.541 240.087 328.781 235.786 324.141 235.786H315.741ZM315.741 178.143C311.102 178.143 307.341 182.444 307.341 187.75V210.807C307.341 216.113 311.102 220.414 315.741 220.414H324.141C328.781 220.414 332.541 216.113 332.541 210.807V187.75C332.541 182.444 328.781 178.143 324.141 178.143H315.741ZM315.741 120.5C311.102 120.5 307.341 124.801 307.341 130.107V153.164C307.341 158.47 311.102 162.771 315.741 162.771H324.141C328.781 162.771 332.541 158.47 332.541 153.164V130.107C332.541 124.801 328.781 120.5 324.141 120.5H315.741ZM315.741 62.8571C311.102 62.8571 307.341 67.1584 307.341 72.4643V95.5214C307.341 100.827 311.102 105.129 315.741 105.129H324.141C328.781 105.129 332.541 100.827 332.541 95.5214V72.4643C332.541 67.1584 328.781 62.8571 324.141 62.8571H315.741ZM315.741 5.21428C311.102 5.21429 307.341 9.51555 307.341 14.8214V37.8786C307.341 43.1844 311.102 47.4857 315.741 47.4857H324.141C328.781 47.4857 332.541 43.1844 332.541 37.8786V14.8214C332.541 9.51555 328.781 5.21428 324.141 5.21428H315.741Z" fill="#6B6A6A"/>
<path fill-rule="evenodd" clip-rule="evenodd" d="M343.179 526H296.707V0H343.179V526ZM315.296 468.357C310.163 468.357 306.001 472.658 306.001 477.964V501.021C306.001 506.327 310.163 510.629 315.296 510.629H324.59C329.723 510.629 333.884 506.327 333.884 501.021V477.964C333.884 472.658 329.723 468.357 324.59 468.357H315.296ZM315.296 410.714C310.163 410.714 306.001 415.016 306.001 420.321V443.379C306.001 448.684 310.163 452.986 315.296 452.986H324.59C329.723 452.986 333.884 448.684 333.884 443.379V420.321C333.884 415.016 329.723 410.714 324.59 410.714H315.296ZM315.296 353.071C310.163 353.071 306.001 357.373 306.001 362.679V385.736C306.001 391.042 310.163 395.343 315.296 395.343H324.59C329.723 395.343 333.884 391.042 333.884 385.736V362.679C333.884 357.373 329.723 353.071 324.59 353.071H315.296ZM315.296 295.429C310.163 295.429 306.001 299.73 306.001 305.036V328.093C306.001 333.399 310.163 337.7 315.296 337.7H324.59C329.723 337.7 333.884 333.399 333.884 328.093V305.036C333.884 299.73 329.723 295.429 324.59 295.429H315.296ZM315.296 237.786C310.163 237.786 306.001 242.087 306.001 247.393V270.45C306.001 275.756 310.163 280.057 315.296 280.057H324.59C329.723 280.057 333.884 275.756 333.884 270.45V247.393C333.884 242.087 329.723 237.786 324.59 237.786H315.296ZM315.296 180.143C310.163 180.143 306.001 184.444 306.001 189.75V212.807C306.001 218.113 310.163 222.414 315.296 222.414H324.59C329.723 222.414 333.884 218.113 333.884 212.807V189.75C333.884 184.444 329.723 180.143 324.59 180.143H315.296ZM315.296 122.5C310.163 122.5 306.001 126.801 306.001 132.107V155.164C306.001 160.47 310.163 164.771 315.296 164.771H324.59C329.723 164.771 333.884 160.47 333.884 155.164V132.107C333.884 126.801 329.723 122.5 324.59 122.5H315.296ZM315.296 64.8571C310.163 64.8571 306.001 69.1584 306.001 74.4643V97.5214C306.001 102.827 310.163 107.129 315.296 107.129H324.59C329.723 107.129 333.884 102.827 333.884 97.5214V74.4643C333.884 69.1584 329.723 64.8571 324.59 64.8571H315.296ZM315.296 7.21428C310.163 7.21429 306.001 11.5156 306.001 16.8214V39.8786C306.001 45.1844 310.163 49.4857 315.296 49.4857H324.59C329.723 49.4857 333.884 45.1844 333.884 39.8786V16.8214C333.884 11.5156 329.723 7.21428 324.59 7.21428H315.296Z" fill="url(#paint0_linear_1503_4269)"/>
<path fill-rule="evenodd" clip-rule="evenodd" d="M343.179 526H296.707V0H343.179V526ZM315.296 468.357C310.163 468.357 306.001 472.658 306.001 477.964V501.021C306.001 506.327 310.163 510.629 315.296 510.629H324.59C329.723 510.629 333.884 506.327 333.884 501.021V477.964C333.884 472.658 329.723 468.357 324.59 468.357H315.296ZM315.296 410.714C310.163 410.714 306.001 415.016 306.001 420.321V443.379C306.001 448.684 310.163 452.986 315.296 452.986H324.59C329.723 452.986 333.884 448.684 333.884 443.379V420.321C333.884 415.016 329.723 410.714 324.59 410.714H315.296ZM315.296 353.071C310.163 353.071 306.001 357.373 306.001 362.679V385.736C306.001 391.042 310.163 395.343 315.296 395.343H324.59C329.723 395.343 333.884 391.042 333.884 385.736V362.679C333.884 357.373 329.723 353.071 324.59 353.071H315.296ZM315.296 295.429C310.163 295.429 306.001 299.73 306.001 305.036V328.093C306.001 333.399 310.163 337.7 315.296 337.7H324.59C329.723 337.7 333.884 333.399 333.884 328.093V305.036C333.884 299.73 329.723 295.429 324.59 295.429H315.296ZM315.296 237.786C310.163 237.786 306.001 242.087 306.001 247.393V270.45C306.001 275.756 310.163 280.057 315.296 280.057H324.59C329.723 280.057 333.884 275.756 333.884 270.45V247.393C333.884 242.087 329.723 237.786 324.59 237.786H315.296ZM315.296 180.143C310.163 180.143 306.001 184.444 306.001 189.75V212.807C306.001 218.113 310.163 222.414 315.296 222.414H324.59C329.723 222.414 333.884 218.113 333.884 212.807V189.75C333.884 184.444 329.723 180.143 324.59 180.143H315.296ZM315.296 122.5C310.163 122.5 306.001 126.801 306.001 132.107V155.164C306.001 160.47 310.163 164.771 315.296 164.771H324.59C329.723 164.771 333.884 160.47 333.884 155.164V132.107C333.884 126.801 329.723 122.5 324.59 122.5H315.296ZM315.296 64.8571C310.163 64.8571 306.001 69.1584 306.001 74.4643V97.5214C306.001 102.827 310.163 107.129 315.296 107.129H324.59C329.723 107.129 333.884 102.827 333.884 97.5214V74.4643C333.884 69.1584 329.723 64.8571 324.59 64.8571H315.296ZM315.296 7.21428C310.163 7.21429 306.001 11.5156 306.001 16.8214V39.8786C306.001 45.1844 310.163 49.4857 315.296 49.4857H324.59C329.723 49.4857 333.884 45.1844 333.884 39.8786V16.8214C333.884 11.5156 329.723 7.21428 324.59 7.21428H315.296Z" fill="url(#paint1_linear_1503_4269)" fill-opacity="0.2"/>
<rect x="1" y="10.4492" width="637.88" height="280.405" rx="8" fill="#FA7315"/>
<rect x="1" y="10.4492" width="637.88" height="280.405" rx="8" fill="url(#paint2_linear_1503_4269)"/>
<rect x="1" y="10.4492" width="637.88" height="280.405" rx="8" fill="url(#pattern0_1503_4269)"/>
<rect x="1" y="10.4492" width="637.88" height="280.405" rx="8" stroke="black" stroke-width="2"/>
<rect x="21.1641" y="28.8223" width="599.346" height="243.658" rx="7.5" stroke="black" stroke-opacity="0.79" stroke-width="3"/>
<circle cx="319.94" cy="45.1961" r="5.36213" fill="url(#paint3_radial_1503_4269)"/>
<circle cx="319.94" cy="257.893" r="5.36213" fill="url(#paint4_radial_1503_4269)"/>
<path d="M321.557 261.656C321.107 261.86 320.818 261.82 320.69 261.538L319.957 259.922C319.729 259.419 319.136 259.196 318.633 259.424L317.017 260.157C316.734 260.286 316.491 260.125 316.287 259.675L316.237 259.565C316.033 259.115 316.072 258.826 316.355 258.698L317.971 257.965C318.474 257.737 318.696 257.144 318.468 256.641L317.721 254.993C317.593 254.711 317.754 254.468 318.204 254.264L318.376 254.185C318.826 253.981 319.115 254.02 319.243 254.303L319.991 255.95C320.219 256.453 320.812 256.676 321.314 256.448L322.946 255.708C323.229 255.579 323.472 255.74 323.676 256.19L323.726 256.3C323.93 256.75 323.891 257.039 323.608 257.167L321.977 257.907C321.474 258.136 321.251 258.728 321.479 259.231L322.212 260.847C322.34 261.13 322.18 261.373 321.73 261.577L321.557 261.656Z" fill="#424242"/>
<path d="M317.858 48.6823C317.43 48.4353 317.294 48.1774 317.449 47.9088L318.336 46.3719C318.612 45.8936 318.448 45.282 317.97 45.0059L316.433 44.1185C316.164 43.9634 316.154 43.672 316.401 43.2441L316.461 43.1396C316.708 42.7118 316.966 42.5754 317.235 42.7305L318.771 43.6178C319.25 43.894 319.861 43.7301 320.137 43.2518L321.042 41.6851C321.197 41.4164 321.489 41.4056 321.916 41.6526L322.081 41.7474C322.508 41.9944 322.645 42.2523 322.49 42.5209L321.585 44.0877C321.309 44.566 321.473 45.1775 321.951 45.4537L323.503 46.3496C323.772 46.5047 323.782 46.7962 323.535 47.2241L323.475 47.3285C323.228 47.7564 322.97 47.8928 322.702 47.7377L321.15 46.8417C320.672 46.5656 320.06 46.7294 319.784 47.2077L318.896 48.7446C318.741 49.0133 318.45 49.0241 318.022 48.7771L317.858 48.6823Z" fill="#424242"/>
<path d="M146.704 147.983C146.62 162.616 143.568 173.277 137.548 179.966C131.611 186.655 124.294 190 115.598 190H89.3843V105.965H115.598C124.294 105.965 131.611 109.31 137.548 115.999C143.568 122.689 146.62 133.35 146.704 147.983ZM102.679 147.983V176.705H115.598C121.2 176.538 125.549 173.862 128.642 168.678C131.82 163.494 133.45 156.595 133.534 147.983C133.534 138.785 131.945 131.761 128.768 126.911C125.59 121.978 121.2 119.428 115.598 119.26H102.679V147.983ZM176.766 190H163.22V105.965H176.766V190ZM206.917 184.105C206.917 186.028 206.248 187.659 204.911 188.997C203.573 190.251 201.984 190.878 200.144 190.878C198.388 190.878 196.8 190.209 195.378 188.871C194.04 187.45 193.371 185.861 193.371 184.105C193.371 182.349 194.04 180.802 195.378 179.464C196.8 178.043 198.388 177.332 200.144 177.332C201.9 177.332 203.447 178.043 204.785 179.464C206.207 180.802 206.917 182.349 206.917 184.105ZM232.639 184.105C232.639 186.028 231.97 187.659 230.632 188.997C229.295 190.251 227.706 190.878 225.866 190.878C224.11 190.878 222.522 190.209 221.1 188.871C219.762 187.45 219.093 185.861 219.093 184.105C219.093 182.349 219.762 180.802 221.1 179.464C222.522 178.043 224.11 177.332 225.866 177.332C227.622 177.332 229.169 178.043 230.507 179.464C231.929 180.802 232.639 182.349 232.639 184.105ZM258.361 184.105C258.361 186.028 257.692 187.659 256.354 188.997C255.017 190.251 253.428 190.878 251.588 190.878C249.832 190.878 248.244 190.209 246.822 188.871C245.484 187.45 244.815 185.861 244.815 184.105C244.815 182.349 245.484 180.802 246.822 179.464C248.244 178.043 249.832 177.332 251.588 177.332C253.344 177.332 254.891 178.043 256.229 179.464C257.65 180.802 258.361 182.349 258.361 184.105ZM341.653 105.965L329.236 190H317.446L304.151 136.067L291.232 190H279.442L267.025 105.965H280.571L287.093 150.24L297.754 105.965H310.673L321.585 150.24L328.107 105.965H341.653ZM407.597 190H394.302V153.501H363.699V190H350.404V105.965H363.699V139.955H394.302V105.965H407.597V190ZM488.833 105.965L459.735 153.501V190H446.44V153.501L416.965 105.965H432.894L452.962 138.45L473.281 105.965H488.833ZM530.725 184.105C530.725 186.028 530.057 187.659 528.719 188.997C527.381 190.251 525.792 190.878 523.952 190.878C522.197 190.878 520.608 190.209 519.186 188.871C517.848 187.45 517.18 185.861 517.18 184.105C517.18 182.349 517.848 180.802 519.186 179.464C520.608 178.043 522.197 177.332 523.952 177.332C525.708 177.332 527.255 178.043 528.593 179.464C530.015 180.802 530.725 182.349 530.725 184.105ZM550.919 127.538C550.417 132.806 547.95 137.99 543.519 143.091C535.91 152.205 531.394 160.274 529.973 167.298H517.556C519.395 156.344 524.329 146.603 532.356 138.074C535.701 134.729 537.457 131.427 537.624 128.165C537.624 124.821 536.37 122.103 533.861 120.013C531.436 117.839 528.593 116.794 525.332 116.877C518.058 117.212 512.748 120.891 509.403 127.915L497.864 123.023C503.55 111.149 512.664 105.045 525.207 104.711C532.649 104.878 538.794 107.01 543.644 111.108C548.494 115.205 550.919 120.682 550.919 127.538Z" fill="black"/>
<defs>
<linearGradient id="paint0_linear_1503_4269" x1="337.441" y1="39.5" x2="301.941" y2="529" gradientUnits="userSpaceOnUse">
<stop stop-color="#D3D3D3"/>
<stop offset="1" stop-color="#919191"/>
</linearGradient>
<linearGradient id="paint1_linear_1503_4269" x1="296.941" y1="410" x2="342.941" y2="410" gradientUnits="userSpaceOnUse">
<stop stop-opacity="0.94"/>
<stop offset="0.331731" stop-color="white"/>
<stop offset="0.67" stop-color="white"/>
<stop offset="1" stop-opacity="0.78"/>
</linearGradient>
<linearGradient id="paint2_linear_1503_4269" x1="567.441" y1="29" x2="319.94" y2="291.854" gradientUnits="userSpaceOnUse">
<stop stop-color="#FFA046"/>
<stop offset="1" stop-color="#FA7315" stop-opacity="0.81"/>
</linearGradient>
<radialGradient id="paint3_radial_1503_4269" cx="0" cy="0" r="1" gradientUnits="userSpaceOnUse" gradientTransform="translate(319.94 45.1961) rotate(90) scale(5.36213)">
<stop stop-color="#696969"/>
<stop offset="0.961538" stop-color="#B6B6B6"/>
</radialGradient>
<radialGradient id="paint4_radial_1503_4269" cx="0" cy="0" r="1" gradientUnits="userSpaceOnUse" gradientTransform="translate(319.94 257.893) rotate(90) scale(5.36213)">
<stop stop-color="#696969"/>
<stop offset="0.961538" stop-color="#B6B6B6"/>
</radialGradient>
<pattern id="pattern0_1503_4269" patternUnits="userSpaceOnUse" patternTransform="matrix(5.67 0 0 11.34 -0.028125 8.92891)" preserveAspectRatio="none" viewBox="-0.03125 -0.578125 6.3 12.6" width="1" height="1">
<use xlink:href="#pattern0_1503_4269_inner" transform="translate(-9.45 -6.3)"/>
<use xlink:href="#pattern0_1503_4269_inner" transform="translate(-3.15 -6.3)"/>
<use xlink:href="#pattern0_1503_4269_inner" transform="translate(3.15 -6.3)"/>
<use xlink:href="#pattern0_1503_4269_inner" transform="translate(-12.6 0)"/>
<use xlink:href="#pattern0_1503_4269_inner" transform="translate(-6.3 0)"/>
<g id="pattern0_1503_4269_inner">
<path d="M3.5 0L6.53109 1.75V5.25L3.5 7L0.468911 5.25V1.75L3.5 0Z" stroke="#FF8A39"/>
</g>
<use xlink:href="#pattern0_1503_4269_inner" transform="translate(-9.45 6.3)"/>
<use xlink:href="#pattern0_1503_4269_inner" transform="translate(-3.15 6.3)"/>
<use xlink:href="#pattern0_1503_4269_inner" transform="translate(3.15 6.3)"/>
</pattern></defs>
</svg>
