<svg width="640" height="526" viewBox="0 0 640 526" fill="none" xmlns="http://www.w3.org/2000/svg" xmlns:xlink="http://www.w3.org/1999/xlink">
<mask id="mask0_1503_4282" style="mask-type:alpha" maskUnits="userSpaceOnUse" x="285" y="0" width="69" height="526">
<rect x="285.941" width="68" height="526" fill="url(#paint0_linear_1503_4282)"/>
</mask>
<g mask="url(#mask0_1503_4282)">
<path fill-rule="evenodd" clip-rule="evenodd" d="M340.941 524H298.941V0.5H340.941V524ZM315.741 466.357C311.102 466.357 307.341 470.658 307.341 475.964V499.021C307.341 504.327 311.102 508.629 315.741 508.629H324.141C328.781 508.629 332.541 504.327 332.541 499.021V475.964C332.541 470.658 328.781 466.357 324.141 466.357H315.741ZM315.741 408.714C311.102 408.714 307.341 413.016 307.341 418.321V441.379C307.341 446.684 311.102 450.986 315.741 450.986H324.141C328.781 450.986 332.541 446.684 332.541 441.379V418.321C332.541 413.016 328.781 408.714 324.141 408.714H315.741ZM315.741 351.071C311.102 351.071 307.341 355.373 307.341 360.679V383.736C307.341 389.042 311.102 393.343 315.741 393.343H324.141C328.781 393.343 332.541 389.042 332.541 383.736V360.679C332.541 355.373 328.781 351.071 324.141 351.071H315.741ZM315.741 293.429C311.102 293.429 307.341 297.73 307.341 303.036V326.093C307.341 331.399 311.102 335.7 315.741 335.7H324.141C328.781 335.7 332.541 331.399 332.541 326.093V303.036C332.541 297.73 328.781 293.429 324.141 293.429H315.741ZM315.741 235.786C311.102 235.786 307.341 240.087 307.341 245.393V268.45C307.341 273.756 311.102 278.057 315.741 278.057H324.141C328.781 278.057 332.541 273.756 332.541 268.45V245.393C332.541 240.087 328.781 235.786 324.141 235.786H315.741ZM315.741 178.143C311.102 178.143 307.341 182.444 307.341 187.75V210.807C307.341 216.113 311.102 220.414 315.741 220.414H324.141C328.781 220.414 332.541 216.113 332.541 210.807V187.75C332.541 182.444 328.781 178.143 324.141 178.143H315.741ZM315.741 120.5C311.102 120.5 307.341 124.801 307.341 130.107V153.164C307.341 158.47 311.102 162.771 315.741 162.771H324.141C328.781 162.771 332.541 158.47 332.541 153.164V130.107C332.541 124.801 328.781 120.5 324.141 120.5H315.741ZM315.741 62.8571C311.102 62.8571 307.341 67.1584 307.341 72.4643V95.5214C307.341 100.827 311.102 105.129 315.741 105.129H324.141C328.781 105.129 332.541 100.827 332.541 95.5214V72.4643C332.541 67.1584 328.781 62.8571 324.141 62.8571H315.741ZM315.741 5.21428C311.102 5.21428 307.341 9.51555 307.341 14.8214V37.8786C307.341 43.1844 311.102 47.4857 315.741 47.4857H324.141C328.781 47.4857 332.541 43.1844 332.541 37.8786V14.8214C332.541 9.51555 328.781 5.21428 324.141 5.21428H315.741Z" fill="#6B6A6A"/>
<path fill-rule="evenodd" clip-rule="evenodd" d="M343.179 526H296.707V0H343.179V526ZM315.296 468.357C310.163 468.357 306.001 472.658 306.001 477.964V501.021C306.001 506.327 310.163 510.629 315.296 510.629H324.59C329.723 510.629 333.884 506.327 333.884 501.021V477.964C333.884 472.658 329.723 468.357 324.59 468.357H315.296ZM315.296 410.714C310.163 410.714 306.001 415.016 306.001 420.321V443.379C306.001 448.684 310.163 452.986 315.296 452.986H324.59C329.723 452.986 333.884 448.684 333.884 443.379V420.321C333.884 415.016 329.723 410.714 324.59 410.714H315.296ZM315.296 353.071C310.163 353.071 306.001 357.373 306.001 362.679V385.736C306.001 391.042 310.163 395.343 315.296 395.343H324.59C329.723 395.343 333.884 391.042 333.884 385.736V362.679C333.884 357.373 329.723 353.071 324.59 353.071H315.296ZM315.296 295.429C310.163 295.429 306.001 299.73 306.001 305.036V328.093C306.001 333.399 310.163 337.7 315.296 337.7H324.59C329.723 337.7 333.884 333.399 333.884 328.093V305.036C333.884 299.73 329.723 295.429 324.59 295.429H315.296ZM315.296 237.786C310.163 237.786 306.001 242.087 306.001 247.393V270.45C306.001 275.756 310.163 280.057 315.296 280.057H324.59C329.723 280.057 333.884 275.756 333.884 270.45V247.393C333.884 242.087 329.723 237.786 324.59 237.786H315.296ZM315.296 180.143C310.163 180.143 306.001 184.444 306.001 189.75V212.807C306.001 218.113 310.163 222.414 315.296 222.414H324.59C329.723 222.414 333.884 218.113 333.884 212.807V189.75C333.884 184.444 329.723 180.143 324.59 180.143H315.296ZM315.296 122.5C310.163 122.5 306.001 126.801 306.001 132.107V155.164C306.001 160.47 310.163 164.771 315.296 164.771H324.59C329.723 164.771 333.884 160.47 333.884 155.164V132.107C333.884 126.801 329.723 122.5 324.59 122.5H315.296ZM315.296 64.8571C310.163 64.8571 306.001 69.1584 306.001 74.4643V97.5214C306.001 102.827 310.163 107.129 315.296 107.129H324.59C329.723 107.129 333.884 102.827 333.884 97.5214V74.4643C333.884 69.1584 329.723 64.8571 324.59 64.8571H315.296ZM315.296 7.21428C310.163 7.21428 306.001 11.5156 306.001 16.8214V39.8786C306.001 45.1844 310.163 49.4857 315.296 49.4857H324.59C329.723 49.4857 333.884 45.1844 333.884 39.8786V16.8214C333.884 11.5156 329.723 7.21428 324.59 7.21428H315.296Z" fill="url(#paint1_linear_1503_4282)"/>
<path fill-rule="evenodd" clip-rule="evenodd" d="M343.179 526H296.707V0H343.179V526ZM315.296 468.357C310.163 468.357 306.001 472.658 306.001 477.964V501.021C306.001 506.327 310.163 510.629 315.296 510.629H324.59C329.723 510.629 333.884 506.327 333.884 501.021V477.964C333.884 472.658 329.723 468.357 324.59 468.357H315.296ZM315.296 410.714C310.163 410.714 306.001 415.016 306.001 420.321V443.379C306.001 448.684 310.163 452.986 315.296 452.986H324.59C329.723 452.986 333.884 448.684 333.884 443.379V420.321C333.884 415.016 329.723 410.714 324.59 410.714H315.296ZM315.296 353.071C310.163 353.071 306.001 357.373 306.001 362.679V385.736C306.001 391.042 310.163 395.343 315.296 395.343H324.59C329.723 395.343 333.884 391.042 333.884 385.736V362.679C333.884 357.373 329.723 353.071 324.59 353.071H315.296ZM315.296 295.429C310.163 295.429 306.001 299.73 306.001 305.036V328.093C306.001 333.399 310.163 337.7 315.296 337.7H324.59C329.723 337.7 333.884 333.399 333.884 328.093V305.036C333.884 299.73 329.723 295.429 324.59 295.429H315.296ZM315.296 237.786C310.163 237.786 306.001 242.087 306.001 247.393V270.45C306.001 275.756 310.163 280.057 315.296 280.057H324.59C329.723 280.057 333.884 275.756 333.884 270.45V247.393C333.884 242.087 329.723 237.786 324.59 237.786H315.296ZM315.296 180.143C310.163 180.143 306.001 184.444 306.001 189.75V212.807C306.001 218.113 310.163 222.414 315.296 222.414H324.59C329.723 222.414 333.884 218.113 333.884 212.807V189.75C333.884 184.444 329.723 180.143 324.59 180.143H315.296ZM315.296 122.5C310.163 122.5 306.001 126.801 306.001 132.107V155.164C306.001 160.47 310.163 164.771 315.296 164.771H324.59C329.723 164.771 333.884 160.47 333.884 155.164V132.107C333.884 126.801 329.723 122.5 324.59 122.5H315.296ZM315.296 64.8571C310.163 64.8571 306.001 69.1584 306.001 74.4643V97.5214C306.001 102.827 310.163 107.129 315.296 107.129H324.59C329.723 107.129 333.884 102.827 333.884 97.5214V74.4643C333.884 69.1584 329.723 64.8571 324.59 64.8571H315.296ZM315.296 7.21428C310.163 7.21428 306.001 11.5156 306.001 16.8214V39.8786C306.001 45.1844 310.163 49.4857 315.296 49.4857H324.59C329.723 49.4857 333.884 45.1844 333.884 39.8786V16.8214C333.884 11.5156 329.723 7.21428 324.59 7.21428H315.296Z" fill="url(#paint2_linear_1503_4282)" fill-opacity="0.2"/>
</g>
<rect x="1" y="10.4492" width="637.88" height="280.405" rx="8" fill="#FA7315"/>
<rect x="1" y="10.4492" width="637.88" height="280.405" rx="8" fill="url(#paint3_linear_1503_4282)"/>
<rect x="1" y="10.4492" width="637.88" height="280.405" rx="8" fill="url(#pattern0_1503_4282)"/>
<rect x="1" y="10.4492" width="637.88" height="280.405" rx="8" stroke="black" stroke-width="2"/>
<rect x="21.1641" y="28.8223" width="599.346" height="243.658" rx="7.5" stroke="black" stroke-opacity="0.79" stroke-width="3"/>
<circle cx="319.94" cy="45.1961" r="5.36213" fill="url(#paint4_radial_1503_4282)"/>
<circle cx="319.94" cy="257.893" r="5.36213" fill="url(#paint5_radial_1503_4282)"/>
<path d="M321.557 261.656C321.107 261.86 320.818 261.82 320.69 261.538L319.957 259.922C319.729 259.419 319.136 259.196 318.633 259.424L317.017 260.157C316.734 260.286 316.491 260.125 316.287 259.675L316.237 259.565C316.033 259.115 316.072 258.826 316.355 258.698L317.971 257.965C318.474 257.737 318.696 257.144 318.468 256.641L317.721 254.993C317.593 254.711 317.754 254.468 318.204 254.264L318.376 254.185C318.826 253.981 319.115 254.02 319.243 254.303L319.991 255.95C320.219 256.453 320.812 256.676 321.314 256.448L322.946 255.708C323.229 255.579 323.472 255.74 323.676 256.19L323.726 256.3C323.93 256.75 323.891 257.039 323.608 257.167L321.977 257.907C321.474 258.136 321.251 258.728 321.479 259.231L322.212 260.847C322.34 261.13 322.18 261.373 321.73 261.577L321.557 261.656Z" fill="#424242"/>
<path d="M317.858 48.6823C317.43 48.4353 317.294 48.1774 317.449 47.9088L318.336 46.3719C318.612 45.8936 318.448 45.282 317.97 45.0059L316.433 44.1185C316.164 43.9634 316.154 43.672 316.401 43.2441L316.461 43.1396C316.708 42.7118 316.966 42.5754 317.235 42.7305L318.771 43.6178C319.25 43.894 319.861 43.7301 320.137 43.2518L321.042 41.6851C321.197 41.4164 321.489 41.4056 321.916 41.6526L322.081 41.7474C322.508 41.9944 322.645 42.2523 322.49 42.5209L321.585 44.0877C321.309 44.566 321.473 45.1775 321.951 45.4537L323.503 46.3496C323.772 46.5047 323.782 46.7962 323.535 47.2241L323.475 47.3285C323.228 47.7564 322.97 47.8928 322.702 47.7377L321.15 46.8417C320.672 46.5656 320.06 46.7294 319.784 47.2077L318.896 48.7446C318.741 49.0133 318.45 49.0241 318.022 48.7771L317.858 48.6823Z" fill="#424242"/>
<path d="M124.775 78.8489C122.71 75.0408 119.515 73.1044 115.19 73.0399C112.673 73.0399 110.575 73.8144 108.897 75.3635C107.219 76.9126 106.412 78.7521 106.477 80.8821C106.477 82.4311 107.219 83.8188 108.704 85.0452C110.253 86.2715 112.673 87.1429 115.965 87.6592C123.775 89.0147 129.422 91.661 132.908 95.5982C136.458 99.4709 138.233 103.924 138.233 108.959C138.233 114.51 136.135 119.447 131.94 123.772C127.744 128.032 122.516 130.162 116.255 130.162C106.315 130.033 98.9251 124.998 94.0842 115.058L103.863 110.121C106.896 116.382 111.092 119.512 116.449 119.512C119.547 119.577 122.226 118.512 124.485 116.317C126.744 114.058 127.873 111.444 127.873 108.475C127.938 106.474 127.066 104.505 125.259 102.569C123.452 100.568 120.257 99.1482 115.674 98.3091C109.478 97.4055 104.734 95.5337 101.442 92.6937C98.1505 89.7892 96.5047 86.3361 96.5047 82.3343C96.3756 77.558 98.0537 73.169 101.539 69.1672C105.025 65.1009 109.639 63.0678 115.384 63.0678C123.452 63.2614 129.455 67.0695 133.392 74.4922L124.775 78.8489ZM196.748 129H186.485V91.4351L171.479 129L156.472 91.4351V129H146.209V64.1328H156.472L171.479 100.536L186.485 64.1328H196.748V129ZM228.526 130.162C220.91 130.162 215.037 127.29 210.906 121.545C206.839 115.736 204.806 107.41 204.806 96.5664C204.806 85.9811 206.839 77.7517 210.906 71.8781C215.037 66.0045 220.91 63.0678 228.526 63.0678C236.272 63.0678 242.145 66.0045 246.147 71.8781C250.213 77.7517 252.247 85.9811 252.247 96.5664C252.247 107.41 250.213 115.736 246.147 121.545C242.145 127.29 236.272 130.162 228.526 130.162ZM228.526 73.3304C224.008 73.3304 220.717 75.4926 218.651 79.8171C216.586 84.077 215.521 89.5956 215.456 96.3727C215.456 103.989 216.457 109.766 218.457 113.703C220.523 117.64 223.879 119.577 228.526 119.512C233.432 119.383 236.82 117.35 238.692 113.412C240.564 109.475 241.564 103.795 241.694 96.3727C241.564 89.1438 240.467 83.5607 238.402 79.6234C236.401 75.6862 233.109 73.5885 228.526 73.3304ZM305.537 129H293.629L277.267 98.3091L270.49 106.732V129H260.227V64.1328H270.49V89.886L290.918 64.1328H304.085L284.141 89.4019L305.537 129ZM354.787 129H314.511V64.1328H352.754V74.3953H324.774V90.3701H343.653V100.826H324.774V118.544H354.787V129ZM408.486 96.5664C408.422 107.862 406.066 116.091 401.418 121.255C396.836 126.418 391.188 129 384.476 129H364.241V64.1328H384.476C391.188 64.1328 396.836 66.7145 401.418 71.8781C406.066 77.0417 408.422 85.2711 408.486 96.5664ZM374.503 96.5664V118.737H384.476C388.8 118.608 392.156 116.543 394.544 112.541C396.997 108.539 398.256 103.214 398.32 96.5664C398.32 89.4665 397.094 84.0447 394.641 80.3012C392.189 76.493 388.8 74.5244 384.476 74.3953H374.503V96.5664ZM486.769 109.637C486.769 114.865 485.188 119.415 482.025 123.288C478.927 127.096 474.377 129 468.374 129H442.814V64.1328H467.406C472.505 64.1328 476.765 65.7141 480.186 68.8768C483.607 71.9749 485.317 76.3317 485.317 81.947C485.253 88.466 483.155 92.9842 479.024 95.5014C484.188 98.4059 486.769 103.118 486.769 109.637ZM475.442 82.7216C475.442 80.3334 474.796 78.3971 473.505 76.9126C472.279 75.428 470.472 74.6858 468.084 74.6858H453.077V90.4669H467.987C470.181 90.4669 471.956 89.6601 473.312 88.0465C474.667 86.3683 475.377 84.5934 475.442 82.7216ZM476.216 109.927C476.152 107.539 475.442 105.538 474.086 103.924C472.731 102.246 470.956 101.375 468.761 101.31H452.98V118.737H468.374C470.762 118.737 472.666 117.834 474.086 116.027C475.506 114.219 476.216 112.186 476.216 109.927ZM549.573 64.1328L527.112 100.826V129H516.849V100.826L494.097 64.1328H506.393L521.883 89.2083L537.568 64.1328H549.573ZM83.7135 225.802C88.4898 225.738 91.9429 223.479 94.0729 219.025L103.658 223.769C99.7205 231.773 93.0725 235.871 83.7135 236.065C76.0973 236.065 70.2237 233.128 66.0929 227.255C62.0265 221.381 59.9934 213.152 59.9934 202.566C59.9934 191.981 62.0265 183.752 66.0929 177.878C70.2237 172.005 76.0973 169.068 83.7135 169.068C93.0725 169.261 99.7205 173.36 103.658 181.364L94.0729 186.108C91.9429 181.654 88.4898 179.395 83.7135 179.33C79.1954 179.33 75.9036 181.493 73.8382 185.817C71.7728 190.077 70.7401 195.66 70.7401 202.566C70.7401 209.473 71.7728 215.088 73.8382 219.412C75.9036 223.672 79.1954 225.802 83.7135 225.802ZM135.964 236.162C128.348 236.162 122.475 233.29 118.344 227.545C114.277 221.736 112.244 213.41 112.244 202.566C112.244 191.981 114.277 183.752 118.344 177.878C122.475 172.005 128.348 169.068 135.964 169.068C143.71 169.068 149.583 172.005 153.585 177.878C157.651 183.752 159.684 191.981 159.684 202.566C159.684 213.41 157.651 221.736 153.585 227.545C149.583 233.29 143.71 236.162 135.964 236.162ZM135.964 179.33C131.446 179.33 128.154 181.493 126.089 185.817C124.024 190.077 122.959 195.596 122.894 202.373C122.894 209.989 123.894 215.766 125.895 219.703C127.961 223.64 131.317 225.577 135.964 225.512C140.87 225.383 144.258 223.35 146.13 219.412C148.002 215.475 149.002 209.795 149.131 202.373C149.002 195.144 147.905 189.561 145.84 185.623C143.839 181.686 140.547 179.589 135.964 179.33ZM218.494 235H208.231V197.435L193.225 235L178.218 197.435V235H167.955V170.133H178.218L193.225 206.536L208.231 170.133H218.494V235ZM251.047 206.826H238.751V235H228.489V170.133H249.885C254.661 170.133 258.502 170.843 261.406 172.263C264.311 173.618 266.667 175.813 268.474 178.846C270.346 181.88 271.282 185.043 271.282 188.334C271.282 191.755 270.539 194.853 269.055 197.629C267.57 200.404 265.311 202.663 262.278 204.406C259.309 206.084 255.565 206.891 251.047 206.826ZM260.922 188.528C260.922 186.011 260.148 184.074 258.599 182.719C257.114 181.364 255.436 180.654 253.564 180.589H238.558V196.564H253.951C255.888 196.564 257.534 195.854 258.889 194.434C260.245 193.014 260.922 191.045 260.922 188.528ZM321.79 235H281.514V170.133H319.757V180.395H291.777V196.37H310.656V206.826H291.777V224.544H321.79V235ZM371.423 179.234H356.416V235H346.154V179.234H331.341V170.133H371.423V179.234ZM394.818 235H384.362V170.133H394.818V235ZM447.912 179.234H432.905V235H422.643V179.234H407.83V170.133H447.912V179.234ZM471.307 235H460.851V170.133H471.307V235ZM506.78 236.162C499.164 236.162 493.29 233.29 489.159 227.545C485.093 221.736 483.06 213.41 483.06 202.566C483.06 191.981 485.093 183.752 489.159 177.878C493.29 172.005 499.164 169.068 506.78 169.068C514.525 169.068 520.399 172.005 524.401 177.878C528.467 183.752 530.5 191.981 530.5 202.566C530.5 213.41 528.467 221.736 524.401 227.545C520.399 233.29 514.525 236.162 506.78 236.162ZM506.78 179.33C502.262 179.33 498.97 181.493 496.905 185.817C494.839 190.077 493.774 195.596 493.71 202.373C493.71 209.989 494.71 215.766 496.711 219.703C498.777 223.64 502.133 225.577 506.78 225.512C511.685 225.383 515.074 223.35 516.946 219.412C518.818 215.475 519.818 209.795 519.947 202.373C519.818 195.144 518.721 189.561 516.655 185.623C514.655 181.686 511.363 179.589 506.78 179.33ZM583.21 235H574.109L549.324 191.045V235H539.062V170.133H549.324L572.948 211.57V170.133H583.21V235Z" fill="black"/>
<defs>
<linearGradient id="paint0_linear_1503_4282" x1="319.941" y1="438.5" x2="319.941" y2="522" gradientUnits="userSpaceOnUse">
<stop stop-color="#D9D9D9"/>
<stop offset="0.509615" stop-color="#A5A5A5" stop-opacity="0.24"/>
<stop offset="1" stop-color="#737373" stop-opacity="0"/>
</linearGradient>
<linearGradient id="paint1_linear_1503_4282" x1="337.441" y1="39.5" x2="301.941" y2="529" gradientUnits="userSpaceOnUse">
<stop stop-color="#D3D3D3"/>
<stop offset="1" stop-color="#919191"/>
</linearGradient>
<linearGradient id="paint2_linear_1503_4282" x1="296.941" y1="410" x2="342.941" y2="410" gradientUnits="userSpaceOnUse">
<stop stop-opacity="0.94"/>
<stop offset="0.331731" stop-color="white"/>
<stop offset="0.67" stop-color="white"/>
<stop offset="1" stop-opacity="0.78"/>
</linearGradient>
<linearGradient id="paint3_linear_1503_4282" x1="567.441" y1="29" x2="319.94" y2="291.854" gradientUnits="userSpaceOnUse">
<stop stop-color="#FFA046"/>
<stop offset="1" stop-color="#FA7315" stop-opacity="0.81"/>
</linearGradient>
<radialGradient id="paint4_radial_1503_4282" cx="0" cy="0" r="1" gradientUnits="userSpaceOnUse" gradientTransform="translate(319.94 45.1961) rotate(90) scale(5.36213)">
<stop stop-color="#696969"/>
<stop offset="0.961538" stop-color="#B6B6B6"/>
</radialGradient>
<radialGradient id="paint5_radial_1503_4282" cx="0" cy="0" r="1" gradientUnits="userSpaceOnUse" gradientTransform="translate(319.94 257.893) rotate(90) scale(5.36213)">
<stop stop-color="#696969"/>
<stop offset="0.961538" stop-color="#B6B6B6"/>
</radialGradient>
<pattern id="pattern0_1503_4282" patternUnits="userSpaceOnUse" patternTransform="matrix(5.67 0 0 11.34 -0.028125 8.92891)" preserveAspectRatio="none" viewBox="-0.03125 -0.578125 6.3 12.6" width="1" height="1">
<use xlink:href="#pattern0_1503_4282_inner" transform="translate(-9.45 -6.3)"/>
<use xlink:href="#pattern0_1503_4282_inner" transform="translate(-3.15 -6.3)"/>
<use xlink:href="#pattern0_1503_4282_inner" transform="translate(3.15 -6.3)"/>
<use xlink:href="#pattern0_1503_4282_inner" transform="translate(-12.6 0)"/>
<use xlink:href="#pattern0_1503_4282_inner" transform="translate(-6.3 0)"/>
<g id="pattern0_1503_4282_inner">
<path d="M3.5 0L6.53109 1.75V5.25L3.5 7L0.468911 5.25V1.75L3.5 0Z" stroke="#FF8A39"/>
</g>
<use xlink:href="#pattern0_1503_4282_inner" transform="translate(-9.45 6.3)"/>
<use xlink:href="#pattern0_1503_4282_inner" transform="translate(-3.15 6.3)"/>
<use xlink:href="#pattern0_1503_4282_inner" transform="translate(3.15 6.3)"/>
</pattern></defs>
</svg>
