<svg width="640" height="526" viewBox="0 0 640 526" fill="none" xmlns="http://www.w3.org/2000/svg" xmlns:xlink="http://www.w3.org/1999/xlink">
<path fill-rule="evenodd" clip-rule="evenodd" d="M340.941 524H298.941V0.5H340.941V524ZM315.741 466.357C311.102 466.357 307.341 470.658 307.341 475.964V499.021C307.341 504.327 311.102 508.629 315.741 508.629H324.141C328.781 508.629 332.541 504.327 332.541 499.021V475.964C332.541 470.658 328.781 466.357 324.141 466.357H315.741ZM315.741 408.714C311.102 408.714 307.341 413.016 307.341 418.321V441.379C307.341 446.684 311.102 450.986 315.741 450.986H324.141C328.781 450.986 332.541 446.684 332.541 441.379V418.321C332.541 413.016 328.781 408.714 324.141 408.714H315.741ZM315.741 351.071C311.102 351.071 307.341 355.373 307.341 360.679V383.736C307.341 389.042 311.102 393.343 315.741 393.343H324.141C328.781 393.343 332.541 389.042 332.541 383.736V360.679C332.541 355.373 328.781 351.071 324.141 351.071H315.741ZM315.741 293.429C311.102 293.429 307.341 297.73 307.341 303.036V326.093C307.341 331.399 311.102 335.7 315.741 335.7H324.141C328.781 335.7 332.541 331.399 332.541 326.093V303.036C332.541 297.73 328.781 293.429 324.141 293.429H315.741ZM315.741 235.786C311.102 235.786 307.341 240.087 307.341 245.393V268.45C307.341 273.756 311.102 278.057 315.741 278.057H324.141C328.781 278.057 332.541 273.756 332.541 268.45V245.393C332.541 240.087 328.781 235.786 324.141 235.786H315.741ZM315.741 178.143C311.102 178.143 307.341 182.444 307.341 187.75V210.807C307.341 216.113 311.102 220.414 315.741 220.414H324.141C328.781 220.414 332.541 216.113 332.541 210.807V187.75C332.541 182.444 328.781 178.143 324.141 178.143H315.741ZM315.741 120.5C311.102 120.5 307.341 124.801 307.341 130.107V153.164C307.341 158.47 311.102 162.771 315.741 162.771H324.141C328.781 162.771 332.541 158.47 332.541 153.164V130.107C332.541 124.801 328.781 120.5 324.141 120.5H315.741ZM315.741 62.8571C311.102 62.8571 307.341 67.1584 307.341 72.4643V95.5214C307.341 100.827 311.102 105.129 315.741 105.129H324.141C328.781 105.129 332.541 100.827 332.541 95.5214V72.4643C332.541 67.1584 328.781 62.8571 324.141 62.8571H315.741ZM315.741 5.21428C311.102 5.21429 307.341 9.51555 307.341 14.8214V37.8786C307.341 43.1844 311.102 47.4857 315.741 47.4857H324.141C328.781 47.4857 332.541 43.1844 332.541 37.8786V14.8214C332.541 9.51555 328.781 5.21428 324.141 5.21428H315.741Z" fill="#6B6A6A"/>
<path fill-rule="evenodd" clip-rule="evenodd" d="M343.179 526H296.707V0H343.179V526ZM315.296 468.357C310.163 468.357 306.001 472.658 306.001 477.964V501.021C306.001 506.327 310.163 510.629 315.296 510.629H324.59C329.723 510.629 333.884 506.327 333.884 501.021V477.964C333.884 472.658 329.723 468.357 324.59 468.357H315.296ZM315.296 410.714C310.163 410.714 306.001 415.016 306.001 420.321V443.379C306.001 448.684 310.163 452.986 315.296 452.986H324.59C329.723 452.986 333.884 448.684 333.884 443.379V420.321C333.884 415.016 329.723 410.714 324.59 410.714H315.296ZM315.296 353.071C310.163 353.071 306.001 357.373 306.001 362.679V385.736C306.001 391.042 310.163 395.343 315.296 395.343H324.59C329.723 395.343 333.884 391.042 333.884 385.736V362.679C333.884 357.373 329.723 353.071 324.59 353.071H315.296ZM315.296 295.429C310.163 295.429 306.001 299.73 306.001 305.036V328.093C306.001 333.399 310.163 337.7 315.296 337.7H324.59C329.723 337.7 333.884 333.399 333.884 328.093V305.036C333.884 299.73 329.723 295.429 324.59 295.429H315.296ZM315.296 237.786C310.163 237.786 306.001 242.087 306.001 247.393V270.45C306.001 275.756 310.163 280.057 315.296 280.057H324.59C329.723 280.057 333.884 275.756 333.884 270.45V247.393C333.884 242.087 329.723 237.786 324.59 237.786H315.296ZM315.296 180.143C310.163 180.143 306.001 184.444 306.001 189.75V212.807C306.001 218.113 310.163 222.414 315.296 222.414H324.59C329.723 222.414 333.884 218.113 333.884 212.807V189.75C333.884 184.444 329.723 180.143 324.59 180.143H315.296ZM315.296 122.5C310.163 122.5 306.001 126.801 306.001 132.107V155.164C306.001 160.47 310.163 164.771 315.296 164.771H324.59C329.723 164.771 333.884 160.47 333.884 155.164V132.107C333.884 126.801 329.723 122.5 324.59 122.5H315.296ZM315.296 64.8571C310.163 64.8571 306.001 69.1584 306.001 74.4643V97.5214C306.001 102.827 310.163 107.129 315.296 107.129H324.59C329.723 107.129 333.884 102.827 333.884 97.5214V74.4643C333.884 69.1584 329.723 64.8571 324.59 64.8571H315.296ZM315.296 7.21428C310.163 7.21429 306.001 11.5156 306.001 16.8214V39.8786C306.001 45.1844 310.163 49.4857 315.296 49.4857H324.59C329.723 49.4857 333.884 45.1844 333.884 39.8786V16.8214C333.884 11.5156 329.723 7.21428 324.59 7.21428H315.296Z" fill="url(#paint0_linear_1503_4257)"/>
<path fill-rule="evenodd" clip-rule="evenodd" d="M343.179 526H296.707V0H343.179V526ZM315.296 468.357C310.163 468.357 306.001 472.658 306.001 477.964V501.021C306.001 506.327 310.163 510.629 315.296 510.629H324.59C329.723 510.629 333.884 506.327 333.884 501.021V477.964C333.884 472.658 329.723 468.357 324.59 468.357H315.296ZM315.296 410.714C310.163 410.714 306.001 415.016 306.001 420.321V443.379C306.001 448.684 310.163 452.986 315.296 452.986H324.59C329.723 452.986 333.884 448.684 333.884 443.379V420.321C333.884 415.016 329.723 410.714 324.59 410.714H315.296ZM315.296 353.071C310.163 353.071 306.001 357.373 306.001 362.679V385.736C306.001 391.042 310.163 395.343 315.296 395.343H324.59C329.723 395.343 333.884 391.042 333.884 385.736V362.679C333.884 357.373 329.723 353.071 324.59 353.071H315.296ZM315.296 295.429C310.163 295.429 306.001 299.73 306.001 305.036V328.093C306.001 333.399 310.163 337.7 315.296 337.7H324.59C329.723 337.7 333.884 333.399 333.884 328.093V305.036C333.884 299.73 329.723 295.429 324.59 295.429H315.296ZM315.296 237.786C310.163 237.786 306.001 242.087 306.001 247.393V270.45C306.001 275.756 310.163 280.057 315.296 280.057H324.59C329.723 280.057 333.884 275.756 333.884 270.45V247.393C333.884 242.087 329.723 237.786 324.59 237.786H315.296ZM315.296 180.143C310.163 180.143 306.001 184.444 306.001 189.75V212.807C306.001 218.113 310.163 222.414 315.296 222.414H324.59C329.723 222.414 333.884 218.113 333.884 212.807V189.75C333.884 184.444 329.723 180.143 324.59 180.143H315.296ZM315.296 122.5C310.163 122.5 306.001 126.801 306.001 132.107V155.164C306.001 160.47 310.163 164.771 315.296 164.771H324.59C329.723 164.771 333.884 160.47 333.884 155.164V132.107C333.884 126.801 329.723 122.5 324.59 122.5H315.296ZM315.296 64.8571C310.163 64.8571 306.001 69.1584 306.001 74.4643V97.5214C306.001 102.827 310.163 107.129 315.296 107.129H324.59C329.723 107.129 333.884 102.827 333.884 97.5214V74.4643C333.884 69.1584 329.723 64.8571 324.59 64.8571H315.296ZM315.296 7.21428C310.163 7.21429 306.001 11.5156 306.001 16.8214V39.8786C306.001 45.1844 310.163 49.4857 315.296 49.4857H324.59C329.723 49.4857 333.884 45.1844 333.884 39.8786V16.8214C333.884 11.5156 329.723 7.21428 324.59 7.21428H315.296Z" fill="url(#paint1_linear_1503_4257)" fill-opacity="0.2"/>
<rect x="1" y="10.4492" width="637.88" height="280.405" rx="8" fill="#FA7315"/>
<rect x="1" y="10.4492" width="637.88" height="280.405" rx="8" fill="url(#paint2_linear_1503_4257)"/>
<rect x="1" y="10.4492" width="637.88" height="280.405" rx="8" fill="url(#pattern0_1503_4257)"/>
<rect x="1" y="10.4492" width="637.88" height="280.405" rx="8" stroke="black" stroke-width="2"/>
<rect x="21.1641" y="28.8223" width="599.346" height="243.658" rx="7.5" stroke="black" stroke-opacity="0.79" stroke-width="3"/>
<circle cx="319.94" cy="45.1961" r="5.36213" fill="url(#paint3_radial_1503_4257)"/>
<circle cx="319.94" cy="257.893" r="5.36213" fill="url(#paint4_radial_1503_4257)"/>
<path d="M321.557 261.656C321.107 261.86 320.818 261.82 320.69 261.538L319.957 259.922C319.729 259.419 319.136 259.196 318.633 259.424L317.017 260.157C316.734 260.286 316.491 260.125 316.287 259.675L316.237 259.565C316.033 259.115 316.072 258.826 316.355 258.698L317.971 257.965C318.474 257.737 318.696 257.144 318.468 256.641L317.721 254.993C317.593 254.711 317.754 254.468 318.204 254.264L318.376 254.185C318.826 253.981 319.115 254.02 319.243 254.303L319.991 255.95C320.219 256.453 320.812 256.676 321.314 256.448L322.946 255.708C323.229 255.579 323.472 255.74 323.676 256.19L323.726 256.3C323.93 256.75 323.891 257.039 323.608 257.167L321.977 257.907C321.474 258.136 321.251 258.728 321.479 259.231L322.212 260.847C322.34 261.13 322.18 261.373 321.73 261.577L321.557 261.656Z" fill="#424242"/>
<path d="M317.858 48.6823C317.43 48.4353 317.294 48.1774 317.449 47.9088L318.336 46.3719C318.612 45.8936 318.448 45.282 317.97 45.0059L316.433 44.1185C316.164 43.9634 316.154 43.672 316.401 43.2441L316.461 43.1396C316.708 42.7118 316.966 42.5754 317.235 42.7305L318.771 43.6178C319.25 43.894 319.861 43.7301 320.137 43.2518L321.042 41.6851C321.197 41.4164 321.489 41.4056 321.916 41.6526L322.081 41.7474C322.508 41.9944 322.645 42.2523 322.49 42.5209L321.585 44.0877C321.309 44.566 321.473 45.1775 321.951 45.4537L323.503 46.3496C323.772 46.5047 323.782 46.7962 323.535 47.2241L323.475 47.3285C323.228 47.7564 322.97 47.8928 322.702 47.7377L321.15 46.8417C320.672 46.5656 320.06 46.7294 319.784 47.2077L318.896 48.7446C318.741 49.0133 318.45 49.0241 318.022 48.7771L317.858 48.6823Z" fill="#424242"/>
<path d="M166.653 129H157.553L132.767 85.0452V129H122.505V64.1328H132.767L156.391 105.57V64.1328H166.653V129ZM198.669 130.162C191.053 130.162 185.18 127.29 181.049 121.545C176.982 115.736 174.949 107.41 174.949 96.5664C174.949 85.9811 176.982 77.7517 181.049 71.8781C185.18 66.0045 191.053 63.0678 198.669 63.0678C206.415 63.0678 212.288 66.0045 216.29 71.8781C220.356 77.7517 222.389 85.9811 222.389 96.5664C222.389 107.41 220.356 115.736 216.29 121.545C212.288 127.29 206.415 130.162 198.669 130.162ZM198.669 73.3304C194.151 73.3304 190.859 75.4926 188.794 79.8171C186.729 84.077 185.664 89.5956 185.599 96.3727C185.599 103.989 186.6 109.766 188.6 113.703C190.666 117.64 194.022 119.577 198.669 119.512C203.575 119.383 206.963 117.35 208.835 113.412C210.707 109.475 211.707 103.795 211.836 96.3727C211.707 89.1438 210.61 83.5607 208.545 79.6234C206.544 75.6862 203.252 73.5885 198.669 73.3304ZM299.68 109.637C299.68 114.865 298.098 119.415 294.936 123.288C291.837 127.096 287.287 129 281.284 129H255.725V64.1328H280.316C285.415 64.1328 289.675 65.7141 293.096 68.8768C296.517 71.9749 298.227 76.3317 298.227 81.947C298.163 88.466 296.065 92.9842 291.934 95.5014C297.098 98.4059 299.68 103.118 299.68 109.637ZM288.352 82.7216C288.352 80.3334 287.707 78.3971 286.416 76.9126C285.189 75.428 283.382 74.6858 280.994 74.6858H265.987V90.4669H280.897C283.092 90.4669 284.867 89.6601 286.222 88.0465C287.577 86.3683 288.287 84.5934 288.352 82.7216ZM289.127 109.927C289.062 107.539 288.352 105.538 286.997 103.924C285.641 102.246 283.866 101.375 281.672 101.31H265.89V118.737H281.284C283.672 118.737 285.577 117.834 286.997 116.027C288.417 114.219 289.127 112.186 289.127 109.927ZM353.479 129H342.345L331.889 100.826H319.594V129H309.331V64.1328H334.987C340.28 64.1973 344.443 66.1336 347.477 69.9418C350.575 73.6853 352.124 77.8162 352.124 82.3343C352.124 85.7552 351.188 89.0147 349.316 92.1128C347.444 95.1464 345.024 97.3409 342.055 98.6963L353.479 129ZM341.958 82.6248C341.958 80.1075 341.184 78.1712 339.635 76.8158C338.15 75.4603 336.472 74.7503 334.6 74.6858H319.594V90.6606H334.987C336.924 90.6606 338.57 89.9506 339.925 88.5306C341.28 87.1106 341.958 85.142 341.958 82.6248ZM414.928 129H404.084L397.694 110.798H377.46L371.07 129H360.129L382.397 64.1328H392.66L414.928 129ZM394.015 100.342L387.625 82.1407L381.042 100.342H394.015ZM465.802 129H456.701L431.916 85.0452V129H421.654V64.1328H431.916L455.539 105.57V64.1328H465.802V129ZM519.505 96.5664C519.44 107.862 517.085 116.091 512.437 121.255C507.855 126.418 502.207 129 495.494 129H475.26V64.1328H495.494C502.207 64.1328 507.855 66.7145 512.437 71.8781C517.085 77.0417 519.44 85.2711 519.505 96.5664ZM485.522 96.5664V118.737H495.494C499.819 118.608 503.175 116.543 505.563 112.541C508.016 108.539 509.275 103.214 509.339 96.5664C509.339 89.4665 508.113 84.0447 505.66 80.3012C503.208 76.493 499.819 74.5244 495.494 74.3953H485.522V96.5664ZM141.439 206.826H129.143V235H118.881V170.133H140.277C145.053 170.133 148.894 170.843 151.798 172.263C154.703 173.618 157.059 175.813 158.866 178.846C160.738 181.88 161.674 185.043 161.674 188.334C161.674 191.755 160.931 194.853 159.447 197.629C157.962 200.404 155.703 202.663 152.67 204.406C149.701 206.084 145.957 206.891 141.439 206.826ZM151.314 188.528C151.314 186.011 150.54 184.074 148.991 182.719C147.506 181.364 145.828 180.654 143.956 180.589H128.95V196.564H144.343C146.28 196.564 147.926 195.854 149.281 194.434C150.637 193.014 151.314 191.045 151.314 188.528ZM216.054 235H204.921L194.464 206.826H182.169V235H171.906V170.133H197.562C202.855 170.197 207.018 172.134 210.052 175.942C213.15 179.685 214.699 183.816 214.699 188.334C214.699 191.755 213.763 195.015 211.891 198.113C210.02 201.146 207.599 203.341 204.63 204.696L216.054 235ZM204.533 188.625C204.533 186.108 203.759 184.171 202.21 182.816C200.725 181.46 199.047 180.75 197.175 180.686H182.169V196.661H197.562C199.499 196.661 201.145 195.951 202.5 194.531C203.856 193.111 204.533 191.142 204.533 188.625ZM265.885 235H225.609V170.133H263.852V180.395H235.872V196.37H254.751V206.826H235.872V224.544H265.885V235ZM304.577 184.849C302.512 181.041 299.317 179.104 294.993 179.04C292.475 179.04 290.378 179.814 288.7 181.364C287.021 182.913 286.215 184.752 286.279 186.882C286.279 188.431 287.021 189.819 288.506 191.045C290.055 192.272 292.475 193.143 295.767 193.659C303.577 195.015 309.225 197.661 312.71 201.598C316.26 205.471 318.035 209.924 318.035 214.959C318.035 220.51 315.937 225.447 311.742 229.772C307.547 234.032 302.318 236.162 296.058 236.162C286.118 236.033 278.727 230.998 273.887 221.058L283.665 216.121C286.699 222.382 290.894 225.512 296.251 225.512C299.349 225.577 302.028 224.512 304.287 222.317C306.546 220.058 307.676 217.444 307.676 214.475C307.74 212.474 306.869 210.505 305.062 208.569C303.254 206.568 300.059 205.148 295.477 204.309C289.28 203.405 284.536 201.534 281.245 198.694C277.953 195.789 276.307 192.336 276.307 188.334C276.178 183.558 277.856 179.169 281.341 175.167C284.827 171.101 289.442 169.068 295.186 169.068C303.254 169.261 309.257 173.07 313.194 180.492L304.577 184.849ZM366.578 235H326.302V170.133H364.545V180.395H336.565V196.37H355.444V206.826H336.565V224.544H366.578V235ZM420.277 235H411.177L386.391 191.045V235H376.129V170.133H386.391L410.015 211.57V170.133H420.277V235ZM453.746 225.802C458.522 225.738 461.975 223.479 464.105 219.025L473.69 223.769C469.753 231.773 463.105 235.871 453.746 236.065C446.129 236.065 440.256 233.128 436.125 227.255C432.059 221.381 430.026 213.152 430.026 202.566C430.026 191.981 432.059 183.752 436.125 177.878C440.256 172.005 446.129 169.068 453.746 169.068C463.105 169.261 469.753 173.36 473.69 181.364L464.105 186.108C461.975 181.654 458.522 179.395 453.746 179.33C449.228 179.33 445.936 181.493 443.87 185.817C441.805 190.077 440.772 195.66 440.772 202.566C440.772 209.473 441.805 215.088 443.87 219.412C445.936 223.672 449.228 225.802 453.746 225.802ZM523.811 235H483.535V170.133H521.778V180.395H493.798V196.37H512.677V206.826H493.798V224.544H523.811V235Z" fill="black"/>
<defs>
<linearGradient id="paint0_linear_1503_4257" x1="337.441" y1="39.5" x2="301.941" y2="529" gradientUnits="userSpaceOnUse">
<stop stop-color="#D3D3D3"/>
<stop offset="1" stop-color="#919191"/>
</linearGradient>
<linearGradient id="paint1_linear_1503_4257" x1="296.941" y1="410" x2="342.941" y2="410" gradientUnits="userSpaceOnUse">
<stop stop-opacity="0.94"/>
<stop offset="0.331731" stop-color="white"/>
<stop offset="0.67" stop-color="white"/>
<stop offset="1" stop-opacity="0.78"/>
</linearGradient>
<linearGradient id="paint2_linear_1503_4257" x1="567.441" y1="29" x2="319.94" y2="291.854" gradientUnits="userSpaceOnUse">
<stop stop-color="#FFA046"/>
<stop offset="1" stop-color="#FA7315" stop-opacity="0.81"/>
</linearGradient>
<radialGradient id="paint3_radial_1503_4257" cx="0" cy="0" r="1" gradientUnits="userSpaceOnUse" gradientTransform="translate(319.94 45.1961) rotate(90) scale(5.36213)">
<stop stop-color="#696969"/>
<stop offset="0.961538" stop-color="#B6B6B6"/>
</radialGradient>
<radialGradient id="paint4_radial_1503_4257" cx="0" cy="0" r="1" gradientUnits="userSpaceOnUse" gradientTransform="translate(319.94 257.893) rotate(90) scale(5.36213)">
<stop stop-color="#696969"/>
<stop offset="0.961538" stop-color="#B6B6B6"/>
</radialGradient>
<pattern id="pattern0_1503_4257" patternUnits="userSpaceOnUse" patternTransform="matrix(5.67 0 0 11.34 -0.028125 8.92891)" preserveAspectRatio="none" viewBox="-0.03125 -0.578125 6.3 12.6" width="1" height="1">
<use xlink:href="#pattern0_1503_4257_inner" transform="translate(-9.45 -6.3)"/>
<use xlink:href="#pattern0_1503_4257_inner" transform="translate(-3.15 -6.3)"/>
<use xlink:href="#pattern0_1503_4257_inner" transform="translate(3.15 -6.3)"/>
<use xlink:href="#pattern0_1503_4257_inner" transform="translate(-12.6 0)"/>
<use xlink:href="#pattern0_1503_4257_inner" transform="translate(-6.3 0)"/>
<g id="pattern0_1503_4257_inner">
<path d="M3.5 0L6.53109 1.75V5.25L3.5 7L0.468911 5.25V1.75L3.5 0Z" stroke="#FF8A39"/>
</g>
<use xlink:href="#pattern0_1503_4257_inner" transform="translate(-9.45 6.3)"/>
<use xlink:href="#pattern0_1503_4257_inner" transform="translate(-3.15 6.3)"/>
<use xlink:href="#pattern0_1503_4257_inner" transform="translate(3.15 6.3)"/>
</pattern></defs>
</svg>
