<svg width="640" height="526" viewBox="0 0 640 526" fill="none" xmlns="http://www.w3.org/2000/svg" xmlns:xlink="http://www.w3.org/1999/xlink">
<mask id="mask0_1506_3741" style="mask-type:alpha" maskUnits="userSpaceOnUse" x="285" y="0" width="69" height="526">
<rect x="285.941" width="68" height="526" fill="url(#paint0_linear_1506_3741)"/>
</mask>
<g mask="url(#mask0_1506_3741)">
<path fill-rule="evenodd" clip-rule="evenodd" d="M340.941 524H298.941V0.5H340.941V524ZM315.741 466.357C311.102 466.357 307.341 470.658 307.341 475.964V499.021C307.341 504.327 311.102 508.629 315.741 508.629H324.141C328.781 508.629 332.541 504.327 332.541 499.021V475.964C332.541 470.658 328.781 466.357 324.141 466.357H315.741ZM315.741 408.714C311.102 408.714 307.341 413.016 307.341 418.321V441.379C307.341 446.684 311.102 450.986 315.741 450.986H324.141C328.781 450.986 332.541 446.684 332.541 441.379V418.321C332.541 413.016 328.781 408.714 324.141 408.714H315.741ZM315.741 351.071C311.102 351.071 307.341 355.373 307.341 360.679V383.736C307.341 389.042 311.102 393.343 315.741 393.343H324.141C328.781 393.343 332.541 389.042 332.541 383.736V360.679C332.541 355.373 328.781 351.071 324.141 351.071H315.741ZM315.741 293.429C311.102 293.429 307.341 297.73 307.341 303.036V326.093C307.341 331.399 311.102 335.7 315.741 335.7H324.141C328.781 335.7 332.541 331.399 332.541 326.093V303.036C332.541 297.73 328.781 293.429 324.141 293.429H315.741ZM315.741 235.786C311.102 235.786 307.341 240.087 307.341 245.393V268.45C307.341 273.756 311.102 278.057 315.741 278.057H324.141C328.781 278.057 332.541 273.756 332.541 268.45V245.393C332.541 240.087 328.781 235.786 324.141 235.786H315.741ZM315.741 178.143C311.102 178.143 307.341 182.444 307.341 187.75V210.807C307.341 216.113 311.102 220.414 315.741 220.414H324.141C328.781 220.414 332.541 216.113 332.541 210.807V187.75C332.541 182.444 328.781 178.143 324.141 178.143H315.741ZM315.741 120.5C311.102 120.5 307.341 124.801 307.341 130.107V153.164C307.341 158.47 311.102 162.771 315.741 162.771H324.141C328.781 162.771 332.541 158.47 332.541 153.164V130.107C332.541 124.801 328.781 120.5 324.141 120.5H315.741ZM315.741 62.8571C311.102 62.8571 307.341 67.1584 307.341 72.4643V95.5214C307.341 100.827 311.102 105.129 315.741 105.129H324.141C328.781 105.129 332.541 100.827 332.541 95.5214V72.4643C332.541 67.1584 328.781 62.8571 324.141 62.8571H315.741ZM315.741 5.21428C311.102 5.21428 307.341 9.51555 307.341 14.8214V37.8786C307.341 43.1844 311.102 47.4857 315.741 47.4857H324.141C328.781 47.4857 332.541 43.1844 332.541 37.8786V14.8214C332.541 9.51555 328.781 5.21428 324.141 5.21428H315.741Z" fill="#6B6A6A"/>
<path fill-rule="evenodd" clip-rule="evenodd" d="M343.179 526H296.707V0H343.179V526ZM315.296 468.357C310.163 468.357 306.001 472.658 306.001 477.964V501.021C306.001 506.327 310.163 510.629 315.296 510.629H324.59C329.723 510.629 333.884 506.327 333.884 501.021V477.964C333.884 472.658 329.723 468.357 324.59 468.357H315.296ZM315.296 410.714C310.163 410.714 306.001 415.016 306.001 420.321V443.379C306.001 448.684 310.163 452.986 315.296 452.986H324.59C329.723 452.986 333.884 448.684 333.884 443.379V420.321C333.884 415.016 329.723 410.714 324.59 410.714H315.296ZM315.296 353.071C310.163 353.071 306.001 357.373 306.001 362.679V385.736C306.001 391.042 310.163 395.343 315.296 395.343H324.59C329.723 395.343 333.884 391.042 333.884 385.736V362.679C333.884 357.373 329.723 353.071 324.59 353.071H315.296ZM315.296 295.429C310.163 295.429 306.001 299.73 306.001 305.036V328.093C306.001 333.399 310.163 337.7 315.296 337.7H324.59C329.723 337.7 333.884 333.399 333.884 328.093V305.036C333.884 299.73 329.723 295.429 324.59 295.429H315.296ZM315.296 237.786C310.163 237.786 306.001 242.087 306.001 247.393V270.45C306.001 275.756 310.163 280.057 315.296 280.057H324.59C329.723 280.057 333.884 275.756 333.884 270.45V247.393C333.884 242.087 329.723 237.786 324.59 237.786H315.296ZM315.296 180.143C310.163 180.143 306.001 184.444 306.001 189.75V212.807C306.001 218.113 310.163 222.414 315.296 222.414H324.59C329.723 222.414 333.884 218.113 333.884 212.807V189.75C333.884 184.444 329.723 180.143 324.59 180.143H315.296ZM315.296 122.5C310.163 122.5 306.001 126.801 306.001 132.107V155.164C306.001 160.47 310.163 164.771 315.296 164.771H324.59C329.723 164.771 333.884 160.47 333.884 155.164V132.107C333.884 126.801 329.723 122.5 324.59 122.5H315.296ZM315.296 64.8571C310.163 64.8571 306.001 69.1584 306.001 74.4643V97.5214C306.001 102.827 310.163 107.129 315.296 107.129H324.59C329.723 107.129 333.884 102.827 333.884 97.5214V74.4643C333.884 69.1584 329.723 64.8571 324.59 64.8571H315.296ZM315.296 7.21428C310.163 7.21428 306.001 11.5156 306.001 16.8214V39.8786C306.001 45.1844 310.163 49.4857 315.296 49.4857H324.59C329.723 49.4857 333.884 45.1844 333.884 39.8786V16.8214C333.884 11.5156 329.723 7.21428 324.59 7.21428H315.296Z" fill="url(#paint1_linear_1506_3741)"/>
<path fill-rule="evenodd" clip-rule="evenodd" d="M343.179 526H296.707V0H343.179V526ZM315.296 468.357C310.163 468.357 306.001 472.658 306.001 477.964V501.021C306.001 506.327 310.163 510.629 315.296 510.629H324.59C329.723 510.629 333.884 506.327 333.884 501.021V477.964C333.884 472.658 329.723 468.357 324.59 468.357H315.296ZM315.296 410.714C310.163 410.714 306.001 415.016 306.001 420.321V443.379C306.001 448.684 310.163 452.986 315.296 452.986H324.59C329.723 452.986 333.884 448.684 333.884 443.379V420.321C333.884 415.016 329.723 410.714 324.59 410.714H315.296ZM315.296 353.071C310.163 353.071 306.001 357.373 306.001 362.679V385.736C306.001 391.042 310.163 395.343 315.296 395.343H324.59C329.723 395.343 333.884 391.042 333.884 385.736V362.679C333.884 357.373 329.723 353.071 324.59 353.071H315.296ZM315.296 295.429C310.163 295.429 306.001 299.73 306.001 305.036V328.093C306.001 333.399 310.163 337.7 315.296 337.7H324.59C329.723 337.7 333.884 333.399 333.884 328.093V305.036C333.884 299.73 329.723 295.429 324.59 295.429H315.296ZM315.296 237.786C310.163 237.786 306.001 242.087 306.001 247.393V270.45C306.001 275.756 310.163 280.057 315.296 280.057H324.59C329.723 280.057 333.884 275.756 333.884 270.45V247.393C333.884 242.087 329.723 237.786 324.59 237.786H315.296ZM315.296 180.143C310.163 180.143 306.001 184.444 306.001 189.75V212.807C306.001 218.113 310.163 222.414 315.296 222.414H324.59C329.723 222.414 333.884 218.113 333.884 212.807V189.75C333.884 184.444 329.723 180.143 324.59 180.143H315.296ZM315.296 122.5C310.163 122.5 306.001 126.801 306.001 132.107V155.164C306.001 160.47 310.163 164.771 315.296 164.771H324.59C329.723 164.771 333.884 160.47 333.884 155.164V132.107C333.884 126.801 329.723 122.5 324.59 122.5H315.296ZM315.296 64.8571C310.163 64.8571 306.001 69.1584 306.001 74.4643V97.5214C306.001 102.827 310.163 107.129 315.296 107.129H324.59C329.723 107.129 333.884 102.827 333.884 97.5214V74.4643C333.884 69.1584 329.723 64.8571 324.59 64.8571H315.296ZM315.296 7.21428C310.163 7.21428 306.001 11.5156 306.001 16.8214V39.8786C306.001 45.1844 310.163 49.4857 315.296 49.4857H324.59C329.723 49.4857 333.884 45.1844 333.884 39.8786V16.8214C333.884 11.5156 329.723 7.21428 324.59 7.21428H315.296Z" fill="url(#paint2_linear_1506_3741)" fill-opacity="0.2"/>
</g>
<rect x="1" y="10.4492" width="637.88" height="280.405" rx="8" fill="#FA7315"/>
<rect x="1" y="10.4492" width="637.88" height="280.405" rx="8" fill="url(#paint3_linear_1506_3741)"/>
<rect x="1" y="10.4492" width="637.88" height="280.405" rx="8" fill="url(#pattern0_1506_3741)"/>
<rect x="1" y="10.4492" width="637.88" height="280.405" rx="8" stroke="black" stroke-width="2"/>
<rect x="21.1641" y="28.8223" width="599.346" height="243.658" rx="7.5" stroke="black" stroke-opacity="0.79" stroke-width="3"/>
<circle cx="319.94" cy="45.1961" r="5.36213" fill="url(#paint4_radial_1506_3741)"/>
<circle cx="319.94" cy="257.893" r="5.36213" fill="url(#paint5_radial_1506_3741)"/>
<path d="M321.557 261.656C321.107 261.86 320.818 261.82 320.69 261.538L319.957 259.922C319.729 259.419 319.136 259.196 318.633 259.424L317.017 260.157C316.734 260.286 316.491 260.125 316.287 259.675L316.237 259.565C316.033 259.115 316.072 258.826 316.355 258.698L317.971 257.965C318.474 257.737 318.696 257.144 318.468 256.641L317.721 254.993C317.593 254.711 317.754 254.468 318.204 254.264L318.376 254.185C318.826 253.981 319.115 254.02 319.243 254.303L319.991 255.95C320.219 256.453 320.812 256.676 321.314 256.448L322.946 255.708C323.229 255.579 323.472 255.74 323.676 256.19L323.726 256.3C323.93 256.75 323.891 257.039 323.608 257.167L321.977 257.907C321.474 258.136 321.251 258.728 321.479 259.231L322.212 260.847C322.34 261.13 322.18 261.373 321.73 261.577L321.557 261.656Z" fill="#424242"/>
<path d="M317.858 48.6823C317.43 48.4353 317.294 48.1774 317.449 47.9088L318.336 46.3719C318.612 45.8936 318.448 45.282 317.97 45.0059L316.433 44.1185C316.164 43.9634 316.154 43.672 316.401 43.2441L316.461 43.1396C316.708 42.7118 316.966 42.5754 317.235 42.7305L318.771 43.6178C319.25 43.894 319.861 43.7301 320.137 43.2518L321.042 41.6851C321.197 41.4164 321.489 41.4056 321.916 41.6526L322.081 41.7474C322.508 41.9944 322.645 42.2523 322.49 42.5209L321.585 44.0877C321.309 44.566 321.473 45.1775 321.951 45.4537L323.503 46.3496C323.772 46.5047 323.782 46.7962 323.535 47.2241L323.475 47.3285C323.228 47.7564 322.97 47.8928 322.702 47.7377L321.15 46.8417C320.672 46.5656 320.06 46.7294 319.784 47.2077L318.896 48.7446C318.741 49.0133 318.45 49.0241 318.022 48.7771L317.858 48.6823Z" fill="#424242"/>
<path d="M134.803 147.983C134.719 162.616 131.667 173.277 125.647 179.966C119.71 186.655 112.394 190 103.697 190H77.4837V105.965H103.697C112.394 105.965 119.71 109.31 125.647 115.999C131.667 122.689 134.719 133.35 134.803 147.983ZM90.7787 147.983V176.705H103.697C109.3 176.538 113.648 173.862 116.742 168.678C119.919 163.494 121.55 156.595 121.633 147.983C121.633 138.785 120.045 131.761 116.867 126.911C113.69 121.978 109.3 119.428 103.697 119.26H90.7787V147.983ZM168.628 190H155.083V105.965H168.628V190ZM258.105 105.965L229.007 153.501V190H215.712V153.501L186.237 105.965H202.166L222.234 138.45L242.553 105.965H258.105ZM342.266 105.965L329.849 190H318.059L304.764 136.067L291.845 190H280.055L267.638 105.965H281.184L287.706 150.24L298.367 105.965H311.286L322.198 150.24L328.72 105.965H342.266ZM411.972 190H398.677V153.501H368.074V190H354.779V105.965H368.074V139.955H398.677V105.965H411.972V190ZM496.971 105.965L467.873 153.501V190H454.578V153.501L425.103 105.965H441.032L461.1 138.45L481.419 105.965H496.971ZM542.626 184.105C542.626 186.028 541.957 187.659 540.619 188.997C539.281 190.251 537.693 190.878 535.853 190.878C534.097 190.878 532.509 190.209 531.087 188.871C529.749 187.45 529.08 185.861 529.08 184.105C529.08 182.349 529.749 180.802 531.087 179.464C532.509 178.043 534.097 177.332 535.853 177.332C537.609 177.332 539.156 178.043 540.494 179.464C541.915 180.802 542.626 182.349 542.626 184.105ZM562.82 127.538C562.318 132.806 559.851 137.99 555.419 143.091C547.81 152.205 543.295 160.274 541.874 167.298H529.457C531.296 156.344 536.229 146.603 544.257 138.074C547.601 134.729 549.357 131.427 549.525 128.165C549.525 124.821 548.27 122.103 545.762 120.013C543.337 117.839 540.494 116.794 537.233 116.877C529.958 117.212 524.649 120.891 521.304 127.915L509.765 123.023C515.451 111.149 524.565 105.045 537.107 104.711C544.549 104.878 550.695 107.01 555.545 111.108C560.395 115.205 562.82 120.682 562.82 127.538Z" fill="black"/>
<path d="M250.098 104.446C248.436 105.567 245.949 106.819 244.022 107.693C243.419 107.967 243.508 107.476 243.076 107.656C242.24 108.005 241.62 108.61 240.79 108.934C240.512 109.041 240.504 108.35 240.219 108.475C238.633 109.177 237.397 110.162 235.878 111.022C228.486 115.209 221.59 119.962 214.836 125.224C212.613 126.957 209.675 128.816 207.716 130.972C207.487 131.225 207.988 131.463 207.97 131.538C207.682 132.702 207.212 131.715 206.64 132.069C205.782 132.601 204.932 133.244 204.15 133.923C203.663 134.323 203.264 134.799 203.139 135.056C203.071 135.165 203.12 135.247 203.166 134.865C203.179 134.678 203.17 134.313 202.954 133.868C202.746 133.424 202.314 133.026 201.985 132.858C201.883 132.8 201.804 132.765 201.749 132.741C201.594 132.674 201.666 132.616 201.673 132.514C201.692 132.416 201.704 132.299 201.714 132.202C201.761 132.008 201.655 131.896 201.878 132.188C201.917 132.227 201.77 132.775 201.931 132.833C202.323 132.975 203.448 132.725 203.928 132.675C204.845 132.593 205.007 132.55 205.905 132.352C207.127 132.083 208.688 131.95 209.988 131.454C210.27 131.345 209.742 130.911 210.162 130.693C210.584 130.475 211.803 130.169 212.252 130.173C212.703 130.177 212.654 130.652 212.755 130.727C213.58 131.374 214.654 129.81 214.82 129.728C217.959 128.241 220.994 127.974 224.078 126.982C226.427 126.223 228.873 125.2 231.126 124.509C233.808 123.689 236.169 123.255 238.756 122.387C239.028 122.296 238.51 121.767 238.842 121.655C240.061 121.244 241.282 120.855 242.52 120.491C243.812 120.119 245.074 119.787 246.725 119.657C247.156 119.628 247.595 119.613 248.174 119.661C248.75 119.74 249.445 119.731 250.63 120.464C251.217 120.837 251.897 121.599 252.169 122.451C252.448 123.287 252.388 123.994 252.299 124.467C252.09 125.44 251.779 125.889 251.507 126.319C251.176 126.791 251.049 125.877 250.7 126.295C250.092 126.987 249.376 127.518 248.671 128.057C247.007 129.315 245.389 130.643 245.766 132.663C244.467 133.633 242.869 134.747 241.438 135.181C240.513 135.462 240.847 134.429 240.112 135.306C239.948 135.501 240.537 135.755 240.262 136.016C239.096 137.12 237.586 137.963 236.463 139.082C236.238 139.309 236.588 139.669 236.565 139.793C236.341 140.824 234.634 140.534 234.357 140.615C233 141.018 232.054 141.594 231.102 142.239C230.599 142.579 230.078 142.95 229.51 143.31C229.13 143.551 229.939 143.821 229.584 144.074C227.756 145.365 225.768 146.556 223.763 147.468C223.318 147.668 223.392 146.951 223.164 147.023C222.158 147.344 222.537 148.371 221.582 148.696C221.381 148.766 221.222 148.292 221.162 148.267C220.22 147.869 220.413 149.147 220.298 149.25C218.861 150.569 217.166 150.166 215.687 151.293C215.511 151.428 216.259 151.686 215.744 152.036C212.312 154.372 208.507 156.535 204.784 158.31C204.208 158.586 204.343 157.954 204.279 157.927C203.26 157.52 203.529 158.761 203.384 158.907C202.181 160.055 200.355 160.047 200.208 161.841C199.357 162.316 198.534 162.812 197.735 163.327C196.779 163.945 195.847 164.591 195.034 165.243C194.839 165.399 194.648 165.56 194.483 165.711C194.337 165.841 194.174 166.027 194.22 165.974C194.233 165.953 194.267 165.913 194.333 165.77C194.362 165.704 194.407 165.602 194.449 165.417C194.486 165.233 194.529 165.022 194.469 164.622C194.392 163.826 193.541 163.107 193.292 163.044C192.931 162.885 192.843 162.9 192.751 162.883C192.527 162.873 192.788 162.879 192.969 162.842C194.801 162.496 197.128 161.723 199.327 161.182C200.602 160.858 201.869 160.59 203.173 160.386C203.26 160.371 203.306 160.977 203.479 160.945C205.577 160.56 204.892 159.834 205.841 158.322C206.085 157.94 207.534 158.861 207.653 158.924C208.094 159.155 208.047 160.095 208.178 160.124C209.262 160.332 208.176 157.655 209.382 157.235C209.421 157.226 209.437 157.783 209.556 157.798C209.922 157.846 210.178 157.534 210.548 157.6C211.4 157.752 212.097 158.995 212.927 157.845C213.029 157.698 212.29 156.221 213.394 155.924C213.851 155.8 215.756 155.12 216.333 155.037C216.902 154.957 216.704 155.581 216.749 155.589C218.423 155.76 217.972 156.218 219.021 156.955C220.061 157.691 219.094 155.428 219.305 155.069C219.525 154.707 220.751 154.907 221.089 155.007C221.416 155.11 221.191 155.537 221.461 155.568C223.229 155.768 221.749 154.192 222.148 153.653C223.08 152.381 224.567 153.818 225.731 153.644C226.045 153.597 225.678 153.277 225.933 153.158C226.942 152.694 227.751 153.042 228.814 152.195C228.993 152.056 229.673 150.727 230.554 151.326C230.674 151.414 230.535 151.919 231.015 151.899C231.747 151.864 232.997 151.664 233.735 151.364C234.271 151.145 233.472 150.536 234.247 150.628C234.591 150.672 234.072 151.206 234.696 151.259C235.319 151.306 236.826 151.102 237.539 151.23C237.899 151.284 238.011 151.187 238.066 151.045C238.109 150.902 238.052 150.727 238.092 150.719C238.172 150.705 238.324 150.712 238.498 150.75C238.587 150.77 238.684 150.798 238.789 150.84C238.91 150.893 239.04 150.963 239.169 151.057C239.422 151.233 239.7 151.559 239.847 151.919C239.995 152.269 240.035 152.588 240.037 152.862C240.059 153.155 240.038 153.375 240.028 153.424C237.814 159.252 233.807 161.132 230.924 165.043C230.687 165.337 231.297 165.556 231.266 165.605C230.598 166.701 230.104 164.892 229.112 165.182C230.091 165.91 229.566 166.155 229.061 166.89C228.814 167.249 229.317 167.399 229.325 167.46C229.401 168.423 228.429 168.11 228.214 168.063C227.423 167.892 227.699 168.791 227.161 168.685C226.629 168.577 226.586 167.633 226.01 168.251C226.161 168.722 227.417 169.048 227.106 169.642C225.92 171.901 222.079 174.578 220.644 175.914C219.211 177.249 218.814 177.768 217.908 178.47C216.247 179.761 217.394 179.792 216.767 180.983C216.135 182.177 215.096 180.279 214.649 180.099C214.205 179.916 214.395 180.377 214.062 180.366C213.731 180.355 213.855 179.797 213.42 180.109C212.985 180.422 212.531 182.017 212.736 182.473C213.163 183.446 214.361 183.702 213.118 184.452C213.045 184.495 212.84 183.926 212.584 184.109C210.575 185.562 208.768 187.374 206.799 188.868C206.526 189.074 206.303 188.435 206.139 188.551C204.443 189.741 205.683 189.93 205.717 191.525C204.808 190.294 203.713 190.095 202.631 191.203C202.139 191.706 202.349 192.025 202.447 192.475C202.478 192.624 202.496 192.788 202.475 192.975C202.449 193.204 201.67 193.359 201.807 193.664C202.26 194.653 203.515 194.989 202.074 195.827C202.009 195.863 201.77 195.313 201.573 195.467C200.321 196.441 200.952 197.313 199.863 198.615C199.452 199.106 198.761 199.636 198.029 200.176C197.666 200.444 197.301 200.705 196.976 200.956C196.82 201.075 196.669 201.2 196.587 201.261C196.553 201.267 196.523 201.361 196.633 201.05C196.654 200.972 196.71 200.798 196.691 200.513C196.687 200.179 196.44 199.666 196.133 199.444C195.861 199.231 195.677 199.196 195.578 199.169C195.471 199.145 195.434 199.146 195.399 199.145C195.394 199.15 195.403 199.156 195.422 199.16C195.309 200.918 196.832 200.266 196.946 198.963C197.835 198.74 198.776 198.315 199.703 198.122C200.018 198.057 200.006 198.59 200.063 198.625C200.968 199.161 200.915 197.949 201.095 197.827C203.027 196.552 205.064 196.587 206.717 194.919C206.778 194.859 206.405 193.733 207.286 194.28C207.346 194.318 206.911 195.104 207.863 194.718C208.815 194.333 210.848 194.099 211.912 193.009C212.176 192.743 212.564 191.511 213.517 191.896C213.646 191.949 213.693 192.299 213.895 192.413C214.552 192.772 214.257 191.595 215.148 192.3C216.042 193.003 217.322 193.249 218.343 192.012C218.376 191.974 218.289 190.974 218.709 190.798C219.387 190.514 220.389 190.272 221.08 189.949C221.405 189.797 220.953 189.359 221.005 189.323C223.085 188.013 224.876 187.774 227.346 186.914C227.806 186.754 228.722 185.468 229.832 185.667C231.037 185.89 231.252 188.944 233.103 187.376C233.841 186.754 233.479 182.978 235.736 183.961C235.753 183.968 235.77 183.975 235.787 183.983C236.476 183.559 237.215 183.24 237.956 183.046C238.322 182.952 238.694 182.888 239.039 182.885C239.377 182.87 239.697 182.989 239.694 183.064C239.72 183.098 239.729 183.375 239.624 183.684C239.527 183.994 239.377 184.328 239.217 184.665C238.891 185.345 238.531 186.041 238.215 186.808C238.162 186.941 238.733 187.909 238.511 188.193C238.402 188.332 238.263 188.42 238.119 188.485C237.847 188.603 237.547 188.649 237.389 188.827C236.352 189.98 235.805 191.349 234.831 192.48C234.461 192.909 234.198 192.449 233.757 192.957C233.315 193.466 233.539 194.224 232.718 194.736C232.096 195.121 230.635 194.812 229.936 195.413C230.922 196.274 230.502 196.741 230.048 197.819C229.961 198.027 230.458 198.143 230.435 198.257C230.348 198.726 229.812 198.775 229.752 199.241C229.737 199.353 230.075 199.646 230.082 199.754C230.151 200.691 228.671 200.873 228.416 200.9C227.441 201.013 227.659 201.648 227.098 201.893C226.537 202.137 226.834 201.301 226.291 201.681C225.638 202.137 225.001 202.774 224.399 203.419C223.961 203.887 223.542 204.359 223.152 204.771C222.784 205.162 223.471 205.297 223.428 205.363C222.778 206.291 221.543 206.669 221.966 207.941C219.219 206.359 221.714 208.638 220.138 209.346C220.012 209.401 218.879 208.48 219.065 207.993C219.252 207.506 220.085 207.308 220.309 206.599C220.362 206.433 220.001 204.842 220.02 204.701C220.203 203.57 221.878 204.952 222.002 204.995C223.341 205.448 223.013 203.634 223.128 203.355C223.244 203.084 223.37 202.85 223.515 202.625C224.055 201.78 224.749 201.201 225.131 200.364C225.448 199.675 224.42 198.69 224.823 198.289C226.16 196.958 228.108 197.728 227.937 195.254C227.9 194.725 226.464 194.023 228.275 193.754C228.388 193.738 229.899 193.664 229.722 192.761C229.7 192.648 229.347 192.363 229.379 192.264C229.597 191.606 230.151 191.496 230.458 190.838C230.765 190.179 231.089 189.357 231.703 188.822C232.073 188.499 233.12 188.525 233.424 188.469C234.297 188.311 233.942 187.162 234.758 187.275C235.584 187.379 235.983 188.687 237.007 188.093C236.084 187.361 235.166 186.571 234.248 185.82C234.276 185.784 234.304 185.747 234.332 185.711C234.983 184.868 235.661 184.053 236.122 183.383C236.347 183.086 236.508 182.689 236.469 182.951C236.499 183.081 236.235 183.647 236.971 184.884C237.342 185.462 237.962 185.878 238.34 186.025C238.744 186.191 238.969 186.207 239.101 186.224C239.312 186.24 239.104 186.87 239.298 186.892C239.518 186.912 239.06 186.905 238.664 186.969C238.24 187.031 237.741 187.149 237.238 187.43C237.179 187.462 237.121 187.495 237.062 187.53C236.127 188.09 235.317 189.174 234.356 189.782C233.187 188.824 231.846 189.917 230.68 190.303C230.274 190.438 230.154 190.098 229.83 190.114C228.611 190.184 229.584 191.052 229.375 191.351C228.479 192.63 227.265 190.222 225.849 190.935C225.778 190.97 225.426 192.706 225.337 192.845C224.762 193.747 224.994 192.452 224.441 192.587C223.419 192.839 222.642 192.817 221.707 193.707C221.438 193.967 221.049 195.13 220.134 194.788C220.014 194.743 219.862 194.291 219.784 194.296C218.413 194.416 218.985 195.794 218.522 196.563C218.058 197.332 216.564 196.886 216.234 196.711C215.348 196.273 216.525 196.216 216.521 196.135C216.499 195.159 215.81 195.645 215.18 195.851C214.482 194.563 213.703 195.018 214.542 196.065C214.635 196.179 215.033 195.846 215.18 195.851C215.267 197.391 214.429 197.978 212.885 197.211C212.152 196.856 212.28 195.992 210.983 196.88C210.38 197.288 211.049 198.09 210.594 198.598C209.544 199.764 207.456 199.676 206.156 200.411C205.677 200.68 206.386 200.97 206.067 201.171C205.239 201.698 204.254 201.673 203.424 202.251C203.348 202.304 203.777 202.75 203.49 202.878C202.402 203.368 201.319 203.723 200.16 204.052C199.593 204.211 198.969 204.378 198.297 204.537C197.537 204.69 197.02 204.916 195.36 204.963C195.217 204.962 195.061 204.956 194.889 204.942C194.603 204.899 194.274 204.934 193.349 204.534C192.861 204.301 192.157 203.885 191.557 202.984C190.972 202.13 190.816 201.027 190.847 200.485C190.855 200.189 190.891 199.932 190.937 199.71C190.985 199.483 191.018 199.374 191.063 199.231C191.149 198.962 191.24 198.762 191.3 198.635C191.44 198.344 191.534 198.195 191.622 198.053C191.949 197.55 192.096 197.381 192.263 197.159C192.579 196.75 192.839 196.424 193.103 196.095C193.62 195.454 194.124 194.856 194.549 194.463C196.083 193.043 198.45 191.814 199.529 190.401C199.665 190.224 199.755 190.07 199.811 189.934C200.04 189.372 199.664 189.132 199.716 188.622C199.835 187.401 201.997 187.131 202.309 187.113C202.319 187.113 201.719 187.927 202.304 187.749C202.964 187.955 202.303 187.123 202.309 187.113C202.512 187.099 203.991 185.764 204.191 185.401C204.298 185.205 203.822 184.91 203.885 184.815C205.395 182.562 207.155 180.563 209.232 178.808C209.273 178.782 209.66 179.261 209.75 179.195C211.042 178.265 211.195 177.04 211.789 175.8C212.366 174.576 213.196 173.942 214.473 174.138C215.057 173.352 216.356 172.688 217.121 172.306C217.885 171.927 217.107 171.019 217.139 170.953C218.132 168.854 219.495 168.428 221.147 166.864C221.919 166.138 223.286 164.455 223.97 163.535C224.532 162.785 225.093 162.594 225.543 161.845C225.604 161.744 225.136 161.469 225.145 161.43C225.313 160.313 225.96 161.522 226.261 161.538C227.343 161.604 227.986 161.567 228.488 160.417C228.615 160.14 227.73 158.329 227.982 157.875C228.299 157.302 228.64 157.93 228.954 157.318C228.981 157.266 228.663 157.004 228.942 156.706C230.207 155.342 231.708 153.858 232.468 152.562C232.568 152.391 231.886 152.254 232.007 152.022C232.123 151.795 232.225 151.572 232.254 151.49C232.292 151.429 232.207 151.429 232.131 152.19C232.07 152.965 232.15 154.089 232.801 155.289C233.448 156.475 234.369 157.151 234.968 157.474C236.176 158.076 236.496 157.958 236.663 157.981C236.954 157.951 236.648 157.873 236.355 157.832C236.068 157.79 236.18 157.314 236.099 157.187C235.546 156.429 235.021 157.751 234.919 157.797C232.169 158.976 229.354 158.714 226.26 160.223C226.079 160.311 225.12 161.964 224.159 161.122C224.096 161.065 223.147 160.191 222.839 161.103C222.822 161.159 223.381 161.584 222.701 161.746C222.033 161.905 221.083 162.629 219.972 162.332C219.611 162.242 218.586 161.404 218.003 162.547C217.956 162.629 217.303 164.989 216.366 163.835C216.215 163.644 215.808 162.222 215.035 163.288C214.887 163.495 215.351 163.683 214.9 164.056C214.195 164.634 213.037 164.616 212.264 165.581C212.135 165.749 211.745 166.945 210.908 166.431C210.777 166.351 210.79 165.824 210.461 165.88C208.924 166.135 207.499 166.982 205.897 167.181C205.335 167.25 205.34 166.404 204.722 166.394C204.099 166.386 202.93 166.577 202.476 167.122C202.02 167.668 203.071 168.646 202.238 169.045C202.192 169.067 202.147 169.088 202.101 169.11C200.23 169.971 198.358 170.548 195.983 171.018C195.347 171.135 194.752 171.254 193.68 171.341C193.561 171.349 193.372 171.361 193.201 171.366C193.022 171.372 192.853 171.374 192.58 171.367C192.046 171.305 191.576 171.463 189.788 170.744C189.044 170.438 187.294 169.326 186.53 167.379C186.143 166.457 186.029 165.435 186.065 164.732C186.093 164.095 186.207 163.567 186.339 163.133C186.847 161.644 187.239 161.309 187.529 160.895C188.597 159.639 189.043 159.422 189.601 158.967C190.123 158.574 190.587 158.25 191.047 157.925C191.587 157.549 190.881 157.499 191.657 156.931C192.012 156.674 192.374 156.408 192.782 156.112C195.555 154.099 199.295 151.474 201.812 150.887C204.111 150.355 202.053 152.345 203.66 151.706C204.437 151.395 204.404 149.673 204.548 149.529C205.938 148.102 207.426 147.946 208.793 146.859C209.077 146.633 208.461 146.311 208.705 146.126C209.534 145.487 210.606 145.135 211.424 144.568C211.79 144.313 211.479 143.968 211.846 143.781C212.722 143.33 213.56 143.034 214.597 142.892C214.692 142.879 214.494 143.673 215.121 143.307C216.134 142.713 217.596 142.298 218.504 141.213C218.774 140.889 218.233 139.995 219.341 140.15C219.574 140.182 220.051 141.365 220.318 139.915C220.362 139.675 221.001 137.541 222.197 137.897C222.509 137.993 223.535 138.556 223.849 138.164C223.889 138.108 223.37 137.774 223.671 137.516C224.592 136.742 225.64 136.091 226.602 135.345C226.773 135.212 226.94 135.078 227.101 134.941C227.39 134.694 226.603 134.516 227.042 134.164C228.255 133.192 229.948 132.236 231.284 131.537C231.779 131.279 231.737 131.892 231.799 131.913C232.824 132.24 232.478 131.079 232.617 130.901C233.478 129.808 234.612 129.661 235.503 128.828C235.752 128.597 235.234 128.298 235.259 128.219C235.526 127.427 235.702 128.522 236.114 128.351C237.278 127.865 238.318 127.005 239.193 126.196C239.514 125.898 238.734 125.718 239.021 125.459C240.248 124.341 241.453 123.266 242.564 122.296C242.934 121.988 243.27 121.686 243.392 121.67C243.449 121.706 243.865 121.963 243.961 122.021C244.126 122.128 244.18 122.183 244.128 122.323C244.081 122.467 243.904 122.679 243.734 123.277C243.562 123.839 243.5 124.978 243.919 126.027C244.319 127.067 244.913 127.686 245.18 127.935C246.519 129.059 247.035 129.026 247.354 129.149C247.654 129.221 247.759 129.206 247.819 129.188C247.923 129.146 247.831 129.055 247.632 129.127C247.149 129.295 246.311 129.565 245.419 129.873C241.956 131.044 238.142 132.044 235.045 132.893C229.797 134.334 225.643 135.203 220.673 136.899C220.355 137.007 220.873 137.526 220.602 137.627C217.095 138.888 213.542 139.73 209.772 140.903C209.458 140.999 210.069 141.48 209.57 141.652C208.543 142.008 207.185 142.293 205.935 142.325C205.333 142.338 206.037 141.672 205.417 141.698C204.703 141.72 203.985 141.771 203.069 141.822C202.116 141.83 201.323 142.038 199.188 141.562C198.212 141.276 198.296 141.426 198.45 141.663C198.578 141.86 198.785 142.174 197.573 141.657C197.393 141.571 197.19 141.464 196.962 141.323C195.654 140.553 194.393 139.041 193.872 137.581C193.322 136.114 193.32 134.874 193.407 133.96C193.624 132.118 194.139 131.154 194.566 130.321C195.456 128.722 196.306 127.809 197.135 126.961C199.266 124.841 201.543 122.904 204.137 121.303C204.415 121.132 205.474 121.906 205.819 121.278C205.622 120.976 205.345 120.663 205.111 120.362C210.044 115.785 215.522 112.079 220.941 108.236C221.171 108.073 220.378 107.808 220.821 107.49C223.378 105.657 225.783 103.753 228.828 102.522C229.129 102.4 229.662 103.48 230.33 102.818C230.45 102.697 231.546 101.781 231.701 101.37C231.721 101.311 231.201 100.984 231.569 100.723C233.737 99.2035 236.162 97.8174 238.614 96.7256C239.012 96.5499 238.929 97.2955 239.213 97.1758C241.234 96.3205 242.992 94.7628 245.166 94.1968C246.587 93.8487 246.631 94.9915 247.747 95.5559C247.831 95.5935 248.085 95.5129 248.33 95.5035C248.591 95.4857 248.901 95.5143 249.033 95.7782C249.719 97.0919 250.052 98.7184 250.839 100.093C250.924 100.241 251.111 100.15 251.195 100.177C251.23 100.192 251.217 100.242 251.238 100.325C251.254 100.411 251.347 100.518 251.399 100.717C251.414 100.741 251.366 100.847 251.271 101.011C251.16 101.181 251.044 101.391 251.033 101.551C251.016 101.774 251.463 102.221 251.365 102.544C251.236 102.884 250.829 102.527 250.553 103.001C250.331 103.452 250.821 103.958 250.098 104.446ZM220.531 170.607C221.462 170.468 220.035 168.932 219.831 169.862C219.824 169.908 220.485 170.615 220.531 170.607ZM238.026 183.493C238.572 183.373 238.453 183.146 238.143 183.353C237.992 183.436 237.81 183.579 237.594 183.587C237.379 183.599 237.126 183.445 236.954 183.24C236.355 182.464 237.708 183.601 238.026 183.493ZM233.2 191.578C234.472 191.144 232.243 189.175 231.975 190.483C231.958 190.558 233.126 191.604 233.2 191.578ZM244.875 97.4347C244.888 97.4588 245.447 97.175 245.447 97.1443C245.411 96.4015 244.3 96.9644 244.875 97.4347ZM227.427 199.707C227.962 199.701 228.27 198.626 227.606 198.635C227.072 198.643 226.762 199.714 227.427 199.707ZM226.063 154.611C226.043 154.584 225.619 154.687 225.679 154.853C225.878 155.385 226.404 155.054 226.063 154.611ZM215.806 211.947C217.703 210.337 220.511 211.029 218.318 212.732C217.921 213.037 218.562 211.427 217.949 211.701C216.835 212.199 217.318 213.848 215.894 214.041C215.635 214.074 215.695 212.035 215.807 211.942C215.807 211.944 215.807 211.945 215.806 211.947ZM222.637 172.048C222.668 172.056 223.103 171.643 223.093 171.615C222.84 170.92 221.964 171.749 222.637 172.048ZM201.852 161.455C201.804 161.409 200.486 161.812 200.459 161.879C200.139 163.143 202.807 162.331 201.852 161.455ZM195.431 199.206C195.659 198.538 196.244 198.301 196.943 198.963C196.38 199.092 195.737 199.242 195.431 199.206Z" fill="white"/>
<defs>
<linearGradient id="paint0_linear_1506_3741" x1="319.941" y1="438.5" x2="319.941" y2="522" gradientUnits="userSpaceOnUse">
<stop stop-color="#D9D9D9"/>
<stop offset="0.509615" stop-color="#A5A5A5" stop-opacity="0.24"/>
<stop offset="1" stop-color="#737373" stop-opacity="0"/>
</linearGradient>
<linearGradient id="paint1_linear_1506_3741" x1="337.441" y1="39.5" x2="301.941" y2="529" gradientUnits="userSpaceOnUse">
<stop stop-color="#D3D3D3"/>
<stop offset="1" stop-color="#919191"/>
</linearGradient>
<linearGradient id="paint2_linear_1506_3741" x1="296.941" y1="410" x2="342.941" y2="410" gradientUnits="userSpaceOnUse">
<stop stop-opacity="0.94"/>
<stop offset="0.331731" stop-color="white"/>
<stop offset="0.67" stop-color="white"/>
<stop offset="1" stop-opacity="0.78"/>
</linearGradient>
<linearGradient id="paint3_linear_1506_3741" x1="567.441" y1="29" x2="319.94" y2="291.854" gradientUnits="userSpaceOnUse">
<stop stop-color="#FFA046"/>
<stop offset="1" stop-color="#FA7315" stop-opacity="0.81"/>
</linearGradient>
<radialGradient id="paint4_radial_1506_3741" cx="0" cy="0" r="1" gradientUnits="userSpaceOnUse" gradientTransform="translate(319.94 45.1961) rotate(90) scale(5.36213)">
<stop stop-color="#696969"/>
<stop offset="0.961538" stop-color="#B6B6B6"/>
</radialGradient>
<radialGradient id="paint5_radial_1506_3741" cx="0" cy="0" r="1" gradientUnits="userSpaceOnUse" gradientTransform="translate(319.94 257.893) rotate(90) scale(5.36213)">
<stop stop-color="#696969"/>
<stop offset="0.961538" stop-color="#B6B6B6"/>
</radialGradient>
<pattern id="pattern0_1506_3741" patternUnits="userSpaceOnUse" patternTransform="matrix(5.67 0 0 11.34 -0.028125 8.92891)" preserveAspectRatio="none" viewBox="-0.03125 -0.578125 6.3 12.6" width="1" height="1">
<use xlink:href="#pattern0_1506_3741_inner" transform="translate(-9.45 -6.3)"/>
<use xlink:href="#pattern0_1506_3741_inner" transform="translate(-3.15 -6.3)"/>
<use xlink:href="#pattern0_1506_3741_inner" transform="translate(3.15 -6.3)"/>
<use xlink:href="#pattern0_1506_3741_inner" transform="translate(-12.6 0)"/>
<use xlink:href="#pattern0_1506_3741_inner" transform="translate(-6.3 0)"/>
<g id="pattern0_1506_3741_inner">
<path d="M3.5 0L6.53109 1.75V5.25L3.5 7L0.468911 5.25V1.75L3.5 0Z" stroke="#FF8A39"/>
</g>
<use xlink:href="#pattern0_1506_3741_inner" transform="translate(-9.45 6.3)"/>
<use xlink:href="#pattern0_1506_3741_inner" transform="translate(-3.15 6.3)"/>
<use xlink:href="#pattern0_1506_3741_inner" transform="translate(3.15 6.3)"/>
</pattern></defs>
</svg>
