<svg width="4926" height="2790" viewBox="0 0 4926 2790" fill="none" xmlns="http://www.w3.org/2000/svg">
<path fill-rule="evenodd" clip-rule="evenodd" d="M4281.75 0C4371.41 0.000134102 4444.1 73.8765 4444.1 165.007V2535.99C4444.1 2627.12 4371.41 2701 4281.75 2701H786.45C696.785 2701 624.098 2627.12 624.098 2535.99V165.007C624.098 73.8765 696.785 0.000134137 786.45 0H4281.75ZM814.887 73.8115C749.748 73.8116 696.932 127.134 696.932 192.882V2427.72C697.008 2457.47 707.861 2486.02 727.178 2507.28C738.574 2519.9 752.222 2529.91 767.301 2536.7C782.38 2543.5 798.578 2546.93 814.922 2546.81H4244.98C4310.12 2546.81 4362.93 2493.48 4362.93 2427.72V192.882C4362.93 149.12 4339.52 110.839 4304.66 90.1816C4286.66 79.5395 4266.48 73.9147 4245.96 73.8115H814.887Z" fill="#274DBD"/>
<path d="M4925 2605V2612.79C4924.98 2624.08 4922.86 2635.28 4918.77 2645.81C4908.86 2671.83 4887.43 2695.85 4857.16 2716.5C4792.02 2761 4686.1 2790 4566.48 2790H358.533C238.828 2790 132.943 2761.05 67.8444 2716.5C25.1732 2687.36 0 2651.53 0 2612.79V2605H4925Z" fill="#1E3E9D"/>
<path d="M4926 2605.05V2612.77C4925.98 2623.95 4923.86 2635.04 4919.77 2645.47C4854.63 2678.41 4763.22 2699 4662.02 2699H453.571C333.852 2699 227.954 2670.31 162.866 2626.2C153.364 2619.83 144.381 2612.74 136 2605L4926 2605.05Z" fill="#274DBD"/>
<path d="M657 2700.5C657 2710.69 653.979 2720.64 648.319 2729.11C642.66 2737.58 634.616 2744.18 625.204 2748.08C615.793 2751.98 605.437 2753 595.446 2751.01C585.456 2749.02 576.28 2744.11 569.078 2736.91C561.876 2729.71 556.973 2720.53 554.987 2710.54C553.002 2700.55 554.025 2690.19 557.925 2680.78C561.826 2671.37 568.429 2663.33 576.901 2657.67C585.372 2652.01 595.331 2649 605.517 2649C612.28 2649 618.977 2650.33 625.226 2652.92C631.474 2655.5 637.151 2659.3 641.932 2664.08C646.714 2668.86 650.505 2674.54 653.091 2680.79C655.676 2687.04 657.005 2693.74 657 2700.5Z" fill="#88B2FF"/>
<path d="M841 2700.5C841 2710.69 837.921 2720.64 832.152 2729.11C826.383 2737.58 818.184 2744.18 808.591 2748.08C798.998 2751.98 788.442 2753 778.258 2751.01C768.074 2749.02 758.719 2744.12 751.377 2736.92C744.035 2729.71 739.035 2720.54 737.009 2710.55C734.983 2700.56 736.023 2690.2 739.996 2680.79C743.97 2671.38 750.699 2663.34 759.333 2657.68C767.966 2652.02 778.117 2649 788.5 2649C795.395 2649 802.223 2650.33 808.594 2652.92C814.964 2655.5 820.753 2659.3 825.628 2664.08C830.504 2668.86 834.371 2674.54 837.008 2680.79C839.646 2687.04 841.002 2693.74 841 2700.5Z" fill="#88B2FF"/>
<path d="M2171 2604V2607.46C2171 2635.38 2190.01 2658 2213.46 2658H2823.54C2846.99 2658 2866 2635.38 2866 2607.46V2604H2171Z" fill="#88B2FF"/>
<path d="M4363.98 192.203V322H697V192.203C697.042 161.131 709.486 131.345 731.604 109.374C753.721 87.4031 783.707 75.0417 814.986 75H4246.01C4277.3 75.0324 4307.29 87.3909 4329.41 109.364C4351.53 131.336 4363.97 161.128 4364 192.203H4363.98Z" fill="#F46F18"/>
<path d="M4029 204.017C4029 210.148 4027.15 216.14 4023.68 221.235C4020.22 226.331 4015.3 230.302 4009.54 232.645C4003.79 234.989 3997.45 235.6 3991.34 234.402C3985.23 233.204 3979.62 230.25 3975.22 225.914C3970.82 221.578 3967.82 216.054 3966.6 210.041C3965.39 204.028 3966.01 197.796 3968.4 192.133C3970.78 186.469 3974.82 181.629 3980 178.223C3985.18 174.818 3991.27 173 3997.5 173C4001.64 173 4005.74 173.802 4009.56 175.361C4013.38 176.92 4016.85 179.205 4019.78 182.086C4022.71 184.966 4025.03 188.386 4026.61 192.149C4028.19 195.912 4029 199.945 4029 204.017Z" fill="white"/>
<path d="M4129 204.017C4129 210.148 4127.18 216.14 4123.77 221.235C4120.36 226.331 4115.52 230.302 4109.85 232.645C4104.19 234.989 4097.95 235.6 4091.94 234.402C4085.93 233.204 4080.41 230.25 4076.07 225.914C4071.74 221.578 4068.79 216.054 4067.59 210.041C4066.4 204.028 4067.01 197.796 4069.36 192.133C4071.71 186.469 4075.68 181.629 4080.78 178.223C4085.88 174.818 4091.87 173 4098 173C4102.07 173 4106.1 173.802 4109.87 175.361C4113.63 176.92 4117.05 179.205 4119.93 182.086C4122.81 184.966 4125.09 188.386 4126.65 192.149C4128.2 195.912 4129 199.945 4129 204.017Z" fill="white"/>
<path d="M4226 204.017C4226 210.148 4224.15 216.14 4220.68 221.235C4217.22 226.331 4212.3 230.302 4206.54 232.645C4200.79 234.989 4194.45 235.6 4188.34 234.402C4182.23 233.204 4176.62 230.25 4172.22 225.914C4167.82 221.578 4164.82 216.054 4163.6 210.041C4162.39 204.028 4163.01 197.796 4165.4 192.133C4167.78 186.469 4171.82 181.629 4177 178.223C4182.18 174.818 4188.27 173 4194.5 173C4198.64 173 4202.74 173.802 4206.56 175.361C4210.38 176.92 4213.85 179.205 4216.78 182.086C4219.71 184.966 4222.03 188.386 4223.61 192.149C4225.19 195.912 4226 199.945 4226 204.017Z" fill="white"/>
<path fill-rule="evenodd" clip-rule="evenodd" d="M3488.66 899.32H3544.32C3566.19 899.32 3584.09 917.214 3584.09 939.082V1177.65C3584.09 1199.52 3566.19 1217.41 3544.33 1217.41H3501.78L3425.04 2214.64C3423.45 2235.31 3405.96 2251.22 3385.28 2251.22H3298.6H3186.47H3074.34H2105.75C2110.12 2263.55 2112.9 2277.06 2112.9 2290.98C2112.9 2356.59 2059.22 2410.27 1993.62 2410.27C1928.01 2410.27 1874.33 2356.59 1874.33 2290.98C1874.33 2277.06 1877.12 2263.55 1881.49 2251.22H1794.81C1774.13 2251.22 1756.64 2235.31 1755.05 2214.64L1678.31 1217.41H1635.76C1613.89 1217.41 1596 1199.52 1596 1177.65V939.082C1596 917.214 1613.89 899.32 1635.76 899.32H1691.43L1846.5 602.697C1853.65 589.575 1867.17 581.227 1881.89 581.227H3298.2C3312.91 581.227 3326.43 589.575 3333.59 602.697L3488.66 899.32ZM3399.19 899.32L3273.94 660.75H3125.24L3250.09 899.32H3399.19ZM3160.62 899.32L3035.37 660.75H2886.67L3011.52 899.32H3160.62ZM2922.05 899.32L2796.8 660.75H2648.1L2773.34 899.32H2922.05ZM2496.6 899.32H2683.48L2590.04 721.186L2496.6 899.32ZM2406.74 899.32L2531.99 660.75H2383.28L2258.03 899.32H2406.74ZM2168.57 899.32L2293.42 660.75H2144.71L2019.46 899.32H2168.57ZM2054.85 660.75H1906.14L1780.89 899.32H1930L2054.85 660.75ZM1953.86 2290.98C1953.86 2312.85 1971.75 2330.74 1993.62 2330.74C2015.49 2330.74 2033.38 2312.85 2033.38 2290.98C2033.38 2269.11 2015.49 2251.22 1993.62 2251.22C1971.75 2251.22 1953.86 2269.11 1953.86 2290.98ZM1831.79 2171.7H3348.3L3409.53 1376.46H1770.55L1831.79 2171.7ZM2550.28 1137.89H3504.56V978.844H1675.52V1137.89H2232.19C2254.06 1137.89 2271.95 1155.78 2271.95 1177.65C2271.95 1199.52 2254.06 1217.41 2232.19 1217.41H1758.23L1764.19 1296.94H3415.89L3421.86 1217.41H2550.28C2528.41 1217.41 2510.52 1199.52 2510.52 1177.65C2510.52 1155.78 2528.41 1137.89 2550.28 1137.89Z" fill="#4E8CFF"/>
<path d="M1906.14 660.75H2054.85L1930 899.32H1780.89L1906.14 660.75Z" fill="#1E3FA7"/>
<path d="M2293.42 660.75L2168.57 899.32H2019.46L2144.71 660.75H2293.42Z" fill="#1E3FA7"/>
<path d="M2531.99 660.75L2406.74 899.32H2258.03L2383.28 660.75H2531.99Z" fill="#1E3FA7"/>
<path d="M2683.48 899.32H2496.6L2590.04 721.186L2683.48 899.32Z" fill="#1E3FA7"/>
<path d="M2796.8 660.75L2922.05 899.32H2773.34L2648.1 660.75H2796.8Z" fill="#1E3FA7"/>
<path d="M3035.37 660.75L3160.62 899.32H3011.52L2886.67 660.75H3035.37Z" fill="#1E3FA7"/>
<path d="M3273.94 660.75L3399.19 899.32H3250.09L3125.24 660.75H3273.94Z" fill="#1E3FA7"/>
<path fill-rule="evenodd" clip-rule="evenodd" d="M3348.3 2171.7H1831.79L1770.55 1376.46H3409.53L3348.3 2171.7Z" fill="#1E3FA7"/>
<path fill-rule="evenodd" clip-rule="evenodd" d="M3504.56 1137.89H2550.28C2528.41 1137.89 2510.52 1155.78 2510.52 1177.65C2510.52 1199.52 2528.41 1217.41 2550.28 1217.41H3421.86L3415.89 1296.94H1764.19L1758.23 1217.41H2232.19C2254.06 1217.41 2271.95 1199.52 2271.95 1177.65C2271.95 1155.78 2254.06 1137.89 2232.19 1137.89H1675.52V978.844H3504.56V1137.89Z" fill="#1E3FA7"/>
<path d="M2391.21 1217.41C2413.17 1217.41 2430.98 1199.61 2430.98 1177.65C2430.98 1155.69 2413.17 1137.89 2391.21 1137.89C2369.26 1137.89 2351.45 1155.69 2351.45 1177.65C2351.45 1199.61 2369.26 1217.41 2391.21 1217.41Z" fill="#F46F18"/>
<path fill-rule="evenodd" clip-rule="evenodd" d="M3186.5 2171.73C3251.95 2171.73 3305 2224.78 3305 2290.23C3305 2355.67 3251.95 2408.73 3186.5 2408.73C3121.05 2408.73 3068 2355.67 3068 2290.23C3068 2224.78 3121.05 2171.73 3186.5 2171.73ZM3186.47 2251.22C3164.6 2251.22 3146.71 2269.11 3146.71 2290.98C3146.71 2312.85 3164.6 2330.74 3186.47 2330.74C3208.34 2330.74 3226.23 2312.85 3226.23 2290.98C3226.23 2269.11 3208.34 2251.22 3186.47 2251.22Z" fill="#F46F18"/>
<path d="M3753.4 2132C3780.04 2183.44 3795.32 2239.97 3795.32 2287.07C3795.32 2294.34 3789.44 2300.23 3782.17 2300.23C3774.9 2300.23 3769.02 2294.34 3769.02 2287.07C3769.02 2244.04 3754.81 2191.93 3730.05 2144.1C3726.71 2137.65 3729.23 2129.71 3735.67 2126.37C3742.17 2123.01 3750.06 2125.56 3753.4 2132Z" fill="#274DBD"/>
<path d="M3282.62 2296.04C3289.86 2294.86 3296.56 2299.72 3297.75 2306.96C3307.75 2368.38 3347.73 2404.03 3426.25 2419.15C3412.44 2382.33 3412.57 2341.95 3427.44 2304.72L3427.57 2304.2C3430.33 2297.49 3437.96 2294.6 3444.67 2297.23C3451.38 2299.99 3454.53 2307.88 3451.77 2314.59C3437.57 2350.36 3439.54 2389.69 3456.9 2423.76C3479.26 2426.39 3504.25 2427.57 3531.87 2427.57C3539.24 2427.57 3546.21 2427.31 3553.18 2427.18L3575.15 2405.08C3613.42 2366.81 3631.7 2311.96 3624.08 2258.42C3623.02 2251.19 3628.02 2244.61 3635.26 2243.56C3642.36 2242.51 3649.07 2247.51 3650.12 2254.74C3658.93 2316.43 3637.89 2379.56 3593.82 2423.76L3592.38 2425.07C3715.09 2414.42 3768.63 2367.46 3768.63 2274.08C3768.63 2190.69 3727.06 2089.8 3666.56 2023.91C3658.14 2029.69 3648.01 2032.98 3637.1 2032.98L3426.65 2032.98C3415.86 2032.98 3405.73 2029.69 3397.32 2024.04C3353.25 2072.05 3318.27 2139.52 3303.01 2207.52C3301.56 2213.57 3296.17 2217.78 3290.12 2217.78C3289.2 2217.78 3288.15 2217.65 3287.23 2217.52C3280.12 2215.81 3275.65 2208.84 3277.23 2201.73C3293.8 2128.47 3331.95 2055.47 3379.96 2004.18C3376.27 1996.94 3374.04 1988.92 3374.04 1980.37C3374.04 1964.32 3381.4 1950.12 3392.84 1940.38L3335.76 1814.77C3333.92 1810.69 3334.31 1805.96 3336.68 1802.28C3339.05 1798.46 3343.26 1796.23 3347.73 1796.23C3392.98 1796.23 3437.7 1808.06 3477.16 1830.56L3505.57 1846.87C3534.64 1830.95 3565.54 1818.59 3597.77 1809.91C3631.97 1800.83 3667.22 1796.23 3702.86 1796.23C3707.2 1796.23 3711.15 1798.33 3713.65 1801.88C3716.15 1805.3 3716.67 1809.91 3715.23 1813.85L3669.58 1939.33C3681.69 1948.93 3689.71 1963.66 3689.71 1980.37C3689.71 1988.92 3687.47 1996.81 3683.79 2004.04C3749.56 2074.41 3794.93 2183.71 3794.93 2274.08C3794.93 2421.13 3675.24 2449.93 3560.41 2453.48C3559.63 2453.62 3558.97 2453.88 3558.18 2453.88L3558.18 2453.48C3549.37 2453.75 3540.55 2453.88 3531.87 2453.88C3421.65 2453.88 3292.49 2437.7 3271.71 2311.17C3271.66 2310.9 3271.62 2310.63 3271.6 2310.36C3270.9 2303.55 3275.66 2297.18 3282.62 2296.04ZM3426.65 2006.67L3637.1 2006.67C3651.57 2006.67 3663.4 1994.84 3663.4 1980.37C3663.4 1965.9 3651.57 1954.06 3637.1 1954.06L3426.65 1954.06C3412.18 1954.06 3400.34 1965.9 3400.34 1980.37C3400.34 1994.84 3412.18 2006.67 3426.65 2006.67ZM3683.92 1823.06C3657.09 1824.37 3630.39 1828.45 3604.61 1835.42C3572.38 1843.97 3541.47 1856.6 3512.27 1873.3C3508.2 1875.67 3503.2 1875.8 3498.99 1873.43L3464 1853.44C3434.67 1836.74 3402.05 1826.48 3368.51 1823.45L3416.39 1928.81C3419.68 1928.15 3423.1 1927.76 3426.65 1927.76L3565.02 1927.76L3613.68 1866.99C3618.29 1861.2 3626.44 1860.28 3632.1 1864.88C3637.89 1869.36 3638.81 1877.64 3634.2 1883.3L3598.69 1927.76L3637.1 1927.76C3639.99 1927.76 3642.75 1928.15 3645.51 1928.55L3683.92 1823.06Z" fill="#88B2FF"/>
<path fill-rule="evenodd" clip-rule="evenodd" d="M3303.01 2207.52C3318.27 2139.52 3353.25 2072.05 3397.32 2024.04C3405.73 2029.69 3415.86 2032.98 3426.65 2032.98L3637.1 2032.98C3648.01 2032.98 3658.14 2029.69 3666.56 2023.91C3727.06 2089.8 3768.63 2190.69 3768.63 2274.08C3768.63 2367.46 3715.09 2414.42 3592.38 2425.07L3593.82 2423.76C3637.89 2379.56 3658.93 2316.43 3650.12 2254.74C3649.07 2247.51 3642.36 2242.51 3635.26 2243.56C3628.02 2244.61 3623.02 2251.19 3624.08 2258.42C3631.7 2311.96 3613.42 2366.81 3575.15 2405.08L3553.18 2427.18C3550.91 2427.22 3548.65 2427.28 3546.37 2427.33C3541.63 2427.45 3536.84 2427.57 3531.87 2427.57C3504.25 2427.57 3479.26 2426.39 3456.9 2423.76C3439.54 2389.69 3437.57 2350.36 3451.77 2314.59C3454.53 2307.88 3451.38 2299.99 3444.67 2297.23C3437.96 2294.6 3430.33 2297.49 3427.57 2304.2L3427.44 2304.72C3412.57 2341.95 3412.44 2382.33 3426.25 2419.15C3347.73 2404.03 3307.75 2368.38 3297.75 2306.96C3297.75 2306.96 3293.63 2277.4 3294.5 2258.42C3295.43 2238.29 3303.01 2207.52 3303.01 2207.52Z" fill="#1E3FA7"/>
<path fill-rule="evenodd" clip-rule="evenodd" d="M3637.1 2006.67L3426.65 2006.67C3412.18 2006.67 3400.34 1994.84 3400.34 1980.37C3400.34 1965.9 3412.18 1954.06 3426.65 1954.06L3637.1 1954.06C3651.57 1954.06 3663.4 1965.9 3663.4 1980.37C3663.4 1994.84 3651.57 2006.67 3637.1 2006.67Z" fill="#1E3FA7"/>
<path fill-rule="evenodd" clip-rule="evenodd" d="M3604.61 1835.42C3630.39 1828.45 3657.09 1824.37 3683.92 1823.06L3645.51 1928.55C3642.75 1928.15 3639.99 1927.76 3637.1 1927.76L3598.69 1927.76L3634.2 1883.3C3638.81 1877.64 3637.89 1869.36 3632.1 1864.88C3626.44 1860.28 3618.29 1861.2 3613.68 1866.99L3565.02 1927.76L3426.65 1927.76C3423.1 1927.76 3419.68 1928.15 3416.39 1928.81L3368.51 1823.45C3402.05 1826.48 3434.67 1836.74 3464 1853.44L3498.99 1873.43C3503.2 1875.8 3508.2 1875.67 3512.27 1873.3C3541.47 1856.6 3572.38 1843.97 3604.61 1835.42Z" fill="#1E3FA7"/>
<path fill-rule="evenodd" clip-rule="evenodd" d="M3282.62 2296.04C3289.86 2294.86 3296.56 2299.72 3297.75 2306.96C3297.75 2306.96 3293.63 2277.4 3294.5 2258.42C3295.43 2238.29 3303.01 2207.52 3303.01 2207.52C3301.56 2213.57 3296.17 2217.78 3290.12 2217.78C3289.2 2217.78 3288.15 2217.65 3287.23 2217.52C3280.12 2215.81 3275.65 2208.84 3277.23 2201.73C3277.23 2201.73 3269.02 2236.02 3268.11 2258.42C3267.34 2277.12 3270.92 2305.25 3271.6 2310.36C3270.9 2303.55 3275.66 2297.18 3282.62 2296.04Z" fill="#88B2FF"/>
<path d="M1486.27 1959.82C1445.61 2038.32 1422.29 2124.59 1422.29 2196.48C1422.29 2207.56 1431.26 2216.55 1442.36 2216.55C1453.45 2216.55 1462.43 2207.56 1462.43 2196.48C1462.43 2130.8 1484.11 2051.27 1521.91 1978.28C1527 1968.43 1523.16 1956.33 1513.32 1951.22C1503.4 1946.09 1491.36 1950 1486.27 1959.82Z" fill="#274DBD"/>
<path d="M2123.85 2230C2112.81 2228.19 2102.57 2235.62 2100.76 2246.66C2085.51 2340.4 2024.48 2394.8 1904.65 2417.89C1925.72 2361.68 1925.52 2300.06 1902.84 2243.25L1902.64 2242.45C1898.42 2232.21 1886.78 2227.79 1876.55 2231.81C1866.31 2236.02 1861.49 2248.07 1865.71 2258.3C1887.38 2312.9 1884.37 2372.92 1857.88 2424.91C1823.75 2428.92 1785.61 2430.73 1743.46 2430.73C1732.22 2430.73 1721.58 2430.33 1710.94 2430.13L1677.42 2396.41C1619.01 2337.99 1591.11 2254.29 1602.75 2172.59C1604.36 2161.55 1596.73 2151.52 1585.69 2149.91C1574.85 2148.3 1564.61 2155.93 1563 2166.97C1549.56 2261.11 1581.67 2357.47 1648.92 2424.91L1651.13 2426.92C1463.84 2410.66 1382.15 2339 1382.15 2196.48C1382.15 2069.22 1445.58 1915.26 1537.91 1814.69C1550.76 1823.52 1566.22 1828.54 1582.88 1828.54H1904.05C1920.51 1828.54 1935.96 1823.52 1948.81 1814.89C2016.05 1888.16 2069.45 1991.13 2092.73 2094.91C2094.94 2104.14 2103.17 2110.57 2112.4 2110.57C2113.81 2110.57 2115.42 2110.37 2116.82 2110.17C2127.66 2107.56 2134.48 2096.92 2132.08 2086.08C2106.78 1974.27 2048.57 1862.87 1975.3 1784.58C1980.93 1773.54 1984.34 1761.3 1984.34 1748.25C1984.34 1723.76 1973.1 1702.08 1955.63 1687.23L2042.75 1495.53C2045.56 1489.31 2044.96 1482.08 2041.35 1476.46C2037.73 1470.64 2031.31 1467.23 2024.48 1467.23C1955.43 1467.23 1887.18 1485.29 1826.96 1519.62L1783.61 1544.51C1739.25 1520.22 1692.07 1501.35 1642.89 1488.1C1590.71 1474.25 1536.91 1467.23 1482.51 1467.23C1475.89 1467.23 1469.87 1470.44 1466.05 1475.86C1462.24 1481.08 1461.43 1488.1 1463.64 1494.12L1533.3 1685.62C1514.83 1700.27 1502.58 1722.76 1502.58 1748.25C1502.58 1761.3 1506 1773.34 1511.62 1784.38C1411.25 1891.77 1342 2058.58 1342 2196.48C1342 2420.9 1524.66 2464.86 1699.9 2470.28C1701.11 2470.48 1702.11 2470.88 1703.31 2470.88V2470.28C1716.76 2470.68 1730.21 2470.88 1743.46 2470.88C1911.67 2470.88 2108.79 2446.19 2140.51 2253.09C2140.57 2252.67 2140.63 2252.26 2140.67 2251.85C2141.74 2241.46 2134.47 2231.74 2123.85 2230ZM1904.05 1788.39H1582.88C1560.8 1788.39 1542.73 1770.33 1542.73 1748.25C1542.73 1726.17 1560.8 1708.1 1582.88 1708.1H1904.05C1926.13 1708.1 1944.19 1726.17 1944.19 1748.25C1944.19 1770.33 1926.13 1788.39 1904.05 1788.39ZM1511.42 1508.17C1552.37 1510.18 1593.11 1516.41 1632.46 1527.04C1681.64 1540.09 1728.81 1559.36 1773.37 1584.85C1779.59 1588.47 1787.22 1588.67 1793.64 1585.05L1847.04 1554.54C1891.8 1529.05 1941.58 1513.39 1992.77 1508.78L1919.7 1669.56C1914.68 1668.56 1909.47 1667.96 1904.05 1667.96H1692.88L1618.61 1575.22C1611.58 1566.39 1599.14 1564.98 1590.5 1572.01C1581.67 1578.83 1580.27 1591.48 1587.29 1600.11L1641.49 1667.96H1582.88C1578.46 1667.96 1574.25 1668.56 1570.03 1669.16L1511.42 1508.17Z" fill="#88B2FF"/>
<path fill-rule="evenodd" clip-rule="evenodd" d="M2123.85 2230C2112.81 2228.19 2102.57 2235.62 2100.76 2246.66C2085.51 2340.4 2024.48 2394.8 1904.65 2417.89C1925.72 2361.68 1925.52 2300.06 1902.84 2243.25L1902.64 2242.45C1898.42 2232.21 1886.78 2227.79 1876.55 2231.81C1866.31 2236.02 1861.49 2248.07 1865.71 2258.3C1887.38 2312.9 1884.37 2372.92 1857.88 2424.91C1823.75 2428.92 1785.61 2430.73 1743.46 2430.73C1735.88 2430.73 1728.56 2430.55 1721.34 2430.37C1717.86 2430.28 1714.4 2430.19 1710.94 2430.13L1677.42 2396.41C1619.01 2337.99 1591.11 2254.29 1602.75 2172.59C1604.36 2161.55 1596.73 2151.52 1585.69 2149.91C1574.85 2148.3 1564.61 2155.93 1563 2166.97C1549.56 2261.11 1581.67 2357.47 1648.92 2424.91L1651.13 2426.92C1463.84 2410.66 1382.15 2339 1382.15 2196.48C1382.15 2069.22 1445.58 1915.26 1537.91 1814.69C1550.76 1823.52 1566.22 1828.54 1582.88 1828.54H1904.05C1920.51 1828.54 1935.96 1823.52 1948.81 1814.89C2016.05 1888.16 2069.45 1991.13 2092.73 2094.91C2094.94 2104.14 2103.17 2110.57 2112.4 2110.57C2113.81 2110.57 2115.42 2110.37 2116.82 2110.17C2127.66 2107.56 2134.48 2096.92 2132.08 2086.08C2132.08 2086.08 2144.6 2138.4 2146 2172.59C2147.17 2201.12 2141.71 2244.06 2140.67 2251.85C2141.74 2241.46 2134.47 2231.74 2123.85 2230Z" fill="#1E3FA7"/>
<path fill-rule="evenodd" clip-rule="evenodd" d="M1582.88 1788.39H1904.05C1926.13 1788.39 1944.19 1770.33 1944.19 1748.25C1944.19 1726.17 1926.13 1708.1 1904.05 1708.1H1582.88C1560.8 1708.1 1542.73 1726.17 1542.73 1748.25C1542.73 1770.33 1560.8 1788.39 1582.88 1788.39Z" fill="#1E3FA7"/>
<path fill-rule="evenodd" clip-rule="evenodd" d="M1632.46 1527.04C1593.11 1516.41 1552.37 1510.18 1511.42 1508.17L1570.03 1669.16C1574.25 1668.56 1578.46 1667.96 1582.88 1667.96H1641.49L1587.29 1600.11C1580.27 1591.48 1581.67 1578.83 1590.5 1572.01C1599.14 1564.98 1611.58 1566.39 1618.61 1575.22L1692.88 1667.96H1904.05C1909.47 1667.96 1914.68 1668.56 1919.7 1669.56L1992.77 1508.78C1941.58 1513.39 1891.8 1529.05 1847.04 1554.54L1793.64 1585.05C1787.22 1588.67 1779.59 1588.47 1773.37 1584.85C1728.81 1559.36 1681.64 1540.09 1632.46 1527.04Z" fill="#1E3FA7"/>
<path d="M2124.84 2189.86C2135.93 2189.86 2144.92 2180.87 2144.92 2169.78C2144.92 2158.7 2135.93 2149.71 2124.84 2149.71C2113.76 2149.71 2104.77 2158.7 2104.77 2169.78C2104.77 2180.87 2113.76 2189.86 2124.84 2189.86Z" fill="#274DBD"/>
</svg>
