<svg width="637" height="589" viewBox="0 0 637 589" fill="none" xmlns="http://www.w3.org/2000/svg">
<path d="M623.712 263.467C624.197 263.467 624.681 263.467 625.166 263.356C630.644 262.573 634.445 257.468 633.662 251.99C612.942 108.368 487.656 0 342.171 0C303.676 0 266.41 7.26678 231.381 21.6513H152.899C147.347 21.6513 142.875 26.1231 142.875 31.6757C142.875 37.2283 147.347 41.7001 152.899 41.7001H233.393C234.735 41.7001 236.039 41.4393 237.269 40.9176C270.36 27.0548 305.651 20.0489 342.171 20.0489C477.743 20.0489 594.496 121.001 613.8 254.896C614.508 259.89 618.793 263.505 623.712 263.505V263.467Z" fill="#2660FF"/>
<path d="M626.656 284.371C621.104 284.371 616.632 288.843 616.632 294.396C616.632 445.731 493.506 568.856 342.171 568.856C305.651 568.856 270.36 561.813 237.269 547.988C236.039 547.466 234.735 547.205 233.393 547.205H152.899C147.347 547.205 142.875 551.677 142.875 557.229C142.875 562.782 147.347 567.254 152.899 567.254H231.381C266.41 581.638 303.639 588.905 342.171 588.905C504.574 588.905 636.681 456.799 636.681 294.396C636.681 288.843 632.209 284.371 626.656 284.371Z" fill="#2660FF"/>
<path d="M260.116 497.941C258.252 503.158 261.01 508.897 266.227 510.723C290.487 519.294 315.939 523.617 341.914 523.654C342.025 523.654 342.1 523.729 342.212 523.729C342.323 523.729 342.398 523.691 342.51 523.654C405.228 523.58 462.132 498.127 503.534 457.098C503.795 456.874 504.13 456.8 504.354 456.539C504.578 456.278 504.689 455.98 504.913 455.719C545.98 414.317 571.395 357.412 571.469 294.695C571.469 294.62 571.507 294.545 571.507 294.434C571.507 294.359 571.469 294.285 571.469 294.21C571.432 231.306 545.905 174.252 504.689 132.813C504.578 132.664 504.503 132.478 504.391 132.329C504.28 132.18 504.093 132.142 503.944 132.03C462.468 90.703 405.265 65.1016 342.212 65.1016C303.12 65.1016 264.625 75.126 230.788 94.1314H88.7315C83.1789 94.1314 78.707 98.6033 78.707 104.156C78.707 109.708 83.1789 114.18 88.7315 114.18H233.396C235.148 114.18 236.899 113.733 238.427 112.839C266.935 96.3674 299.17 87.051 332.224 85.4486V100.019C332.224 105.572 336.696 110.044 342.249 110.044C347.801 110.044 352.273 105.572 352.273 100.019V85.6349C402.395 88.0571 447.859 108.069 482.703 139.782L472.604 149.881C468.691 153.794 468.691 160.129 472.604 164.042C474.579 166.017 477.113 166.986 479.684 166.986C482.256 166.986 484.827 166.017 486.765 164.042L496.864 153.943C528.539 188.786 548.514 234.25 550.899 284.372H536.626C531.073 284.372 526.602 288.844 526.602 294.396C526.602 299.949 531.073 304.421 536.626 304.421H550.899C548.476 354.506 528.465 399.97 496.789 434.813L486.765 424.789C482.852 420.876 476.517 420.876 472.604 424.789C468.691 428.701 468.691 435.037 472.604 438.949L482.628 448.974C447.785 480.65 402.358 500.661 352.273 503.046V488.773C352.273 483.221 347.801 478.749 342.249 478.749C336.696 478.749 332.224 483.221 332.224 488.773V503.158C311.915 502.189 292.015 498.5 272.935 491.792C267.681 489.929 261.979 492.686 260.153 497.904L260.116 497.941Z" fill="#1E3FA7"/>
<path d="M243.421 484.601C243.421 479.048 238.949 474.576 233.396 474.576H88.7315C83.1789 474.576 78.707 479.048 78.707 484.601C78.707 490.153 83.1789 494.625 88.7315 494.625H233.396C238.949 494.625 243.421 490.153 243.421 484.601Z" fill="#1E3FA7"/>
<path d="M304.679 284.411H282.134C276.581 284.411 272.109 288.882 272.109 294.435C272.109 299.988 276.581 304.459 282.134 304.459H304.679C308.257 317.875 318.803 328.384 332.219 331.999V354.544C332.219 360.097 336.691 364.569 342.243 364.569C347.796 364.569 352.268 360.097 352.268 354.544V331.999C365.683 328.421 376.192 317.875 379.807 304.459H488.473C494.026 304.459 498.498 299.988 498.498 294.435C498.498 288.882 494.026 284.411 488.473 284.411H379.807C375.335 267.753 360.28 255.418 342.243 255.418C324.207 255.418 309.151 267.79 304.679 284.411ZM342.243 275.467C352.715 275.467 361.211 283.963 361.211 294.435C361.211 304.907 352.715 313.403 342.243 313.403C331.771 313.403 323.275 304.907 323.275 294.435C323.275 283.963 331.771 275.467 342.243 275.467Z" fill="#F46F18"/>
<path d="M352.264 227.358V199.446C352.264 193.894 347.792 189.422 342.239 189.422C336.687 189.422 332.215 193.894 332.215 199.446V227.358C332.215 232.911 336.687 237.383 342.239 237.383C347.792 237.383 352.264 232.911 352.264 227.358Z" fill="#F46F18"/>
<path d="M136.392 294.437C136.392 288.884 131.92 284.412 126.367 284.412H10.0244C4.47186 284.412 0 288.884 0 294.437C0 299.989 4.47186 304.461 10.0244 304.461H126.367C131.92 304.461 136.392 299.989 136.392 294.437Z" fill="#1E3FA7"/>
<path d="M36.4463 207.904H152.789C158.342 207.904 162.814 203.432 162.814 197.88C162.814 192.327 158.342 187.855 152.789 187.855H36.4463C30.8937 187.855 26.4219 192.327 26.4219 197.88C26.4219 203.432 30.8937 207.904 36.4463 207.904Z" fill="#1E3FA7"/>
<path d="M166.497 390.991C166.497 385.439 162.025 380.967 156.473 380.967H40.1299C34.5773 380.967 30.1055 385.439 30.1055 390.991C30.1055 396.544 34.5773 401.016 40.1299 401.016H156.473C162.025 401.016 166.497 396.544 166.497 390.991Z" fill="#1E3FA7"/>
</svg>
