<svg width="2058" height="2554" viewBox="0 0 2058 2554" fill="none" xmlns="http://www.w3.org/2000/svg">
<path d="M554.337 330.904C554.337 330.904 559.85 331.025 562.509 331.149C568.779 331.443 572.289 348.112 575.368 353.732C581.631 365.163 589.26 379.744 596.232 390.749C600.813 397.979 615.336 399.35 622.663 399.297C593.227 405.454 588.17 383.452 576.655 362.192C570.49 350.811 566.466 337.09 554.337 330.904Z" fill="#1A9CEB"/>
<path d="M599.512 303.894C609.552 296.44 666.605 259.275 673.932 272.629C681.259 285.984 685.717 317.199 682.598 329.625C675.403 358.279 651.036 366.749 629.132 378.899C603.335 393.208 597.238 383.042 589.203 363.263C581.169 343.485 578.638 335.095 578.682 328.789C578.722 322.998 587.292 312.968 599.512 303.894Z" fill="#7CCDFF"/>
<path d="M700.928 265.301C709.982 258.997 724.518 294.911 735.029 301.961C738.519 304.303 742.365 305.355 746.464 305.414C739.568 306.992 733.161 306.513 727.641 302.81C723.42 299.979 718.55 292.493 713.646 284.955C708.776 277.469 703.872 269.932 699.539 266.855C699.911 266.212 700.37 265.69 700.928 265.301Z" fill="#1A9CEB"/>
<path d="M758.741 195.635C766.428 189.648 774.257 182.772 778.104 191.85C784.679 207.365 792.001 231.671 791.63 248.586C791.439 257.281 786.487 264.055 779.054 272.817C766.205 287.965 748.468 300.115 736.322 291.397C724.176 282.679 714.583 265.886 711.291 248.332C709.113 236.719 719.838 230.148 727.903 222.154C737.466 212.675 748.11 203.915 758.741 195.635Z" fill="#7CCDFF"/>
<path d="M739.33 193.423C738.535 194.308 737.878 195.062 737.303 195.724C736.263 196.922 735.487 197.815 734.63 198.622C721.986 210.531 709.986 223.028 701.471 238.315C698.01 244.528 693.33 248.244 686.453 249.626C662.211 254.498 639.409 263.575 618.114 275.773C604.906 283.338 592.131 291.656 579.354 299.976C572.582 304.386 565.809 308.797 558.971 313.095C556.751 314.49 553.837 315.763 551.347 315.594C550.477 315.535 549.616 315.481 548.761 315.429C549.762 315.003 550.725 314.483 551.583 313.944C558.421 309.645 565.193 305.235 571.965 300.825C584.742 292.505 597.518 284.186 610.726 276.621C632.021 264.423 654.823 255.345 679.065 250.474C685.942 249.092 690.621 245.377 694.082 239.164C702.598 223.877 714.598 211.379 727.242 199.47C728.963 197.849 730.879 196.187 732.925 194.515C734.95 194.171 737.072 193.811 739.33 193.423Z" fill="#1A9CEB"/>
<path d="M515.323 325.712C505.736 325.239 495.959 324.757 485.366 324.275C469.7 323.561 438.373 321.074 438.373 321.074C438.373 321.074 407.045 316.613 392.937 327.596C387.499 331.829 380.404 358.708 378.459 365.053C376.572 371.21 374.963 376.461 370.977 377.122C362.885 378.463 366.626 361.343 367.982 351.218C374.589 301.9 420.745 305.847 442.239 306.746C460.535 307.512 469.245 307.82 487.513 309.063C500.427 309.942 511.65 309.921 522.924 309.9C533.55 309.88 545.536 309.71 557.714 310.443L562.652 327.88C545.631 327.206 530.721 326.471 515.323 325.712Z" fill="#1A9CEB"/>
<path fill-rule="evenodd" clip-rule="evenodd" d="M656.036 383.978C679.449 369.487 694.938 357.8 703.14 331.515C708.893 313.077 691.871 271.605 700.925 265.301C709.979 258.997 724.515 294.912 735.026 301.962C745.537 309.011 759.262 304.383 773.451 296.093C793.94 284.123 805.221 264.455 807.447 248.242C809.673 232.028 794.49 182.758 791.359 176.254C788.228 169.749 786.676 163.252 781.638 163.568C776.599 163.884 770.112 164.483 764.347 164.924C751.568 165.903 738.788 166.881 726.044 168.208C714.676 169.391 703.346 170.948 692.016 172.504C686.69 173.236 681.364 173.968 676.034 174.661C659.241 176.844 642.973 181.148 627.86 188.719C621.138 192.087 614.64 196.757 609.494 202.208C602.248 209.882 596.032 218.608 589.978 227.305C584.955 234.522 580.643 242.257 576.378 249.964C575.325 251.867 574.71 255.019 575.566 256.789C578.586 263.039 588.971 265.215 593.64 260.062C597.996 255.255 601.458 249.322 604.098 243.348C605.707 239.709 606.907 235.858 608.105 232.016C609.792 226.607 611.473 221.218 614.276 216.466C624.508 199.12 631.619 197.895 646.728 200.025C649.96 200.48 653.179 201.049 656.38 201.691C667.516 203.924 678.652 204.657 689.902 202.392C698.279 200.706 706.688 199.178 715.096 197.65C716.645 197.368 718.193 197.087 719.742 196.804C723.799 196.064 727.864 195.374 732.401 194.604C734.583 194.234 736.875 193.845 739.327 193.423C738.531 194.308 737.875 195.063 737.3 195.725C736.26 196.922 735.484 197.815 734.627 198.622C721.983 210.531 709.983 223.029 701.468 238.316C698.007 244.529 693.327 248.244 686.45 249.626C662.208 254.498 639.406 263.575 618.11 275.773C604.903 283.338 591.619 291.437 578.843 299.757C572.07 304.167 565.806 308.797 558.968 313.096C556.749 314.491 553.835 315.763 551.345 315.594L557.573 332.888C563.844 333.181 572.286 348.113 575.365 353.733C581.628 365.164 589.257 379.744 596.229 390.749C609.76 412.106 641.024 393.27 656.036 383.978ZM639.32 380.543C613.523 394.852 604.059 379.777 596.025 359.999C587.99 340.22 585.46 331.831 585.504 325.524C585.544 319.733 594.113 309.703 606.334 300.63C616.373 293.176 673.427 256.01 680.754 269.364C688.081 282.718 693.401 316.281 690.281 328.706C683.087 357.361 661.224 368.393 639.32 380.543ZM797.272 246.553C797.081 255.248 793.619 263.08 786.186 271.843C773.337 286.991 756.711 299.272 744.564 290.554C732.418 281.837 720.225 263.853 716.933 246.299C714.755 234.686 725.48 228.115 733.545 220.121C743.108 210.642 753.752 201.882 764.383 193.602C772.07 187.615 779.899 180.739 783.746 189.817C790.321 205.332 797.644 229.638 797.272 246.553Z" fill="#1A9CEB"/>
<path d="M511.225 330.425C501.837 329.893 492.263 329.35 481.889 328.802C466.548 327.991 435.863 325.312 435.863 325.312C435.863 325.312 405.166 320.662 391.423 331.536C386.126 335.727 379.349 362.51 377.486 368.831C375.677 374.964 374.135 380.195 370.237 380.829C362.323 382.118 365.878 365.053 367.142 354.956C373.299 305.772 418.51 310.002 439.558 311.035C457.474 311.914 466.003 312.277 483.895 313.633C496.543 314.591 507.53 314.641 518.567 314.691C528.97 314.738 539.418 314.785 551.345 315.594L557.573 332.888C540.906 332.108 526.305 331.28 511.225 330.425Z" fill="#1A9CEB"/>
<path d="M634.44 356.742C634.44 356.742 633.705 338.46 632.723 326.78C631.74 315.1 629.411 296.953 629.411 296.953C629.411 296.953 634.913 314.646 635.911 326.512C636.909 338.378 634.44 356.742 634.44 356.742Z" fill="white"/>
<path d="M621.071 337.334C621.071 337.334 620.65 326.873 620.088 320.189C619.526 313.505 618.193 303.12 618.193 303.12C618.193 303.12 621.341 313.245 621.913 320.035C622.484 326.826 621.071 337.334 621.071 337.334Z" fill="white"/>
<path d="M650.352 344.856C650.352 344.856 649.931 334.394 649.369 327.71C648.807 321.026 647.474 310.641 647.474 310.641C647.474 310.641 650.623 320.766 651.194 327.557C651.765 334.347 650.352 344.856 650.352 344.856Z" fill="white"/>
<path d="M752.073 276.109C752.073 276.109 751.338 257.827 750.355 246.147C749.373 234.467 747.044 216.32 747.044 216.32C747.044 216.32 752.546 234.013 753.544 245.879C754.542 257.745 752.073 276.109 752.073 276.109Z" fill="white"/>
<path d="M738.707 256.702C738.707 256.702 738.287 246.24 737.725 239.556C737.162 232.872 735.829 222.487 735.829 222.487C735.829 222.487 738.978 232.612 739.549 239.402C740.12 246.193 738.707 256.702 738.707 256.702Z" fill="white"/>
<path d="M767.989 264.223C767.989 264.223 767.568 253.761 767.006 247.077C766.444 240.393 765.111 230.008 765.111 230.008C765.111 230.008 768.259 240.133 768.831 246.924C769.402 253.714 767.989 264.223 767.989 264.223Z" fill="white"/>
<path d="M374.682 267.602C366.332 295.183 351.627 326.02 345.863 340.624C337.507 358.729 319.354 401.314 304.082 431.15C288.809 460.985 280.934 473.427 269.501 489.802C258.068 506.177 257.652 508.526 246.917 513.024C236.181 517.522 225.159 515.037 215.822 512.29C206.486 509.543 209.49 502.86 200.236 499.291C190.982 495.722 177.36 491.734 177.36 491.734C177.36 491.734 133.06 479.966 112.564 470.006C79.8672 454.117 57.6036 429.815 38.3632 392.633C14.3086 346.148 13.4561 281.778 30.7649 235.164C45.3407 195.91 88.1484 141.251 139.737 120.627C162.755 111.425 207.902 102.185 207.902 102.185C222.019 98.5773 247.795 99.4347 250.206 95.3496C259.186 80.1314 288.319 47.0684 304.239 34.5607C320.16 22.053 320.098 26.7121 327.867 27.4807C335.635 28.2493 335.477 24.9242 343.084 38.4037C350.69 51.8831 358.119 71.2082 365.899 94.878C373.679 118.548 377.642 135.184 381.984 156.753C386.326 178.321 389.07 180.549 387.609 202.719C386.149 224.889 383.031 240.021 374.682 267.602Z" fill="#C47A02"/>
<path d="M134.013 468.151C124.507 461.925 114.861 455.989 106.395 448.383C79.823 424.506 66.0673 395.287 70.215 359.096C72.5419 338.792 81.8668 321.319 94.7683 305.806C115.763 280.562 141.27 261.503 172.768 251.327C194.186 244.407 215.782 242.261 237.246 251.541C237.972 251.855 238.804 251.924 240.647 252.355C236.182 245.939 229.437 244.335 223.669 240.252C226.682 238.976 229.099 239.182 231.462 239.658C244.136 242.209 252.992 236.235 260.13 226.715C267.01 217.538 267.16 206.562 266.467 196.025C265.12 175.517 259.948 155.611 254.659 135.805C253.103 129.976 243.556 125.468 235.563 126.721C214.81 129.973 194.245 134.137 174.108 140.206C153.15 146.522 132.682 154.176 113.919 165.545C82.6878 184.47 55.574 207.558 39.643 241.582C32.1252 257.638 27.7134 274.395 26.7975 292.074C26.4015 299.716 25.3343 307.339 26.0495 315.021C26.2296 316.954 25.9465 318.977 26.7726 320.125C52.5344 262.709 96.7668 230.573 159.835 223.541C159.899 224.102 162.436 223.638 160.363 224.867C119.653 234.933 83.9224 253.07 56.3234 285.053C45.7779 297.274 37.8059 311.078 33.3927 326.779C30.3939 337.447 31.9207 347.692 35.9697 358.041C42.4503 305.695 71.7544 270.332 117.44 247.035C145.06 232.95 177.224 226.874 200.033 231.617C175.012 230.863 151.67 237.338 129.584 248.467C100.853 262.944 76.5977 282.702 61.2543 311.51C40.7891 349.934 44.2241 386.936 70.4498 421.556C86.3764 442.58 107.341 457.43 131.395 468.713C132.535 469.287 133.197 468.94 134.013 468.151Z" fill="#FEBD02"/>
<path d="M364.796 188.147C364.94 168.438 358.936 148.199 357.472 138.212C357.915 138.139 357.761 129.897 359.69 137.846C361.618 145.795 366.092 161.546 367.972 177.365C369.006 186.064 368.95 191.551 368.966 200.311C368.984 210.047 366.774 225.144 366.774 225.144C366.774 225.144 365.75 242.526 343.65 289.855C321.551 337.183 278.377 420.531 256.276 461.785C234.175 503.04 239.488 488.164 233.146 496.126C226.803 504.088 226.885 500.706 224.564 501.596C222.243 502.486 220.492 502.436 221.541 500.576C222.589 498.717 220.865 506.63 229.806 492.299C238.748 477.969 258.99 446.345 266.248 428.922C273.505 411.498 263.983 416.063 266.093 405.181C268.204 394.3 272.697 383.211 276.8 374.516C280.903 365.821 281.642 377.212 286.607 361.707C291.573 346.203 300.572 312.745 301.627 296.993C302.682 281.241 295.491 308.117 291.882 282.946C288.273 257.774 287.983 203.614 283.583 171.134C279.182 138.653 271.835 132.465 269.881 120.544C267.926 108.624 274.433 116.495 273.811 111.53C273.189 106.565 268.197 100.302 266.77 95.719C265.344 91.1365 261.965 95.1837 266.679 88.6174C271.392 82.051 282.621 70.1816 290.337 62.8873C298.053 55.5929 298.828 53.0733 305.258 52.1455C311.689 51.2177 317.581 53.5262 322.49 58.2481C327.399 62.97 324.196 56.2988 329.803 75.7551C335.411 95.2115 345.693 128.272 350.529 155.53C355.365 182.787 356.186 190.988 353.984 212.043C351.782 233.097 351.088 229.818 339.518 260.802C327.949 291.787 293.523 369.253 296.137 366.966C298.752 364.679 352.59 249.366 352.59 249.366C352.59 249.366 359.266 231.159 361.661 219.026C364.009 207.135 364.707 200.268 364.796 188.147Z" fill="#FEBD02"/>
<path d="M104.327 433.253C97.9373 421.533 94.0366 409.687 95.658 396.519C96.4149 390.371 97.7759 384.357 100.097 378.623C102.408 372.914 104.162 372.036 110.141 373.696C124.678 377.735 139.437 379.559 154.545 379.721C183.749 380.033 206.455 367.468 224.807 345.644C225.953 344.282 226.642 342.452 230.031 341.055C217.865 376.657 202.707 409.92 191.585 444.748C195.883 436.534 200.12 428.287 204.493 420.112C214.795 400.854 224.369 381.291 231.927 360.738C238.3 343.407 241.284 325.359 244.613 307.353C245.067 304.897 245.3 302.399 245.797 299.952C250.086 278.817 238.393 263.259 216.998 259.683C183.959 254.161 154.93 263.541 128.464 282.34C103.758 299.89 86.0645 322.988 79.3236 352.945C73.3549 379.47 76.9231 404.632 94.1832 426.799C96.5608 429.853 99.6269 432.138 102.386 435.26C103.661 435.374 104.148 434.671 104.327 433.253Z" fill="#FFBE02"/>
<path d="M76.9436 179.773C79.2568 178.626 81.2171 177.683 82.9501 176.426C108.325 158.021 136.415 145.254 166.409 136.608C184.176 131.487 202.137 127.06 220.26 123.333C221.671 123.042 223.719 123.288 224.207 121.72C224.803 119.805 222.614 119.082 221.54 117.93C218.957 115.162 216.255 114.629 212.232 115.545C199.899 118.355 187.352 120.205 174.935 122.669C140.655 129.473 111.096 145.251 86.1666 169.732C83.1989 172.646 80.1882 175.516 77.0218 178.693C76.7257 179.263 76.6054 179.547 76.9436 179.773Z" fill="#FCBC04"/>
<path d="M243.697 355.445C242.528 350 246.176 337.234 246.796 332.681C248.323 324.912 253.052 302.939 254.428 293.835C255.805 284.73 289.141 294.955 296.572 296.911C304.002 298.868 296.605 302.344 291.581 303.617C286.557 304.89 276.68 302.426 271.453 303.277C266.225 304.128 265.444 307.872 265.444 307.872L255.618 357.562L252.638 359.904C252.638 359.904 244.865 360.889 243.697 355.445Z" fill="#FEBD01"/>
<path d="M218.894 424.135C209.912 440.894 201.153 457.341 192.297 473.736C190.72 476.655 188.691 479.327 186.974 482.174C186.233 483.403 185.032 484.826 186.312 486.249C187.485 487.552 189.142 486.864 190.549 486.483C195.036 485.268 197.839 481.978 200.177 478.259C206.24 468.615 210.188 457.998 214.246 447.432C217.705 438.425 221.296 429.468 224.674 420.431C225.947 417.026 227.845 415.521 231.71 415.658C239.682 415.942 247.675 415.738 255.657 415.608C257.426 415.579 259.334 415.912 260.991 414.794C260.99 413.22 259.7 413.419 258.864 413.348C250.907 412.671 242.943 412.064 234.981 411.448C228.621 410.956 224.02 413.391 221.492 419.436C220.854 420.961 219.895 422.352 218.894 424.135Z" fill="#FCBB06"/>
<path d="M261.787 126.55C269.147 153.44 274.776 180.281 278.423 207.554C282.033 234.554 281.46 261.708 281.389 288.854C292.569 273.975 276.278 137.169 261.591 119.105C259.825 121.637 261.44 123.925 261.787 126.55Z" fill="#F9B709"/>
<path d="M257.711 431.696C258.23 431.057 258.529 430.649 258.742 430.201C262.638 421.989 261.585 420.365 252.49 420.361C246.835 420.358 241.176 420.35 235.525 420.165C231.905 420.046 229.47 421.518 228.02 424.777C222.808 436.49 217.73 448.261 213.447 460.349C212.162 463.975 212.113 467.593 215.765 470.614C216.568 470.7 217.031 470.463 217.703 469.833C221.088 458.177 226.119 447.565 230.944 436.873C231.9 434.754 232.907 432.644 235.347 431.217C238.273 429.654 241.005 430.364 244.049 430.625C246.88 430.954 249.397 431.025 252.183 431.623C252.713 431.769 252.922 431.835 253.427 432.042C254.119 432.376 254.532 432.516 255.294 432.627C256.305 432.578 256.907 432.315 257.711 431.696Z" fill="#FCBB06"/>
<path d="M229.21 105.698C226.48 106.367 222.979 105.052 222.068 107.744C221.111 110.573 224.459 112.121 226.121 114.082C227.498 115.707 229.28 116.388 231.469 116.14C241.401 115.015 251.342 113.965 261.273 112.833C262.549 112.688 264.247 112.754 264.68 111.248C265.097 109.796 263.627 108.939 262.777 107.957C260.073 104.834 256.772 103.59 252.554 104.002C244.931 104.745 237.271 105.123 229.21 105.698Z" fill="#FCBB04"/>
<path d="M357.194 138.19C357.872 138.296 358.423 138.049 359.253 137.667C357.912 126.455 351.469 105.092 351.469 105.092C351.469 105.092 341.04 62.8011 332.209 50.4773C328.969 45.9551 328.185 41.3515 323.137 39.4941C341.675 69.8519 348.886 104.013 357.194 138.19Z" fill="#F8B50A"/>
<path d="M257.485 348.48C255.343 349.645 255.351 352.08 255.339 354.298C255.321 357.836 253.632 359.282 249.991 359.349C253.802 360.77 257.869 362.229 262.035 363.312C265.62 364.244 266.288 366.061 265.359 369.534C262.567 379.975 259.052 390.175 255.635 400.412C254.862 402.729 253.741 404.993 253.955 407.991C256.465 407.298 256.634 405.097 257.281 403.513C261.246 393.821 264.575 383.906 267.468 373.84C269.856 365.532 269.891 365.542 278.681 364.966C274.007 362.243 269.309 361.585 264.833 360.412C256.289 358.174 255.132 359.672 257.485 348.48Z" fill="#F8B50A"/>
<path d="M215.616 491.016C214.537 492.394 213.676 493.515 212.816 494.636C213.145 494.91 213.474 495.185 213.802 495.46C220.036 490.851 224.411 484.551 229.869 477.268C225.031 478.285 223.597 481.1 221.749 483.402C219.78 485.856 217.806 488.306 215.616 491.016Z" fill="#F8B50A"/>
<path d="M746.253 253.185C748.953 257.985 754.953 259.885 759.853 257.285C777.753 247.785 821.453 228.485 869.253 235.785C875.153 236.685 880.553 232.185 880.753 226.185L882.753 182.485C883.053 175.085 874.653 170.585 868.653 174.985L850.953 188.085C841.653 194.985 828.553 192.885 821.853 183.485L809.053 165.485C804.753 159.385 795.353 161.085 793.353 168.285L785.353 197.485C782.053 209.385 769.253 215.785 757.753 211.185L736.253 202.585C728.553 199.485 721.253 207.785 725.253 214.985L746.253 253.185Z" fill="#E9F0F7"/>
<path d="M1227.45 496.685C1251.25 510.485 1273.55 515.185 1292.25 512.085L1319.35 563.385V500.185C1336.65 486.385 1347.15 461.785 1347.25 428.385C1347.45 352.685 1294.05 260.185 1228.15 222.185C1162.25 184.185 1108.55 214.785 1108.35 290.485C1108.15 366.185 1161.65 458.685 1227.45 496.685Z" fill="#E9F0F7"/>
<path d="M881.652 728.485C811.752 622.285 756.552 498.485 755.352 493.985C755.352 493.985 839.052 471.885 921.252 528.585C952.752 550.285 982.152 568.885 1034.85 655.285C1105.45 771.285 1123.55 790.185 1252.95 791.285C1294.95 791.685 1297.35 951.385 1259.85 952.185C1062.35 955.985 977.052 873.485 881.652 728.485Z" fill="#3B3B3C"/>
<path d="M1260.05 803.384C1260.05 803.384 1301.45 774.884 1337.65 772.984C1373.85 771.084 1400.95 771.384 1400.95 771.384C1400.95 771.384 1428.15 786.984 1413.65 871.584C1404.55 924.884 1393.75 958.284 1393.75 958.284C1393.75 958.284 1328.05 983.784 1279.15 944.184L1268.15 943.384C1227.75 944.484 1221.85 807.284 1260.05 803.384Z" fill="#F2A29B"/>
<path d="M1260.05 803.384C1260.05 803.384 1286.15 789.984 1317.45 728.084C1329.45 704.284 1366.15 725.284 1366.05 750.084C1365.95 770.984 1355.35 847.584 1294.45 849.384C1233.55 851.184 1256.85 809.284 1260.05 803.384Z" fill="#F2A29B"/>
<path d="M1647.25 1908.58L1678.65 1977.68C1678.65 1977.68 1685.35 2012.18 1708.15 2056.58C1716.35 2072.48 1736.85 2077.28 1751.25 2066.68L2047.65 1848.18C2057.35 1841.08 2059.95 1827.78 2053.75 1817.48C2037.15 1789.58 1998.05 1742.88 1927.85 1760.18C1885.15 1770.68 1852.15 1790.48 1835.25 1802.18C1822.45 1810.98 1791.45 1806.38 1777.25 1797.08C1758.95 1785.08 1715.65 1790.88 1683.55 1814.08C1645.05 1841.98 1628.95 1872.98 1647.25 1908.58Z" fill="#071F3B"/>
<path d="M1639.75 1911.68C1614.05 1870.08 1339.85 1358.58 837.753 1353.68C688.453 1352.28 704.453 1105.38 845.553 1103.78C939.753 1102.68 994.353 1080.58 1181.95 1161.08C1288.15 1206.68 1390.95 1288.08 1488.55 1379.38C1639.55 1520.58 1810.65 1790.58 1815.75 1801.98C1820.85 1813.18 1646.75 1922.98 1639.75 1911.68Z" fill="#0C3461"/>
<path d="M1265.55 2536.49C1223.45 2558.09 1143.65 2566.39 1086.85 2521.59C1030.05 2476.89 1031.35 2447.39 976.452 2441.19C921.552 2434.99 876.552 2400.29 886.352 2353.79C896.252 2307.29 905.652 2300.89 912.552 2265.19C919.452 2229.49 952.652 2207.09 1002.85 2208.69C1053.05 2210.29 1074.25 2249.39 1083.25 2271.49C1092.25 2293.49 1121.45 2347.99 1171.15 2365.39C1220.75 2382.89 1247.65 2394.69 1278.55 2424.09C1309.45 2453.49 1308.55 2514.39 1265.55 2536.49Z" fill="#071F3B"/>
<path d="M1099.35 2271.89C1101.25 2316.59 895.853 2334.19 898.653 2271.89C933.153 1487.59 681.253 1444.69 645.453 1291.89C645.453 1291.89 615.253 1194.79 718.353 1158.79C844.653 1114.69 904.253 1158.19 944.053 1197.39C1174.45 1425.19 1097.35 2227.19 1099.35 2271.89Z" fill="#114077"/>
<path fill-rule="evenodd" clip-rule="evenodd" d="M1050.44 1006.98L925.357 1117.98C925.357 1117.98 921.316 1106.36 914.504 1087.45L1040 974.391C1043.37 985.208 1046.82 996.058 1050.44 1006.98ZM1025.7 927.477C1020.97 911.835 1016.2 896.144 1011.15 880.286C995.754 831.586 977.855 781.286 950.955 725.986L949.254 722.482C887.11 594.457 821.224 476.528 735.504 498.478C735.504 498.478 758.182 513.483 775.504 528.977C838.504 592.977 859.253 675.522 900.004 767.977C935.747 849.069 982.504 981.477 982.504 981.477C985.852 978.182 995.655 967.782 998.504 964.477C1010.21 950.894 1025.7 927.477 1025.7 927.477ZM871.004 785.477C908.399 868.033 958.375 1000.48 958.375 1000.48C928.241 1023.16 897.292 1040.48 897.292 1040.48C876.893 985.72 848.504 912.736 823.004 858.586C770.003 746.036 666.504 581.121 666.504 581.121C690.475 556.479 698.504 516.134 698.504 516.134L708.579 511.01C708.579 511.01 735.1 532.828 750.504 548.477C809.004 623.209 828.162 690.897 871.004 785.477ZM621.004 600.696C588.828 604.09 553.004 596.977 553.004 596.977C553.004 596.977 530.351 608.664 504.504 623.209C504.504 623.209 552.329 637.023 579.504 652.977C642.288 689.838 682.48 802.02 682.48 802.02C682.48 802.02 698.835 847.668 710.004 871.977C751.449 962.18 796.504 1117.98 796.504 1117.98L849.105 1075.48C826.831 1017.05 795.916 938.69 769.004 880.286C717.303 768.084 621.004 600.696 621.004 600.696ZM679.004 880.286C721.883 974.508 769.004 1132.48 769.004 1132.48C769.004 1132.48 735.099 1145.18 717.504 1149.48C669.904 1161.09 593.197 1132.48 593.197 1132.48C546.208 1001.56 487.761 909.265 447.755 858.586C416.655 819.086 396.455 778.086 399.455 738.486C400.355 726.186 403.455 714.086 409.155 702.186C416.655 686.486 428.655 671.986 445.755 659.486C453.432 653.857 463.33 647.47 474.004 640.981C474.004 640.981 500.678 634.977 553.004 666.977C596.906 693.826 627.627 763.791 660.049 837.632C666.269 851.799 672.553 866.11 679.004 880.286Z" fill="#F46F18"/>
<path d="M760.655 1329.29C702.454 1330.39 644.655 1317.19 635.955 1279.19C633.935 1270.33 631.847 1261.59 629.696 1252.98C629.696 1252.98 702.269 1281.16 750.504 1279.19C809.204 1276.78 843.363 1254.05 887.717 1224.54C896.194 1218.9 905.038 1213.02 914.504 1206.98C984.504 1162.3 1070.04 1061.98 1070.04 1061.98C1075.99 1077.36 1082.46 1093 1089.65 1108.99C1106.65 1146.59 889.055 1326.99 760.655 1329.29Z" fill="#3B3B3C"/>
<path fill-rule="evenodd" clip-rule="evenodd" d="M1070.04 1061.98C1070.04 1061.98 984.504 1162.3 914.504 1206.98C905.041 1213.02 896.192 1218.9 887.717 1224.54C843.363 1254.05 809.204 1276.78 750.504 1279.19C702.269 1281.16 629.696 1252.98 629.696 1252.98C625.105 1234.59 620.225 1216.76 615.107 1199.48C615.107 1199.48 700.739 1236.15 750.504 1231.98C799.991 1227.83 860.504 1184.98 879.504 1157C892.245 1147.27 900.004 1140.48 900.004 1140.48L925.357 1117.98L1050.44 1006.98C1056.42 1025.06 1062.84 1043.34 1070.04 1061.98Z" fill="white"/>
<path fill-rule="evenodd" clip-rule="evenodd" d="M879.504 1157C860.504 1184.98 799.991 1227.83 750.504 1231.98C700.739 1236.15 615.107 1199.48 615.107 1199.48C611.935 1188.76 608.672 1178.26 605.33 1167.98C605.33 1167.98 682.393 1194.84 732.004 1187.98C790.188 1179.93 865.129 1117.98 865.129 1117.98C874.059 1141.93 879.504 1157 879.504 1157Z" fill="#3B3B3C"/>
<path fill-rule="evenodd" clip-rule="evenodd" d="M605.33 1167.98C601.388 1155.85 597.337 1144.01 593.197 1132.48C593.197 1132.48 669.904 1161.09 717.504 1149.48C735.099 1145.18 769.004 1132.48 769.004 1132.48L796.504 1117.98L849.105 1075.48C855.173 1091.39 860.599 1105.83 865.129 1117.98C865.129 1117.98 790.188 1179.93 732.004 1187.98C682.393 1194.84 605.33 1167.98 605.33 1167.98Z" fill="white"/>
<path fill-rule="evenodd" clip-rule="evenodd" d="M796.504 1117.98L769.004 1132.48C769.004 1132.48 721.883 974.508 679.004 880.286C672.553 866.11 666.269 851.799 660.049 837.632C627.627 763.791 596.906 693.826 553.004 666.977C500.678 634.977 474.004 640.981 474.004 640.981C483.889 634.971 494.439 628.873 504.504 623.209C504.504 623.209 552.329 637.023 579.504 652.977C642.288 689.838 682.48 802.02 682.48 802.02C682.48 802.02 698.835 847.668 710.004 871.977C751.449 962.18 796.504 1117.98 796.504 1117.98Z" fill="white"/>
<path fill-rule="evenodd" clip-rule="evenodd" d="M657.504 588.977C660.727 586.628 663.723 583.981 666.504 581.121C666.504 581.121 770.003 746.036 823.004 858.586C848.504 912.736 876.893 985.72 897.292 1040.48C904.032 1058.57 909.901 1074.68 914.504 1087.45C921.316 1106.36 925.357 1117.98 925.357 1117.98L900.004 1140.48C900.004 1140.48 892.245 1147.27 879.504 1157C879.504 1157 874.059 1141.93 865.129 1117.98C860.599 1105.83 855.173 1091.39 849.105 1075.48C826.831 1017.05 795.916 938.69 769.004 880.286C717.303 768.084 621.004 600.696 621.004 600.696C634.916 599.229 648.146 595.797 657.504 588.977Z" fill="#3B3B3C"/>
<path fill-rule="evenodd" clip-rule="evenodd" d="M708.579 511.01L718.655 505.886C727.018 501.362 727.626 500.495 735.504 498.478C735.504 498.478 758.182 513.483 775.504 528.977C838.504 592.977 859.253 675.522 900.004 767.977C935.747 849.069 982.504 981.477 982.504 981.477C973.338 990.498 969.244 992.294 958.375 1000.48C958.375 1000.48 908.399 868.033 871.004 785.477C828.162 690.897 809.004 623.209 750.504 548.477C735.1 532.828 708.579 511.01 708.579 511.01Z" fill="white"/>
<path fill-rule="evenodd" clip-rule="evenodd" d="M1027.77 934.315C1031.81 947.672 1035.84 961.01 1040 974.391L914.504 1087.45C909.901 1074.68 904.032 1058.57 897.292 1040.48C897.292 1040.48 928.241 1023.16 958.375 1000.48C969.244 992.294 973.338 990.498 982.504 981.477C985.852 978.182 995.655 967.782 998.504 964.477C1010.21 950.894 1025.7 927.477 1025.7 927.477C1026.39 929.752 1027.08 932.026 1027.77 934.299L1027.77 934.315Z" fill="white"/>
<path d="M878.253 283.586C906.253 294.686 920.253 319.586 922.953 340.386C925.153 357.286 928.353 388.286 896.753 417.886C888.653 425.486 861.753 443.686 840.353 409.086C827.753 388.686 829.753 372.886 835.353 361.886C839.253 354.186 845.453 347.786 852.853 343.286L861.653 337.986C865.653 335.586 866.453 330.086 863.353 326.586C861.053 323.986 858.253 320.986 855.453 318.386C838.553 302.686 857.953 275.486 878.253 283.586Z" fill="#F5A85E"/>
<path d="M878.254 283.586C906.254 294.686 912.354 339.486 886.654 347.686C891.754 371.886 900.054 385.686 894.754 400.686C890.754 411.986 888.654 426.086 876.954 428.686C865.854 431.186 852.254 428.286 840.354 408.986C824.954 383.986 831.454 365.886 839.554 355.086C843.254 350.186 847.854 346.186 853.054 343.086L861.654 337.886C865.654 335.486 866.454 329.986 863.354 326.486C861.054 323.886 858.254 320.886 855.454 318.286C838.554 302.686 857.954 275.486 878.254 283.586Z" fill="#F2A29B"/>
<path d="M783.354 342.987C741.054 321.587 695.854 355.687 712.554 403.787C728.654 450.187 755.354 445.287 765.454 438.487C775.654 431.587 784.854 409.387 784.854 409.387C784.854 409.387 801.754 433.687 824.254 411.287C837.454 397.987 837.054 370.187 783.354 342.987Z" fill="#F2A29B"/>
<path d="M792.555 311.386C749.255 292.186 705.755 328.486 724.855 375.586C743.355 421.186 769.655 414.886 779.455 407.586C789.255 400.186 797.355 377.486 797.355 377.486C797.355 377.486 815.455 400.986 836.755 377.386C849.355 363.586 847.455 335.786 792.555 311.386Z" fill="#F2A29B"/>
<path d="M819.055 283.585C778.055 259.885 730.955 291.485 744.955 340.385C758.555 387.685 785.355 384.185 795.955 377.885C806.455 371.585 816.955 349.885 816.955 349.885C816.955 349.885 832.555 375.085 856.155 353.885C870.055 341.485 871.155 313.685 819.055 283.585Z" fill="#F2A29B"/>
<path d="M779.456 315.286C784.756 364.186 811.856 365.386 823.256 360.986C825.956 359.986 828.756 358.086 831.456 355.886C840.456 348.486 848.756 336.986 848.756 336.986C848.756 336.986 859.756 364.486 886.756 347.686C888.656 346.486 890.356 345.086 891.856 343.486C903.256 331.186 902.956 305.986 862.256 272.086C825.656 241.686 773.956 264.686 779.456 315.286Z" fill="#F5A85E"/>
<path d="M827.555 323.786C825.655 330.886 828.355 344.686 830.155 351.986C830.455 353.286 830.955 354.586 831.355 355.886C840.355 348.486 848.655 336.986 848.655 336.986C848.655 336.986 859.655 364.486 886.655 347.686C888.555 346.486 890.255 345.086 891.755 343.486C890.755 340.686 880.655 313.186 855.155 299.586C857.855 296.486 862.455 293.586 866.055 291.686C866.055 291.686 861.055 289.986 851.155 295.786C849.955 291.286 848.255 281.986 848.255 281.986C848.255 281.986 834.555 297.386 827.555 323.786Z" fill="#F2A29B"/>
<path d="M850.453 304.785C883.753 331.885 915.853 384.385 891.353 422.085C891.353 422.085 918.853 466.285 846.753 509.485C795.453 540.185 782.053 488.585 782.053 488.585C768.453 481.485 732.153 458.085 717.553 415.885C710.853 396.385 792.053 257.385 850.453 304.785Z" fill="#F5A85E"/>
<path d="M1217.65 927.385C948.355 742.785 802.155 579.285 776.455 518.585C773.555 511.785 775.755 501.685 781.355 490.285C802.855 446.785 875.155 385.685 911.855 427.485C911.855 427.485 1031.85 560.685 1201.15 682.285C1240.45 710.485 1282.35 738.085 1326.15 763.285C1438.55 827.885 1301.95 985.185 1217.65 927.385Z" fill="#114077"/>
<path d="M1217.65 927.385C948.355 742.785 802.155 579.285 776.455 518.585C773.555 511.785 775.755 501.685 781.355 490.285C798.855 524.685 854.955 614.985 1006.95 739.385C1040.95 767.185 1091.35 760.585 1117.45 725.285C1129.55 708.885 1146.05 694.485 1168.25 687.885C1179.55 684.485 1190.55 682.885 1201.25 682.485C1240.55 710.685 1282.45 738.285 1326.25 763.485C1438.55 827.885 1301.95 985.185 1217.65 927.385Z" fill="#114077"/>
<path d="M1405.55 591.186C1406.25 590.886 1407.05 590.586 1407.75 590.286C1408.15 590.086 1408.65 589.886 1409.05 589.786C1410.05 589.386 1411.05 589.186 1411.95 588.886C1412.15 588.886 1412.35 588.786 1412.55 588.786C1413.45 588.586 1414.35 588.386 1415.15 588.386C1415.25 588.386 1415.25 588.386 1415.35 588.386C1416.25 588.286 1417.15 588.286 1417.95 588.286C1418.05 588.286 1418.15 588.286 1418.25 588.286C1419.05 588.386 1419.85 588.486 1420.55 588.586C1420.65 588.586 1420.75 588.586 1420.85 588.686C1421.55 588.886 1422.25 589.086 1422.85 589.386C1422.95 589.386 1423.05 589.486 1423.05 589.486C1423.75 589.786 1424.35 590.186 1424.95 590.686L1409.75 578.786C1409.55 578.586 1409.35 578.486 1409.15 578.286C1408.85 578.086 1408.45 577.886 1408.15 577.686C1408.05 577.686 1407.95 577.586 1407.95 577.586C1407.85 577.586 1407.75 577.486 1407.75 577.486C1407.55 577.386 1407.35 577.286 1407.15 577.186C1406.75 577.086 1406.35 576.886 1405.95 576.786C1405.85 576.786 1405.75 576.786 1405.75 576.686C1405.65 576.686 1405.55 576.686 1405.45 576.586C1405.25 576.486 1404.95 576.486 1404.75 576.386C1404.35 576.286 1403.85 576.286 1403.45 576.186C1403.35 576.186 1403.25 576.186 1403.25 576.186C1403.15 576.186 1403.05 576.186 1402.95 576.186C1402.65 576.186 1402.35 576.186 1402.05 576.186C1401.55 576.186 1401.05 576.186 1400.45 576.286H1400.35C1400.25 576.286 1400.25 576.286 1400.15 576.286C1399.65 576.386 1399.15 576.386 1398.65 576.486C1398.25 576.586 1397.95 576.686 1397.55 576.686C1397.35 576.686 1397.15 576.786 1396.95 576.786C1396.85 576.786 1396.75 576.786 1396.55 576.886C1395.75 577.086 1394.95 577.386 1394.15 577.586C1394.15 577.586 1394.05 577.586 1393.95 577.686C1393.55 577.786 1393.05 578.086 1392.65 578.186C1392.05 578.386 1391.45 578.686 1390.75 578.886C1390.65 578.886 1390.55 578.986 1390.45 579.086C1390.25 579.186 1390.15 579.286 1389.95 579.286C1388.85 579.786 1387.75 580.386 1386.55 581.086L1126.05 731.686C1124.95 732.286 1123.95 732.986 1122.85 733.686C1122.45 733.886 1122.15 734.186 1121.85 734.386C1121.15 734.886 1120.45 735.386 1119.75 735.886C1119.35 736.186 1118.95 736.486 1118.55 736.786C1117.95 737.286 1117.25 737.786 1116.65 738.386C1116.25 738.686 1115.85 739.086 1115.45 739.486C1115.15 739.786 1114.85 739.986 1114.45 740.286C1114.15 740.586 1113.85 740.786 1113.55 741.086C1113.15 741.486 1112.65 741.886 1112.25 742.286C1112.05 742.486 1111.75 742.786 1111.55 742.986C1111.15 743.386 1110.65 743.886 1110.25 744.386C1110.05 744.586 1109.85 744.786 1109.65 745.086C1109.55 745.186 1109.45 745.286 1109.35 745.386C1108.65 746.086 1108.05 746.786 1107.45 747.486C1107.35 747.686 1107.15 747.786 1107.05 747.986C1106.85 748.186 1106.75 748.386 1106.55 748.586C1106.25 748.886 1105.95 749.186 1105.75 749.586C1105.25 750.186 1104.65 750.886 1104.15 751.586L1104.05 751.686C1103.95 751.786 1103.95 751.886 1103.85 751.886C1103.45 752.386 1102.95 752.986 1102.55 753.486C1102.15 753.986 1101.75 754.486 1101.35 755.086C1101.25 755.186 1101.25 755.286 1101.15 755.386C1101.15 755.486 1101.05 755.486 1101.05 755.586C1100.55 756.286 1100.15 756.886 1099.65 757.586C1099.35 757.986 1099.15 758.286 1098.95 758.686C1098.85 758.886 1098.75 758.986 1098.65 759.186C1098.55 759.286 1098.45 759.486 1098.35 759.586C1097.95 760.286 1097.45 760.986 1097.05 761.686C1096.85 761.886 1096.75 762.186 1096.65 762.386C1096.55 762.586 1096.45 762.786 1096.25 762.986C1096.05 763.286 1095.95 763.486 1095.75 763.786C1095.35 764.486 1094.95 765.286 1094.55 765.986C1094.45 766.086 1094.45 766.186 1094.35 766.286C1094.25 766.486 1094.15 766.686 1094.05 766.786C1093.85 767.286 1093.55 767.686 1093.35 768.186C1093.05 768.686 1092.85 769.286 1092.55 769.786C1092.45 769.986 1092.35 770.086 1092.35 770.286C1092.35 770.386 1092.25 770.486 1092.25 770.486C1091.85 771.386 1091.45 772.186 1091.15 773.086C1091.05 773.186 1091.05 773.386 1090.95 773.486C1090.85 773.886 1090.65 774.186 1090.55 774.586C1090.35 775.086 1090.15 775.586 1089.95 776.086C1089.85 776.386 1089.75 776.586 1089.75 776.886C1089.55 777.486 1089.35 778.186 1089.15 778.786C1089.05 779.186 1088.95 779.486 1088.85 779.886C1088.75 780.186 1088.65 780.486 1088.65 780.886C1088.55 781.186 1088.45 781.486 1088.45 781.786C1088.15 782.886 1087.95 783.986 1087.75 784.986L1031.75 1127.59C1030.35 1136.09 1032.05 1142.09 1036.05 1145.19L1051.25 1157.09C1047.25 1153.99 1045.55 1147.99 1046.95 1139.49L1102.95 796.886C1103.15 795.786 1103.35 794.786 1103.65 793.686C1103.75 793.386 1103.75 793.086 1103.85 792.786C1104.05 792.086 1104.25 791.386 1104.45 790.686C1104.65 790.086 1104.85 789.386 1105.05 788.786C1105.35 788.086 1105.55 787.286 1105.85 786.586C1105.95 786.186 1106.15 785.886 1106.25 785.486C1106.65 784.386 1107.15 783.286 1107.65 782.186C1107.75 781.986 1107.85 781.886 1107.85 781.686C1108.35 780.686 1108.85 779.686 1109.35 778.586C1109.45 778.386 1109.55 778.186 1109.65 778.086C1110.25 776.986 1110.85 775.886 1111.45 774.786C1111.55 774.586 1111.65 774.386 1111.85 774.186C1112.45 773.086 1113.15 771.986 1113.85 770.986C1113.95 770.786 1114.05 770.686 1114.15 770.486C1114.85 769.386 1115.65 768.286 1116.45 767.186C1116.55 767.086 1116.55 766.986 1116.65 766.886C1117.45 765.786 1118.25 764.786 1119.05 763.686C1119.15 763.586 1119.15 763.486 1119.25 763.486C1120.05 762.486 1120.95 761.486 1121.75 760.486C1121.95 760.286 1122.05 760.086 1122.25 759.886C1123.15 758.886 1123.95 757.986 1124.85 756.986C1125.05 756.786 1125.25 756.586 1125.45 756.386C1126.15 755.686 1126.85 754.986 1127.55 754.386C1127.95 753.986 1128.45 753.586 1128.85 753.086C1129.45 752.486 1130.05 751.986 1130.65 751.486C1131.05 751.086 1131.45 750.786 1131.95 750.386C1132.55 749.886 1133.25 749.386 1133.85 748.786C1134.25 748.486 1134.65 748.186 1135.05 747.886C1135.75 747.386 1136.45 746.886 1137.15 746.386C1137.45 746.186 1137.85 745.886 1138.15 745.686C1139.25 744.986 1140.25 744.286 1141.35 743.686L1401.85 593.286C1403.05 592.586 1404.15 592.086 1405.25 591.486C1405.25 591.386 1405.35 591.286 1405.55 591.186Z" fill="#E9F0F7"/>
<path d="M1401.65 593.186C1419.95 582.686 1432.25 589.386 1429.15 608.186L1373.15 950.786C1370.05 969.586 1352.75 993.486 1334.45 1003.99L1073.95 1154.39C1055.65 1164.89 1043.35 1158.19 1046.45 1139.39L1102.45 796.786C1105.55 777.986 1122.85 754.086 1141.05 743.586L1401.65 593.186Z" fill="#AEC7E6"/>
<path d="M1370.35 930.485C1384.65 924.385 1404.75 918.985 1425.45 917.885C1446.15 916.785 1443.25 951.785 1425.95 958.885C1408.65 965.985 1386.25 972.185 1373.25 968.385C1360.35 964.685 1351.55 938.485 1370.35 930.485Z" fill="#C78C54"/>
<path d="M1369.55 885.485C1384.35 875.685 1396.35 870.285 1423.05 867.485C1447.05 865.085 1445.45 909.085 1427.25 917.985C1409.05 926.885 1387.45 928.385 1371.95 925.985C1356.45 923.685 1351.45 897.485 1369.55 885.485Z" fill="#C78C54"/>
<path d="M1365.95 836.686C1383.85 827.286 1395.25 814.886 1422.55 811.586C1441.95 809.286 1455.05 854.986 1431.55 867.386C1411.05 878.186 1393.15 880.586 1374.75 881.586C1352.15 882.786 1347.75 846.286 1365.95 836.686Z" fill="#C78C54"/>
<path d="M1346.95 805.085C1360.75 790.285 1383.95 769.985 1411.25 767.285C1438.65 764.485 1448.95 802.085 1431.05 816.885C1413.25 831.685 1383.35 845.085 1365.55 846.585C1347.75 848.085 1330.05 823.185 1346.95 805.085Z" fill="#F5A85E"/>
<path fill-rule="evenodd" clip-rule="evenodd" d="M903.004 1055.54C903.004 1055.54 835.031 1123.85 779.004 1143.48C698.068 1171.83 560.004 1127.32 560.004 1127.32C479.169 1054.43 376.333 923.347 397.853 741.685C412.453 618.685 556.553 710.585 576.353 802.885C576.866 805.268 577.388 807.737 577.927 810.288C588.317 859.449 605.154 939.108 689.953 1020.48C734.955 1063.66 796.475 1083.88 903.004 1055.54Z" fill="#3B3B3C"/>
<path d="M779.004 1143.48C835.031 1123.85 903.004 1055.54 903.004 1055.54C918.859 1051.33 935.71 1046.04 953.653 1039.58C997.653 1023.68 1055.45 1155.38 1019.25 1175.08C981.353 1195.68 756.253 1270.48 618.353 1173.88C602.537 1162.81 582.092 1147.24 560.004 1127.32C560.004 1127.32 698.068 1171.83 779.004 1143.48Z" fill="#333333"/>
<path d="M1125.25 1075.69C1125.25 1075.69 1136.85 1064.29 1145.95 1053.09C1145.95 1053.09 1154.15 1055.29 1160.15 1063.39C1166.75 1072.29 1163.55 1085.69 1158.15 1093.59C1151.45 1103.19 1147.65 1106.19 1137.35 1114.49C1123.55 1125.29 1114.35 1083.49 1125.25 1075.69Z" fill="#C78C54"/>
<path d="M1102.55 1037.39C1102.55 1037.39 1119.75 1022.99 1140.95 1003.99C1140.95 1003.99 1149.25 1005.49 1155.95 1013.09C1163.25 1021.49 1161.65 1036.89 1156.45 1043.29C1146.25 1055.99 1139.55 1063.69 1125.35 1075.59C1111.85 1086.89 1077.55 1054.79 1102.55 1037.39Z" fill="#C78C54"/>
<path d="M1077.95 994.687C1077.95 994.687 1088.85 986.987 1112.35 969.987C1134.25 954.087 1157.55 988.887 1142.15 1002.99C1131.55 1012.69 1116.75 1025.59 1102.55 1037.49C1089.15 1048.69 1052.95 1011.99 1077.95 994.687Z" fill="#C78C54"/>
<path d="M1028.85 963.586C1028.85 963.586 1076.35 923.786 1105.45 912.086C1130.55 901.986 1148.15 939.986 1132.65 954.086C1122.05 963.786 1077.95 994.686 1077.95 994.686C1077.95 994.686 1054.55 1006.39 1038.35 991.586C1022.25 976.786 1024.65 967.586 1028.85 963.586Z" fill="#F5A85E"/>
<path d="M970.454 1039.29C970.454 1039.29 1011.15 972.586 1034.85 959.486C1061.85 958.686 1077.95 994.686 1077.95 994.686C1106.15 1010.49 1102.45 1037.49 1102.45 1037.49C1126.95 1047.39 1125.15 1075.69 1125.15 1075.69C1141.25 1081.19 1148.05 1104.89 1140.65 1111.49C1109.45 1139.29 1033.85 1160.59 1015.25 1165.69C984.454 1174.09 929.154 1099.79 970.454 1039.29Z" fill="#F5A85E"/>
<path d="M759.853 257.285C777.753 247.785 821.453 228.485 869.253 235.785C875.153 236.685 880.553 232.185 880.753 226.185L882.753 182.485C883.053 175.085 874.653 170.585 868.653 174.985L850.953 188.085C841.653 194.985 828.553 192.885 821.853 183.485L809.053 165.485C804.753 159.385 795.353 161.085 793.353 168.285L785.353 197.485C782.053 209.385 769.253 215.785 757.753 211.185L736.253 202.585C728.553 199.485 721.253 207.785 725.253 214.985L746.253 253.185C748.853 257.985 754.953 259.785 759.853 257.285Z" fill="#F46F18"/>
<path d="M423.173 128.446C430.591 147.348 444.802 192.922 432.144 239.543C430.561 245.29 434.477 251.155 440.358 252.081L483.501 258.963C490.838 260.14 496.227 252.293 492.524 245.833L481.449 226.732C475.681 216.746 479.255 203.92 489.336 198.354L508.707 187.745C515.185 184.182 514.668 174.629 507.706 171.84L479.639 160.638C468.255 156.034 463.342 142.526 469.154 131.708L480.213 111.279C484.17 103.962 476.763 95.742 469.095 98.8791L428.792 115.443C423.706 117.555 421.202 123.343 423.173 128.446Z" fill="#F46F18"/>
<path d="M1347.35 428.385C1347.55 352.685 1294.15 260.185 1228.25 222.185C1162.35 184.185 1108.65 214.785 1108.45 290.485C1108.25 366.185 1161.65 458.685 1227.55 496.685C1251.35 510.485 1273.65 515.185 1292.35 512.085L1319.45 563.385V500.185C1336.75 486.385 1347.25 461.785 1347.35 428.385Z" fill="#E9F0F7"/>
<path d="M1228.15 265.285C1273.45 291.385 1310.05 354.785 1309.85 406.885C1309.75 458.885 1272.85 479.885 1227.55 453.785C1182.25 427.684 1145.65 364.285 1145.85 312.185C1146.05 260.085 1182.85 239.085 1228.15 265.285ZM1178.65 327.285C1178.65 335.385 1184.35 345.185 1191.35 349.285C1198.25 353.285 1203.95 350.185 1204.15 342.285L1209.05 347.685C1209.75 348.485 1210.45 349.085 1211.15 349.485C1213.05 350.585 1214.85 350.385 1215.75 348.785C1216.95 346.585 1215.85 342.485 1213.35 339.685L1174.95 296.885C1174.25 296.085 1173.55 295.485 1172.85 295.085C1170.95 293.985 1169.15 294.185 1168.25 295.785C1167.05 297.985 1168.15 302.085 1170.65 304.885L1183.05 318.785C1180.35 319.985 1178.65 322.885 1178.65 327.285ZM1285.25 371.185C1287.75 371.285 1288.85 368.485 1287.75 364.885C1286.85 362.285 1285.05 359.985 1283.15 358.885C1282.45 358.485 1281.75 358.185 1281.05 358.185L1242.55 356.585C1240.05 356.485 1238.95 359.285 1240.05 362.885C1240.95 365.485 1242.75 367.785 1244.65 368.885C1245.35 369.285 1246.05 369.585 1246.75 369.585L1251.65 369.785C1251.75 377.785 1257.35 387.385 1264.35 391.385C1271.35 395.485 1277.05 392.185 1277.15 384.085C1277.15 379.685 1275.45 374.785 1272.85 370.585L1285.25 371.185ZM1260.75 434.085C1262.55 432.685 1262.35 428.985 1260.25 425.585C1259.75 424.785 1247.95 406.385 1227.65 394.685C1207.35 382.985 1195.55 387.685 1195.05 387.985C1192.95 388.885 1192.75 392.385 1194.55 395.885C1195.55 397.785 1196.95 399.285 1198.35 400.085C1199.55 400.785 1200.75 400.985 1201.65 400.585C1201.75 400.585 1211.05 396.785 1227.65 406.385C1244.05 415.785 1253.55 430.485 1253.55 430.585C1254.55 432.085 1255.65 433.285 1256.85 433.885C1258.35 434.685 1259.75 434.785 1260.75 434.085Z" fill="#F46F18"/>
<path d="M1213.25 339.685L1174.85 296.885C1174.15 296.085 1173.45 295.485 1172.75 295.085C1170.85 293.985 1169.05 294.185 1168.15 295.785C1166.95 297.985 1168.05 302.085 1170.55 304.885L1182.95 318.785C1180.25 319.885 1178.65 322.885 1178.55 327.285C1178.55 335.385 1184.25 345.185 1191.25 349.285C1198.15 353.285 1203.85 350.185 1204.05 342.285L1208.95 347.685C1209.65 348.485 1210.35 349.085 1211.05 349.485C1212.95 350.585 1214.75 350.385 1215.65 348.785C1216.85 346.585 1215.75 342.485 1213.25 339.685Z" fill="white"/>
<path d="M1227.75 394.684C1248.05 406.384 1259.85 424.784 1260.35 425.584C1262.45 428.884 1262.65 432.684 1260.85 434.084C1259.85 434.784 1258.45 434.684 1257.05 433.884C1255.85 433.184 1254.65 432.084 1253.75 430.584C1253.65 430.484 1244.15 415.784 1227.85 406.384C1211.25 396.784 1201.95 400.584 1201.85 400.584C1200.85 400.984 1199.75 400.784 1198.55 400.084C1197.15 399.284 1195.75 397.784 1194.75 395.884C1192.95 392.384 1193.15 388.884 1195.25 387.984C1195.65 387.784 1207.45 382.984 1227.75 394.684Z" fill="white"/>
<path d="M1287.75 364.885C1286.85 362.285 1285.05 359.985 1283.15 358.885C1282.45 358.485 1281.75 358.185 1281.05 358.185L1242.55 356.585C1240.05 356.485 1238.95 359.285 1240.05 362.885C1240.95 365.485 1242.75 367.785 1244.65 368.885C1245.35 369.285 1246.05 369.585 1246.75 369.585L1251.65 369.785C1251.75 377.785 1257.35 387.385 1264.35 391.385C1271.35 395.485 1277.05 392.185 1277.15 384.085C1277.15 379.685 1275.45 374.785 1272.85 370.585L1285.35 371.085C1287.75 371.285 1288.85 368.485 1287.75 364.885Z" fill="white"/>
</svg>
