<svg width="3573" height="3198" viewBox="0 0 3573 3198" fill="none" xmlns="http://www.w3.org/2000/svg">
<path d="M2066.57 919.766C2037.07 919.766 2013.15 895.843 2013.15 866.343C2013.15 836.842 2037.07 812.914 2066.57 812.914C2096.07 812.914 2120 836.842 2120 866.343C2120 895.843 2096.07 919.766 2066.57 919.766ZM2293.85 919.766V812.914H2226.73C2224.19 805.314 2221.14 797.945 2217.62 790.859L2265.07 743.412L2189.48 667.877L2142.03 715.324C2134.97 711.755 2127.6 708.726 2120 706.184V639.096H2013.15V706.184C2005.55 708.726 1998.2 711.755 1991.12 715.324L1943.67 667.877L1868.11 743.412L1915.56 790.859C1912.01 797.945 1908.96 805.314 1906.42 812.914H1839.33V919.766H1906.42C1908.96 927.382 1912.01 934.735 1915.56 941.811L1868.11 989.26L1943.67 1064.81L1991.12 1017.36C1998.2 1020.92 2005.55 1023.96 2013.15 1026.5V1093.59H2120V1026.5C2127.6 1023.96 2134.97 1020.92 2142.03 1017.36L2189.48 1064.81L2265.07 989.26L2217.62 941.811C2221.14 934.735 2224.19 927.382 2226.73 919.766H2293.85Z" fill="#A3ADAF"/>
<path d="M1996.35 2330.82H471.789V483.53H1996.35V2330.82Z" fill="#1E3E9D"/>
<path d="M1996.35 506.562H471.789V370.769C471.789 332.257 503.017 301.011 541.542 301.011H1926.59C1965.1 301.011 1996.35 332.257 1996.35 370.769V506.562Z" fill="#FA7315"/>
<path d="M1609.31 409.948C1609.31 389.511 1592.72 372.925 1572.26 372.925C1551.8 372.925 1535.22 389.511 1535.22 409.948C1535.22 430.41 1551.8 446.996 1572.26 446.996C1592.72 446.996 1609.31 430.41 1609.31 409.948Z" fill="#FCFBF9"/>
<path d="M1747.97 409.948C1747.97 389.511 1731.39 372.925 1710.92 372.925C1690.46 372.925 1673.88 389.511 1673.88 409.948C1673.88 430.41 1690.46 446.996 1710.92 446.996C1731.39 446.996 1747.97 430.41 1747.97 409.948Z" fill="#FCFBF9"/>
<path d="M1886.62 409.948C1886.62 389.511 1870.03 372.925 1849.6 372.925C1829.13 372.925 1812.55 389.511 1812.55 409.948C1812.55 430.41 1829.13 446.996 1849.6 446.996C1870.03 446.996 1886.62 430.41 1886.62 409.948Z" fill="#FCFBF9"/>
<path d="M2066.57 2456.78H401.562V2330.8H2066.57V2456.78Z" fill="#FA7315"/>
<path d="M779.283 3197.53H610.898V2456.79H779.283V3197.53Z" fill="#FA7315"/>
<path d="M779.283 2565.49H610.898V2456.79H779.283V2565.49Z" fill="#E85F00"/>
<path d="M1860.96 3197.53H1692.59V2456.79H1860.96V3197.53Z" fill="#FA7315"/>
<path d="M1860.96 2565.49H1692.59V2456.79H1860.96V2565.49Z" fill="#E85F00"/>
<path d="M1679.19 2167.58C1633.92 2189.18 1583.26 2201.27 1529.76 2201.27C1337.72 2201.27 1182.05 2045.58 1182.05 1853.53C1182.05 1715.15 1262.88 1595.66 1379.92 1539.68L1529.76 1853.53L1679.19 2167.58Z" fill="#FA7315"/>
<path d="M1731.9 1570.57L1529.76 1853.53L1379.92 1539.68C1425.29 1517.97 1476.11 1505.82 1529.76 1505.82C1605.15 1505.82 1674.93 1529.79 1731.9 1570.57Z" fill="#E85F00"/>
<path d="M1877.5 1853.53C1877.5 1992.07 1796.47 2111.72 1679.21 2167.58H1679.18L1529.76 1853.53L1731.89 1570.57C1820.04 1633.62 1877.5 1736.88 1877.5 1853.53Z" fill="#1E3E9D"/>
<path d="M1063.41 970.2C1073.04 1002.06 1075.84 1036.5 1070.46 1071.59C1051.12 1197.52 933.329 1283.92 807.398 1264.59C716.661 1250.65 646.423 1185.61 621.516 1103.23L683.679 1084.46C701.562 1143.67 752.051 1190.41 817.252 1200.42C907.745 1214.32 992.397 1152.23 1006.29 1061.74C1010.16 1036.53 1008.13 1011.75 1001.23 988.858L1063.41 970.2Z" fill="#FA7315"/>
<path d="M677.205 875.506L723.691 920.851C700.363 944.746 684.021 975.887 678.565 1011.4C674.686 1036.67 676.737 1061.5 683.682 1084.46L621.519 1103.23C611.847 1071.28 608.997 1036.75 614.402 1001.55C621.991 952.12 644.734 908.755 677.205 875.506Z" fill="#1E3E9D"/>
<path d="M877.443 808.523C968.287 822.465 1038.59 887.679 1063.42 970.174L1063.42 970.199L1001.24 988.857C983.371 929.564 932.866 882.749 867.584 872.71C812.611 864.263 759.814 883.879 723.698 920.853L677.211 875.509C727.446 824.057 800.945 796.79 877.443 808.523Z" fill="#E85F00"/>
<path d="M1881.2 924.623H1397.51V886.111H1881.2V924.623Z" fill="#E8EEEF"/>
<path d="M1881.2 1020.37H1397.51V981.852H1881.2V1020.37Z" fill="#E8EEEF"/>
<path d="M1881.2 1116.11H1397.51V1077.6H1881.2V1116.11Z" fill="#E8EEEF"/>
<path d="M1241 861.593L1126.13 989.845H1180.03V1267.29H1301.96V989.845H1355.86L1241 861.593Z" fill="#A3ADAF"/>
<path d="M1471.36 1193.44H1397.51V1267.29H1471.36V1193.44Z" fill="#FA7315"/>
<path d="M1667.82 1193.44H1593.96V1267.29H1667.82V1193.44Z" fill="#1E3E9D"/>
<path d="M1864.25 1193.44H1790.41V1267.29H1864.25V1193.44Z" fill="#E85F00"/>
<path d="M682.913 2116.08H609.062V2189.95H682.913V2116.08Z" fill="#FA7315"/>
<path d="M879.351 2116.08H805.5V2189.95H879.351V2116.08Z" fill="#1E3E9D"/>
<path d="M1075.81 2116.08H1001.96V2189.95H1075.81V2116.08Z" fill="#E85F00"/>
<path d="M1778.98 630.646H689.141V577.988H1778.98V630.646Z" fill="#A3ADAF"/>
<path d="M1720.03 724.59H748.078V671.931H1720.03V724.59Z" fill="#A3ADAF"/>
<path d="M1073.17 1621.1H611.695V1570.57H1073.17V1621.1Z" fill="#E8EEEF"/>
<path d="M1073.17 1730.2H611.695V1679.67H1073.17V1730.2Z" fill="#E8EEEF"/>
<path d="M1073.17 1839.31H611.695V1788.77H1073.17V1839.31Z" fill="#E8EEEF"/>
<path d="M1073.17 1948.41H611.695V1897.88H1073.17V1948.41Z" fill="#E8EEEF"/>
<path d="M32.4168 392.876H562.599C580.504 392.876 595.018 407.382 595.018 425.303V699.303C595.018 717.224 580.504 731.731 562.599 731.731H500.299V815.764L403.596 731.731H32.4168C14.5139 731.731 0 717.224 0 699.303V425.303C0 407.382 14.5139 392.876 32.4168 392.876Z" fill="#E8EEEF"/>
<path d="M130.757 660.252C129.961 660.252 129.565 659.867 129.565 659.045V641.766C119.622 638.788 111.419 632.96 104.959 624.307C98.4965 615.655 95.2666 605.873 95.2666 594.936V583.613C95.2666 582.817 95.6645 582.407 96.4605 582.407H123.599C124.197 582.407 124.495 582.817 124.495 583.613V594.936C124.495 600.122 126.33 604.641 130.012 608.517C133.689 612.394 138.012 614.32 142.986 614.32C148.154 614.32 152.477 612.394 155.959 608.517C159.435 604.641 161.179 600.302 161.179 595.526C161.179 589.364 157.302 584.101 149.545 579.736C146.96 578.144 142.883 575.859 137.319 572.856C131.75 569.877 126.582 567.104 121.812 564.511C112.463 559.351 105.655 552.701 101.382 544.536C97.1049 536.398 94.9688 527.232 94.9688 517.09C94.9688 505.973 98.1986 496.268 104.661 488.026C111.121 479.759 119.224 474.162 128.967 471.158V453.879C128.967 453.083 129.365 452.672 130.161 452.672H156.108C157.101 452.672 157.6 453.083 157.6 453.879V471.466C167.143 474.444 175.046 480.119 181.308 488.463C187.572 496.807 190.702 506.358 190.702 517.09V537.091C190.702 537.681 190.404 537.964 189.808 537.964H162.37C161.774 537.964 161.476 537.681 161.476 537.091L161.179 517.09C161.179 511.339 159.338 506.718 155.659 503.226C151.979 499.76 147.756 498.014 142.986 498.014C138.012 498.014 133.786 499.914 130.31 503.688C126.828 507.462 125.09 511.929 125.09 517.09C125.09 522.071 126.181 526.307 128.372 529.773C130.556 533.265 134.531 536.68 140.3 540.069L165.055 553.779C173.205 558.144 179.618 563.613 184.291 570.185C188.961 576.732 191.3 585 191.3 594.936C191.3 606.258 188.214 616.066 182.055 624.307C175.89 632.575 167.934 638.275 158.195 641.458V659.045C158.195 659.867 157.697 660.252 156.704 660.252H130.757Z" fill="#A3ADAF"/>
<path d="M524.82 493.727H251.156V475.857H524.82V493.727Z" fill="#A3ADAF"/>
<path d="M524.82 541.916H251.156V524.072H524.82V541.916Z" fill="#A3ADAF"/>
<path d="M524.82 590.133H251.156V572.263H524.82V590.133Z" fill="#A3ADAF"/>
<path d="M524.82 638.326H251.156V620.456H524.82V638.326Z" fill="#A3ADAF"/>
<path d="M1389.16 2730.09C1389.16 2853.28 1329.68 2955.29 1329.68 2955.29C1329.68 2955.29 1270.19 2853.28 1270.19 2730.09C1270.19 2606.91 1329.68 2504.9 1329.68 2504.9C1329.68 2504.9 1389.16 2606.91 1389.16 2730.09Z" fill="#1E3E9D"/>
<path d="M1544.57 2744.27C1533.48 2866.94 1465.05 2963.19 1465.05 2963.19C1465.05 2963.19 1414.99 2856.23 1426.08 2733.56C1437.17 2610.86 1505.59 2514.63 1505.59 2514.63C1505.59 2514.63 1555.66 2621.57 1544.57 2744.27Z" fill="#1E3E9D"/>
<path d="M1307.56 2755.66C1330.19 2857.88 1296.84 2954.03 1296.84 2954.03C1296.84 2954.03 1226 2880.93 1203.37 2778.75C1180.74 2676.54 1214.1 2580.36 1214.1 2580.36C1214.1 2580.36 1284.93 2653.45 1307.56 2755.66Z" fill="#A3ADAF"/>
<path d="M1456.64 2775.33C1440.71 2878.77 1374.78 2956.34 1374.78 2956.34C1374.78 2956.34 1335.24 2862.55 1351.17 2759.08C1367.11 2655.61 1433.03 2578.07 1433.03 2578.07C1433.03 2578.07 1472.58 2671.86 1456.64 2775.33Z" fill="#A3ADAF"/>
<path d="M1600.67 2777.61C1584.74 2881.08 1518.81 2958.62 1518.81 2958.62C1518.81 2958.62 1479.27 2864.83 1495.21 2761.36C1511.14 2657.92 1577.06 2580.36 1577.06 2580.36C1577.06 2580.36 1616.61 2674.15 1600.67 2777.61Z" fill="#A3ADAF"/>
<path d="M1593.16 2857.8V3197.53H1207.58V2857.8H1593.16Z" fill="#FA7315"/>
<path d="M1593.16 2929.07V2955.29H1207.58V2929.07H1593.16Z" fill="#E85F00"/>
<path d="M1593.16 2972.49V2985.61H1207.58V2972.49H1593.16Z" fill="#E85F00"/>
<path fill-rule="evenodd" clip-rule="evenodd" d="M3263.46 3167.61C3334.81 3162.48 3315.01 3165.93 3335.13 3162.58C3333.44 2874.21 3303.69 2428.25 3303.69 2428.25L3280.22 2061.08L3239.99 1783.1L2762.54 1797.07L2751.67 2074.36L2775.62 2586.68L2830.95 3157.55C2830.95 3157.55 2833.26 3157.55 2903.87 3157.55C2910.22 3009.45 2941.79 2485.89 2989.37 2068.62L3042.17 2086.22C3115.41 2462.92 3162.87 2624.4 3263.46 3167.61Z" fill="#F46F18"/>
<path fill-rule="evenodd" clip-rule="evenodd" d="M2788.26 2730.5L2829.84 3157.98C2829.84 3157.98 2832.13 3157.98 2902.32 3157.98C2904.29 3111.58 2920.27 2851.36 2926.9 2746L2788.26 2730.5Z" fill="#3B3B3C"/>
<path fill-rule="evenodd" clip-rule="evenodd" d="M3262.69 3167.61C3334.04 3162.47 3314.99 3165.18 3335.11 3161.83C3333.74 3092.9 3331.99 3022.47 3329.69 2952.61C3327.38 2882.55 3323.57 2812.11 3321.26 2742.05L3182.98 2758.51C3197.1 2830.38 3246.01 3077.45 3262.69 3167.61Z" fill="#3B3B3C"/>
<path fill-rule="evenodd" clip-rule="evenodd" d="M2511.58 853.408C2571.99 741.107 2940.45 796.171 3048.12 753.975L3151.3 668.184C3220.64 700.567 3326.71 744.07 3387.06 784.322C3423.24 813.319 3468.61 898.766 3492.56 1014.91C3529.75 1195.22 3313.56 1152.93 3310.74 1161.81C3263.72 1309.7 3258 1577.36 3258 1862.06C3166.47 1856.33 2889 1836.3 2766 1844.88C2758.3 1786.5 2715.53 1219.73 2697.35 1186.63C2697.33 1186.6 2688.77 1175.19 2680.18 1209.53C2671.6 1238.15 2448.96 1201.35 2459.31 1101.89C2465.53 1042.2 2481.51 909.286 2511.58 853.408Z" fill="#3B3B3C"/>
<path fill-rule="evenodd" clip-rule="evenodd" d="M3258.09 3143.08L3258.38 3186.62L3370.91 3186.87C3370.91 3186.87 3380.38 3177.04 3363.94 3158.33C3352.8 3145.65 3331.76 3136.8 3331.76 3136.8L3258.09 3143.08Z" fill="#3B3B3C"/>
<path fill-rule="evenodd" clip-rule="evenodd" d="M2904.65 3144.55L2907.64 3190.69L2777.26 3190.72C2777.26 3190.72 2761.22 3175.12 2773.84 3163.71C2789.87 3149.23 2827.86 3136.8 2827.86 3136.8L2904.65 3144.55Z" fill="#3B3B3C"/>
<path fill-rule="evenodd" clip-rule="evenodd" d="M3066.53 2093.13L3069.39 2082.75L2941.32 2044.99L2938.45 2055.37L3066.53 2093.13Z" fill="#CE7430"/>
<path d="M3111.79 589.234L3111.76 589.077C3116.96 588.516 3121.62 587.959 3125.2 587.309C3125.21 587.319 3125.22 587.325 3125.24 587.33C3121.98 587.938 3117.47 588.594 3111.79 589.234Z" fill="#4B4C47"/>
<path fill-rule="evenodd" clip-rule="evenodd" d="M3177.54 1033.94L2843.91 1041.27C2805.93 851.509 2755.92 736.884 2728.63 689.733C2707.47 697.501 2673.06 715.743 2655.39 727.808C2667.83 761.824 2731.83 923.307 2743.77 1092.42C2752.31 1213.21 2764.78 1372 2764.63 1444.51C2754.27 1456.59 2744.97 1461.97 2730.93 1473.45L2751.88 2044.99L3275.6 2033.86C3256.28 1852.88 3263.36 1663.27 3267.51 1466.39C3270.08 1344.95 3268.41 1213.68 3269.28 1099.99C3270.78 903.925 3276.41 750.29 3279.29 720.588C3259.32 706.973 3225.92 689.156 3204.07 683.589C3187.68 799.215 3182.51 900.276 3177.54 1033.94Z" fill="#F46F18"/>
<path d="M3177.04 1014.8L3271.92 1017.01L3272.11 963.698L3179.34 960.662L3177.04 1014.8ZM3281.23 1035.97H3281.01L3167.08 1033.33C3164.57 1033.27 3162.19 1032.2 3160.48 1030.37C3158.76 1028.52 3157.86 1026.07 3157.96 1023.56L3161.06 950.591C3161.27 945.459 3165.54 941.476 3170.7 941.622L3281.78 945.261C3286.84 945.426 3290.83 949.593 3290.82 954.659L3290.57 1026.63C3290.56 1029.15 3289.54 1031.56 3287.74 1033.32C3286 1035.02 3283.66 1035.97 3281.23 1035.97Z" fill="#989A9A"/>
<path d="M2729.11 977.594L2737.31 1030.13L2837.45 1019.48L2827.45 966.728L2729.11 977.594ZM2729.56 1049.45C2725.08 1049.45 2721.18 1046.19 2720.47 1041.65L2709.42 970.907C2709.03 968.419 2709.67 965.88 2711.2 963.878C2712.73 961.876 2715 960.588 2717.51 960.315L2833.9 947.456C2838.61 946.909 2843.06 950.172 2843.96 954.903L2857.42 1025.88C2857.89 1028.41 2857.29 1031.02 2855.76 1033.1C2854.22 1035.16 2851.9 1036.5 2849.34 1036.77L2730.54 1049.4L2729.56 1049.45Z" fill="#989A9A"/>
<path fill-rule="evenodd" clip-rule="evenodd" d="M3173.37 1141.88L2867.2 1150.28L2878.56 1358.27L3033.48 1442.28L3171.39 1353.27L3173.37 1141.88Z" fill="#F28713"/>
<path fill-rule="evenodd" clip-rule="evenodd" d="M2691.2 1001.59C2731.25 1125.68 2694.98 1363.27 2676.33 1487.04C2594.66 1465.14 2564.94 1456.35 2450.48 1494.27C2449.12 1336.47 2444.52 1174.59 2472.12 997.083C2531.38 961.186 2627.19 966.036 2691.2 1001.59Z" fill="#3B3B3C"/>
<path fill-rule="evenodd" clip-rule="evenodd" d="M2701.69 1292.99C2654.7 1283.57 2605.92 1270.49 2557.84 1255.11C2521.44 1243.46 2485.51 1230.54 2451.12 1216.92C2450.26 1238.63 2449.69 1260.17 2449.34 1281.55C2478.6 1292.72 2508.7 1303.33 2539.08 1313.05C2590.98 1329.65 2643.85 1343.71 2694.99 1353.7C2697.41 1333.97 2699.68 1313.62 2701.69 1292.99ZM2709.29 1155.04C2709.25 1175.33 2708.6 1196.13 2707.48 1217.1C2667.46 1208.01 2626.78 1196.7 2586.67 1183.87C2541.83 1169.53 2497.59 1153.25 2455.75 1136.05C2457.36 1115.09 2459.31 1093.93 2461.67 1072.56C2506.93 1091.75 2555.72 1110.03 2605.44 1125.93C2640 1136.99 2674.93 1146.86 2709.29 1155.04Z" fill="#FAFAFA"/>
<path fill-rule="evenodd" clip-rule="evenodd" d="M3464.4 908.883C3525.44 1063.16 3564.59 1315.02 3557.69 1449.81C3556.69 1469.35 3549.31 1506.93 3545.88 1524.03C3504.2 1536.86 3424.05 1543.28 3335.68 1555.88C3320.46 1471.49 3309.35 1422.27 3301.62 1304.51C3295.97 1218.55 3294.05 1136.68 3294.84 1059.45C3294.94 1050.22 3295.08 1041.05 3295.24 1031.96C3350.67 989.977 3408.97 950.863 3464.4 908.883Z" fill="#3B3B3C"/>
<path fill-rule="evenodd" clip-rule="evenodd" d="M3538.08 1200.56C3492.45 1219.86 3443.18 1238.28 3393 1254.27C3362 1264.14 3330.72 1273.06 3299.81 1280.68C3300.26 1288.43 3300.75 1296.21 3301.26 1304.02C3302.15 1317.59 3303.09 1330.24 3304.08 1342.14C3339.86 1333.65 3376.06 1323.46 3411.79 1312.07C3458.14 1297.3 3503.85 1280.48 3546.93 1262.72C3544.39 1242.34 3541.43 1221.53 3538.08 1200.56ZM3510.71 1062.93C3515.49 1082.78 3519.96 1103.01 3524.1 1123.38C3473.94 1144.98 3419.49 1165.56 3364.12 1183.2C3341.6 1190.37 3318.88 1197.07 3296.21 1203.17C3295.48 1182.02 3294.98 1161.15 3294.67 1140.58C3311.57 1135.83 3328.49 1130.75 3345.33 1125.39C3403.06 1107 3459.56 1085.41 3510.71 1062.93Z" fill="#FAFAFA"/>
<path d="M3033.31 1276.67C3032.17 1276.67 3031.04 1276.48 3029.96 1276.09L2910.5 1233.39C2905.26 1231.52 2902.52 1225.71 2904.37 1220.42C2906.22 1215.12 2911.95 1212.34 2917.19 1214.22L3033.08 1255.65L3140.31 1211.94C3145.46 1209.85 3151.31 1212.37 3153.39 1217.57C3155.46 1222.78 3152.97 1228.7 3147.82 1230.8L3037.06 1275.94C3035.86 1276.43 3034.58 1276.67 3033.31 1276.67Z" fill="#6E7D85"/>
<path d="M3009.19 1035.97C3006.91 1035.97 3004.99 1034.12 3004.85 1031.73L2996.23 879.006C2996.09 876.519 2997.92 874.386 3000.32 874.241C3002.7 874.008 3004.77 875.987 3004.91 878.479L3013.54 1031.2C3013.68 1033.69 3011.85 1035.82 3009.45 1035.96L3009.19 1035.97Z" fill="#898F7F"/>
<path fill-rule="evenodd" clip-rule="evenodd" d="M3314.97 741.776C3276.18 710.117 3205.2 677.546 3153.38 662.409C3112.01 791.802 3011.12 832.769 2992.97 839.143C3009.06 1154.28 3038.8 1591.59 3041.92 1813C3108.92 1814.21 3212.32 1797.3 3307.96 1771.91C3312.05 1521.37 3353.57 982.345 3314.97 741.776ZM2787.25 665.42C2806.23 732.618 2897.95 815.21 2983.06 838.822C3008.04 1164.46 3012.43 1542.28 3016.01 1810.05C2936.99 1822.54 2711.04 1803.28 2667.59 1773.62C2664.79 1333.77 2634.12 1154.49 2624.58 746.539C2671.46 708.635 2716.01 685.649 2787.25 665.42Z" fill="#F46F18"/>
<path fill-rule="evenodd" clip-rule="evenodd" d="M3312.02 1650.5C3228.44 1673.6 3133.86 1684.46 3038.67 1685.32C3040.5 1733.08 3044.78 1956.35 3045.3 1993.55C3119.77 1988.01 3202.2 1980.8 3297.83 1955.33C3298.4 1919.98 3310.23 1695.83 3312.02 1650.5ZM3014.69 1685.33C3015.32 1729.13 3018.86 1953.68 3019.39 1993.21C2938.88 2000.49 2714.06 1983.99 2670.61 1954.24C2670.28 1902.4 2665.9 1682.85 2665.02 1636.76C2765.45 1666.39 2889.83 1684.29 3014.69 1685.33Z" fill="#3B3B3C"/>
<path fill-rule="evenodd" clip-rule="evenodd" d="M3303.1 1831.32C3235.31 1847.36 3141.8 1859.13 3042.56 1862.79C3042.15 1842.73 3041.72 1822.15 3041.3 1802.33C3145.33 1798.46 3242.03 1785.42 3306.24 1767.95C3305.21 1788.77 3304.13 1810.4 3303.1 1831.32ZM3016.16 1803.08L3017.11 1863.54C2995.97 1864.01 2974.66 1864.12 2953.35 1863.8C2852.14 1862.31 2750.52 1851.53 2668.14 1827.63C2667.75 1806.57 2667.35 1784.85 2666.95 1763.85C2745.99 1790.15 2849.87 1801.8 2954.07 1803.33C2974.84 1803.63 2995.6 1803.54 3016.16 1803.08Z" fill="#FAFAFA"/>
<path fill-rule="evenodd" clip-rule="evenodd" d="M3235.12 699.187C3215.37 688.831 3191.44 680.227 3168.77 672.037L3169.06 678.6C3177.4 872.138 3190.52 1185.87 3175.61 1635.61C3144.71 1640.46 3059.57 1643.66 3040.51 1643.91L3042.27 1709.69C3122.16 1711.79 3232.74 1700.26 3311.43 1678.33L3313.94 1610.06C3295.59 1616.46 3267.68 1621.33 3241.73 1626.13C3255.39 1202.9 3243.39 893.227 3235.12 699.187Z" fill="#FAFAFA"/>
<path fill-rule="evenodd" clip-rule="evenodd" d="M2993.26 1644.2C2951.73 1646.01 2877.51 1643.35 2838.4 1636.07C2830.6 1395 2819.71 1198.21 2808.52 1037.53C2798.07 887.554 2787.04 768.565 2778.09 672.037C2754.13 680.04 2733.64 685.446 2714.24 695.646C2722.57 786.154 2732.55 899.087 2742.51 1041.96C2753.63 1201.51 2764.39 1394.68 2772.05 1627.3C2737.87 1621.45 2698.53 1612.2 2663.09 1601.34L2664.27 1670.55C2702.55 1681.47 2740.86 1689.27 2777.32 1694.84C2821.24 1701.55 2904.64 1710.74 2994.3 1709.88C2993.38 1688.42 2994.29 1666.51 2993.26 1644.2Z" fill="#FAFAFA"/>
<path fill-rule="evenodd" clip-rule="evenodd" d="M2784.41 665.99C2784.91 647.784 2786.14 624.338 2789.62 604.639C2822.37 664.99 2902.03 730.576 2971.28 737.81L2984.67 839.562C2896.88 818.692 2832.5 778.639 2784.41 665.99Z" fill="#3B3B3C"/>
<path fill-rule="evenodd" clip-rule="evenodd" d="M3161.82 664.954L3142.41 598.863C3127.48 658.151 3054.33 729.04 2995.36 736.276L2992.37 841.488C3089.36 810.111 3150.92 756.737 3161.82 664.954Z" fill="#3B3B3C"/>
<path fill-rule="evenodd" clip-rule="evenodd" d="M2996.74 1991.81C3020.55 1993.12 3038.59 1993.49 3065.54 1992.18L3003.55 735.581L2963.48 737.828C2970.54 1073.22 2989.69 1656.42 2996.74 1991.81Z" fill="#3B3B3C"/>
<path fill-rule="evenodd" clip-rule="evenodd" d="M3268.62 1766.79C3353.23 1697.76 3463.52 1597.68 3548.98 1525.54C3525.95 1447.1 3464.43 1390.21 3387.18 1374.13L3163.66 1682.31C3191.14 1706.18 3236.5 1742.2 3268.62 1766.79Z" fill="#3B3B3C"/>
<path fill-rule="evenodd" clip-rule="evenodd" d="M2798.37 2825.35L2804.62 2890.23C2819.05 2893.57 2833.43 2896.11 2847.61 2897.94C2871.87 2901.09 2895.58 2902.19 2917.95 2901.81C2919.22 2882.01 2920.55 2861.56 2921.96 2840.45C2900.86 2841.07 2878.33 2840.21 2855.25 2837.21C2836.48 2834.78 2817.36 2830.94 2798.37 2825.35ZM2784.41 2680.43L2790.93 2748.1C2816.87 2756.58 2843.04 2762.16 2868.56 2765.47C2888.5 2768.05 2908.05 2769.25 2926.8 2769.38C2928.2 2749.37 2929.66 2728.93 2931.16 2708.16C2913.53 2708.2 2895.05 2707.18 2876.2 2704.73C2845.86 2700.8 2814.58 2693.19 2784.41 2680.43ZM3321.36 2747.72C3320.31 2725.87 3319.23 2704.53 3318.17 2683.9C3290.67 2694.59 3262.41 2701.17 3234.92 2704.73C3213.52 2707.5 3192.59 2708.45 3172.84 2708.08C3176.97 2727.93 3181.19 2748.31 3185.49 2769.38C3203.89 2769.2 3223.05 2767.99 3242.56 2765.47C3268.46 2762.11 3295.03 2756.42 3321.36 2747.72ZM3327.43 2884.79C3326.58 2863.59 3325.7 2842.46 3324.77 2821.57C3301.86 2829.25 3278.61 2834.27 3255.88 2837.21C3236.67 2839.7 3217.86 2840.72 3199.93 2840.63C3203.89 2860.39 3207.93 2880.75 3212.07 2901.77C3228.73 2901.42 3245.98 2900.22 3263.52 2897.94C3284.54 2895.22 3306 2890.96 3327.43 2884.79Z" fill="#FAFAFA"/>
<path fill-rule="evenodd" clip-rule="evenodd" d="M2728.06 1608.85L2736 1726C2651.4 1665.61 2602.7 1664.57 2513.55 1585.74C2457.91 1531.43 2450.31 1505.71 2446.03 1457.53C2457.4 1427.99 2485.42 1398.89 2528.58 1374.34L2582.76 1383.49C2680.32 1472.61 2638.29 1508.01 2728.06 1608.85Z" fill="#3B3B3C"/>
<mask id="path-77-inside-1_1491_2103" fill="white">
<path d="M2644.34 1390.87C2771.55 1385.25 2898.93 1384.96 3026.14 1390.02C3084.04 1536.01 3135.88 1683.1 3181.66 1830.9C3181.6 1830.89 3181.55 1830.89 3181.49 1830.88C3184.13 1838.76 3186.75 1846.65 3189.36 1854.53C3182.45 1854.1 3175.53 1853.68 3168.62 1853.28C3169.61 1856.27 3170.6 1859.27 3171.59 1862.26C3056.49 1855.02 2941.19 1852.6 2825.93 1855.02C2765.31 1712.68 2698.69 1571.67 2626.13 1432.38C2633.17 1431.94 2640.21 1431.51 2647.25 1431.1C2646.14 1428.95 2645.02 1426.8 2643.9 1424.65C2649.44 1424.31 2654.97 1423.97 2660.51 1423.64C2655.16 1412.71 2649.76 1401.78 2644.34 1390.87Z"/>
</mask>
<path d="M2644.34 1390.87C2771.55 1385.25 2898.93 1384.96 3026.14 1390.02C3084.04 1536.01 3135.88 1683.1 3181.66 1830.9C3181.6 1830.89 3181.55 1830.89 3181.49 1830.88C3184.13 1838.76 3186.75 1846.65 3189.36 1854.53C3182.45 1854.1 3175.53 1853.68 3168.62 1853.28C3169.61 1856.27 3170.6 1859.27 3171.59 1862.26C3056.49 1855.02 2941.19 1852.6 2825.93 1855.02C2765.31 1712.68 2698.69 1571.67 2626.13 1432.38C2633.17 1431.94 2640.21 1431.51 2647.25 1431.1C2646.14 1428.95 2645.02 1426.8 2643.9 1424.65C2649.44 1424.31 2654.97 1423.97 2660.51 1423.64C2655.16 1412.71 2649.76 1401.78 2644.34 1390.87Z" fill="#D9D9D9"/>
<path d="M2644.34 1390.87L2644.25 1388.87L2641.18 1389.01L2642.55 1391.76L2644.34 1390.87ZM3026.14 1390.02L3028 1389.28L3027.52 1388.07L3026.22 1388.02L3026.14 1390.02ZM3181.66 1830.9L3181.49 1832.89L3184.44 1833.13L3183.57 1830.3L3181.66 1830.9ZM3181.49 1830.88L3181.65 1828.89L3178.63 1828.64L3179.59 1831.52L3181.49 1830.88ZM3189.36 1854.53L3189.23 1856.53L3192.19 1856.71L3191.26 1853.91L3189.36 1854.53ZM3168.62 1853.28L3168.73 1851.28L3165.79 1851.11L3166.72 1853.91L3168.62 1853.28ZM3171.59 1862.26L3171.47 1864.25L3174.42 1864.44L3173.49 1861.63L3171.59 1862.26ZM2825.93 1855.02L2824.09 1855.8L2824.62 1857.05L2825.97 1857.02L2825.93 1855.02ZM2626.13 1432.38L2626.01 1430.39L2622.94 1430.58L2624.36 1433.31L2626.13 1432.38ZM2647.25 1431.1L2647.37 1433.1L2650.45 1432.92L2649.03 1430.18L2647.25 1431.1ZM2643.9 1424.65L2643.77 1422.66L2640.71 1422.85L2642.13 1425.58L2643.9 1424.65ZM2660.51 1423.64L2660.63 1425.64L2663.63 1425.46L2662.31 1422.76L2660.51 1423.64ZM2644.34 1390.87L2644.42 1392.87C2771.59 1387.25 2898.9 1386.96 3026.07 1392.02L3026.14 1390.02L3026.22 1388.02C2898.95 1382.96 2771.52 1383.24 2644.25 1388.87L2644.34 1390.87ZM3026.14 1390.02L3024.29 1390.76C3082.16 1536.7 3133.98 1683.74 3179.74 1831.49L3181.66 1830.9L3183.57 1830.3C3137.77 1682.46 3085.92 1535.32 3028 1389.28L3026.14 1390.02ZM3181.66 1830.9L3181.82 1828.9C3181.79 1828.9 3181.77 1828.9 3181.74 1828.9C3181.71 1828.89 3181.68 1828.89 3181.65 1828.89L3181.49 1830.88L3181.33 1832.88C3181.35 1832.88 3181.38 1832.88 3181.41 1832.88C3181.43 1832.88 3181.46 1832.89 3181.49 1832.89L3181.66 1830.9ZM3181.49 1830.88L3179.59 1831.52C3182.23 1839.4 3184.86 1847.28 3187.46 1855.16L3189.36 1854.53L3191.26 1853.91C3188.65 1846.02 3186.03 1838.13 3183.39 1830.25L3181.49 1830.88ZM3189.36 1854.53L3189.48 1852.54C3182.57 1852.1 3175.65 1851.68 3168.73 1851.28L3168.62 1853.28L3168.5 1855.28C3175.41 1855.68 3182.32 1856.09 3189.23 1856.53L3189.36 1854.53ZM3168.62 1853.28L3166.72 1853.91C3167.71 1856.9 3168.7 1859.89 3169.69 1862.89L3171.59 1862.26L3173.49 1861.63C3172.5 1858.64 3171.51 1855.64 3170.52 1852.65L3168.62 1853.28ZM3171.59 1862.26L3171.72 1860.26C3056.56 1853.02 2941.2 1850.6 2825.89 1853.02L2825.93 1855.02L2825.97 1857.02C2941.17 1854.6 3056.42 1857.02 3171.47 1864.25L3171.59 1862.26ZM2825.93 1855.02L2827.77 1854.23C2767.13 1711.85 2700.49 1570.79 2627.91 1431.46L2626.13 1432.38L2624.36 1433.31C2696.89 1572.55 2763.5 1713.51 2824.09 1855.8L2825.93 1855.02ZM2626.13 1432.38L2626.26 1434.38C2633.29 1433.93 2640.33 1433.51 2647.37 1433.1L2647.25 1431.1L2647.14 1429.1C2640.09 1429.52 2633.05 1429.94 2626.01 1430.39L2626.13 1432.38ZM2647.25 1431.1L2649.03 1430.18C2647.91 1428.03 2646.79 1425.88 2645.67 1423.73L2643.9 1424.65L2642.13 1425.58C2643.24 1427.73 2644.36 1429.87 2645.48 1432.02L2647.25 1431.1ZM2643.9 1424.65L2644.03 1426.65C2649.56 1426.3 2655.09 1425.96 2660.63 1425.64L2660.51 1423.64L2660.39 1421.64C2654.85 1421.97 2649.31 1422.31 2643.77 1422.66L2643.9 1424.65ZM2660.51 1423.64L2662.31 1422.76C2656.95 1411.82 2651.56 1400.89 2646.13 1389.98L2644.34 1390.87L2642.55 1391.76C2647.97 1402.67 2653.36 1413.59 2658.72 1424.52L2660.51 1423.64Z" fill="black" mask="url(#path-77-inside-1_1491_2103)"/>
<path d="M2804.96 1809.89C2804.96 1809.89 2733.45 1811.37 2715.53 1695.99C2715.53 1695.99 2703.59 1684.59 2703.59 1675.25C2703.59 1665.9 2716.71 1654.67 2716.71 1654.67C2716.71 1654.67 2681.59 1583.73 2692.27 1573.49C2702.93 1563.29 2719.77 1597.49 2719.77 1597.49L2745.06 1660.59L2795.66 1679.67C2795.66 1679.67 2803.98 1692.22 2786.78 1698.33L2809.76 1704.66L2846.29 1713.55C2846.29 1713.55 2855.41 1721.88 2846.29 1727.65C2846.29 1727.65 2831.53 1730.43 2820.88 1729.98L2844.86 1743.42C2844.86 1743.42 2853.17 1751.42 2839.98 1756.3C2826.76 1761.19 2794.94 1760.28 2784.57 1759.07L2804.96 1809.89Z" fill="#F5A85E"/>
<path fill-rule="evenodd" clip-rule="evenodd" d="M3051.05 1818.29C3074.8 1826.22 3104.82 1814.66 3184 1792.6C3184 1792.6 3224.53 1752.91 3212.54 1719.22C3198.09 1678.61 3210.64 1664.1 3123.74 1653.67L3136.34 1690.75C3136.34 1690.75 3079.63 1717.83 3008.51 1708.31C3000.86 1707.29 2997.39 1717.59 3004.07 1721.45C3022.14 1731.88 3052.93 1741.88 3101.5 1736.3C3101.5 1736.3 3054.75 1747.77 3002.47 1744.82C2995.64 1744.44 2993.33 1753.78 2999.6 1756.52C3020.75 1765.81 3055.24 1774.86 3102.73 1768.02C3102.73 1768.02 3071.15 1781.64 3014.26 1777.98C3009.25 1777.66 3007.79 1784.68 3012.51 1786.34C3033.05 1793.58 3065.97 1800.4 3107.61 1792.6C3107.61 1792.6 3082.73 1807.88 3052.39 1809.1C3047.17 1809.31 3046.12 1816.64 3051.05 1818.29Z" fill="#F5A85E"/>
<path d="M2705.01 1673.33C2707.27 1664.84 2719.42 1655.62 2722.09 1653.67L2792.07 1679.18C2794.39 1680.02 2796.11 1681.93 2796.67 1684.31C2797.26 1686.7 2796.64 1689.11 2794.98 1690.92C2792.23 1693.92 2788.81 1696.17 2784.73 1697.66C2784.68 1697.67 2784.65 1697.68 2784.63 1697.7C2784.63 1697.7 2784.63 1697.71 2784.6 1697.71C2780.44 1699.22 2775.62 1699.94 2770.17 1699.9C2744.32 1699.63 2719.31 1694.28 2716.39 1693.63C2714.61 1692.15 2702.75 1681.86 2705.01 1673.33Z" fill="#F5A85E"/>
<path d="M3011.52 464.629C3011.52 464.629 3005.09 467.108 3002.01 468.381C2994.76 471.385 2997.69 492.486 2996.45 500.404C2993.92 516.51 2991.13 536.9 2987.59 552.804C2985.26 563.254 2968.75 571.021 2960.11 574.064C2997.36 568.833 2993.98 540.801 2998.52 510.905C3000.95 494.9 2999.87 477.049 3011.52 464.629Z" fill="#1A9CEB"/>
<path d="M2946.92 451.994C2931.94 447.477 2849.06 427.927 2846.1 446.745C2843.14 465.565 2851.12 504.185 2860.06 517.483C2880.67 548.151 2912.93 547.79 2943.85 552.804C2980.27 558.708 2983.14 544.162 2984.21 517.483C2985.28 490.805 2984.7 479.861 2981.98 472.459C2979.48 465.662 2965.14 457.491 2946.92 451.994Z" fill="#7CCDFF"/>
<path d="M2811.23 449.564C2797.9 445.983 2796.02 494.403 2786.64 507.154C2783.52 511.388 2779.44 514.256 2774.64 516.062C2783.43 514.998 2790.76 511.718 2795.69 505.021C2799.46 499.901 2802.02 489.028 2804.59 478.08C2807.15 467.207 2809.72 456.261 2813.52 450.803C2812.81 450.205 2812.05 449.784 2811.23 449.564Z" fill="#1A9CEB"/>
<path d="M2713.67 392.091C2702.09 388.304 2689.96 383.531 2689.28 395.843C2688.12 416.887 2689.81 448.59 2697.41 468.336C2701.32 478.486 2710.02 484.359 2722.48 491.519C2744.02 503.898 2770.04 510.677 2780.64 495.271C2791.24 479.865 2795.41 456.039 2791.84 433.989C2789.48 419.401 2774.08 416.214 2761.2 410.226C2745.93 403.125 2729.69 397.328 2713.67 392.091Z" fill="#7CCDFF"/>
<path d="M2735.58 381.261C2736.89 381.965 2737.98 382.575 2738.94 383.11C2740.67 384.078 2741.96 384.8 2743.31 385.387C2763.23 394.041 2782.65 403.661 2799.15 418.04C2805.86 423.884 2812.94 426.273 2821.62 424.985C2852.21 420.442 2882.88 421.46 2913.11 426.788C2931.86 430.092 2950.42 434.465 2968.98 438.84C2978.81 441.159 2988.65 443.478 2998.52 445.638C3001.72 446.339 3005.69 446.602 3008.55 445.348C3009.55 444.91 3010.54 444.48 3011.52 444.058C3010.16 443.98 3008.81 443.777 3007.57 443.506C2997.71 441.346 2987.87 439.026 2978.03 436.708C2959.47 432.333 2940.91 427.958 2922.16 424.654C2891.94 419.326 2861.26 418.309 2830.67 422.851C2821.99 424.14 2814.91 421.751 2808.2 415.908C2791.71 401.528 2772.29 391.909 2752.36 383.254C2749.65 382.076 2746.69 380.932 2743.58 379.832C2741.05 380.286 2738.4 380.761 2735.58 381.261Z" fill="#1A9CEB"/>
<path d="M3055.24 441.983C3066.32 437.363 3077.62 432.653 3089.88 427.595C3108.01 420.116 3143.82 403.913 3143.82 403.913C3143.82 403.913 3178.79 385.387 3200.05 392.33C3208.24 395.007 3227.98 423.628 3232.96 430.27C3237.79 436.714 3241.91 442.211 3246.88 441.299C3256.97 439.448 3245.31 420.889 3239.42 409.55C3210.75 354.318 3158.11 378.524 3133.2 388.692C3111.99 397.347 3101.87 401.401 3080.91 410.606C3066.08 417.114 3052.87 421.845 3039.59 426.599C3027.08 431.079 3012.91 435.958 2998.89 441.983L3000.47 464.594C3020.21 456.587 3037.44 449.402 3055.24 441.983Z" fill="#1A9CEB"/>
<path fill-rule="evenodd" clip-rule="evenodd" d="M2914.36 570.181C2880.67 563.053 2857.49 555.865 2836.7 528.413C2822.11 509.155 2824.56 453.142 2811.24 449.561C2797.91 445.98 2796.03 494.401 2786.65 507.151C2777.27 519.901 2759.16 520.272 2738.95 516.531C2709.77 511.129 2688.16 492.768 2678.67 474.633C2669.18 456.499 2666.16 392.088 2667.09 383.108C2668.01 374.127 2667.09 365.824 2673.15 364.061C2679.21 362.297 2687.1 360.252 2694.07 358.329C2709.52 354.064 2724.97 349.799 2740.53 345.959C2754.41 342.533 2768.4 339.563 2782.39 336.593C2788.97 335.197 2795.55 333.801 2802.11 332.357C2822.8 327.809 2843.76 325.978 2864.76 328.482C2874.09 329.596 2883.72 332.337 2892.08 336.57C2903.86 342.529 2914.88 350.163 2925.68 357.83C2934.65 364.193 2943.01 371.468 2951.29 378.729C2953.34 380.522 2955.4 383.97 2955.14 386.416C2954.23 395.049 2942.94 402.011 2935.26 397.927C2928.09 394.117 2921.51 388.603 2915.87 382.692C2912.43 379.092 2909.39 375.069 2906.35 371.056C2902.07 365.407 2897.81 359.777 2892.5 355.374C2873.11 339.3 2864.22 340.872 2847.35 349.782C2843.74 351.687 2840.19 353.721 2836.7 355.832C2824.54 363.181 2811.75 368.762 2797.55 370.866C2786.98 372.432 2776.43 374.197 2765.89 375.963C2763.95 376.288 2762.01 376.613 2760.07 376.937C2754.98 377.786 2749.9 378.697 2744.24 379.713C2741.51 380.202 2738.65 380.716 2735.59 381.258C2736.9 381.963 2737.99 382.573 2738.95 383.108C2740.68 384.076 2741.97 384.798 2743.32 385.385C2763.25 394.039 2782.66 403.659 2799.16 418.038C2805.87 423.882 2812.95 426.271 2821.63 424.982C2852.22 420.439 2882.9 421.457 2913.12 426.785C2931.87 430.089 2950.93 433.989 2969.49 438.364C2979.33 440.683 2988.67 443.476 2998.53 445.636C3001.74 446.337 3005.7 446.599 3008.56 445.345L3008.56 468.334C3001.31 471.337 2997.7 492.484 2996.46 500.402C2993.94 516.508 2991.14 536.897 2987.6 552.801C2980.73 583.667 2935.96 574.752 2914.36 570.181ZM2932.57 559.055C2968.99 564.959 2973.74 543.21 2974.81 516.531C2975.88 489.853 2975.3 478.909 2972.58 471.507C2970.08 464.709 2955.74 456.54 2937.52 451.042C2922.54 446.526 2839.66 426.974 2836.7 445.793C2833.73 464.612 2841.7 506.36 2850.63 519.658C2871.24 550.326 2901.65 554.041 2932.57 559.055ZM2689.92 468.334C2693.83 478.484 2701.23 486.233 2713.69 493.394C2735.23 505.772 2759.99 513.177 2770.59 497.771C2781.19 482.365 2787.91 456.036 2784.35 433.986C2781.99 419.398 2766.59 416.212 2753.71 410.223C2738.44 403.123 2722.2 397.325 2706.18 392.088C2694.6 388.301 2682.47 383.529 2681.79 395.84C2680.63 416.884 2682.32 448.588 2689.92 468.334Z" fill="#1A9CEB"/>
<path d="M3062.06 445.793C3072.88 441.188 3083.91 436.492 3095.89 431.45C3113.6 423.994 3148.57 407.837 3148.57 407.837C3148.57 407.837 3182.72 389.356 3203.5 396.325C3211.5 399.012 3230.83 427.656 3235.7 434.303C3240.43 440.753 3244.46 446.255 3249.32 445.35C3259.18 443.511 3247.76 424.938 3241.99 413.592C3213.9 358.328 3162.5 382.467 3138.17 392.603C3117.46 401.231 3107.58 405.272 3087.1 414.451C3072.62 420.939 3059.71 425.654 3046.75 430.391C3034.53 434.855 3022.25 439.338 3008.56 445.345L3008.56 468.334C3027.84 460.352 3044.67 453.19 3062.06 445.793Z" fill="#1A9CEB"/>
<path d="M2928.21 528.984C2928.21 528.984 2921.32 507.161 2917.53 493.001C2913.74 478.842 2908.79 456.501 2908.79 456.501C2908.79 456.501 2909.81 479.652 2913.66 494.037C2917.52 508.423 2928.21 528.984 2928.21 528.984Z" fill="white"/>
<path d="M2935.71 500.482C2935.71 500.482 2931.77 487.993 2929.6 479.89C2927.43 471.787 2924.6 459.002 2924.6 459.002C2924.6 459.002 2925.18 472.251 2927.39 480.483C2929.59 488.715 2935.71 500.482 2935.71 500.482Z" fill="white"/>
<path d="M2904.45 521.745C2904.45 521.745 2900.51 509.257 2898.34 501.154C2896.17 493.051 2893.34 480.266 2893.34 480.266C2893.34 480.266 2893.92 493.514 2896.13 501.746C2898.34 509.979 2904.45 521.745 2904.45 521.745Z" fill="white"/>
<path d="M2755.63 483.955C2755.63 483.955 2748.75 462.132 2744.95 447.972C2741.16 433.812 2736.21 411.471 2736.21 411.471C2736.21 411.471 2737.23 434.623 2741.09 449.008C2744.94 463.393 2755.63 483.955 2755.63 483.955Z" fill="white"/>
<path d="M2763.13 455.456C2763.13 455.456 2759.19 442.968 2757.02 434.865C2754.85 426.761 2752.02 413.977 2752.02 413.977C2752.02 413.977 2752.6 427.225 2754.81 435.457C2757.02 443.69 2763.13 455.456 2763.13 455.456Z" fill="white"/>
<path d="M2731.87 476.718C2731.87 476.718 2727.93 464.229 2725.76 456.126C2723.59 448.023 2720.75 435.238 2720.75 435.238C2720.75 435.238 2721.34 448.487 2723.54 456.719C2725.75 464.951 2731.87 476.718 2731.87 476.718Z" fill="white"/>
<path d="M2920.51 439.771C2955.84 432.641 2995.98 417.982 3014.84 412.535C3038.37 404.274 3093.54 386.713 3132.5 371.23C3171.46 355.747 3187.88 347.414 3209.62 335.118C3231.36 322.821 3234.34 322.582 3241.21 309.748C3248.08 296.914 3246.29 282.896 3243.97 270.947C3241.66 258.997 3232.98 261.945 3229.63 250.001C3226.29 238.057 3222.93 220.625 3222.93 220.625C3222.93 220.625 3213.52 164.075 3203.55 137.378C3187.64 94.7869 3160.02 64.1903 3116 35.8331C3060.97 0.380667 2980.93 -8.30086 2920.84 7.73167C2870.24 21.2327 2797.12 68.0607 2765.33 129.851C2751.15 157.42 2734.3 212.537 2734.3 212.537C2728.14 229.686 2726.16 261.881 2720.78 264.399C2700.77 273.779 2656.16 306.138 2638.7 324.479C2621.24 342.82 2627.05 343.294 2627.09 353.058C2627.13 362.822 2623.01 362.231 2638.89 373.297C2654.77 384.363 2677.95 395.901 2706.5 408.39C2735.05 420.878 2755.3 427.781 2781.64 435.74C2807.97 443.7 2810.42 447.38 2838.2 448.186C2865.98 448.992 2885.19 446.901 2920.51 439.771Z" fill="#C47A02"/>
<path d="M3198.71 163.864C3192.08 151.291 3185.83 138.579 3177.37 127.138C3150.78 91.2277 3116.03 70.6419 3070.48 71.5218C3044.93 72.0154 3022.07 81.5571 3001.23 95.7839C2967.31 118.936 2940.56 148.438 2924.16 186.45C2913.01 212.298 2907.78 238.932 2916.79 266.754C2917.1 267.695 2917.09 268.739 2917.41 271.085C2909.95 264.766 2908.75 256.179 2904.35 248.514C2902.4 252.114 2902.37 255.148 2902.68 258.147C2904.36 274.228 2895.87 284.548 2883.18 292.307C2870.93 299.787 2857.25 298.674 2844.21 296.565C2818.84 292.46 2794.67 283.664 2770.63 274.734C2763.56 272.106 2759.08 259.686 2761.58 249.883C2768.09 224.429 2775.71 199.317 2785.65 174.963C2795.99 149.618 2807.95 125.039 2824.32 103.024C2851.58 66.3792 2883.54 35.3539 2927.79 19.5464C2948.67 12.0869 2970.05 8.57771 2992.17 9.53004C3001.74 9.94172 3011.35 9.51546 3020.83 11.3152C3023.22 11.7683 3025.77 11.6554 3027.1 12.8197C2952.57 38.0981 2907.32 89.3661 2891.1 167.058C2891.79 167.204 2890.91 170.307 2892.68 167.872C2910.04 118.378 2936.85 76.0372 2979.94 45.4608C2996.4 33.7775 3014.53 25.486 3034.6 21.8499C3048.24 19.3791 3060.82 22.4929 3073.22 28.7593C3007.28 30.6314 2959.78 62.9307 2925.37 117.054C2904.56 149.776 2893.19 189.103 2896.39 218.063C2898.42 186.821 2909.24 158.526 2925.71 132.344C2947.14 98.286 2974.61 70.4253 3012.29 54.7319C3062.56 33.8001 3108.22 42.4571 3148.22 79.2082C3172.51 101.527 3188.52 129.387 3199.72 160.672C3200.3 162.159 3199.79 162.942 3198.71 163.864Z" fill="#FEBD02"/>
<path d="M2822.76 418.055C2798.2 415.902 2773.71 406.031 2761.45 403.025C2761.31 403.568 2751.07 402.401 2760.73 405.743C2770.4 409.085 2789.48 416.52 2808.96 420.734C2819.67 423.05 2826.5 423.631 2837.41 424.688C2849.53 425.863 2868.59 424.898 2868.59 424.898C2868.59 424.898 2890.35 425.681 2951.89 403.768C3013.44 381.855 3122.32 337.967 3176.3 315.333C3230.28 292.7 3211.13 297.554 3221.8 290.6C3232.46 283.646 3228.24 283.347 3229.62 280.563C3231.01 277.778 3231.15 275.593 3228.71 276.678C3226.27 277.764 3236.33 276.553 3217.43 285.989C3198.53 295.426 3156.76 316.886 3134.21 323.859C3111.65 330.833 3118.46 319.517 3104.66 320.856C3090.87 322.196 3076.53 326.478 3065.22 330.557C3053.91 334.635 3068 336.904 3048.11 341.251C3028.22 345.598 2985.49 352.842 2965.76 352.291C2946.02 351.74 2980.33 345.968 2949.42 338.495C2918.51 331.022 2851.11 324.249 2811.19 314.925C2771.27 305.602 2764.44 295.721 2749.82 291.877C2735.21 288.032 2744.24 297.066 2738.14 295.703C2732.03 294.341 2724.82 287.384 2719.28 285.065C2713.75 282.746 2719.19 279.019 2710.45 284.11C2701.72 289.202 2685.61 301.777 2675.62 310.52C2665.62 319.264 2662.39 319.931 2660.48 327.827C2658.56 335.724 2660.74 343.333 2666.03 350.004C2671.33 356.675 2663.4 351.897 2686.97 361.183C2710.53 370.468 2750.47 387.183 2783.84 396.431C2817.2 405.679 2827.32 407.672 2853.79 407.423C2880.26 407.173 2876.26 405.921 2916.21 395.184C2956.16 384.447 3056.68 350.755 3053.53 353.739C3050.37 356.723 2900.42 410.105 2900.42 410.105C2900.42 410.105 2876.97 416.262 2861.58 417.808C2846.49 419.323 2837.86 419.38 2822.76 418.055Z" fill="#FEBD02"/>
<path d="M3158.76 122.772C3144.93 113.429 3130.64 107.17 3114.05 107.63C3106.31 107.845 3098.66 108.828 3091.25 111.038C3083.87 113.24 3082.56 115.32 3083.93 122.961C3087.23 141.538 3087.76 160.131 3086.17 178.96C3083.1 215.358 3064.77 242.141 3035.42 262.407C3033.59 263.673 3031.23 264.314 3029.09 268.368C3074.86 257.435 3118.07 242.5 3162.75 232.775C3152.01 237.155 3141.24 241.454 3130.55 245.93C3105.35 256.477 3079.86 266.082 3053.37 273.059C3031.04 278.942 3008.22 280.52 2985.4 282.533C2982.29 282.808 2979.15 282.803 2976.05 283.132C2949.23 285.971 2931.24 269.57 2929.32 242.508C2926.36 200.719 2941.47 165.686 2968.01 134.96C2992.79 106.277 3023.64 86.9812 3061.74 82.1346C3095.47 77.8433 3126.37 85.2646 3151.93 109.379C3155.45 112.701 3157.93 116.788 3161.49 120.593C3161.48 122.195 3160.55 122.718 3158.76 122.772Z" fill="#FFBE02"/>
<path d="M2846.41 58.6701C2844.71 61.4144 2843.3 63.7434 2841.53 65.7523C2815.61 95.1674 2796.39 128.63 2782.07 164.951C2773.59 186.465 2765.96 208.304 2759.17 230.427C2758.64 232.149 2758.71 234.729 2756.69 235.151C2754.24 235.666 2753.6 232.855 2752.29 231.382C2749.15 227.838 2748.81 224.41 2750.42 219.51C2755.38 204.487 2759.17 189.084 2763.71 173.917C2776.24 132.04 2799.38 97.1054 2832.81 68.9646C2836.79 65.6146 2840.72 62.2059 2845.05 58.6396C2845.8 58.3385 2846.17 58.2222 2846.41 58.6701Z" fill="#FCBC04"/>
<path d="M3045.39 287.086C3038.75 284.987 3022.42 288.018 3016.68 288.251C3006.83 289.232 2978.91 292.519 2967.41 293.155C2955.91 293.79 2964.7 336.507 2966.25 345.99C2967.81 355.473 2973.01 346.674 2975.19 340.57C2977.37 334.466 2975.47 321.877 2977.15 315.469C2978.83 309.061 2983.58 308.532 2983.58 308.532L3046.61 302.179L3049.88 298.747C3049.88 298.747 3052.03 289.186 3045.39 287.086Z" fill="#FEBD01"/>
<path d="M3133.85 264.334C3155.78 255.135 3177.3 246.175 3198.76 237.089C3202.58 235.472 3206.14 233.263 3209.89 231.462C3211.51 230.685 3213.42 229.358 3215.04 231.12C3216.53 232.734 3215.48 234.715 3214.83 236.423C3212.79 241.866 3208.36 244.966 3203.45 247.437C3190.73 253.844 3177.04 257.503 3163.41 261.304C3151.78 264.544 3140.21 267.955 3128.56 271.091C3124.16 272.273 3122.07 274.458 3121.78 279.286C3121.19 289.246 3119.99 299.173 3118.88 309.096C3118.64 311.295 3118.83 313.711 3117.24 315.641C3115.28 315.454 3115.68 313.871 3115.69 312.822C3115.79 302.834 3115.98 292.847 3116.15 282.86C3116.29 274.884 3119.87 269.444 3127.69 267.011C3129.67 266.398 3131.51 265.368 3133.85 264.334Z" fill="#FCBB06"/>
<path d="M2758.26 282.511C2790.87 294.858 2823.62 305.044 2857.15 312.813C2890.34 320.505 2924.21 323.006 2958.02 326.131C2938.17 338.289 2769.77 301.811 2749.02 281.385C2752.38 279.487 2755.03 281.768 2758.26 282.511Z" fill="#F9B709"/>
<path d="M3138.67 313.56C3137.81 314.131 3137.27 314.455 3136.69 314.667C3126 318.546 3124.11 317.043 3125.18 305.718C3125.84 298.677 3126.5 291.631 3126.94 284.573C3127.22 280.051 3129.34 277.194 3133.57 275.775C3148.77 270.672 3164.03 265.742 3179.59 261.84C3184.25 260.67 3188.76 261.038 3192.09 265.942C3192.1 266.952 3191.75 267.501 3190.89 268.263C3175.98 271.098 3162.17 276.105 3148.29 280.846C3145.53 281.786 3142.79 282.791 3140.72 285.659C3138.43 289.117 3138.99 292.603 3138.95 296.423C3139.03 299.988 3138.82 303.13 3139.24 306.669C3139.35 307.347 3139.41 307.615 3139.61 308.268C3139.94 309.169 3140.07 309.7 3140.12 310.662C3139.94 311.914 3139.54 312.633 3138.67 313.56Z" fill="#FCBB06"/>
<path d="M2736.16 239.483C2737.31 236.163 2736.09 231.649 2739.55 230.833C2743.18 229.976 2744.72 234.327 2746.96 236.629C2748.82 238.536 2749.46 240.835 2748.89 243.531C2746.31 255.764 2743.83 268.017 2741.24 280.248C2740.91 281.819 2740.79 283.941 2738.87 284.302C2737.01 284.65 2736.12 282.718 2735 281.543C2731.43 277.807 2730.27 273.55 2731.28 268.347C2733.11 258.943 2734.49 249.451 2736.16 239.483Z" fill="#FCBB04"/>
<path d="M2761.46 402.676C2761.51 403.533 2761.14 404.19 2760.57 405.178C2746.77 402.182 2720.93 391.631 2720.93 391.631C2720.93 391.631 2669.51 373.639 2655.21 361.186C2649.96 356.616 2644.32 355.095 2642.61 348.59C2678.21 375.265 2719.89 388.287 2761.46 402.676Z" fill="#F8B50A"/>
<path d="M3035.09 303.429C3036.79 300.899 3039.82 301.198 3042.58 301.446C3046.99 301.842 3048.99 299.91 3049.51 295.385C3050.82 300.298 3052.16 305.535 3053.01 310.85C3053.75 315.423 3055.93 316.47 3060.37 315.725C3073.7 313.485 3086.81 310.316 3099.96 307.274C3102.94 306.585 3105.89 305.457 3109.6 306.078C3108.44 309.121 3105.68 309.071 3103.63 309.69C3091.09 313.479 3078.35 316.45 3065.48 318.86C3054.85 320.85 3054.86 320.895 3053.1 331.771C3050.27 325.63 3050 319.703 3049.07 313.99C3047.3 303.087 3049.3 301.824 3035.09 303.429Z" fill="#F8B50A"/>
<path d="M3217.51 268.173C3219.35 266.992 3220.85 266.054 3222.35 265.115C3222.65 265.557 3222.95 265.999 3223.26 266.441C3216.78 273.657 3208.42 278.358 3198.7 284.291C3200.54 278.388 3204.22 276.936 3207.3 274.908C3210.59 272.746 3213.87 270.579 3217.51 268.173Z" fill="#F8B50A"/>
</svg>
